<?xml version="1.0" encoding="utf-8"?>
<!-- Generator: Adobe Illustrator 25.0.1, SVG Export Plug-In . SVG Version: 6.00 Build 0)  -->
<svg version="1.1" id="Layer_1" xmlns="http://www.w3.org/2000/svg" xmlns:xlink="http://www.w3.org/1999/xlink" x="0px" y="0px"
	 viewBox="0 0 963.4 40.2" style="enable-background:new 0 0 963.4 40.2;" xml:space="preserve">
<style type="text/css">
	.st0{fill:#83CD29;}
	.st1{fill:#404137;}
	.st2{fill:#00B0FF;}
	.st3{fill:#0081CB;}
	.st4{fill:#222222;}
	.st5{fill-rule:evenodd;clip-rule:evenodd;fill:#8E714E;}
	.st6{fill-rule:evenodd;clip-rule:evenodd;fill:#442D22;}
	.st7{fill-rule:evenodd;clip-rule:evenodd;fill:#FFFFFF;}
	.st8{fill-rule:evenodd;clip-rule:evenodd;fill:#A6A385;}
	.st9{fill-rule:evenodd;clip-rule:evenodd;fill:#499D4A;}
	.st10{fill-rule:evenodd;clip-rule:evenodd;fill:#58AA50;}
	.st11{fill:#007ACC;}
	.st12{fill:#FFFFFF;}
	.st13{fill:#61DAFB;}
	.st14{fill:#CB3837;}
	.st15{fill:#6762A6;}
</style>
<symbol  id="A_3" viewBox="-55.8 -15.7 111.6 31.4">
	<g>
		<path class="st0" d="M46.7-4.6c-0.3,0-0.5,0.1-0.8,0.2l-7.4,4.3c-0.5,0.3-0.8,0.8-0.8,1.4v8.5c0,0.6,0.3,1.1,0.8,1.3l1.9,1.1
			c0.9,0.5,1.3,0.5,1.7,0.5c1.4,0,2.2-0.8,2.2-2.3V2c0-0.1-0.1-0.2-0.2-0.2h-0.9C43.1,1.8,43,1.9,43,2v8.4c0,0.6-0.7,1.3-1.8,0.8
			l-2-1.2c-0.1,0-0.1-0.1-0.1-0.2V1.2c0-0.1,0.1-0.2,0.1-0.2l7.4-4.2c0.1,0,0.2,0,0.2,0L54.2,1c0.1,0,0.1,0.1,0.1,0.2v8.5
			c0,0.1,0,0.2-0.1,0.2l-7.4,4.2c-0.1,0-0.2,0-0.2,0L44.7,13c-0.1,0-0.1,0-0.2,0c-0.5,0.3-0.6,0.3-1.1,0.5c-0.1,0-0.3,0.1,0.1,0.3
			l2.5,1.5c0.2,0.1,0.5,0.2,0.8,0.2c0.3,0,0.5-0.1,0.8-0.2l7.4-4.2c0.5-0.3,0.8-0.8,0.8-1.3V1.2c0-0.6-0.3-1.1-0.8-1.4l-7.4-4.3
			C47.2-4.5,47-4.6,46.7-4.6L46.7-4.6z M48.6,1.5c-2.1,0-3.4,0.9-3.4,2.4c0,1.6,1.2,2.1,3.3,2.3c2.4,0.2,2.6,0.6,2.6,1.1
			c0,0.8-0.7,1.2-2.2,1.2c-2,0-2.4-0.5-2.5-1.5c0-0.1-0.1-0.2-0.2-0.2h-1C45.1,6.8,45,6.9,45,7c0,1.2,0.7,2.7,3.9,2.7
			c2.3,0,3.7-0.9,3.7-2.5s-1.1-2-3.4-2.3c-2.3-0.3-2.5-0.5-2.5-1c0-0.4,0.2-1,1.9-1c1.5,0,2.1,0.3,2.3,1.4c0,0.1,0.1,0.2,0.2,0.2h1
			c0.1,0,0.1,0,0.2-0.1c0.1-0.1,0.1-0.1,0.1-0.2C52.2,2.3,51,1.5,48.6,1.5L48.6,1.5z"/>
		<path class="st1" d="M3.2-15.7c-0.1,0-0.2,0-0.2,0.1c-0.1,0.1-0.2,0.2-0.2,0.4v12C2.8-3.1,2.7-3,2.6-3S2.4-2.9,2.3-3l-2-1.1
			C0-4.3-0.3-4.3-0.6-4.1l-7.8,4.5c-0.3,0.2-0.5,0.5-0.5,0.8v9c0,0.3,0.2,0.6,0.5,0.8l7.8,4.5c0.3,0.2,0.6,0.2,0.9,0L8.1,11
			c0.3-0.2,0.5-0.5,0.5-0.8v-22.5c0-0.3-0.2-0.7-0.5-0.8l-4.7-2.6C3.4-15.7,3.3-15.7,3.2-15.7z M-47.1-4.5c-0.2,0-0.3,0-0.4,0.1
			l-7.8,4.5c-0.3,0.2-0.5,0.5-0.5,0.8V13c0,0.2,0.1,0.3,0.2,0.4c0.1,0.1,0.3,0.1,0.5,0l4.6-2.7c0.3-0.2,0.5-0.5,0.5-0.8V4.4
			c0-0.3,0.2-0.6,0.5-0.8l2-1.1c0.1-0.1,0.3-0.1,0.5-0.1c0.2,0,0.3,0,0.5,0.1l2,1.1c0.2,0.1,0.4,0.4,0.4,0.8V10
			c0,0.3,0.2,0.6,0.5,0.8l4.6,2.7c0.1,0.1,0.3,0.1,0.5,0c0.1-0.1,0.2-0.2,0.2-0.4V1c0-0.3-0.2-0.6-0.5-0.8l-7.8-4.5
			C-46.7-4.4-46.8-4.4-47.1-4.5L-47.1-4.5L-47.1-4.5z M23.2-4.4c-0.2,0-0.3,0-0.5,0.1l-7.8,4.6c-0.3,0.2-0.5,0.5-0.5,0.8v9
			c0,0.3,0.2,0.7,0.5,0.8l7.8,4.4c0.3,0.2,0.6,0.2,0.9,0l4.7-2.6c0.2-0.1,0.2-0.2,0.2-0.4s0-0.3-0.1-0.3l-7.9-4.5
			c-0.1-0.1-0.2-0.3-0.2-0.4V4.2c0-0.2,0.1-0.3,0.2-0.4l2.4-1.4c0.1-0.1,0.3-0.1,0.5,0l2.4,1.4C25.9,3.9,26,4,26,4.2v2.2
			c0,0.2,0.1,0.3,0.2,0.4s0.3,0.1,0.5,0l4.7-2.7c0.4-0.2,0.5-0.5,0.5-0.8V1.1c0-0.3-0.2-0.6-0.5-0.8l-7.8-4.5
			C23.6-4.3,23.4-4.4,23.2-4.4L23.2-4.4z M-0.2,2.4L-0.2,2.4L2.6,4c0.1,0,0.1,0.1,0.1,0.2v3.1c0,0.1-0.1,0.2-0.1,0.2L0,9
			c-0.1,0-0.2,0-0.2,0l-2.7-1.6c-0.1,0-0.2,0-0.2-0.1V4.2C-3.1,4.1-3,4-3,4l2.7-1.6C-0.2,2.4-0.2,2.4-0.2,2.4L-0.2,2.4z"/>
		<path class="st0" d="M-23.6-4.4c-0.2,0-0.3,0-0.5,0.1l-7.8,4.5c-0.3,0.2-0.5,0.5-0.5,0.8v9c0,0.3,0.2,0.6,0.5,0.8l7.8,4.5
			c0.3,0.2,0.6,0.2,0.9,0l7.8-4.5c0.3-0.2,0.5-0.5,0.5-0.8V1c0-0.3-0.2-0.7-0.5-0.8l-7.7-4.5C-23.3-4.3-23.4-4.4-23.6-4.4L-23.6-4.4
			z M23.2,3.7C23.2,3.7,23.1,3.7,23.2,3.7l-1.6,0.9c-0.1,0-0.1,0.1-0.1,0.2v1.7c0,0.1,0,0.1,0.1,0.2l1.5,0.9c0.1,0,0.1,0,0.2,0
			l1.5-0.9c0.1,0,0.1-0.1,0.1-0.2V4.7c0-0.1,0-0.1-0.1-0.2L23.2,3.7C23.3,3.7,23.2,3.7,23.2,3.7z"/>
	</g>
</symbol>
<path class="st2" d="M157.8,21.9V0l18.9,10.9v7.3l-12.6-7.3v14.6L157.8,21.9z"/>
<path class="st3" d="M176.7,10.9L195.6,0v21.9L183,29.2l-6.3-3.6l12.6-7.3V11l-12.6,7.3V10.9z"/>
<path class="st2" d="M176.7,25.5v7.3l12.6,7.3v-7.3L176.7,25.5z"/>
<path class="st3" d="M189.3,40.1l18.9-10.9V14.6l-6.3,3.6v7.3l-12.6,7.3C189.3,32.8,189.3,40.1,189.3,40.1z M202,10.9V3.7l6.3-3.6
	v7.3L202,10.9z"/>
<path class="st4" d="M429.8,31.2V15.8H449v-0.9h-19.2v-14h20.4V0h-21.3v32.1h21.5v-0.9L429.8,31.2L429.8,31.2z M467.7,9l-7.9,10.5
	L451.9,9h-1.2l8.4,11.2l-9.2,11.9h1.1l8.7-11.3l8.7,11.3h1.1l-9.3-12L468.7,9H467.7L467.7,9z M472.3,40V25.6h0.1
	c0.5,2.1,1.6,3.8,3.2,5.1c1.6,1.3,3.6,1.9,6.1,1.9c1.6,0,3-0.3,4.2-1c1.2-0.6,2.2-1.5,3.1-2.6c0.8-1.1,1.4-2.4,1.9-3.9
	c0.4-1.5,0.6-3,0.6-4.6c0-1.7-0.2-3.3-0.7-4.8s-1.1-2.7-1.9-3.8c-0.9-1.1-1.9-1.9-3.1-2.5s-2.6-0.9-4.1-0.9c-1.2,0-2.2,0.2-3.3,0.5
	c-1,0.3-1.9,0.8-2.7,1.5c-0.8,0.7-1.5,1.4-2,2.2c-0.6,0.9-1,1.8-1.3,2.8h-0.1V9h-0.9v31H472.3L472.3,40z M481.6,31.7
	c-2.8,0-5.1-1-6.8-2.9c-1.7-1.9-2.6-4.7-2.6-8.3c0-1.5,0.2-2.9,0.6-4.3c0.4-1.4,1-2.5,1.8-3.6c0.8-1,1.8-1.8,2.9-2.4
	c1.2-0.6,2.5-0.9,4-0.9s2.8,0.3,3.9,0.9c1.1,0.6,2.1,1.4,2.8,2.4c0.7,1,1.3,2.2,1.7,3.5s0.6,2.8,0.6,4.2s-0.2,2.7-0.5,4
	c-0.3,1.3-0.9,2.5-1.6,3.6s-1.6,1.9-2.8,2.6C484.6,31.4,483.2,31.7,481.6,31.7L481.6,31.7z M496.4,32.1V19c0-1.3,0.2-2.5,0.5-3.7
	c0.3-1.2,0.9-2.2,1.7-3.2c0.8-0.9,1.7-1.6,2.9-2.2c1.1-0.5,2.5-0.7,4.1-0.6V8.4c-1.4,0-2.6,0.1-3.6,0.4c-1,0.3-1.9,0.8-2.7,1.4
	c-0.8,0.6-1.4,1.2-1.8,2c-0.4,0.8-0.8,1.6-1,2.4h-0.1V9h-0.9v23.1H496.4L496.4,32.1z M506.7,20.7H526c0.1-1.6-0.1-3.1-0.5-4.6
	c-0.4-1.5-1-2.8-1.8-3.9s-1.9-2.1-3.2-2.7c-1.3-0.7-2.9-1-4.6-1c-1.3,0-2.5,0.3-3.8,0.8c-1.2,0.5-2.3,1.3-3.2,2.4
	c-0.9,1-1.7,2.3-2.2,3.8s-0.9,3.2-0.9,5.1c0,1.7,0.2,3.3,0.6,4.8c0.4,1.5,1,2.8,1.8,3.9s1.9,1.9,3.1,2.5c1.3,0.6,2.8,0.9,4.6,0.8
	c2.6,0,4.9-0.7,6.6-2.2c1.8-1.5,2.9-3.6,3.2-6.3h-0.9c-0.4,2.5-1.4,4.5-3,5.7c-1.6,1.3-3.6,1.9-6.1,1.9c-1.6,0-3-0.3-4.2-0.9
	c-1.1-0.6-2.1-1.4-2.8-2.3c-0.7-1-1.2-2.1-1.6-3.5C506.9,23.7,506.7,22.3,506.7,20.7L506.7,20.7z M525.1,19.8h-18.4
	c0.1-1.6,0.4-3.1,0.9-4.4s1.2-2.4,2-3.3s1.8-1.6,2.9-2.1c1.1-0.5,2.3-0.7,3.5-0.7c1.5,0,2.8,0.3,4,0.8c1.1,0.6,2.1,1.3,2.9,2.3
	s1.3,2.1,1.7,3.4C524.9,17.1,525.1,18.4,525.1,19.8L525.1,19.8z M544.7,15.8h0.9c0-2.6-0.8-4.4-2.2-5.6s-3.5-1.8-6.1-1.8
	c-1.4,0-2.6,0.2-3.6,0.5c-1,0.4-1.8,0.8-2.4,1.4c-0.6,0.6-1.1,1.2-1.4,1.9s-0.4,1.4-0.4,2c0,1.3,0.2,2.3,0.7,3
	c0.4,0.8,1.1,1.3,2.1,1.8c0.7,0.3,1.4,0.6,2.2,0.8c0.8,0.2,1.8,0.5,2.9,0.8c1,0.2,2,0.5,2.9,0.7c1,0.2,1.8,0.6,2.5,1
	s1.3,0.9,1.8,1.5s0.7,1.5,0.7,2.5s-0.2,1.8-0.7,2.5s-1.1,1.3-1.8,1.7c-0.7,0.4-1.5,0.8-2.4,0.9c-0.9,0.1-1.8,0.3-2.6,0.3
	c-2.7,0-4.8-0.6-6.3-1.8c-1.4-1.2-2.2-3.1-2.2-5.7h-0.9c0,2.9,0.8,5,2.4,6.4c1.6,1.4,3.9,2,7,2c1,0,2-0.1,3-0.3s1.9-0.6,2.7-1.1
	c0.8-0.5,1.5-1.2,1.9-2c0.5-0.8,0.7-1.8,0.7-3c0-1.1-0.2-2-0.6-2.7c-0.4-0.7-1-1.3-1.7-1.7c-0.7-0.5-1.5-0.8-2.4-1.1
	c-0.9-0.3-1.8-0.5-2.7-0.7c-1.1-0.3-2.2-0.6-3.3-0.9c-0.9-0.2-1.8-0.5-2.6-0.9c-0.8-0.3-1.4-0.8-1.9-1.4s-0.7-1.5-0.7-2.6
	c0-0.2,0.1-0.6,0.2-1.1c0.1-0.5,0.4-1.1,0.9-1.6c0.4-0.6,1.1-1.1,2.1-1.5c0.9-0.4,2.2-0.6,3.8-0.6c1.1,0,2.1,0.1,3,0.4
	c0.9,0.3,1.7,0.6,2.4,1.1s1.2,1.2,1.5,2C544.5,13.7,544.7,14.7,544.7,15.8L544.7,15.8z M565.5,15.8h0.9c0-2.6-0.8-4.4-2.2-5.6
	s-3.5-1.8-6.1-1.8c-1.4,0-2.6,0.2-3.6,0.5c-1,0.4-1.8,0.8-2.4,1.4c-0.6,0.6-1.1,1.2-1.4,1.9s-0.4,1.4-0.4,2c0,1.3,0.2,2.3,0.7,3
	c0.4,0.8,1.1,1.3,2.1,1.8c0.7,0.3,1.4,0.6,2.2,0.8c0.8,0.2,1.8,0.5,2.9,0.8c1,0.2,2,0.5,2.9,0.7c1,0.2,1.8,0.6,2.5,1
	s1.3,0.9,1.8,1.5s0.7,1.5,0.7,2.5s-0.2,1.8-0.7,2.5s-1.1,1.3-1.8,1.7c-0.7,0.4-1.5,0.8-2.4,0.9c-0.9,0.2-1.8,0.3-2.6,0.3
	c-2.7,0-4.8-0.6-6.3-1.8c-1.5-1.2-2.2-3.1-2.2-5.7h-0.8c0,2.9,0.8,5,2.4,6.4c1.6,1.4,3.9,2,7,2c1,0,2-0.1,3-0.3s1.9-0.6,2.7-1.1
	s1.4-1.2,1.9-2s0.7-1.8,0.7-3c0-1.1-0.2-2-0.6-2.7c-0.4-0.7-1-1.3-1.7-1.7c-0.7-0.5-1.5-0.8-2.4-1.1c-0.9-0.3-1.8-0.5-2.7-0.7
	c-1.1-0.3-2.2-0.6-3.3-0.9c-0.9-0.2-1.8-0.5-2.6-0.9c-0.8-0.3-1.4-0.8-1.9-1.4s-0.7-1.5-0.7-2.6c0-0.2,0.1-0.6,0.2-1.1
	c0.1-0.5,0.4-1.1,0.9-1.6s1.1-1.1,2.1-1.5s2.2-0.6,3.8-0.6c1.1,0,2.1,0.1,3,0.4c0.9,0.3,1.7,0.6,2.4,1.1c0.7,0.5,1.2,1.2,1.5,2
	C565.3,13.7,565.5,14.7,565.5,15.8L565.5,15.8z"/>
<g>
	<path class="st5" d="M738.9,16.5c-0.1,0-0.2,0.3-0.2,0.5c0,1,0,3.7,0,5.5l0.1,0.1c0.4,0,1.3,0,2.1,0c1.1,0,1.7-0.1,2.1-0.3
		c0.9-0.5,1.3-1.4,1.3-2.5c0-2.5-1.7-3.4-4.3-3.4C739.8,16.5,739.3,16.5,738.9,16.5L738.9,16.5z M745.5,27.9c0-2.5-1.9-3.9-5.2-3.9
		c-0.1,0-1.2,0-1.5,0c-0.1,0-0.2,0.1-0.2,0.1c0,1.8,0,4.7,0,5.8c0,0.5,0.4,1.2,0.8,1.4c0.5,0.2,1.5,0.3,2.2,0.3
		C743.7,31.6,745.5,30.5,745.5,27.9L745.5,27.9z M733.8,15.2c0.2,0,1,0.1,3,0.1c1.9,0,3.3-0.1,5.1-0.1c2.2,0,5.2,0.8,5.2,4.1
		c0,1.6-1.1,2.9-2.6,3.5c-0.1,0-0.1,0.1,0,0.1c2.1,0.5,4,1.9,4,4.3s-1.5,4-3.7,4.9c-1.3,0.6-3,0.8-4.7,0.8c-1.3,0-4.8-0.2-6.7-0.1
		c-0.2-0.1,0.2-1,0.4-1.1c0.5,0,0.8,0,1.3-0.2c0.7-0.2,0.8-0.4,0.9-1.4c0-0.9,0-4,0-6.3c0-3.1,0-5.1,0-6.2c0-0.8-0.3-1-0.9-1.2
		c-0.4-0.1-1.1-0.2-1.7-0.2C733.2,16.1,733.6,15.3,733.8,15.2L733.8,15.2z M719.1,30.9c0.6,0.5,1.8,0.7,2.9,0.7c1.4,0,2.7-0.2,4-1.4
		c1.3-1.2,2.3-3.1,2.3-6.1c0-2.9-1.1-5.2-3.3-6.6c-1.3-0.8-2.9-1.1-4.8-1.1c-0.6,0-1.1,0-1.4,0.2c-0.1,0-0.2,0.3-0.2,0.4
		c0,0.5,0,4.4,0,6.7c0,2.4,0,5.6,0,6S718.8,30.7,719.1,30.9L719.1,30.9z M713.4,15.2c0.5,0,2.3,0.1,3.2,0.1c1.6,0,2.7-0.1,5.8-0.1
		c2.5,0,4.7,0.7,6.2,2c1.9,1.6,2.8,3.8,2.8,6.5c0,3.8-1.8,6-3.5,7.3c-1.8,1.3-4,2-7.3,2c-1.7,0-4.7,0-7.1-0.1l0,0
		c-0.1-0.2,0.2-1.1,0.4-1.1c0.7-0.1,0.8-0.1,1.2-0.2c0.5-0.2,0.6-0.5,0.7-1.4c0.1-1.8,0-3.9,0-6.2c0-1.7,0-5,0-6.1
		c-0.1-0.9-0.5-1.1-1.2-1.3c-0.4-0.1-0.9-0.2-1.6-0.2C712.8,16.1,713.3,15.3,713.4,15.2L713.4,15.2z"/>
	<path class="st6" d="M682.7,31.9c-0.6-0.1-1.1-0.2-1.6-0.4c-0.1,0-0.2-0.3-0.2-0.4c0-0.9,0-3.4,0-5.1c0-1.4-0.2-2.6-0.8-3.4
		c-0.7-1-1.7-1.5-2.9-1.5c-1.1,0-2.6,0.8-3.9,1.8c0,0-0.2,0.2-0.2-0.1c0-0.3,0-0.8,0.1-1.2c0-0.4-0.2-0.5-0.2-0.5
		c-0.8,0.4-3.1,0.9-3.9,1c-0.6,0.1-0.8,0.7-0.1,0.9l0,0c0.7,0.2,1.1,0.4,1.5,0.7c0.2,0.2,0.2,0.5,0.2,0.7c0,1.9,0,4.8,0,6.4
		c0,0.6-0.2,0.9-0.7,1l0,0c-0.4,0.1-0.6,0.1-1.1,0.2c-0.1,0.1-0.1,1,0,1.1c0.3,0,1.8-0.1,3-0.1c1.7,0,2.5,0.1,3,0.1
		c0.2-0.2,0.2-1,0.1-1.1c-0.5,0-0.8-0.1-1.2-0.2c-0.5-0.1-0.6-0.3-0.6-0.9c0-1.3,0-4.2,0-6.1c0-0.5,0.1-0.8,0.3-0.9
		c0.6-0.5,1.5-0.9,2.4-0.9c0.8,0,1.3,0.2,1.8,0.6c0.6,0.5,0.7,1.1,0.8,1.6c0.1,1.1,0.1,3.2,0.1,5.1c0,1-0.1,1.3-0.5,1.4
		c-0.2,0.1-0.6,0.2-1.2,0.2c-0.2,0.2-0.1,1,0,1.1c0.7,0,1.6-0.1,2.9-0.1c1.6,0,2.6,0.1,3,0.1C682.8,32.8,682.8,32.1,682.7,31.9
		L682.7,31.9z M689.8,22.2c-1.3,0-2.2,1-2.2,2.7c0,1.6,0.7,3.5,2.8,3.5c0.4,0,1-0.1,1.3-0.5c0.5-0.5,0.8-1.4,0.8-2.3
		C692.5,23.5,691.5,22.2,689.8,22.2L689.8,22.2z M689.6,33.4c-0.5,0-0.9,0.2-1.1,0.3c-1.1,0.7-1.5,1.3-1.5,2.1
		c0,0.7,0.3,1.3,0.9,1.8c0.7,0.6,1.8,0.9,3,0.9c2.6,0,3.7-1.4,3.7-2.8c0-1-0.5-1.6-1.5-2C692.4,33.6,691.1,33.4,689.6,33.4
		L689.6,33.4z M689.8,40c-1.5,0-2.7-0.3-3.6-1.1c-0.9-0.7-1.3-1.8-1.3-2.5c0-0.2,0-0.8,0.5-1.3c0.3-0.3,0.9-0.9,2.3-1.9
		c0,0,0.1,0,0.1-0.1s0-0.1-0.1-0.1c-1.2-0.5-1.5-1.2-1.6-1.6l0,0c0-0.1-0.1-0.3,0.1-0.5c0.2-0.1,0.4-0.3,0.7-0.5
		c0.4-0.2,0.9-0.5,1.2-0.8v-0.1c0,0,0-0.1-0.1-0.1c-1.8-0.6-2.7-1.9-2.7-3.9c0-1.3,0.6-2.5,1.6-3.2c0.7-0.6,2.5-1.2,3.6-1.2h0.1
		c1.2,0,1.9,0.3,2.8,0.6c0.5,0.2,1,0.2,1.6,0.2c1,0,1.4-0.3,1.8-0.7c0,0,0.1,0.2,0.1,0.5s-0.1,0.8-0.3,1.2c-0.2,0.3-0.7,0.5-1.1,0.5
		h-0.1c-0.5,0-0.7-0.1-0.7-0.1h-0.1c0,0,0,0.1,0,0.2l0,0c0,0.2,0.1,0.9,0.1,1.1c0,2.1-0.8,3-1.7,3.7c-0.9,0.6-1.9,1-3,1.1
		c0,0-0.1,0-0.4,0c-0.1,0-0.3,0-0.3,0l0,0c-0.2,0-0.7,0.3-0.7,0.7c0,0.4,0.2,0.8,1.3,0.9c0.2,0,0.5,0,0.7,0c1.4,0.1,3.2,0.2,4.1,0.5
		c1.2,0.4,1.9,1.5,1.9,2.7c0,1.9-1.3,3.6-3.6,4.7C692,39.8,691,40,689.8,40L689.8,40z M704.2,22.3c-0.5,0-1,0.1-1.4,0.4
		c-1,0.6-1.5,1.8-1.5,3.6c0,3.3,1.7,5.6,4,5.6c0.7,0,1.3-0.2,1.8-0.6c0.7-0.6,1.1-1.8,1.1-3.5C708.3,24.6,706.6,22.3,704.2,22.3
		L704.2,22.3z M704.7,33.2c-4.3,0-5.9-3.2-5.9-6.1c0-2.1,0.8-3.7,2.5-4.8c1.2-0.7,2.6-1.1,3.9-1.1c3.3,0,5.6,2.4,5.6,5.8
		c0,2.3-0.9,4.1-2.7,5.2C707.3,32.7,705.8,33.2,704.7,33.2L704.7,33.2L704.7,33.2z M659.5,22.3c-0.5,0-1,0.1-1.4,0.4
		c-1,0.6-1.5,1.8-1.5,3.6c0,3.3,1.7,5.6,4,5.6c0.7,0,1.3-0.2,1.8-0.6c0.7-0.6,1.1-1.8,1.1-3.5C663.6,24.6,661.9,22.3,659.5,22.3
		L659.5,22.3z M660,33.2c-4.3,0-5.9-3.2-5.9-6.1c0-2.1,0.8-3.7,2.5-4.8c1.2-0.7,2.6-1.1,3.9-1.1c3.3,0,5.6,2.4,5.6,5.8
		c0,2.3-0.9,4.1-2.7,5.2C662.6,32.7,661.2,33.2,660,33.2L660,33.2z M631,32.9c0-0.1-0.1-0.3-0.1-0.6c0-0.2,0-0.3,0.1-0.4
		c0.5-0.1,0.8-0.1,1.1-0.2c0.5-0.1,0.7-0.4,0.7-1c0.1-1.5,0.1-4.4,0-6.4l0,0c0-0.2,0-0.5-0.3-0.7c-0.4-0.2-0.9-0.5-1.5-0.7
		c-0.2-0.1-0.4-0.2-0.4-0.4c0-0.1,0.1-0.3,0.5-0.4c0.8-0.1,3-0.6,3.9-1c0,0,0.1,0.2,0.1,0.4v0.3c0,0.3,0,0.6,0,0.9
		c0,0.1,0.1,0.2,0.2,0.2h0.1c1.6-1.3,3.1-1.7,3.9-1.7c1.2,0,2.2,0.6,2.9,1.8c0,0.1,0.1,0.1,0.2,0.1c0,0,0.1,0,0.1-0.1
		c1.5-1.1,3-1.8,4-1.8c2.4,0,3.8,1.8,3.8,4.7c0,0.8,0,1.9,0,2.9c0,0.9,0,1.7,0,2.3c0,0.1,0.2,0.5,0.5,0.6c0.4,0.2,0.8,0.2,1.5,0.4
		l0,0c0,0.2,0,0.8-0.1,1c-0.1,0-0.4,0-0.6,0c-0.6,0-1.3,0-1.9,0c-1.6,0-2.4,0-3.2,0.1c0-0.2-0.1-0.8,0-1c0.5-0.1,0.7-0.1,1-0.2
		c0.5-0.1,0.6-0.4,0.7-1c0-0.5,0.1-4.6,0-5.6c-0.1-1-0.9-2.2-2.6-2.2c-0.6,0-1.6,0.2-2.6,1l-0.1,0.2l0,0c0.1,0.5,0.1,1.1,0.1,2.1V28
		c0,1.1,0,2.2,0,3c0,0.6,0.3,0.7,0.6,0.8c0.1,0,0.2,0,0.4,0.1c0.2,0,0.5,0.1,0.8,0.2c0,0.1,0,0.4,0,0.7c0,0.2-0.1,0.2-0.1,0.2
		c-0.9,0-1.8,0-3,0c-0.4,0-1,0-1.6,0c-0.5,0-0.9,0-1.1,0c0,0-0.1-0.2-0.1-0.5c0-0.2,0-0.4,0.1-0.5c0.1,0,0.2,0,0.4,0
		c0.3,0,0.6-0.1,0.8-0.1c0.4-0.1,0.6-0.4,0.6-0.9c0.1-1.3,0.1-4.9,0-5.8c-0.3-1.5-1.1-2.2-2.5-2.2c-0.8,0-1.8,0.4-2.6,1
		c-0.1,0.1-0.2,0.4-0.2,0.6V26c0,1.8,0,4.1,0,5.1c0,0.3,0.1,0.7,0.7,0.8c0.1,0,0.3,0.1,0.6,0.1l0.5,0.1c0,0.2,0,0.8-0.1,1
		c-0.2,0-0.6,0-0.9,0c-0.5,0-1.2,0-2,0c-0.9,0-1.5,0-2,0C631.6,32.9,631.3,32.9,631,32.9L631,32.9z"/>
	<path class="st7" d="M617.7,39l-1-0.3c0,0,0.1-5.3-1.8-5.7c-1.3-1.5,0.2-62.3,4.8-0.2c0,0-1.6,0.8-1.9,2.1
		C617.5,36.2,617.7,39,617.7,39L617.7,39z"/>
	<path class="st8" d="M617.7,39l-1-0.3c0,0,0.1-5.3-1.8-5.7c-1.3-1.5,0.2-62.3,4.8-0.2c0,0-1.6,0.8-1.9,2.1
		C617.5,36.2,617.7,39,617.7,39L617.7,39z"/>
	<path class="st7" d="M618.2,33.9c0,0,9.1-6,7-18.4c-2-9-6.9-12-7.4-13.1c-0.6-0.8-1.1-2.2-1.1-2.2l0.4,25.1
		C617,25.3,616.2,33,618.2,33.9"/>
	<path class="st9" d="M618.2,33.9c0,0,9.1-6,7-18.4c-2-9-6.9-12-7.4-13.1c-0.6-0.8-1.1-2.2-1.1-2.2l0.4,25.1
		C617,25.3,616.2,33,618.2,33.9"/>
	<path class="st7" d="M616.1,34.2c0,0-8.5-5.8-8-16.1s6.5-15.3,7.7-16.2c0.8-0.8,0.8-1.1,0.8-1.9c0.5,1.1,0.4,17,0.5,18.9
		C617.3,26.1,616.7,32.9,616.1,34.2z"/>
	<path class="st10" d="M616.1,34.2c0,0-8.5-5.8-8-16.1s6.5-15.3,7.7-16.2c0.8-0.8,0.8-1.1,0.8-1.9c0.5,1.1,0.4,17,0.5,18.9
		C617.3,26.1,616.7,32.9,616.1,34.2z"/>
</g>
<g>
	<defs>
		<rect id="SVGID_1_" x="247.3" y="0.2" width="140.5" height="39.7"/>
	</defs>
	<clipPath id="SVGID_2_">
		<use xlink:href="#SVGID_1_"  style="overflow:visible;"/>
	</clipPath>
	<g style="clip-path:url(#SVGID_2_);">
		
			<use xlink:href="#A_3"  width="111.6" height="31.4" x="-55.8" y="-15.7" transform="matrix(1.2614 0 0 1.2614 317.6861 19.9735)" style="overflow:visible;"/>
	</g>
</g>
<g>
	<path class="st11" d="M83,20.2v-20h40v40H83"/>
	<path class="st12" d="M91.8,20.2v1.6H97v14.8h3.7V21.9h5.2v-1.6c0-0.9,0-1.6,0-1.6s-3.2,0-7,0h-7L91.8,20.2L91.8,20.2L91.8,20.2z
		 M115.1,18.6c1,0.2,1.8,0.7,2.5,1.4c0.4,0.4,0.9,1.1,1,1.3c0,0.1-1.7,1.2-2.8,1.9c0,0-0.2-0.1-0.4-0.4c-0.5-0.7-1.1-1.1-1.9-1.1
		c-1.2-0.1-2,0.5-2,1.6c0,0.3,0.1,0.5,0.2,0.8c0.3,0.5,0.8,0.9,2.3,1.6c2.9,1.2,4.1,2,4.9,3.2c0.8,1.3,1,3.3,0.5,4.9
		c-0.6,1.7-2.2,2.8-4.4,3.2c-0.7,0.1-2.3,0.1-3,0c-1.6-0.3-3.1-1.1-4.1-2.1c-0.4-0.4-1.1-1.5-1-1.5l0.4-0.2l1.5-0.9l1.1-0.7l0.3,0.4
		c0.3,0.5,1.1,1.2,1.5,1.5c1.3,0.7,3,0.6,3.9-0.2c0.4-0.3,0.5-0.7,0.5-1.2s-0.1-0.7-0.3-1c-0.3-0.4-1-0.8-2.8-1.6
		c-2.1-0.9-3-1.4-3.8-2.3c-0.5-0.5-0.9-1.3-1.1-2c-0.2-0.6-0.2-2-0.1-2.6c0.4-2,1.9-3.4,4.1-3.8C112.8,18.3,114.5,18.4,115.1,18.6
		L115.1,18.6L115.1,18.6z"/>
</g>
<g>
	<path class="st13" d="M44.9,20.1c0-3-3.7-5.8-9.4-7.5c1.3-5.8,0.7-10.5-1.9-12c-0.6-0.3-1.3-0.5-2-0.5v2c0.4,0,0.8,0.1,1,0.2
		c1.3,0.8,1.8,3.5,1.4,7c-0.1,0.9-0.3,1.8-0.5,2.7c-1.8-0.4-3.8-0.8-5.8-1c-1.2-1.7-2.5-3.2-3.8-4.6c3-2.8,5.8-4.3,7.7-4.3v-2l0,0
		c-2.5,0-5.8,1.8-9.2,4.9c-3.3-3.1-6.6-4.9-9.2-4.9v2c1.9,0,4.7,1.5,7.7,4.3c-1.3,1.3-2.6,2.9-3.8,4.6c-2.1,0.2-4,0.6-5.8,1
		c-0.2-0.9-0.4-1.8-0.5-2.7c-0.4-3.5,0.1-6.2,1.3-6.9c0.3-0.2,0.6-0.2,1.1-0.2v-2l0,0c-0.8,0-1.5,0.2-2.1,0.5
		c-2.4,1.5-3,6.1-1.7,11.9C3.7,14.4,0,17.2,0,20.1c0,3,3.7,5.8,9.4,7.5c-1.3,5.9-0.7,10.5,1.9,12c0.6,0.3,1.3,0.5,2.1,0.5
		c2.5,0,5.8-1.8,9.2-4.9c3.3,3.1,6.6,4.9,9.2,4.9c0.8,0,1.5-0.2,2.1-0.5c2.6-1.5,3.2-6.1,1.8-11.9C41.2,25.9,44.9,23.1,44.9,20.1z
		 M33,14c-0.3,1.2-0.8,2.4-1.2,3.6c-0.4-0.7-0.8-1.5-1.2-2.2c-0.4-0.7-0.9-1.4-1.3-2.1C30.6,13.5,31.8,13.7,33,14z M28.8,23.8
		c-0.7,1.2-1.4,2.4-2.2,3.5c-1.4,0.1-2.8,0.2-4.1,0.2c-1.4,0-2.8-0.1-4.1-0.2c-0.8-1.1-1.5-2.2-2.2-3.5c-0.7-1.2-1.3-2.4-1.9-3.6
		c0.6-1.2,1.2-2.5,1.9-3.6c0.7-1.2,1.4-2.4,2.2-3.5c1.4-0.1,2.8-0.2,4.1-0.2c1.4,0,2.8,0.1,4.1,0.2c0.8,1.1,1.5,2.2,2.2,3.5
		c0.7,1.2,1.3,2.4,1.9,3.6C30.1,21.3,29.5,22.6,28.8,23.8z M31.8,22.6c0.5,1.2,0.9,2.5,1.3,3.6c-1.2,0.3-2.5,0.5-3.8,0.7
		c0.4-0.7,0.9-1.4,1.3-2.2C31,24.1,31.4,23.3,31.8,22.6z M22.5,32.4c-0.8-0.9-1.7-1.9-2.6-2.9c0.8,0,1.7,0.1,2.5,0.1
		c0.9,0,1.7,0,2.6-0.1C24.2,30.5,23.3,31.5,22.5,32.4z M15.7,27c-1.3-0.2-2.6-0.4-3.8-0.7c0.3-1.2,0.8-2.4,1.2-3.6
		c0.4,0.7,0.8,1.5,1.2,2.2S15.2,26.3,15.7,27z M22.4,7.9c0.8,0.9,1.7,1.9,2.6,2.9c-0.8,0-1.7-0.1-2.5-0.1c-0.9,0-1.7,0-2.6,0.1
		C20.8,9.8,21.6,8.8,22.4,7.9z M15.7,13.3c-0.4,0.7-0.9,1.4-1.3,2.2c-0.4,0.7-0.8,1.5-1.2,2.2c-0.5-1.2-0.9-2.5-1.3-3.6
		C13.1,13.7,14.4,13.5,15.7,13.3z M7.4,24.8C4.1,23.4,2,21.6,2,20.1c0-1.4,2.1-3.3,5.3-4.6c0.8-0.3,1.7-0.6,2.5-0.9
		c0.5,1.8,1.2,3.7,2.1,5.6c-0.8,1.9-1.5,3.8-2,5.5C9,25.4,8.2,25.1,7.4,24.8z M12.3,37.9c-1.2-0.7-1.8-3.4-1.4-6.9
		c0.1-0.9,0.3-1.8,0.5-2.7c1.8,0.4,3.8,0.8,5.8,1c1.2,1.7,2.5,3.2,3.8,4.6c-3,2.8-5.8,4.3-7.7,4.3C12.9,38.1,12.6,38,12.3,37.9z
		 M34,30.9c0.4,3.5-0.1,6.2-1.3,6.9C32.4,38,32.1,38,31.6,38c-1.9,0-4.7-1.5-7.7-4.3c1.3-1.3,2.6-2.9,3.8-4.6c2.1-0.2,4-0.6,5.8-1
		C33.8,29.1,33.9,30,34,30.9z M37.6,24.8c-0.8,0.3-1.7,0.6-2.5,0.9c-0.5-1.8-1.2-3.7-2.1-5.6c0.8-1.9,1.5-3.8,2-5.6
		c0.9,0.3,1.8,0.6,2.6,0.9c3.2,1.4,5.3,3.2,5.3,4.6C42.9,21.6,40.8,23.4,37.6,24.8z"/>
	<path class="st13" d="M13.3,0.2L13.3,0.2L13.3,0.2z"/>
	<circle class="st13" cx="22.5" cy="20.1" r="4.2"/>
	<path class="st13" d="M31.6,0.1L31.6,0.1L31.6,0.1z"/>
</g>
<g>
	<path class="st14" d="M787.6,0.2v34.3h28.5v5.7h22.8v-5.7h51.3V0.2H787.6z"/>
	<path class="st12" d="M804.6,5.9h-11.3v22.8h11.3v-17h5.7v17h5.7V5.9H804.6z M821.8,5.9v28.5h11.5v-5.7h11.3V5.9H821.8z M838.9,23
		h-5.5V11.7h5.5V23z M861.6,5.9h-11.3v22.8h11.3v-17h5.7v17h5.7v-17h5.7v17h5.7V5.9H861.6z"/>
</g>
<g>
	<path class="st15" d="M959.6,40.2H935c-2.1,0-3.8-1.7-3.8-3.8V4c0-2.1,1.7-3.8,3.8-3.8h24.6c2.1,0,3.8,1.7,3.8,3.8v32.4
		C963.4,38.5,961.7,40.2,959.6,40.2L959.6,40.2z"/>
	<path class="st12" d="M951.7,34.6l-0.4-15.9c0,0,1-3.8-12.7,1.8c0,0.1-0.4-14.7-0.4-14.7l4.5-0.1l0.3,9.5c0,0,12.5-5.2,12.7,3.5
		l0.4,15.8L951.7,34.6L951.7,34.6z M953.8,11.2l-4.8,0.1c1.7-2.1,3.1-5.8,3.1-5.8l4.9-0.1C957.1,5.5,956.3,7.8,953.8,11.2
		L953.8,11.2z M939,34.9l-0.2-9l4.6,4.4L939,34.9L939,34.9z"/>
</g>
</svg>
