<?xml version="1.0" encoding="utf-8"?>
<!-- Generator: Adobe Illustrator 24.3.0, SVG Export Plug-In . SVG Version: 6.00 Build 0)  -->
<svg version="1.1" id="Layer_1" xmlns="http://www.w3.org/2000/svg" xmlns:xlink="http://www.w3.org/1999/xlink" x="0px" y="0px"
	 viewBox="0 0 775.7 40" style="enable-background:new 0 0 775.7 40;" xml:space="preserve">
<style type="text/css">
	.st0{fill:#2F406A;}
	.st1{fill:#2379BD;}
	.st2{fill:#03AFEF;}
	.st3{fill:#83CD29;}
	.st4{fill:#404137;}
	.st5{fill:#CB3837;}
	.st6{fill:#FFFFFF;}
	.st7{fill:#6762A6;}
	.st8{fill:#222222;}
	.st9{fill:#336791;}
</style>
<symbol  id="A_2" viewBox="-55 -18 110 35.9">
	<g>
		<path class="st0" d="M-28.4-6.5V6.4l-11,6.4l-0.1,0.1v4.9l0.1,0.1L-24,9V-9h-0.1L-28.4-6.5L-28.4-6.5"/>
		<path class="st1" d="M-50.4,6.5l11,6.4v5l-15.6-9V-9h0.2l4.3,2.5v0.1L-50.4,6.5"/>
		<path class="st2" d="M-50.4-6.3L-55-9l15.6-9L-24-9l-4.5,2.5l-11-6.3L-50.4-6.3"/>
		<path class="st0" d="M-39.6,5L-39.6,5l-0.1-4.9l0.1-0.1v-0.1l4.2-2.4h0.1v5L-39.6,5"/>
		<path class="st1" d="M-44,2.7v-5.2h0.1l4.2,2.5v5L-44,2.7"/>
		<path class="st2" d="M-39.7-5.1L-44-2.5l4.4,2.5l4.3-2.5L-39.7-5.1"/>
		<path class="st0" d="M-45,8.2l-0.1-0.1V3.2l0.1-0.1V3l4.2-2.4h0.1v5L-45,8.2"/>
		<path class="st1" d="M-49.3,5.8V0.6h0.1l4.2,2.5v5.1L-49.3,5.8"/>
		<path class="st2" d="M-45-1.9l-4.3,2.5l4.4,2.6l4.3-2.5L-45-1.9"/>
		<path class="st0" d="M-33.8,8.3L-34,8.2V3.4l0.1-0.1V3.2l4.1-2.4h0.1v5L-33.8,8.3"/>
		<path class="st1" d="M-38.2,5.9V0.7h0.1l4.2,2.5v5.1L-38.2,5.9"/>
		<path class="st2" d="M-33.9-1.8l-4.3,2.6l4.4,2.6l4.3-2.5L-33.9-1.8"/>
		<path class="st0" d="M-39.2,11.5l-0.1-0.1V6.5l0.1-0.1V6.3l4.1-2.4h0.1v5L-39.2,11.5"/>
		<path class="st1" d="M-43.6,9.1V3.9h0.1l4.2,2.5v5.1L-43.6,9.1"/>
		<path class="st2" d="M-39.3,1.4L-43.6,4l4.4,2.5l4.3-2.5L-39.3,1.4"/>
		<path class="st0" d="M-39.6-1.8L-39.7-2v-4.8l0.1-0.1V-7l4.2-2.4h0.1v5L-39.6-1.8"/>
		<path class="st1" d="M-44-4.2v-5.2h0.1l4.2,2.5v5.1L-44-4.2"/>
		<path class="st2" d="M-39.7-11.9L-44-9.4l4.4,2.6l4.3-2.5L-39.7-11.9"/>
		<path class="st0" d="M-45,1.3l-0.1-0.1v-4.9l0.1-0.1v-0.1l4.2-2.4h0.1v5L-45,1.3"/>
		<path class="st1" d="M-49.3-1.1v-5.2h0.1l4.2,2.5v5.1L-49.3-1.1"/>
		<path class="st2" d="M-45-8.8l-4.3,2.5l4.4,2.6l4.3-2.5L-45-8.8"/>
		<path class="st0" d="M-33.8,1.4L-34,1.3v-4.8l0.1-0.1v-0.1l4.1-2.4h0.1v5L-33.8,1.4"/>
		<path class="st1" d="M-38.2-0.9v-5.2h0.1l4.2,2.5v5.1L-38.2-0.9"/>
		<path class="st2" d="M-33.9-8.7l-4.3,2.6l4.4,2.6l4.3-2.5L-33.9-8.7"/>
		<path class="st0" d="M-39.2,4.6L-39.2,4.6l-0.1-4.9l0.1-0.1v-0.1l4.1-2.4h0.1v5L-39.2,4.6"/>
		<path class="st1" d="M-43.6,2.2V-3h0.1l4.2,2.5v5.1L-43.6,2.2"/>
		<path class="st2" d="M-39.3-5.5L-43.6-3l4.4,2.6l4.3-2.5L-39.3-5.5"/>
		<path class="st0" d="M-16.2-6.8c-1.9,0-2.9,0.7-2.9,2.2C-19.2-4-18.9-3.4-18.4-3c0.8,0.4,1.8,0.8,2.7,0.9c1,0.2,2,0.6,2.9,1.1
			c0.6,0.6,0.9,1.5,0.8,2.4c0,2.7-1.4,4.1-4.3,4.1c-1.2,0-2.4-0.1-3.5-0.3l-0.7-0.1l0.2-1.2c1.3,0.2,2.7,0.3,4,0.4
			c1.9,0,2.9-0.9,2.9-2.7C-13.3,1-13.6,0.4-14,0c-0.7-0.4-1.5-0.7-2.3-0.8C-17.6-1-18.7-1.4-19.7-2c-0.7-0.7-1.1-1.6-1-2.6
			c0-2.4,1.4-3.6,4.3-3.6c1.1,0,2.3,0.1,3.4,0.3l0.7,0.1l-0.1,1.3C-13.6-6.7-14.9-6.8-16.2-6.8L-16.2-6.8z M-3.1,4.2l0.6-0.1v1.1
			C-3.7,5.4-5,5.5-6.3,5.5c-1.1,0.1-2.2-0.3-2.9-1.2c-0.7-1.1-1-2.4-0.9-3.7c0-3.4,1.3-5.1,4-5.1C-5-4.5-4-4.1-3.2-3.3
			c0.7,1,1.1,2.2,1,3.4v1.1h-6.4C-8.7,2-8.5,2.8-8.1,3.6c0.5,0.6,1.3,0.9,2,0.8C-5.1,4.3-4.1,4.3-3.1,4.2L-3.1,4.2z M-3.7,0
			c0.1-0.9-0.1-1.8-0.6-2.5C-4.7-3-5.4-3.3-6.1-3.2C-6.8-3.3-7.5-3-8-2.5C-8.5-1.8-8.8-0.9-8.7,0H-3.7z M3.2,5.6
			c-1,0.1-2.1-0.3-2.8-1.1c-0.7-1.2-1-2.5-0.8-3.9c-0.1-1.4,0.2-2.7,1-3.9C1.3-4,2.5-4.4,4.2-4.4l3.2,0.2V9.7H6V5
			C5.1,5.4,4.2,5.6,3.2,5.6L3.2,5.6z M4.1-3.2C3.2-3.3,2.3-2.9,1.7-2.3C1.2-1.4,1-0.4,1,0.6c-0.1,1,0.1,2,0.5,2.8
			C2,4,2.7,4.4,3.4,4.3c0.8,0,1.5-0.1,2.2-0.4l0.3-0.1V-3C5.2-3.1,4.6-3.2,4.1-3.2L4.1-3.2z M16.2-4.2h1.4v9.6h-1.4V4.7
			c-0.9,0.5-1.8,0.8-2.9,0.9c-1.3,0-2.2-0.3-2.6-1c-0.5-1.2-0.8-2.5-0.6-3.8v-5h1.4v5c-0.1,1,0.1,1.9,0.4,2.8
			c0.2,0.5,0.8,0.7,1.7,0.7c0.4,0,0.9-0.1,1.3-0.2c0.3-0.1,0.7-0.2,1-0.4l0.3-0.2L16.2-4.2z M27,4.2l0.6-0.1v1.1
			c-1.2,0.2-2.5,0.3-3.8,0.3c-1.1,0.1-2.2-0.3-2.9-1.2c-0.7-1.1-1-2.4-0.9-3.7c0-3.4,1.3-5.1,4-5.1c1.1-0.1,2.2,0.3,2.9,1.1
			c0.7,1,1.1,2.2,1,3.4l-0.1,1.1h-6.3C21.4,2,21.6,2.9,22,3.6c0.5,0.6,1.3,0.9,2,0.8C25,4.3,26,4.3,27,4.2L27,4.2z M26.5,0
			c0.1-0.9-0.1-1.8-0.6-2.5C25.4-3,24.7-3.3,24-3.2c-0.7-0.1-1.4,0.2-1.9,0.8c-0.5,0.7-0.7,1.6-0.7,2.5L26.5,0z M30.3,5.4V-8.4h1.4
			V5.4H30.3z M34.6-6.4v-1.7H36v1.7L34.6-6.4z M34.6,5.4v-9.6H36v9.6H34.6z M38.2-2.9v-1.3h7.2v1.3l-5.4,7h5.4v1.3h-7.2V4.1L43.6-3
			L38.2-2.9z M54.1,4.2l0.6-0.1v1.1c-1.2,0.2-2.5,0.3-3.8,0.3c-1.1,0.1-2.2-0.3-2.9-1.2c-0.7-1.1-1-2.4-0.9-3.7c0-3.4,1.3-5.1,4-5.1
			c1.1-0.1,2.2,0.3,2.9,1.1c0.7,1,1.1,2.2,1,3.4l-0.1,1.1h-6.3c-0.1,0.8,0.1,1.7,0.6,2.4c0.5,0.6,1.3,0.9,2,0.8
			C52.1,4.3,53.1,4.3,54.1,4.2L54.1,4.2z M53.6,0c0.1-0.9-0.1-1.8-0.6-2.5c-0.5-0.5-1.1-0.8-1.8-0.7c-0.7-0.1-1.4,0.2-1.9,0.8
			c-0.5,0.7-0.7,1.6-0.7,2.5L53.6,0z"/>
	</g>
</symbol>
<symbol  id="A_3" viewBox="-55.7 -15.7 111.4 31.5">
	<g>
		<path class="st3" d="M46.8-4.6c-0.3,0-0.5,0.1-0.8,0.2l-7.4,4.3c-0.5,0.3-0.8,0.8-0.8,1.4v8.5c0,0.6,0.3,1.1,0.8,1.3l1.9,1.1
			c0.9,0.5,1.3,0.5,1.7,0.5c1.4,0,2.2-0.8,2.2-2.3V2c0-0.1-0.1-0.2-0.2-0.2h-0.9c-0.1,0-0.2,0.1-0.2,0.2v8.4c0,0.6-0.7,1.3-1.8,0.8
			l-2-1.2c-0.1,0-0.1-0.1-0.1-0.2V1.2c0-0.1,0.1-0.2,0.1-0.2l7.4-4.2c0.1,0,0.2,0,0.2,0L54.3,1c0.1,0,0.1,0.1,0.1,0.2v8.5
			c0,0.1,0,0.2-0.1,0.2l-7.4,4.2c-0.1,0-0.2,0-0.2,0l-1.9-1.1c-0.1,0-0.1,0-0.2,0c-0.5,0.3-0.6,0.3-1.1,0.5c-0.1,0-0.3,0.1,0.1,0.3
			l2.5,1.5c0.2,0.1,0.5,0.2,0.8,0.2s0.5-0.1,0.8-0.2l7.4-4.2c0.5-0.3,0.8-0.8,0.8-1.3V1.2c0-0.6-0.3-1.1-0.8-1.4l-7.4-4.3
			C47.3-4.5,47.1-4.6,46.8-4.6L46.8-4.6z M48.7,1.5c-2.1,0-3.4,0.9-3.4,2.4c0,1.6,1.2,2.1,3.3,2.3c2.4,0.2,2.6,0.6,2.6,1.1
			c0,0.8-0.7,1.2-2.2,1.2c-2,0-2.4-0.5-2.5-1.5c0-0.1-0.1-0.2-0.2-0.2h-1c-0.1,0-0.2,0.1-0.2,0.2c0,1.2,0.7,2.7,3.9,2.7
			c2.3,0,3.7-0.9,3.7-2.5c0-1.6-1.1-2-3.4-2.3c-2.3-0.3-2.5-0.5-2.5-1c0-0.4,0.2-1,1.9-1c1.5,0,2.1,0.3,2.3,1.4
			c0,0.1,0.1,0.2,0.2,0.2h1c0.1,0,0.1,0,0.2-0.1s0.1-0.1,0.1-0.2C52.3,2.3,51.1,1.5,48.7,1.5L48.7,1.5z"/>
		<path class="st4" d="M3.3-15.7c-0.1,0-0.2,0-0.2,0.1c-0.1,0.1-0.2,0.2-0.2,0.4v12C2.9-3.1,2.8-3,2.7-3S2.5-2.9,2.4-3l-2-1.1
			c-0.3-0.2-0.6-0.2-0.9,0l-7.8,4.5c-0.3,0.2-0.5,0.5-0.5,0.8v9c0,0.3,0.2,0.6,0.5,0.8l7.8,4.5c0.3,0.2,0.6,0.2,0.9,0l7.8-4.5
			c0.3-0.2,0.5-0.5,0.5-0.8v-22.5c0-0.3-0.2-0.7-0.5-0.8l-4.7-2.6C3.5-15.7,3.4-15.7,3.3-15.7z M-47-4.5c-0.2,0-0.3,0-0.4,0.1
			l-7.8,4.5c-0.3,0.2-0.5,0.5-0.5,0.8l0,12.1c0,0.2,0.1,0.3,0.2,0.4c0.1,0.1,0.3,0.1,0.5,0l4.6-2.7c0.3-0.2,0.5-0.5,0.5-0.8V4.4
			c0-0.3,0.2-0.6,0.5-0.8l2-1.1c0.1-0.1,0.3-0.1,0.5-0.1c0.2,0,0.3,0,0.5,0.1l2,1.1C-44.2,3.7-44,4-44,4.4V10c0,0.3,0.2,0.6,0.5,0.8
			l4.6,2.7c0.1,0.1,0.3,0.1,0.5,0c0.1-0.1,0.2-0.2,0.2-0.4l0-12.1c0-0.3-0.2-0.6-0.5-0.8l-7.8-4.5C-46.6-4.4-46.7-4.4-47-4.5
			L-47-4.5L-47-4.5z M23.3-4.4c-0.2,0-0.3,0-0.5,0.1L15,0.3c-0.3,0.2-0.5,0.5-0.5,0.8v9c0,0.3,0.2,0.7,0.5,0.8l7.8,4.4
			c0.3,0.2,0.6,0.2,0.9,0l4.7-2.6c0.2-0.1,0.2-0.2,0.2-0.4S28.6,12,28.5,12l-7.9-4.5c-0.1-0.1-0.2-0.3-0.2-0.4V4.2
			c0-0.2,0.1-0.3,0.2-0.4L23,2.4c0.1-0.1,0.3-0.1,0.5,0l2.4,1.4c0.1,0.1,0.2,0.2,0.2,0.4v2.2c0,0.2,0.1,0.3,0.2,0.4
			c0.1,0.1,0.3,0.1,0.5,0l4.7-2.7C31.9,3.9,32,3.6,32,3.3V1.1c0-0.3-0.2-0.6-0.5-0.8l-7.8-4.5C23.7-4.3,23.5-4.4,23.3-4.4L23.3-4.4z
			 M-0.1,2.4c0,0,0.1,0,0.1,0L2.7,4c0.1,0,0.1,0.1,0.1,0.2v3.1c0,0.1-0.1,0.2-0.1,0.2L0.1,9c-0.1,0-0.2,0-0.2,0l-2.7-1.6
			C-2.9,7.4-3,7.4-3,7.3V4.2C-3,4.1-2.9,4-2.9,4l2.7-1.6C-0.1,2.4-0.1,2.4-0.1,2.4L-0.1,2.4z"/>
		<path class="st3" d="M-23.5-4.4c-0.2,0-0.3,0-0.5,0.1l-7.8,4.5c-0.3,0.2-0.5,0.5-0.5,0.8v9c0,0.3,0.2,0.6,0.5,0.8l7.8,4.5
			c0.3,0.2,0.6,0.2,0.9,0l7.8-4.5c0.3-0.2,0.5-0.5,0.5-0.8v-9c0-0.3-0.2-0.7-0.5-0.8L-23-4.3C-23.2-4.3-23.3-4.4-23.5-4.4L-23.5-4.4
			z M23.3,3.7C23.3,3.7,23.2,3.7,23.3,3.7l-1.6,0.9c-0.1,0-0.1,0.1-0.1,0.2v1.7c0,0.1,0,0.1,0.1,0.2l1.5,0.9c0.1,0,0.1,0,0.2,0
			l1.5-0.9c0.1,0,0.1-0.1,0.1-0.2V4.7c0-0.1,0-0.1-0.1-0.2L23.3,3.7C23.4,3.7,23.3,3.7,23.3,3.7z"/>
	</g>
</symbol>
<g>
	<path class="st5" d="M358.9,0v34.3h28.5V40h22.8v-5.7h51.3V0H358.9z"/>
	<path class="st6" d="M375.9,5.7h-11.3v22.8h11.3v-17h5.7v17h5.7V5.7H375.9z M393,5.7v28.5h11.5v-5.7h11.3V5.7H393z M410.1,22.8
		h-5.5V11.5h5.5V22.8z M432.9,5.7h-11.3v22.8h11.3v-17h5.7v17h5.7v-17h5.7v17h5.7V5.7H432.9z"/>
</g>
<g>
	<path class="st7" d="M771.9,40h-24.6c-2.1,0-3.8-1.7-3.8-3.8V3.8c0-2.1,1.7-3.8,3.8-3.8h24.6c2.1,0,3.8,1.7,3.8,3.8v32.4
		C775.7,38.3,774,40,771.9,40L771.9,40z"/>
	<path class="st6" d="M764,34.4l-0.4-15.9c0,0,1-3.8-12.7,1.8c0,0.1-0.4-14.7-0.4-14.7l4.5-0.1l0.3,9.5c0,0,12.5-5.2,12.7,3.5
		l0.4,15.8L764,34.4L764,34.4z M766.1,11l-4.8,0.1c1.7-2.1,3.1-5.8,3.1-5.8l4.9-0.1C769.4,5.3,768.6,7.6,766.1,11L766.1,11z
		 M751.3,34.7l-0.2-9l4.6,4.4L751.3,34.7L751.3,34.7z"/>
</g>
<path class="st8" d="M181.6,31.2V15.8h19.2v-0.9h-19.2v-14H202V0h-21.3v32.1h21.5v-0.9L181.6,31.2L181.6,31.2z M219.5,9l-7.9,10.5
	L203.8,9h-1.2l8.4,11.2l-9.2,11.9h1.1l8.7-11.3l8.7,11.3h1.1l-9.3-12L220.6,9H219.5L219.5,9z M224.1,40V25.6h0.1
	c0.5,2.1,1.6,3.8,3.2,5.1c1.6,1.3,3.6,1.9,6.1,1.9c1.6,0,3-0.3,4.2-1c1.2-0.6,2.2-1.5,3.1-2.6c0.8-1.1,1.4-2.4,1.9-3.9
	c0.4-1.5,0.6-3,0.6-4.6c0-1.7-0.2-3.3-0.7-4.8s-1.1-2.7-2-3.8s-1.9-1.9-3.1-2.5c-1.2-0.6-2.6-0.9-4.1-0.9c-1.2,0-2.2,0.2-3.3,0.5
	c-1,0.3-1.9,0.8-2.7,1.5s-1.5,1.4-2,2.2c-0.6,0.9-1,1.8-1.3,2.8H224V9h-0.9v31H224.1L224.1,40z M233.4,31.7c-2.8,0-5.1-1-6.8-2.9
	s-2.6-4.7-2.6-8.3c0-1.5,0.2-2.9,0.6-4.3c0.4-1.4,1-2.5,1.8-3.6s1.8-1.8,2.9-2.4c1.2-0.6,2.5-0.9,4-0.9s2.8,0.3,3.9,0.9
	c1.1,0.6,2,1.4,2.8,2.4s1.3,2.2,1.7,3.6s0.6,2.8,0.6,4.2c0,1.4-0.2,2.7-0.5,4s-0.9,2.5-1.6,3.6c-0.7,1.1-1.6,1.9-2.8,2.6
	C236.4,31.4,235,31.7,233.4,31.7L233.4,31.7z M248.2,32.1V19c0-1.3,0.2-2.5,0.5-3.7c0.4-1.2,0.9-2.2,1.7-3.2
	c0.8-0.9,1.7-1.6,2.9-2.2c1.1-0.5,2.5-0.7,4.1-0.6V8.4c-1.4,0-2.6,0.1-3.6,0.4c-1,0.3-1.9,0.8-2.7,1.4c-0.8,0.6-1.4,1.2-1.8,2
	c-0.4,0.8-0.8,1.6-1,2.4h-0.1V9h-0.9v23.1H248.2L248.2,32.1z M258.5,20.7h19.3c0.1-1.6-0.1-3.1-0.5-4.6s-1-2.8-1.8-3.9
	c-0.8-1.1-1.9-2.1-3.2-2.7c-1.3-0.7-2.9-1-4.6-1c-1.3,0-2.6,0.3-3.8,0.8c-1.2,0.5-2.3,1.3-3.2,2.4c-0.9,1-1.7,2.3-2.2,3.8
	s-0.9,3.2-0.9,5.1c0,1.7,0.2,3.3,0.6,4.8c0.4,1.5,1,2.8,1.8,3.9c0.8,1.1,1.9,1.9,3.1,2.5c1.3,0.6,2.8,0.9,4.6,0.8
	c2.6,0,4.9-0.7,6.6-2.2s2.9-3.6,3.2-6.3h-0.9c-0.4,2.5-1.4,4.5-3,5.7c-1.6,1.3-3.6,1.9-6,1.9c-1.6,0-3-0.3-4.2-0.9
	c-1.1-0.6-2.1-1.4-2.8-2.3c-0.7-0.9-1.2-2.1-1.6-3.5C258.7,23.7,258.5,22.3,258.5,20.7L258.5,20.7z M276.9,19.8h-18.4
	c0.1-1.6,0.4-3.1,0.9-4.4s1.2-2.4,2-3.3c0.8-0.9,1.8-1.6,2.9-2.1c1.1-0.5,2.3-0.7,3.5-0.7c1.5,0,2.8,0.3,4,0.8
	c1.1,0.6,2.1,1.3,2.9,2.3s1.3,2.1,1.7,3.4C276.8,17.1,276.9,18.4,276.9,19.8L276.9,19.8z M296.5,15.8h0.9c0-2.6-0.8-4.4-2.2-5.6
	s-3.5-1.8-6.1-1.8c-1.4,0-2.6,0.2-3.6,0.5c-1,0.4-1.8,0.8-2.4,1.4c-0.6,0.6-1.1,1.2-1.4,1.9s-0.4,1.4-0.4,2c0,1.3,0.2,2.3,0.7,3
	c0.5,0.8,1.1,1.3,2.1,1.8c0.7,0.3,1.4,0.6,2.2,0.8c0.8,0.2,1.8,0.5,2.9,0.8c1,0.2,2,0.5,2.9,0.7s1.8,0.6,2.5,1
	c0.7,0.4,1.3,0.9,1.8,1.5s0.7,1.5,0.7,2.5s-0.2,1.8-0.7,2.5s-1.1,1.3-1.8,1.7c-0.7,0.4-1.5,0.8-2.4,0.9c-0.9,0.2-1.8,0.3-2.6,0.3
	c-2.7,0-4.8-0.6-6.3-1.8c-1.5-1.2-2.2-3.1-2.2-5.7h-0.9c0,2.9,0.8,5,2.4,6.4c1.6,1.4,3.9,2,7,2c1,0,2-0.1,3-0.3s1.9-0.6,2.7-1.1
	c0.8-0.5,1.4-1.2,1.9-2s0.7-1.8,0.7-3c0-1.1-0.2-2-0.6-2.7c-0.4-0.7-1-1.3-1.7-1.7c-0.7-0.5-1.5-0.8-2.4-1.1
	c-0.9-0.3-1.8-0.5-2.7-0.7c-1.1-0.3-2.2-0.6-3.3-0.9c-0.9-0.2-1.8-0.5-2.6-0.9c-0.8-0.3-1.4-0.8-1.9-1.4s-0.7-1.5-0.7-2.6
	c0-0.2,0.1-0.6,0.2-1.1c0.1-0.5,0.4-1.1,0.9-1.6s1.1-1.1,2.1-1.5s2.2-0.6,3.8-0.6c1.1,0,2.1,0.1,3,0.4s1.7,0.6,2.4,1.1
	c0.7,0.5,1.2,1.2,1.5,2C296.3,13.7,296.5,14.7,296.5,15.8L296.5,15.8z M317.3,15.8h0.9c0-2.6-0.8-4.4-2.2-5.6s-3.5-1.8-6.1-1.8
	c-1.4,0-2.6,0.2-3.6,0.5c-1,0.4-1.8,0.8-2.4,1.4c-0.6,0.6-1.1,1.2-1.4,1.9c-0.3,0.7-0.4,1.4-0.4,2c0,1.3,0.2,2.3,0.7,3
	c0.5,0.8,1.1,1.3,2.1,1.8c0.7,0.3,1.4,0.6,2.2,0.8c0.8,0.2,1.8,0.5,2.9,0.8c1,0.2,2,0.5,2.9,0.7s1.8,0.6,2.5,1
	c0.7,0.4,1.3,0.9,1.8,1.5s0.7,1.5,0.7,2.5s-0.2,1.8-0.7,2.5s-1.1,1.3-1.8,1.7c-0.7,0.4-1.5,0.8-2.4,0.9s-1.8,0.3-2.6,0.3
	c-2.7,0-4.8-0.6-6.3-1.8c-1.4-1.2-2.2-3.1-2.2-5.7H301c0,2.9,0.8,5,2.4,6.4c1.6,1.4,3.9,2,7,2c1,0,2-0.1,3-0.3s1.9-0.6,2.7-1.1
	c0.8-0.5,1.5-1.2,1.9-2c0.5-0.8,0.7-1.8,0.7-3c0-1.1-0.2-2-0.6-2.7c-0.4-0.7-1-1.3-1.7-1.7c-0.7-0.5-1.5-0.8-2.4-1.1
	c-0.9-0.3-1.8-0.5-2.7-0.7c-1.1-0.3-2.2-0.6-3.3-0.9c-0.9-0.2-1.8-0.5-2.6-0.9c-0.8-0.3-1.4-0.8-1.9-1.4s-0.7-1.5-0.7-2.6
	c0-0.2,0.1-0.6,0.2-1.1c0.1-0.5,0.4-1.1,0.9-1.6c0.4-0.6,1.1-1.1,2.1-1.5c0.9-0.4,2.2-0.6,3.8-0.6c1.1,0,2.1,0.1,3,0.4
	s1.7,0.6,2.4,1.1c0.7,0.5,1.2,1.2,1.5,2C317.1,13.7,317.3,14.7,317.3,15.8L317.3,15.8z"/>
<g>
	<defs>
		<rect id="SVGID_1_" x="580.6" y="0.1" width="122.2" height="39.8"/>
	</defs>
	<clipPath id="SVGID_2_">
		<use xlink:href="#SVGID_1_"  style="overflow:visible;"/>
	</clipPath>
	<g style="clip-path:url(#SVGID_2_);">
		
			<use xlink:href="#A_2"  width="110" height="35.9" x="-55" y="-18" transform="matrix(1.1107 0 0 1.1107 641.7038 19.9445)" style="overflow:visible;"/>
	</g>
</g>
<path class="st9" d="M529.4,0.5c-1.6,0-3.2,0.3-4.7,0.7h0.1h-0.1c-0.8-0.2-1.8-0.3-2.8-0.3l0,0c-1.9,0-3.6,0.4-5,1.2
	c-1.3-0.5-4.1-1.3-7-1.1c-2,0.1-4.2,0.7-5.9,2.4c-1.6,1.7-2.5,4.4-2.3,8c0,1,0.3,2.6,0.8,4.7s1.1,4.6,2,6.8c0.8,2.3,1.7,4.3,3.2,5.7
	c0.7,0.7,1.7,1.3,2.8,1.2c0.8,0,1.5-0.4,2.2-0.9c0.3,0.4,0.6,0.6,0.9,0.7c0.4,0.2,0.7,0.3,1.1,0.4c0.7,0.2,1.8,0.4,3.2,0.2
	c0.5-0.1,1-0.2,1.4-0.4c0,0.5,0,1.1,0.1,1.6c0.1,1.7,0.1,3.3,0.6,4.7c0.1,0.2,0.3,1.4,1.2,2.4c0.9,1,2.6,1.7,4.6,1.2
	c1.4-0.3,3.2-0.8,4.4-2.5s1.7-4.1,1.8-7.9c0-0.2,0.1-0.4,0.1-0.6h0.3l0,0c1.5,0.1,3.1-0.1,4.5-0.8c1.2-0.6,2.1-1.1,2.8-2.1
	c0.2-0.2,0.3-0.5,0.4-1.1c0.1-0.6-0.2-1.3-0.7-1.7c-1-0.7-1.6-0.5-2.3-0.3c-0.6,0.1-1.3,0.2-2,0.2l0,0c1.9-3.2,3.3-6.6,4.1-9.6
	c0.5-1.8,0.7-3.4,0.7-4.9c0-1.4-0.1-2.7-1-3.8c-2.7-3.4-6.5-4.4-9.4-4.4C529.6,0.5,529.5,0.5,529.4,0.5L529.4,0.5z M529.3,1.6
	c2.8,0,6.3,0.8,8.8,4c0.6,0.7,0.7,1.8,0.7,3.1s-0.3,2.9-0.7,4.6c-0.9,3.3-2.5,7.2-4.8,10.7c0.1,0.1,0.2,0.1,0.3,0.1l0,0
	c0.5,0.2,1.6,0.4,3.7-0.1c0.5-0.1,0.9-0.2,1.4,0.1c0.2,0.2,0.3,0.4,0.3,0.7l0,0l0,0c0,0.2-0.1,0.4-0.2,0.6l0,0
	c-0.4,0.6-1.2,1.2-2.3,1.7c-0.9,0.4-2.3,0.7-3.5,0.7c-0.6,0-1.2,0-1.6-0.2l0,0c-0.2,1.7-0.6,5.2-0.9,6.8c-0.2,1.3-0.6,2.3-1.3,3
	c-0.7,0.8-1.8,1.2-3.1,1.5c-1.7,0.4-3,0-3.8-0.7s-1.2-1.6-1.4-2.1c-0.2-0.4-0.2-0.9-0.3-1.5c-0.1-0.7-0.1-1.5-0.2-2.4
	c0-0.9-0.1-2-0.1-3.1c0-0.4,0-0.8,0-1.1v0.1c-0.7,0.6-1.6,1.1-2.5,1.2l0,0c-1.1,0.2-2.1,0-2.8-0.1c-0.3-0.1-0.6-0.2-0.9-0.3l0,0
	c-0.3-0.1-0.5-0.3-0.7-0.7c-0.1-0.1-0.1-0.3-0.1-0.4s0-0.1,0-0.2l0,0c0.1-0.2,0.2-0.4,0.4-0.5l0,0c0.3-0.3,0.8-0.4,1.4-0.5
	c1.2-0.2,1.6-0.4,1.9-0.6c0.2-0.2,0.5-0.5,0.9-1c0,0,0,0,0-0.1l0,0c-0.8,0-1.6-0.2-2.2-0.6l0,0c-0.2,0.3-1.5,1.6-3,3.4
	c-0.6,0.8-1.4,1.2-2.1,1.3c-0.8,0-1.4-0.3-2-0.9c-1.2-1.1-2.1-3.1-2.9-5.3s-1.5-4.6-1.9-6.7c-0.5-2.1-0.7-3.8-0.8-4.6
	c-0.2-3.4,0.6-5.7,2-7.2s3.3-2,5.1-2.1c3.3-0.2,6.4,1,7.1,1.2c1.2-0.8,2.8-1.3,4.8-1.3c1,0,1.9,0.1,2.9,0.4h-0.1l0,0
	c0.3-0.1,0.7-0.2,1.1-0.3h0.1C526.9,1.7,528.1,1.6,529.3,1.6L529.3,1.6L529.3,1.6z M529.6,2.7h-0.2c-1,0-2,0.1-2.9,0.3h0.1
	c2.1,0.9,3.6,2.3,4.7,3.7c0.7,0.9,1.3,2,1.8,3.1v0.1c0.2,0.4,0.3,0.8,0.4,1.1c0,0.1,0.1,0.3,0.1,0.4c0,0.1,0,0.1,0,0.2l0,0
	c0,1.4-0.3,2.4-0.4,3.8c0,1,0.2,2.2,0.3,3.5c0.1,1.2-0.1,2.5-0.9,3.8c0.1,0.1,0.1,0.2,0.2,0.2c2.1-3.3,3.6-6.9,4.4-9.9
	c0.4-1.7,0.7-3.2,0.7-4.3c0-1.2-0.2-2-0.5-2.4C535.1,3.4,532.1,2.7,529.6,2.7z M521.7,3.1c-1.9,0-3.3,0.6-4.4,1.5
	c-1.1,0.9-1.8,2.2-2.3,3.4c-0.6,1.5-0.8,3-0.8,4l0,0c0.6-0.3,1.4-0.7,2.2-0.9c0.8-0.2,1.7-0.2,2.5,0.1s1.5,1,1.7,2.2
	c1.2,5.4-0.4,7.4-0.9,8.9c-0.2,0.4-0.4,1-0.5,1.6V24c0.1,0,0.1,0,0.2,0c0.4,0,0.7,0.1,0.9,0.2c0.6,0.2,1,0.7,1.2,1.3
	c0.1,0.1,0.1,0.3,0.1,0.5c0,0.1,0,0.1,0,0.2l0,0l0,0c0,0.8,0,1.8,0,2.8c0,1.2,0,2.4,0.1,3.6v-0.2c0,0.9,0.1,1.7,0.2,2.3
	c0.1,0.6,0.2,1.1,0.2,1.2c0.2,0.5,0.5,1.2,1.1,1.7c0.6,0.5,1.4,0.8,2.8,0.5c1.3-0.3,2-0.6,2.6-1.2c0.5-0.5,0.8-1.3,1-2.5
	c0.3-1.7,0.9-6.7,1-7.7c0-0.7,0.1-1.3,0.3-1.7c0.2-0.4,0.6-0.7,0.9-0.8c0.2-0.1,0.3-0.1,0.4-0.2c-0.1-0.2-0.3-0.4-0.4-0.6l0,0
	c-0.4-0.5-0.8-1.1-1.1-1.8l0,0c-0.2-0.3-0.3-0.6-0.5-0.9v0.1c-0.2-0.4-0.5-0.9-0.8-1.4c-0.6-1.1-1.2-2.5-1.5-3.8s-0.4-2.7,0.5-3.6
	c0.7-0.9,2-1.2,4-1c-0.1-0.2-0.1-0.3-0.2-0.5c-0.5-1.1-1.1-2.1-1.7-2.9l0,0c-1.7-2.1-4.3-4.2-8.5-4.3L521.7,3.1z M510.7,3.2
	c-0.2,0-0.4,0-0.6,0c-1.7,0.1-3.2,0.6-4.4,1.8c-1.1,1.2-1.9,3.1-1.7,6.4c0,0.6,0.3,2.3,0.8,4.4c0.5,2,1.1,4.4,1.9,6.6
	c0.8,2.1,1.7,4,2.6,4.8c0.5,0.4,0.8,0.6,1.2,0.6c0.4,0,0.8-0.2,1.3-0.9c1-1.2,2-2.3,3-3.4l0,0c-1.2-1.1-2-2.6-2-4.4
	c0-0.3,0-0.6,0.1-0.9l0,0c0.2-1.2,0.2-2.4,0.2-3.3c0-0.9-0.1-1.5-0.1-1.8l0,0l0,0l0,0l0,0l0,0l0,0l0,0c0-2,0.4-3.9,1-5.7v0.1
	c0.5-1.2,1.1-2.5,2.2-3.5c-1-0.3-2.8-0.8-4.8-0.9C511.2,3.2,511,3.2,510.7,3.2L510.7,3.2L510.7,3.2z M531.2,11.9
	c-1.1,0-1.7,0.3-2.1,0.7c-0.5,0.5-0.5,1.5-0.2,2.6c0.3,1.2,0.9,2.5,1.4,3.5c0.3,0.5,0.6,1,0.8,1.4c0.2,0.4,0.4,0.7,0.5,0.9
	c0.1,0.2,0.2,0.4,0.3,0.6c0.4-0.9,0.5-1.8,0.5-2.7c-0.1-1.2-0.3-2.3-0.3-3.5c0-1.4,0.3-2.3,0.3-3.4C532,11.9,531.6,11.9,531.2,11.9
	L531.2,11.9L531.2,11.9z M517.6,12.1c-0.4,0-0.7,0-1,0.1l0,0c-0.7,0.2-1.4,0.4-1.9,0.8l0,0c-0.2,0.1-0.4,0.2-0.6,0.4l0,0l0,0
	c0,0.2,0.1,0.8,0.1,1.7s0,2.1-0.2,3.4c-0.4,2.8,1.7,5.2,4.1,5.2c0.1-0.6,0.4-1.2,0.6-1.8c0.7-1.8,2-3.1,0.9-8.3
	c-0.2-0.8-0.5-1.2-1-1.4C518.2,12.1,517.9,12.1,517.6,12.1L517.6,12.1L517.6,12.1L517.6,12.1z M530.6,12.4L530.6,12.4
	c0.2,0,0.3,0,0.4,0c0.1,0,0.2,0,0.2,0.1s0.1,0.1,0.1,0.2l0,0l0,0l0,0c0,0.1,0,0.1-0.1,0.2l0,0c-0.1,0.1-0.1,0.2-0.2,0.2l0,0
	c-0.2,0.2-0.4,0.3-0.6,0.3l0,0h-0.1c-0.2,0-0.4-0.1-0.6-0.2l0,0c-0.1-0.1-0.2-0.1-0.2-0.2l0,0c-0.1-0.1-0.1-0.1-0.1-0.2l0,0l0,0
	c0-0.1,0-0.1,0.1-0.2l0,0c0.1-0.1,0.1-0.1,0.2-0.1l0,0c0.2-0.1,0.4-0.2,0.6-0.2C530.5,12.4,530.6,12.4,530.6,12.4L530.6,12.4z
	 M517.8,12.7c0.1,0,0.2,0,0.3,0c0.3,0,0.5,0.1,0.6,0.2c0.1,0,0.2,0.1,0.2,0.2l0,0c0.1,0.1,0.1,0.1,0.1,0.2l0,0l0,0
	c0,0.1-0.1,0.2-0.1,0.3l0,0c-0.1,0.1-0.1,0.2-0.2,0.2l0,0c-0.2,0.1-0.4,0.2-0.6,0.2H518l0,0c-0.3,0-0.5-0.2-0.7-0.4l0,0
	c-0.1-0.1-0.1-0.2-0.2-0.3l0,0c0-0.1-0.1-0.2-0.1-0.2l0,0l0,0c0-0.2,0.2-0.3,0.3-0.3C517.4,12.7,517.5,12.7,517.8,12.7
	C517.7,12.7,517.7,12.7,517.8,12.7L517.8,12.7L517.8,12.7z M532.7,24.8L532.7,24.8c-0.2,0.1-0.4,0.1-0.6,0.2s-0.3,0.2-0.4,0.3l0,0
	c-0.1,0.2-0.2,0.5-0.2,1.1c0.1,0,0.2,0.1,0.2,0.1l0,0c0.3,0.1,0.8,0.1,1.3,0.1c1.1,0,2.3-0.3,3-0.6c0.6-0.3,1.1-0.6,1.6-1l0,0l0,0
	c-2.3,0.5-3.6,0.3-4.4,0C533,25,532.8,24.9,532.7,24.8L532.7,24.8L532.7,24.8z M519.4,25L519.4,25c-0.1,0-0.2,0-0.5,0.3
	c-0.6,0.6-0.8,1-1.2,1.4c-0.5,0.4-1.1,0.6-2.3,0.8c-0.4,0.1-0.6,0.2-0.8,0.2c0,0,0,0,0.1,0.1c0.2,0.1,0.4,0.2,0.6,0.2
	c0.5,0.1,1.4,0.3,2.3,0.1c0.9-0.2,1.8-0.6,2.6-1.7c0.1-0.2,0.2-0.5,0-0.8c-0.1-0.3-0.4-0.6-0.5-0.6C519.7,25,519.6,25,519.4,25
	L519.4,25L519.4,25z"/>
<use xlink:href="#A_3"  width="111.4" height="31.5" x="-55.7" y="-15.7" transform="matrix(1.2614 0 0 1.2614 70.2677 20)" style="overflow:visible;"/>
</svg>
