<svg width="554.79" height="40" xmlns="http://www.w3.org/2000/svg">
 <style type="text/css">.st0{fill:#CB3837;}
	.st1{fill:#FFFFFF;}
	.st2{fill-rule:evenodd;clip-rule:evenodd;fill:#1A1918;}
	.st3{fill-rule:evenodd;clip-rule:evenodd;fill:#21609B;}
	.st4{fill:#6762A6;}
	.st5{fill:#539E43;}
	.st6{fill:#333333;}
	.st7{fill:url(#SVGID_1_);}
	.st8{filter:url(#Adobe_OpacityMaskFilter);}
	.st9{mask:url(#c_2_);}
	.st10{fill:none;}
	.st11{fill:url(#SVGID_2_);}
	.st12{filter:url(#Adobe_OpacityMaskFilter_1_);}
	.st13{mask:url(#c_1_);}
	.st14{fill-rule:evenodd;clip-rule:evenodd;fill:url(#SVGID_3_);}
	.st15{fill-rule:evenodd;clip-rule:evenodd;fill:url(#SVGID_4_);}
	.st16{fill-rule:evenodd;clip-rule:evenodd;fill:url(#SVGID_5_);}
	.st17{fill-rule:evenodd;clip-rule:evenodd;fill:url(#SVGID_6_);}
	.st18{fill-rule:evenodd;clip-rule:evenodd;fill:url(#SVGID_7_);}
	.st19{fill:#222222;}
	.st20{fill-rule:evenodd;clip-rule:evenodd;fill:#8E714E;}
	.st21{fill-rule:evenodd;clip-rule:evenodd;fill:#442D22;}
	.st22{fill-rule:evenodd;clip-rule:evenodd;fill:#FFFFFF;}
	.st23{fill-rule:evenodd;clip-rule:evenodd;fill:#A6A385;}
	.st24{fill-rule:evenodd;clip-rule:evenodd;fill:#499D4A;}
	.st25{fill-rule:evenodd;clip-rule:evenodd;fill:#58AA50;}</style>
 <g>
  <title>background</title>
  <rect fill="none" id="canvas_background" height="42" width="556.79" y="-1" x="-1"/>
 </g>
 <g>
  <title>Layer 1</title>
  <g id="svg_1">
   <path id="svg_2" d="m376.94,0l0,34.26l28.51,0l0,5.74l22.77,0l0,-5.74l51.29,0l0,-34.26l-102.57,0z" class="st0"/>
   <path id="svg_3" d="m393.97,5.74l-11.29,0l0,22.77l11.29,0l0,-17.02l5.74,0l0,17.03l5.74,0l0,-22.78l-11.48,0zm17.22,0l0,28.51l11.49,0l0,-5.74l11.29,0l0,-22.77l-22.78,0zm17.03,17.03l-5.54,0l0,-11.28l5.54,0l0,11.28zm22.78,-17.03l-11.29,0l0,22.77l11.29,0l0,-17.02l5.74,0l0,17.03l5.74,0l0,-17.03l5.74,0l0,17.03l5.74,0l0,-22.78l-22.96,0z" class="st1"/>
  </g>
  <g id="svg_11">
   <path id="svg_12" d="m549.97,40l-24.63,0c-2.11,0 -3.82,-1.71 -3.82,-3.81l0,-32.38c0,-2.11 1.71,-3.81 3.81,-3.81l24.63,0c2.11,0 3.82,1.71 3.82,3.81l0,32.37c0.01,2.11 -1.7,3.82 -3.81,3.82l0,0z" class="st4"/>
   <path id="svg_13" d="m542.06,34.42l-0.35,-15.88c0,0 0.95,-3.82 -12.69,1.83c-0.02,0.07 -0.35,-14.69 -0.35,-14.69l4.49,-0.13l0.21,9.45c0,0 12.48,-5.23 12.67,3.48l0.35,15.83l-4.33,0.11l0,0zm2.05,-23.38l-4.77,0.1c1.67,-2.14 3.15,-5.76 3.15,-5.76l4.93,-0.11c0,0.01 -0.79,2.37 -3.31,5.77l0,0zm-14.72,23.63l-0.2,-9.04l4.62,4.42l-4.42,4.62l0,0z" class="st1"/>
  </g>
  <g id="svg_14">
   <path id="svg_15" d="m32.31,40c-0.22,0 -0.43,-0.06 -0.62,-0.16l-1.96,-1.17c-0.3,-0.16 -0.15,-0.22 -0.06,-0.25c0.4,-0.13 0.47,-0.16 0.89,-0.4c0.04,-0.03 0.1,-0.01 0.15,0.01l1.51,0.9c0.06,0.03 0.13,0.03 0.18,0l5.89,-3.41c0.06,-0.03 0.09,-0.09 0.09,-0.16l0,-6.81c0,-0.07 -0.03,-0.13 -0.09,-0.16l-5.91,-3.39c-0.06,-0.03 -0.13,-0.03 -0.18,0l-5.89,3.4c-0.06,0.03 -0.09,0.1 -0.09,0.16l0,6.81c0,0.06 0.03,0.13 0.09,0.16l1.61,0.93c0.87,0.44 1.42,-0.07 1.42,-0.59l0,-6.72c0,-0.09 0.07,-0.18 0.18,-0.18l0.75,0c0.09,0 0.18,0.07 0.18,0.18l0,6.72c0,1.17 -0.63,1.85 -1.74,1.85c-0.34,0 -0.61,0 -1.36,-0.37l-1.55,-0.89c-0.38,-0.22 -0.62,-0.63 -0.62,-1.08l0,-6.81c0,-0.44 0.24,-0.86 0.62,-1.08l5.89,-3.41c0.37,-0.21 0.87,-0.21 1.24,0l5.89,3.41c0.38,0.22 0.62,0.63 0.62,1.08l0,6.81c0,0.44 -0.24,0.86 -0.62,1.08l-5.89,3.41c-0.19,0.09 -0.42,0.13 -0.62,0.13l0,0zm1.81,-4.68c-2.58,0 -3.12,-1.18 -3.12,-2.19c0,-0.09 0.07,-0.18 0.18,-0.18l0.77,0c0.09,0 0.16,0.06 0.16,0.15c0.12,0.78 0.46,1.17 2.02,1.17c1.24,0 1.77,-0.28 1.77,-0.95c0,-0.38 -0.15,-0.66 -2.08,-0.86c-1.61,-0.16 -2.61,-0.52 -2.61,-1.8c0,-1.2 1,-1.9 2.69,-1.9c1.89,0 2.82,0.65 2.94,2.07c0,0.04 -0.01,0.09 -0.04,0.13c-0.03,0.03 -0.07,0.06 -0.12,0.06l-0.77,0c-0.07,0 -0.15,-0.06 -0.16,-0.13c-0.18,-0.81 -0.63,-1.08 -1.85,-1.08c-1.36,0 -1.52,0.47 -1.52,0.83c0,0.43 0.19,0.56 2.02,0.8c1.82,0.24 2.67,0.58 2.67,1.85c-0.01,1.29 -1.07,2.03 -2.95,2.03z" class="st5"/>
   <path id="svg_16" d="m14.03,13.38c0,-0.27 -0.15,-0.52 -0.38,-0.65l-6.26,-3.6c-0.1,-0.06 -0.22,-0.09 -0.34,-0.1l-0.07,0c-0.12,0 -0.24,0.04 -0.34,0.1l-6.26,3.6c-0.23,0.13 -0.38,0.38 -0.38,0.65l0.01,9.69c0,0.13 0.07,0.27 0.19,0.32c0.12,0.07 0.27,0.07 0.37,0l3.72,-2.13c0.24,-0.13 0.38,-0.38 0.38,-0.65l0,-4.53c0,-0.27 0.15,-0.52 0.38,-0.65l1.58,-0.92c0.12,-0.07 0.25,-0.1 0.38,-0.1c0.13,0 0.27,0.03 0.37,0.1l1.58,0.92c0.24,0.13 0.38,0.38 0.38,0.65l0,4.53c0,0.27 0.15,0.52 0.38,0.65l3.72,2.13c0.12,0.07 0.27,0.07 0.38,0c0.12,-0.06 0.19,-0.19 0.19,-0.32l0.02,-9.69l0,0zm30.09,-13.34c-0.12,-0.06 -0.27,-0.06 -0.37,0c-0.12,0.07 -0.19,0.19 -0.19,0.32l0,9.6c0,0.09 -0.04,0.18 -0.13,0.24c-0.09,0.04 -0.18,0.04 -0.27,0l-1.57,-0.9c-0.23,-0.13 -0.52,-0.13 -0.75,0l-6.26,3.62c-0.24,0.13 -0.38,0.38 -0.38,0.65l0,7.22c0,0.27 0.15,0.52 0.38,0.65l6.26,3.62c0.23,0.13 0.52,0.13 0.75,0l6.26,-3.62c0.24,-0.13 0.38,-0.38 0.38,-0.65l0,-18c0,-0.28 -0.15,-0.53 -0.38,-0.66l-3.73,-2.09l0,0zm-0.58,18.37c0,0.07 -0.03,0.13 -0.09,0.16l-2.14,1.24c-0.06,0.03 -0.13,0.03 -0.19,0l-2.14,-1.24c-0.06,-0.03 -0.09,-0.1 -0.09,-0.16l0,-2.48c0,-0.07 0.03,-0.13 0.09,-0.16l2.14,-1.24c0.06,-0.03 0.13,-0.03 0.19,0l2.14,1.24c0.06,0.03 0.09,0.1 0.09,0.16l0,2.48l0,0zm21.41,-2.54c0.24,-0.13 0.37,-0.38 0.37,-0.65l0,-1.76c0,-0.27 -0.15,-0.52 -0.37,-0.65l-6.22,-3.6c-0.23,-0.13 -0.52,-0.13 -0.75,0l-6.26,3.62c-0.24,0.13 -0.38,0.38 -0.38,0.65l0,7.22c0,0.27 0.15,0.52 0.38,0.65l6.22,3.54c0.24,0.13 0.52,0.13 0.74,0l3.77,-2.1c0.12,-0.06 0.19,-0.19 0.19,-0.32s-0.07,-0.27 -0.19,-0.32l-6.29,-3.62c-0.12,-0.07 -0.19,-0.19 -0.19,-0.32l0,-2.26c0,-0.13 0.07,-0.27 0.19,-0.32l1.96,-1.12c0.12,-0.07 0.27,-0.07 0.38,0l1.96,1.12c0.12,0.07 0.19,0.19 0.19,0.32l0,1.77c0,0.13 0.07,0.27 0.19,0.32c0.12,0.07 0.27,0.07 0.38,0l3.73,-2.17l0,0z" class="st6"/>
   <path id="svg_17" d="m58.27,15.53c0.04,-0.03 0.1,-0.03 0.15,0l1.2,0.69c0.04,0.03 0.07,0.07 0.07,0.13l0,1.39c0,0.06 -0.03,0.1 -0.07,0.13l-1.2,0.69c-0.04,0.03 -0.1,0.03 -0.15,0l-1.2,-0.69c-0.05,-0.02 -0.07,-0.06 -0.07,-0.12l0,-1.39c0,-0.06 0.03,-0.1 0.07,-0.13l1.2,-0.7z" class="st5"/>
   <g id="svg_18">
    <g id="svg_19">
     <path id="svg_20" d="m24.497993,9.240999c-0.23,-0.13 -0.52,-0.13 -0.75,0l-6.22,3.59c-0.24,0.13 -0.37,0.38 -0.37,0.65l0,7.19c0,0.27 0.15,0.52 0.37,0.65l6.22,3.59c0.23,0.13 0.52,0.13 0.75,0l6.22,-3.59c0.24,-0.13 0.37,-0.38 0.37,-0.65l0,-7.19c0,-0.27 -0.15,-0.52 -0.37,-0.65l-6.22,-3.59z" class="st7"/>
    </g>

    <mask transform="translate(134.0679931640625,70.5009994506836) " id="c_2_" height="15.89" width="14.03" y="-61.36" x="-116.97" maskUnits="userSpaceOnUse">
     <g id="svg_21" class="st8">
      <path d="m-109.57,-61.26c-0.23,-0.13 -0.52,-0.13 -0.75,0l-6.22,3.59c-0.24,0.13 -0.37,0.38 -0.37,0.65l0,7.19c0,0.27 0.15,0.52 0.37,0.65l6.22,3.59c0.23,0.13 0.52,0.13 0.75,0l6.22,-3.59c0.24,-0.13 0.37,-0.38 0.37,-0.65l0,-7.19c0,-0.27 -0.15,-0.52 -0.37,-0.65l-6.22,-3.59z" class="st1" id="a_2_"/>
     </g>
    </mask>
    <g id="svg_22" class="st9">
     <path id="svg_23" d="m23.727993,9.240999l-6.23,3.59c-0.24,0.13 -0.4,0.38 -0.4,0.65l0,7.19c0,0.18 0.07,0.34 0.19,0.47l7,-11.99c-0.18,-0.03 -0.38,-0.01 -0.56,0.09l0,0zm0.61,15.74c0.06,-0.01 0.12,-0.04 0.18,-0.07l6.23,-3.59c0.24,-0.13 0.38,-0.38 0.38,-0.65l0,-7.19c0,-0.19 -0.09,-0.38 -0.22,-0.52l-6.57,12.02l0,0z" class="st10"/>
     <path id="svg_24" d="m30.727993,12.830999l-6.25,-3.59c-0.06,-0.03 -0.13,-0.06 -0.19,-0.07l-7,11.99c0.06,0.07 0.13,0.13 0.21,0.18l6.25,3.59c0.18,0.1 0.38,0.13 0.58,0.07l6.57,-12.02c-0.05,-0.06 -0.11,-0.11 -0.17,-0.15l0,0z" class="st11"/>
    </g>

    <mask transform="translate(134.0679931640625,70.5009994506836) " id="c_1_" height="17.29" width="14.22" y="-62.57" x="-116.97" maskUnits="userSpaceOnUse">
     <g id="svg_25" class="st12">
      <path d="m-109.57,-61.26c-0.23,-0.13 -0.52,-0.13 -0.75,0l-6.22,3.59c-0.24,0.13 -0.37,0.38 -0.37,0.65l0,7.19c0,0.27 0.15,0.52 0.37,0.65l6.22,3.59c0.23,0.13 0.52,0.13 0.75,0l6.22,-3.59c0.24,-0.13 0.37,-0.38 0.37,-0.65l0,-7.19c0,-0.27 -0.15,-0.52 -0.37,-0.65l-6.22,-3.59z" class="st1" id="a_1_"/>
     </g>
    </mask>
    <g id="svg_26" class="st13">
     <path id="svg_27" d="m31.127993,20.670999l0,-7.19c0,-0.27 -0.16,-0.52 -0.4,-0.65l-6.25,-3.59c-0.07,-0.04 -0.15,-0.07 -0.24,-0.09l6.84,11.68c0.03,-0.04 0.05,-0.1 0.05,-0.16l0,0zm-13.63,-7.84c-0.24,0.13 -0.4,0.38 -0.4,0.65l0,7.19c0,0.27 0.18,0.52 0.4,0.65l6.25,3.59c0.15,0.09 0.31,0.12 0.49,0.09l-6.69,-12.18l-0.05,0.01l0,0z" class="st10"/>
     <path id="svg_28" d="m23.537993,7.930999l-0.09,0.04l0.12,0l-0.03,-0.04z" class="st14"/>
     <path id="svg_29" d="m30.737993,21.320999c0.18,-0.1 0.31,-0.28 0.37,-0.47l-6.85,-11.69c-0.18,-0.03 -0.37,-0.01 -0.53,0.09l-6.2,3.57l6.69,12.2c0.1,-0.02 0.19,-0.05 0.28,-0.09l6.24,-3.61l0,0z" class="st15"/>
     <path id="svg_30" d="m31.317993,21.200999l-0.04,-0.07l0,0.1l0.04,-0.03l0,0z" class="st16"/>
     <path id="svg_31" d="m30.737993,21.320999l-6.23,3.59c-0.09,0.04 -0.18,0.07 -0.28,0.09l0.12,0.22l6.91,-4l0,-0.09l-0.18,-0.3c-0.03,0.21 -0.16,0.39 -0.34,0.49l0,0z" class="st17"/>
     <path id="svg_32" d="m30.737993,21.320999l-6.23,3.59c-0.09,0.04 -0.18,0.07 -0.28,0.09l0.12,0.22l6.91,-4l0,-0.09l-0.18,-0.3c-0.03,0.21 -0.16,0.39 -0.34,0.49l0,0z" class="st18"/>
    </g>
   </g>
  </g>
  <path id="svg_33" d="m106.5,31.19l0,-15.37l19.19,0l0,-0.9l-19.19,0l0,-14.02l20.4,0l0,-0.9l-21.3,0l0,32.09l21.48,0l0,-0.9l-20.58,0l0,0zm37.89,-22.2l-7.95,10.47l-7.78,-10.47l-1.17,0l8.4,11.15l-9.21,11.95l1.08,0l8.67,-11.28l8.72,11.28l1.12,0l-9.26,-11.96l8.45,-11.15l-1.07,0.01l0,0zm4.59,31.01l0,-14.38l0.09,0c0.54,2.1 1.6,3.78 3.19,5.06c1.59,1.27 3.61,1.91 6.07,1.91c1.59,0 3,-0.32 4.22,-0.97c1.23,-0.64 2.25,-1.52 3.08,-2.63c0.82,-1.11 1.45,-2.4 1.89,-3.87c0.43,-1.47 0.65,-3.01 0.65,-4.63c0,-1.74 -0.22,-3.34 -0.67,-4.81c-0.45,-1.47 -1.1,-2.74 -1.95,-3.82c-0.85,-1.08 -1.89,-1.92 -3.1,-2.52c-1.21,-0.6 -2.58,-0.9 -4.11,-0.9c-1.17,0 -2.25,0.17 -3.26,0.52c-1,0.34 -1.89,0.83 -2.67,1.46c-0.78,0.63 -1.47,1.38 -2.02,2.22c-0.57,0.85 -1,1.79 -1.3,2.81l-0.09,0l0,-6.46l-0.9,0l0,31.01l0.88,0l0,0zm9.34,-8.27c-2.82,0 -5.08,-0.97 -6.79,-2.9s-2.56,-4.71 -2.56,-8.34c0,-1.5 0.21,-2.92 0.63,-4.27c0.42,-1.35 1.03,-2.53 1.82,-3.55c0.79,-1.02 1.78,-1.83 2.94,-2.43c1.17,-0.6 2.49,-0.9 3.96,-0.9c1.5,0 2.81,0.3 3.93,0.9c1.12,0.6 2.05,1.42 2.79,2.45s1.29,2.22 1.66,3.55c0.37,1.33 0.56,2.75 0.56,4.25c0,1.35 -0.17,2.69 -0.52,4.02c-0.34,1.33 -0.88,2.53 -1.6,3.6c-0.72,1.06 -1.64,1.93 -2.76,2.61c-1.11,0.67 -2.47,1.01 -4.06,1.01l0,0zm14.79,0.36l0,-13.08c0,-1.26 0.18,-2.49 0.54,-3.69c0.36,-1.2 0.91,-2.25 1.66,-3.17c0.75,-0.91 1.7,-1.63 2.85,-2.16c1.15,-0.52 2.52,-0.74 4.11,-0.65l0,-0.9c-1.38,-0.03 -2.58,0.12 -3.62,0.45c-1.03,0.33 -1.93,0.78 -2.67,1.35c-0.75,0.57 -1.35,1.24 -1.8,2c-0.45,0.76 -0.78,1.59 -0.99,2.45l-0.09,0l0,-5.7l-0.9,0l0,23.1l0.91,0l0,0zm10.29,-11.37l19.33,0c0.06,-1.59 -0.1,-3.12 -0.47,-4.58c-0.37,-1.47 -0.97,-2.77 -1.8,-3.91c-0.82,-1.14 -1.89,-2.05 -3.19,-2.74c-1.3,-0.69 -2.85,-1.03 -4.65,-1.03c-1.29,0 -2.55,0.27 -3.78,0.81c-1.23,0.54 -2.31,1.33 -3.24,2.36s-1.68,2.3 -2.25,3.8c-0.57,1.5 -0.85,3.21 -0.85,5.12c0,1.71 0.19,3.3 0.58,4.79c0.39,1.48 0.99,2.77 1.8,3.87c0.81,1.09 1.85,1.94 3.12,2.54c1.27,0.6 2.81,0.88 4.61,0.85c2.64,0 4.85,-0.74 6.65,-2.22c1.8,-1.48 2.86,-3.57 3.19,-6.27l-0.9,0c-0.39,2.55 -1.39,4.46 -2.99,5.73c-1.6,1.27 -3.62,1.91 -6.05,1.91c-1.65,0 -3.04,-0.28 -4.18,-0.85c-1.14,-0.57 -2.07,-1.35 -2.79,-2.34c-0.72,-0.99 -1.25,-2.15 -1.6,-3.48c-0.32,-1.36 -0.51,-2.8 -0.54,-4.36l0,0zm18.43,-0.9l-18.43,0c0.09,-1.62 0.39,-3.07 0.9,-4.36c0.51,-1.29 1.18,-2.39 2,-3.3c0.82,-0.91 1.78,-1.61 2.88,-2.09c1.09,-0.48 2.27,-0.72 3.53,-0.72c1.5,0 2.82,0.28 3.96,0.83c1.14,0.55 2.09,1.31 2.85,2.27c0.76,0.96 1.34,2.07 1.73,3.35c0.39,1.27 0.58,2.61 0.58,4.02l0,0zm19.55,-4l0.9,0c0,-2.58 -0.75,-4.45 -2.25,-5.62c-1.5,-1.17 -3.54,-1.75 -6.11,-1.75c-1.44,0 -2.65,0.18 -3.64,0.54c-0.99,0.36 -1.8,0.82 -2.43,1.39c-0.63,0.57 -1.08,1.2 -1.35,1.89c-0.27,0.69 -0.4,1.35 -0.4,1.98c0,1.26 0.22,2.26 0.67,3.01c0.45,0.75 1.15,1.33 2.11,1.75c0.66,0.3 1.41,0.57 2.25,0.81c0.84,0.24 1.81,0.49 2.92,0.76c0.99,0.24 1.96,0.48 2.92,0.72c0.96,0.24 1.81,0.56 2.54,0.97c0.73,0.4 1.33,0.92 1.8,1.55c0.46,0.63 0.7,1.45 0.7,2.47c0,0.99 -0.23,1.83 -0.7,2.52c-0.46,0.69 -1.07,1.26 -1.78,1.69c-0.72,0.43 -1.52,0.75 -2.4,0.94c-0.88,0.19 -1.75,0.29 -2.58,0.29c-2.73,0 -4.82,-0.61 -6.27,-1.82c-1.45,-1.21 -2.18,-3.12 -2.18,-5.73l-0.9,0c0,2.91 0.79,5.03 2.36,6.38c1.57,1.35 3.9,2.02 6.99,2.02c0.99,0 1.98,-0.11 2.99,-0.34c1,-0.22 1.9,-0.59 2.7,-1.1c0.79,-0.5 1.45,-1.18 1.93,-1.98c0.49,-0.81 0.74,-1.8 0.74,-2.97c0,-1.11 -0.22,-2.01 -0.65,-2.7c-0.43,-0.69 -1,-1.26 -1.71,-1.71c-0.7,-0.45 -1.5,-0.8 -2.38,-1.06c-0.89,-0.26 -1.78,-0.5 -2.67,-0.74c-1.1,-0.29 -2.2,-0.57 -3.3,-0.85c-0.94,-0.24 -1.82,-0.52 -2.63,-0.85c-0.78,-0.33 -1.4,-0.8 -1.87,-1.42c-0.46,-0.61 -0.7,-1.49 -0.7,-2.63c0,-0.21 0.06,-0.58 0.18,-1.12c0.12,-0.54 0.4,-1.09 0.85,-1.64c0.45,-0.55 1.14,-1.05 2.07,-1.48c0.93,-0.43 2.2,-0.65 3.82,-0.65c1.11,0 2.12,0.12 3.03,0.36c0.91,0.24 1.7,0.62 2.36,1.15c0.66,0.52 1.17,1.19 1.53,2c0.36,0.81 0.54,1.8 0.54,2.97l0,0zm20.81,0l0.9,0c0,-2.58 -0.75,-4.45 -2.25,-5.62c-1.5,-1.17 -3.54,-1.75 -6.11,-1.75c-1.44,0 -2.65,0.18 -3.64,0.54c-0.99,0.36 -1.8,0.82 -2.43,1.39c-0.63,0.57 -1.08,1.2 -1.35,1.89c-0.27,0.69 -0.4,1.35 -0.4,1.98c0,1.26 0.22,2.26 0.67,3.01c0.45,0.75 1.15,1.33 2.11,1.75c0.66,0.3 1.41,0.57 2.25,0.81c0.84,0.24 1.81,0.49 2.92,0.76c0.99,0.24 1.96,0.48 2.92,0.72c0.96,0.24 1.81,0.56 2.54,0.97c0.73,0.4 1.33,0.92 1.8,1.55c0.46,0.63 0.7,1.45 0.7,2.47c0,0.99 -0.23,1.83 -0.7,2.52c-0.46,0.69 -1.07,1.26 -1.77,1.69c-0.72,0.43 -1.52,0.75 -2.4,0.94c-0.88,0.19 -1.75,0.29 -2.58,0.29c-2.73,0 -4.82,-0.61 -6.27,-1.82c-1.45,-1.21 -2.18,-3.12 -2.18,-5.73l-0.9,0c0,2.91 0.79,5.03 2.36,6.38c1.57,1.35 3.9,2.02 6.99,2.02c0.99,0 1.99,-0.11 2.99,-0.34c1,-0.22 1.9,-0.59 2.7,-1.1c0.79,-0.5 1.45,-1.18 1.93,-1.98c0.49,-0.81 0.74,-1.8 0.74,-2.97c0,-1.11 -0.22,-2.01 -0.65,-2.7c-0.43,-0.69 -1,-1.26 -1.71,-1.71c-0.7,-0.45 -1.5,-0.8 -2.38,-1.06c-0.89,-0.26 -1.78,-0.5 -2.67,-0.74c-1.1,-0.29 -2.2,-0.57 -3.3,-0.85c-0.94,-0.24 -1.82,-0.52 -2.63,-0.85c-0.78,-0.33 -1.4,-0.8 -1.87,-1.42c-0.46,-0.61 -0.7,-1.49 -0.7,-2.63c0,-0.21 0.06,-0.58 0.18,-1.12c0.12,-0.54 0.4,-1.09 0.85,-1.64c0.45,-0.55 1.14,-1.05 2.07,-1.48c0.93,-0.43 2.2,-0.65 3.82,-0.65c1.11,0 2.12,0.12 3.03,0.36c0.91,0.24 1.7,0.62 2.36,1.15c0.66,0.52 1.17,1.19 1.53,2c0.35,0.81 0.53,1.8 0.53,2.97l0,0z" class="st19"/>
  <g stroke="null" id="svg_47">
   <path stroke="null" id="svg_46" d="m311.394953,1.333339c-8.474757,0 -13.769743,4.236386 -15.888928,12.711143c3.177786,-4.236386 6.885864,-5.825278 11.12225,-4.766679c2.417103,0.603779 4.145024,2.35752 6.05964,4.299941c3.116216,3.161897 6.721017,6.822309 14.595967,6.822309c8.474757,0 13.769743,-4.236386 15.888928,-12.711143c-3.177786,4.236386 -6.885864,5.825278 -11.12225,4.766679c-2.417103,-0.603779 -4.145024,-2.35752 -6.05964,-4.299941c-3.11423,-3.161897 -6.719031,-6.822309 -14.595967,-6.822309zm-15.888928,19.066714c-8.474757,0 -13.769743,4.236386 -15.888928,12.711143c3.177786,-4.236386 6.885864,-5.825278 11.12225,-4.766679c2.417103,0.603779 4.145024,2.35752 6.05964,4.299941c3.116216,3.161897 6.721017,6.822309 14.595967,6.822309c8.474757,0 13.769743,-4.236386 15.888928,-12.711143c-3.177786,4.236386 -6.885864,5.825278 -11.12225,4.766679c-2.417103,-0.603779 -4.145024,-2.35752 -6.05964,-4.299941c-3.11423,-3.161897 -6.719031,-6.822309 -14.595967,-6.822309z" fill="#38b2ac"/>
  </g>
 </g>
</svg>