<?xml version="1.0" encoding="utf-8"?>
<!-- Generator: Adobe Illustrator 23.1.1, SVG Export Plug-In . SVG Version: 6.00 Build 0)  -->
<svg version="1.1" id="Layer_1" xmlns="http://www.w3.org/2000/svg" xmlns:xlink="http://www.w3.org/1999/xlink" x="0px" y="0px"
	 viewBox="0 0 434.4 40" style="enable-background:new 0 0 434.4 40;" xml:space="preserve">
<style type="text/css">
	.st0{fill:#CB3837;}
	.st1{fill:#FFFFFF;}
	.st2{fill:#6762A6;}
	.st3{fill:#007ACC;}
	.st4{fill:#CF649A;}
	.st5{fill:#61DAFB;}
</style>
<g>
	<path class="st0" d="M258.6,0v34.3h28.5V40h22.8v-5.7h51.3V0H258.6z"/>
	<path class="st1" d="M275.6,5.7h-11.3v22.8h11.3v-17h5.7v17h5.7V5.7H275.6z M292.8,5.7v28.5h11.5v-5.7h11.3V5.7H292.8z M309.9,22.8
		h-5.5V11.5h5.5V22.8z M332.6,5.7h-11.3v22.8h11.3v-17h5.7v17h5.7v-17h5.7v17h5.7V5.7H332.6z"/>
</g>
<g>
	<path class="st2" d="M430.6,40H406c-2.1,0-3.8-1.7-3.8-3.8V3.8c0-2.1,1.7-3.8,3.8-3.8h24.6c2.1,0,3.8,1.7,3.8,3.8v32.4
		C434.4,38.3,432.7,40,430.6,40L430.6,40z"/>
	<path class="st1" d="M422.7,34.4l-0.4-15.9c0,0,1-3.8-12.7,1.8c0,0.1-0.4-14.7-0.4-14.7l4.5-0.1L414,15c0,0,12.5-5.2,12.7,3.5
		l0.4,15.8L422.7,34.4L422.7,34.4z M424.8,11l-4.8,0.1c1.7-2.1,3.1-5.8,3.1-5.8l4.9-0.1C428.1,5.3,427.3,7.6,424.8,11L424.8,11z
		 M410,34.7l-0.2-9l4.6,4.4L410,34.7L410,34.7z"/>
</g>
<g>
	<path class="st3" d="M83,20.1v-20h40v40H83"/>
	<path class="st1" d="M91.8,20.1v1.6H97v14.8h3.7V21.8h5.2v-1.6c0-0.9,0-1.6,0-1.6c0,0-3.2,0-7,0l-7,0L91.8,20.1L91.8,20.1
		L91.8,20.1z M115.1,18.5c1,0.2,1.8,0.7,2.5,1.4c0.4,0.4,0.9,1.1,1,1.3c0,0.1-1.7,1.2-2.8,1.9c0,0-0.2-0.1-0.4-0.4
		c-0.5-0.7-1.1-1.1-1.9-1.1c-1.2-0.1-2,0.5-2,1.6c0,0.3,0.1,0.5,0.2,0.8c0.3,0.5,0.8,0.9,2.3,1.6c2.9,1.2,4.1,2,4.9,3.2
		c0.8,1.3,1,3.3,0.5,4.9c-0.6,1.7-2.2,2.8-4.4,3.2c-0.7,0.1-2.3,0.1-3,0c-1.6-0.3-3.1-1.1-4.1-2.1c-0.4-0.4-1.1-1.5-1-1.5l0.4-0.2
		l1.5-0.9l1.1-0.7l0.3,0.4c0.3,0.5,1.1,1.2,1.5,1.5c1.3,0.7,3,0.6,3.9-0.2c0.4-0.3,0.5-0.7,0.5-1.2c0-0.5-0.1-0.7-0.3-1
		c-0.3-0.4-1-0.8-2.8-1.6c-2.1-0.9-3-1.4-3.8-2.3c-0.5-0.5-0.9-1.3-1.1-2c-0.2-0.6-0.2-2-0.1-2.6c0.4-2,1.9-3.4,4.1-3.8
		C112.8,18.2,114.5,18.3,115.1,18.5L115.1,18.5L115.1,18.5z"/>
</g>
<g>
	<path class="st4" d="M211.5,23c-1.9,0-3.5,0.5-4.8,1.1c-0.5-1-1-1.9-1.1-2.5c-0.1-0.8-0.2-1.2-0.1-2.1c0.1-0.9,0.6-2.2,0.6-2.3
		c0-0.1-0.1-0.5-1.2-0.6c-1.1,0-2,0.2-2.1,0.5s-0.3,0.9-0.4,1.6c-0.2,1-2.1,4.5-3.3,6.3c-0.4-0.7-0.7-1.3-0.7-1.8
		c-0.1-0.8-0.2-1.2-0.1-2.1c0.1-0.9,0.6-2.2,0.6-2.3c0-0.1-0.1-0.5-1.2-0.6c-1.1,0-2,0.2-2.1,0.5c-0.1,0.3-0.2,1-0.4,1.6
		c-0.2,0.6-2.8,6.4-3.5,7.9c-0.3,0.8-0.6,1.4-0.9,1.8c-0.2,0.4,0,0,0,0.1c-0.2,0.4-0.3,0.5-0.3,0.5v0c-0.1,0.3-0.3,0.5-0.4,0.5
		c-0.1,0-0.2-0.7,0-1.7c0.4-2,1.3-5.1,1.3-5.3c0,0,0.2-0.6-0.6-0.9c-0.8-0.3-1,0.2-1.1,0.2s-0.1,0.2-0.1,0.2s0.8-3.5-1.6-3.5
		c-1.5,0-3.7,1.7-4.7,3.2c-0.7,0.4-2.1,1.1-3.6,2c-0.6,0.3-1.2,0.6-1.7,1l-0.1-0.1c-3-3.2-8.5-5.4-8.3-9.7
		c0.1-1.6,0.6-5.6,10.6-10.6c8.2-4.1,14.7-3,15.8-0.5c1.6,3.5-3.5,10.1-12,11.1c-3.2,0.4-4.9-0.9-5.4-1.4c-0.4-0.5-0.5-0.5-0.7-0.4
		c-0.3,0.1-0.1,0.6,0,0.8c0.2,0.7,1.3,1.8,3.1,2.4c1.6,0.5,5.4,0.8,9.9-1c5.1-2,9.1-7.5,8-12.1c-1.2-4.7-9-6.2-16.4-3.6
		c-4.4,1.6-9.1,4-12.6,7.2c-4.1,3.8-4.7,7.1-4.4,8.5c0.9,4.9,7.7,8.1,10.4,10.5c-0.1,0.1-0.3,0.1-0.4,0.2c-1.4,0.7-6.5,3.4-7.8,6.2
		c-1.5,3.2,0.2,5.6,1.4,5.9c3.5,1,7.1-0.8,9-3.6s1.7-6.6,0.8-8.3l0-0.1l1.1-0.6c0.7-0.4,1.4-0.8,2-1.1c-0.3,0.9-0.6,2-0.7,3.5
		c-0.1,1.8,0.6,4.2,1.6,5.2c0.4,0.4,1,0.4,1.3,0.4c1.1,0,1.7-1,2.2-2.1c0.7-1.4,1.3-3,1.3-3s-0.8,4.4,1.4,4.4c0.8,0,1.6-1,1.9-1.5v0
		c0,0,0,0,0.1-0.1c0-0.1,0.1-0.1,0.1-0.2v0c0.3-0.5,1-1.8,2.1-3.8c1.3-2.6,2.6-6,2.6-6s0.1,0.8,0.5,2.1c0.2,0.8,0.7,1.7,1.1,2.5
		c-0.3,0.4-0.5,0.7-0.5,0.7l0,0c-0.2,0.3-0.5,0.7-0.8,1c-1.1,1.3-2.3,2.7-2.5,3.1c-0.2,0.5-0.2,0.8,0.2,1.2c0.3,0.2,0.8,0.2,1.3,0.2
		c1-0.1,1.6-0.3,2-0.5c0.5-0.2,1.1-0.5,1.7-0.9c1-0.8,1.7-1.9,1.6-3.3c0-0.8-0.3-1.6-0.6-2.4c0.1-0.1,0.2-0.3,0.3-0.4
		c1.6-2.4,2.9-5.1,2.9-5.1s0.1,0.8,0.5,2.1c0.2,0.7,0.6,1.4,0.9,2.1c-1.5,1.3-2.5,2.7-2.9,3.7c-0.6,1.8-0.1,2.6,0.8,2.8
		c0.4,0.1,1-0.1,1.4-0.3c0.5-0.2,1.2-0.5,1.8-0.9c1-0.8,2-1.8,2-3.3c0-0.7-0.2-1.3-0.4-2c1.3-0.5,3-0.9,5.2-0.6
		c4.6,0.5,5.6,3.4,5.4,4.6c-0.2,1.2-1.1,1.9-1.5,2.1s-0.4,0.3-0.4,0.4c0,0.2,0.2,0.2,0.5,0.2c0.4-0.1,2.4-1,2.5-3.2
		C219.1,26.1,216.3,22.9,211.5,23L211.5,23z M175.7,35c-1.5,1.7-3.7,2.3-4.6,1.8c-1-0.6-0.6-3,1.3-4.8c1.1-1.1,2.6-2.1,3.6-2.7
		c0.2-0.1,0.6-0.3,0.9-0.6c0.1,0,0.1-0.1,0.1-0.1c0.1,0,0.2-0.1,0.2-0.1C178,31,177.4,33.3,175.7,35L175.7,35z M186.9,27.4
		c-0.5,1.3-1.7,4.7-2.3,4.5c-0.6-0.2-0.9-2.7-0.1-5.2c0.4-1.3,1.3-2.8,1.8-3.4c0.8-0.9,1.8-1.2,2-0.9
		C188.6,23,187.3,26.6,186.9,27.4z M196.2,31.8c-0.2,0.1-0.4,0.2-0.5,0.1c-0.1,0,0.1-0.2,0.1-0.2s1.2-1.2,1.6-1.8
		c0.3-0.3,0.6-0.7,0.9-1.2v0.1C198.3,30.4,196.8,31.4,196.2,31.8L196.2,31.8z M203.3,30.2c-0.2-0.1-0.1-0.5,0.4-1.7
		c0.2-0.5,0.7-1.3,1.6-2c0.1,0.3,0.2,0.6,0.2,0.9C205.5,29.2,204.1,29.9,203.3,30.2z"/>
</g>
<g>
	<path class="st5" d="M44.9,20c0-3-3.7-5.8-9.4-7.5C36.8,6.7,36.2,2,33.6,0.5C33,0.2,32.3,0,31.6,0v2c0.4,0,0.8,0.1,1,0.2
		C33.9,3,34.4,5.7,34,9.2c-0.1,0.9-0.3,1.8-0.5,2.7c-1.8-0.4-3.8-0.8-5.8-1c-1.2-1.7-2.5-3.2-3.8-4.6c3-2.8,5.8-4.3,7.7-4.3V0l0,0
		c-2.5,0-5.8,1.8-9.2,4.9c-3.3-3.1-6.6-4.9-9.2-4.9v2c1.9,0,4.7,1.5,7.7,4.3c-1.3,1.3-2.6,2.9-3.8,4.6c-2.1,0.2-4,0.6-5.8,1
		c-0.2-0.9-0.4-1.8-0.5-2.7c-0.4-3.5,0.1-6.2,1.3-6.9c0.3-0.2,0.6-0.2,1.1-0.2v-2l0,0c-0.8,0-1.5,0.2-2.1,0.5
		C8.7,2.1,8.1,6.7,9.4,12.5C3.7,14.3,0,17.1,0,20c0,3,3.7,5.8,9.4,7.5C8.1,33.4,8.7,38,11.3,39.5c0.6,0.3,1.3,0.5,2.1,0.5
		c2.5,0,5.8-1.8,9.2-4.9c3.3,3.1,6.6,4.9,9.2,4.9c0.8,0,1.5-0.2,2.1-0.5c2.6-1.5,3.2-6.1,1.8-11.9C41.2,25.8,44.9,23,44.9,20z
		 M33,13.9c-0.3,1.2-0.8,2.4-1.2,3.6c-0.4-0.7-0.8-1.5-1.2-2.2c-0.4-0.7-0.9-1.4-1.3-2.1C30.6,13.4,31.8,13.6,33,13.9z M28.8,23.7
		c-0.7,1.2-1.4,2.4-2.2,3.5c-1.4,0.1-2.8,0.2-4.1,0.2c-1.4,0-2.8-0.1-4.1-0.2c-0.8-1.1-1.5-2.2-2.2-3.5c-0.7-1.2-1.3-2.4-1.9-3.6
		c0.6-1.2,1.2-2.5,1.9-3.6c0.7-1.2,1.4-2.4,2.2-3.5c1.4-0.1,2.8-0.2,4.1-0.2c1.4,0,2.8,0.1,4.1,0.2c0.8,1.1,1.5,2.2,2.2,3.5
		c0.7,1.2,1.3,2.4,1.9,3.6C30.1,21.2,29.5,22.5,28.8,23.7z M31.8,22.5c0.5,1.2,0.9,2.5,1.3,3.6c-1.2,0.3-2.5,0.5-3.8,0.7
		c0.4-0.7,0.9-1.4,1.3-2.2C31,24,31.4,23.2,31.8,22.5z M22.5,32.3c-0.8-0.9-1.7-1.9-2.6-2.9c0.8,0,1.7,0.1,2.5,0.1
		c0.9,0,1.7,0,2.6-0.1C24.2,30.4,23.3,31.4,22.5,32.3z M15.7,26.9c-1.3-0.2-2.6-0.4-3.8-0.7c0.3-1.2,0.8-2.4,1.2-3.6
		c0.4,0.7,0.8,1.5,1.2,2.2S15.2,26.2,15.7,26.9z M22.4,7.8c0.8,0.9,1.7,1.9,2.6,2.9c-0.8,0-1.7-0.1-2.5-0.1c-0.9,0-1.7,0-2.6,0.1
		C20.8,9.7,21.6,8.7,22.4,7.8z M15.7,13.2c-0.4,0.7-0.9,1.4-1.3,2.2c-0.4,0.7-0.8,1.5-1.2,2.2c-0.5-1.2-0.9-2.5-1.3-3.6
		C13.1,13.6,14.4,13.4,15.7,13.2z M7.4,24.7C4.1,23.3,2,21.5,2,20c0-1.4,2.1-3.3,5.3-4.6c0.8-0.3,1.7-0.6,2.5-0.9
		c0.5,1.8,1.2,3.7,2.1,5.6c-0.8,1.9-1.5,3.8-2,5.5C9,25.3,8.2,25,7.4,24.7z M12.3,37.8c-1.2-0.7-1.8-3.4-1.4-6.9
		c0.1-0.9,0.3-1.8,0.5-2.7c1.8,0.4,3.8,0.8,5.8,1c1.2,1.7,2.5,3.2,3.8,4.6c-3,2.8-5.8,4.3-7.7,4.3C12.9,38,12.6,37.9,12.3,37.8z
		 M34,30.8c0.4,3.5-0.1,6.2-1.3,6.9c-0.3,0.2-0.6,0.2-1.1,0.2c-1.9,0-4.7-1.5-7.7-4.3c1.3-1.3,2.6-2.9,3.8-4.6c2.1-0.2,4-0.6,5.8-1
		C33.8,29,33.9,29.9,34,30.8z M37.6,24.7c-0.8,0.3-1.7,0.6-2.5,0.9c-0.5-1.8-1.2-3.7-2.1-5.6c0.8-1.9,1.5-3.8,2-5.6
		c0.9,0.3,1.8,0.6,2.6,0.9c3.2,1.4,5.3,3.2,5.3,4.6C42.9,21.5,40.8,23.3,37.6,24.7z"/>
	<path class="st5" d="M13.3,0.1L13.3,0.1L13.3,0.1z"/>
	<circle class="st5" cx="22.5" cy="20" r="4.2"/>
	<path class="st5" d="M31.6,0L31.6,0L31.6,0z"/>
</g>
</svg>
