<svg xmlns="http://www.w3.org/2000/svg" viewBox="0 0 159.3 104.69"><defs><style>.cls-1{isolation:isolate;}.cls-2{fill:#f1f2f2;}.cls-3{fill:#bcbec0;}.cls-4{fill:#e6e7e8;}.cls-5{fill:#edece9;}.cls-6{fill:#2f292b;}.cls-7{fill:#31a499;}.cls-8{fill:#63c8c7;}.cls-9{fill:#417e8f;}.cls-10{fill:#42494f;}.cls-11{fill:#443947;}.cls-12{fill:#58595b;}.cls-13{fill:#e36230;}.cls-14{fill:#f6e19c;}.cls-15{fill:#9bbd2f;}.cls-16{fill:#d7df23;}.cls-17{fill:#f7941e;}.cls-18{fill:#ef4136;}.cls-19{fill:#fff;}.cls-20{mix-blend-mode:multiply;}.cls-21{fill:#fefefe;}.cls-22{fill:#fdfdfd;}.cls-23{fill:#fcfcfc;}.cls-24{fill:#fbfbfb;}.cls-25{fill:#fafafa;}.cls-26{fill:#f9f9f9;}.cls-27{fill:#f7f7f7;}.cls-28{fill:#f6f6f6;}.cls-29{fill:#f5f5f5;}.cls-30{fill:#f4f4f4;}.cls-31{fill:#f3f3f3;}.cls-32{fill:#f2f2f2;}.cls-33{fill:#f1f1f1;}.cls-34{fill:#f0f0f0;}.cls-35{fill:#efefef;}.cls-36{fill:#eee;}.cls-37{fill:#ededed;}.cls-38{fill:#ebeced;}.cls-39{fill:#eaebec;}.cls-40{fill:#e9eaeb;}.cls-41{fill:#e8e9ea;}.cls-42{fill:#e7e8e9;}.cls-43{fill:#565f66;}.cls-44{fill:#dad3d6;}.cls-45{fill:#1c75bc;}.cls-46{fill:#27aae1;}.cls-47{fill:#00aeef;}.cls-48{fill:#ffb288;}.cls-49{fill:#231f20;}.cls-50{fill:#c2b59b;}</style></defs><g class="cls-1"><g id="Layer_1" data-name="Layer 1"><rect class="cls-2" y="77.32" width="159.3" height="8.24"/><rect class="cls-2" y="77.92" width="9.05" height="26.77"/><rect class="cls-2" x="150.25" y="78.76" width="9.05" height="25.93"/><polygon class="cls-3" points="43.45 64.1 60.78 64.1 62.22 77.38 42 77.38 43.45 64.1"/><path class="cls-4" d="M68.77,76.89c0,.48-.78.87-1.75.87H37.2c-1,0-1.74-.39-1.74-.87v-.23c0-.48.78-.87,1.74-.87H67c1,0,1.75.39,1.75.87Z"/><path class="cls-5" d="M6.66,58.47v5.28c0,2,1.64,3,3.67,3H93.89c2,0,3.68-.92,3.68-3V58.47Z"/><path class="cls-6" d="M97.57,60.76V6.35c0-2-1.65-2.95-3.68-2.95H10.33c-2,0-3.67.92-3.67,2.95V60.76Z"/><rect class="cls-7" x="8.82" y="6.17" width="86.58" height="51.86"/><rect class="cls-8" x="8.82" y="6.17" width="86.58" height="4.8"/><path class="cls-9" d="M13.52,8.57a1.1,1.1,0,1,1-1.09-1.1A1.09,1.09,0,0,1,13.52,8.57Z"/><rect class="cls-10" x="11.33" y="13.76" width="55.09" height="40.49"/><rect class="cls-11" x="71.34" y="20.48" width="21.48" height="32.54"/><rect class="cls-12" x="11.33" y="13.76" width="55.09" height="2.33"/><path class="cls-13" d="M14.75,14.93a.72.72,0,0,1-.72.72.73.73,0,1,1,.72-.72Z"/><path class="cls-14" d="M16.79,14.93a.72.72,0,0,1-.72.72.73.73,0,1,1,.72-.72Z"/><path class="cls-15" d="M18.83,14.93a.73.73,0,1,1-.72-.73A.72.72,0,0,1,18.83,14.93Z"/><rect class="cls-12" x="71.22" y="20.48" width="21.61" height="2.33"/><path class="cls-13" d="M75.87,21.65a.73.73,0,1,1-.73-.72A.72.72,0,0,1,75.87,21.65Z"/><path class="cls-14" d="M77.91,21.65a.73.73,0,0,1-.73.73.73.73,0,0,1-.72-.73.72.72,0,0,1,.72-.72A.73.73,0,0,1,77.91,21.65Z"/><path class="cls-15" d="M73.78,21.65a.73.73,0,0,1-.72.73.73.73,0,0,1-.73-.73.73.73,0,0,1,.73-.72A.72.72,0,0,1,73.78,21.65Z"/><rect class="cls-16" x="15.71" y="22.44" width="11.88" height="0.75"/><rect class="cls-16" x="15.71" y="25.47" width="6.79" height="0.75"/><rect class="cls-17" x="23.95" y="25.47" width="3.03" height="0.75"/><rect class="cls-18" x="15.71" y="28.38" width="17.57" height="0.74"/><rect class="cls-17" x="35.23" y="28.38" width="8.12" height="0.74"/><rect class="cls-16" x="17.53" y="30.93" width="9.45" height="0.75"/><rect class="cls-17" x="28.56" y="30.93" width="3.03" height="0.75"/><rect class="cls-18" x="34.01" y="30.93" width="11.88" height="0.75"/><rect class="cls-18" x="15.71" y="33.96" width="5.94" height="0.74"/><rect class="cls-17" x="23.11" y="33.96" width="2.79" height="0.74"/><rect class="cls-16" x="28.07" y="33.96" width="17.82" height="0.74"/><rect class="cls-17" x="15.71" y="36.5" width="2.97" height="0.75"/><rect class="cls-17" x="20.44" y="36.5" width="11.15" height="0.75"/><rect class="cls-18" x="34.01" y="36.5" width="14.54" height="0.75"/><rect class="cls-16" x="15.71" y="39.53" width="11.88" height="0.75"/><rect class="cls-17" x="30.08" y="39.53" width="17.27" height="0.75"/><rect class="cls-19" x="75.86" y="26.7" width="1.13" height="0.75"/><rect class="cls-19" x="75.86" y="28.7" width="1.13" height="0.75"/><rect class="cls-19" x="75.86" y="30.43" width="1.13" height="0.75"/><rect class="cls-19" x="75.86" y="38.29" width="1.13" height="0.75"/><rect class="cls-19" x="75.86" y="44.33" width="1.13" height="0.75"/><rect class="cls-19" x="78.42" y="32.46" width="1.14" height="0.74"/><rect class="cls-19" x="78.42" y="34.45" width="1.14" height="0.75"/><rect class="cls-19" x="77.32" y="40.44" width="1.13" height="0.75"/><rect class="cls-19" x="77.32" y="42.36" width="1.13" height="0.74"/><rect class="cls-19" x="78.42" y="36.58" width="1.14" height="0.75"/><rect class="cls-19" x="78.13" y="26.7" width="4.15" height="0.75"/><rect class="cls-19" x="78.13" y="28.49" width="6.09" height="0.75"/><rect class="cls-19" x="78.13" y="38.29" width="8.02" height="0.75"/><rect class="cls-19" x="77.89" y="30.43" width="6.19" height="0.75"/><rect class="cls-19" x="77.89" y="44.33" width="6.19" height="0.75"/><rect class="cls-19" x="80.21" y="32.46" width="5.43" height="0.74"/><rect class="cls-19" x="80.21" y="34.58" width="5.43" height="0.74"/><rect class="cls-19" x="80.21" y="36.58" width="5.43" height="0.75"/><rect class="cls-19" x="80.21" y="40.44" width="5.43" height="0.75"/><rect class="cls-19" x="80.21" y="42.36" width="5.43" height="0.74"/><g class="cls-20"><rect class="cls-19" x="9.01" y="88.09" width="141" height="0.13"/><rect class="cls-21" x="9.01" y="87.97" width="141" height="0.13"/><polygon class="cls-22" points="9.01 87.84 150.01 87.84 148.24 87.97 9.01 87.97 9.01 87.84"/><rect class="cls-23" x="9.01" y="87.71" width="141" height="0.13"/><rect class="cls-24" x="9.01" y="87.59" width="141" height="0.13"/><rect class="cls-25" x="9.01" y="87.46" width="141" height="0.12"/><rect class="cls-26" x="9.01" y="87.34" width="141" height="0.13"/><rect class="cls-27" x="9.01" y="87.21" width="141" height="0.13"/><rect class="cls-28" x="9.01" y="87.08" width="141" height="0.13"/><rect class="cls-29" x="9.01" y="86.96" width="141" height="0.13"/><rect class="cls-30" x="9.01" y="86.83" width="141" height="0.13"/><rect class="cls-31" x="9.01" y="86.71" width="141" height="0.13"/><rect class="cls-32" x="9.01" y="86.58" width="141" height="0.13"/><rect class="cls-32" x="9.01" y="86.48" width="141" height="0.09"/><rect class="cls-33" x="9.01" y="86.39" width="141" height="0.09"/><rect class="cls-34" x="9.01" y="86.3" width="141" height="0.09"/><rect class="cls-35" x="9.01" y="86.2" width="141" height="0.09"/><rect class="cls-36" x="9.01" y="86.11" width="141" height="0.09"/><rect class="cls-37" x="9.01" y="86.02" width="141" height="0.09"/><rect class="cls-38" x="9.01" y="85.92" width="141" height="0.09"/><rect class="cls-39" x="9.01" y="85.83" width="141" height="0.09"/><rect class="cls-40" x="9.01" y="85.74" width="141" height="0.09"/><rect class="cls-41" x="9.01" y="85.64" width="141" height="0.1"/><rect class="cls-42" x="9.01" y="85.55" width="141" height="0.09"/><rect class="cls-4" x="9.01" y="85.46" width="141" height="0.1"/><path class="cls-4" d="M148.24,85.46h0Z"/></g><path class="cls-2" d="M150.68,75c0,.29-49.71.29-49.71,0V50.29c0-2.25.58-2.88,2.68-2.88H148c2.14,0,2.68.79,2.68,2.88Z"/><path class="cls-43" d="M150.26,73.56c0,.28-48.87.28-48.87,0V50.69c0-2.2.57-2.82,2.63-2.82h43.61c2.1,0,2.63.77,2.63,2.82Z"/><path class="cls-44" d="M100,75.43c.06,1,.6,1.83,1.25,1.83h49.25c.65,0,1.19-.8,1.26-1.83Z"/><rect class="cls-2" x="99.95" y="74.13" width="51.76" height="1.45"/><rect class="cls-7" x="103.57" y="49.7" width="44.5" height="21.85"/><rect class="cls-2" x="110.42" y="51.08" width="29.3" height="19.73"/><rect class="cls-43" x="111.31" y="51.68" width="27.51" height="18.52"/><path class="cls-45" d="M113.68,56.59h0Z"/><rect class="cls-46" x="113.68" y="56.34" width="6.43" height="0.5"/><path class="cls-45" d="M113.68,58.22h0Z"/><rect class="cls-46" x="113.68" y="57.97" width="11.91" height="0.5"/><rect class="cls-19" x="113.68" y="59.55" width="9.52" height="0.5"/><path class="cls-47" d="M114.67,61.18h0Z"/><rect class="cls-47" x="114.67" y="60.93" width="13.98" height="0.5"/><rect class="cls-19" x="113.68" y="62.57" width="17.13" height="0.5"/><path class="cls-47" d="M116.24,64.2h0Z"/><rect class="cls-47" x="116.24" y="63.95" width="14.25" height="0.5"/><rect class="cls-19" x="113.68" y="65.59" width="17.13" height="0.5"/><path class="cls-48" d="M64.59,19.1c-.38-.67-1.28.74-1.72,1.85A55.19,55.19,0,0,1,61.6,12.8c-2.5-2.66-5.73-3-9.79-3-4.45,0-9.42.67-12,2.83-.14,2.88-.44,7.82-.43,8.09-.44-1.07-1.2-2.26-1.57-1.62-.65,1.11-1.54,2.61-.51,4.66s1.35,2.94,2.06,2.17a1.35,1.35,0,0,0,.27-.55s2.1,5.35,3.43,6.89a36,36,0,0,0,3.68,3.11,29.17,29.17,0,0,1,.13,6.29c-.49,1.5-4.17,9.29-4.17,9.29,15.65.44,15.68.08,17.51.68,1.63.54-3.93-8.2-4.5-9.55-.3-.71-.36-4.36-.29-7,0,0,2.53-2.42,3.45-3.5,1.12-1.32,3.75-5.7,3.75-5.7s.12-.27.17-.41a1.11,1.11,0,0,0,.23.4c.71.77,1-.12,2.06-2.17S65.24,20.21,64.59,19.1Z"/><path class="cls-48" d="M6.66,70.68a5.19,5.19,0,0,0,1,7c1.88,1.65,4.91.27,4.91.27l11.79-12L19.06,54.74Z"/><polygon class="cls-48" points="45.45 47.48 44.85 32.58 57.42 32.72 57.91 47.48 45.45 47.48"/><path class="cls-48" d="M96,70.68a5.19,5.19,0,0,1-1,7c-1.88,1.65-4.92.27-4.92.27l-11.79-12,5.32-11.16Z"/><path class="cls-19" d="M86.56,56.39,68.69,38.93,57.49,37.5a42.67,42.67,0,0,1-6.55,1,30,30,0,0,1-5.83-1L33.92,38.93,16,56.39l7.45,11.75,6-5.26L25.14,99.25s17.71-.14,25.73,0h.86c8-.17,24.27,0,24.27,0L73.07,62.88l6,5.26Z"/><rect class="cls-48" x="10.08" y="70.12" width="20.56" height="8.33"/><rect class="cls-48" x="71.02" y="70.12" width="20.56" height="8.33"/><path class="cls-49" d="M63.56,9.8c-.3-2-.52-4.12-2.08-5.52a11,11,0,0,0-5.57-2.75c-1.69-.13-4-.21-4-.21s-.17-.4.38-.88-.17-.69-1.43,0-3,1.56-3,1.56-.93.7-.76.14A12.6,12.6,0,0,1,48.56,0s-6.22,2.52-7.93,4.39c-4.1,4.47-2.24,11.84-1.18,15.05h0l.19,5.94s2.1,5.35,3.43,6.89a13.93,13.93,0,0,0,3.23,2.92,13.75,13.75,0,0,0,4.46.72,13.58,13.58,0,0,0,4.67-.77c1.08-.58,2.53-2.42,3.45-3.5,1.12-1.32,3.75-5.7,3.75-5.7V20.07A28.42,28.42,0,0,0,63.56,9.8Z"/><path class="cls-50" d="M80.77,104.69a2.05,2.05,0,0,0,.26-1L76.11,70.92c0-8.94-4.4-16.18-9.83-16.18H37c-5.43,0-9.84,7.24-9.84,16.18l-5.74,32.79a2.05,2.05,0,0,0,.26,1Z"/><path class="cls-12" d="M53.1,104.69V94c0-1.66-.9-3-2-3s-2,1.34-2,3v10.68Z"/><path class="cls-12" d="M56.57,81.37a3.68,3.68,0,0,1,3.36,3.94v3.82a3.69,3.69,0,0,1-3.36,4H45.83a3.7,3.7,0,0,1-3.36-4V85.31a3.69,3.69,0,0,1,3.36-3.94Z"/></g></g></svg>