<?xml version="1.0" encoding="utf-8"?>
<!-- Generator: Adobe Illustrator 23.0.6, SVG Export Plug-In . SVG Version: 6.00 Build 0)  -->
<svg version="1.1" id="Layer_1" xmlns="http://www.w3.org/2000/svg" xmlns:xlink="http://www.w3.org/1999/xlink" x="0px" y="0px"
	 viewBox="0 0 48 48" style="enable-background:new 0 0 48 48;" xml:space="preserve">
<title>database</title>
<path d="M24,0C10.7,0,0,3.4,0,7.5v6C0,17.6,10.7,21,24,21s24-3.4,24-7.5v-6C48,3.4,37.3,0,24,0z"/>
<path d="M24,25.5c-13.3,0-24-3.4-24-7.5v9c0,4.1,10.7,7.5,24,7.5s24-3.4,24-7.5v-9C48,22.1,37.3,25.5,24,25.5z"/>
<path d="M24,39c-13.3,0-24-3.4-24-7.5v9C0,44.6,10.7,48,24,48s24-3.4,24-7.5v-9C48,35.6,37.3,39,24,39z"/>
</svg>
