<?xml version="1.0" encoding="utf-8"?>
<!-- Generator: Adobe Illustrator 23.0.6, SVG Export Plug-In . SVG Version: 6.00 Build 0)  -->
<svg version="1.1" id="Layer_1" xmlns="http://www.w3.org/2000/svg" xmlns:xlink="http://www.w3.org/1999/xlink" x="0px" y="0px"
	 viewBox="0 0 32 32" style="enable-background:new 0 0 32 32;" xml:space="preserve">
<style type="text/css">
	.st0{fill:#D2D2D2;}
</style>
<title>twitter-with-circle</title>
<path class="st0" d="M16,0C7.2,0,0,7.2,0,16s7.2,16,16,16s16-7.2,16-16S24.8,0,16,0z M22.5,13.2c0,0.2,0,0.3,0,0.3c0,4.2-3.2,9-9,9
	c-1.8,0-3.5-0.5-4.8-1.5c0.2,0,0.5,0,0.8,0c1.5,0,2.8-0.5,3.8-1.3c-1.3,0-2.5-1-3-2.2c0.2,0,0.3,0,0.7,0s0.5,0,0.8-0.2
	c-1.3-0.2-2.5-1.3-2.5-2.8l0,0c0.5,0.2,0.8,0.3,1.5,0.3c-0.8-0.7-1.5-1.5-1.5-2.7c0-0.5,0.2-1.2,0.5-1.7c1.5,1.8,3.8,3.2,6.5,3.3
	c0-0.2,0-0.5,0-0.7c0-1.7,1.3-3.2,3.2-3.2c0.8,0,1.7,0.3,2.3,1c0.7-0.2,1.3-0.3,2-0.8c-0.2,0.7-0.7,1.3-1.3,1.7
	c0.7,0,1.2-0.2,1.8-0.5C23.7,12.2,23.2,12.7,22.5,13.2z"/>
</svg>
