<?xml version="1.0" encoding="utf-8"?>
<!-- Generator: Adobe Illustrator 24.3.0, SVG Export Plug-In . SVG Version: 6.00 Build 0)  -->
<svg version="1.1" id="Layer_1" xmlns="http://www.w3.org/2000/svg" xmlns:xlink="http://www.w3.org/1999/xlink" x="0px" y="0px"
	 viewBox="0 0 815.3 40.2" style="enable-background:new 0 0 815.3 40.2;" xml:space="preserve">
<style type="text/css">
	.st0{fill:#4D4D4D;}
	.st1{fill:#EFCCA3;}
	.st2{fill:#CCAC8D;}
	.st3{fill:#FFFFFF;}
	.st4{fill:#56332B;}
	.st5{fill:#442823;}
	.st6{fill:#7F4A41;stroke:#4D4D4D;stroke-width:1.598;stroke-linecap:round;stroke-linejoin:round;}
	.st7{fill:#331712;}
	.st8{fill:#83CD29;}
	.st9{fill:#404137;}
	.st10{fill:#CB3837;}
	.st11{fill:#6762A6;}
	.st12{fill:#38B2AC;}
	.st13{fill:#222222;}
</style>
<symbol  id="A" viewBox="-51.4 -15.2 102.8 30.4">
	<g>
		<path class="st0" d="M4.3-9.3H10v0.2c0.4-0.2,0.8-0.3,1.2-0.4s0.9-0.2,1.3-0.2c1,0,1.9,0.2,2.7,0.5c0.8,0.3,1.6,0.9,2.2,1.5
			s1.1,1.4,1.4,2.2s0.5,1.7,0.5,2.7c0,0.9-0.2,1.8-0.5,2.7C18.5,0.6,18,1.4,17.4,2s-1.3,1.1-2.2,1.5C14.3,3.9,13.5,4,12.5,4
			c-0.5,0-1,0-1.6-0.2c-0.4,0-0.9-0.2-1.3-0.4v2.9h2.5v3.5H3.5V6.3h2.2V-5.9H4.3V-9.3L4.3-9.3z M12.3-6.2c-0.5,0-1,0.1-1.5,0.4
			S9.9-5.1,9.6-4.6v3.7c0.3,0.4,0.7,0.8,1.1,1.1c0.5,0.3,1,0.4,1.6,0.4c0.4,0,0.8-0.1,1.2-0.3s0.7-0.4,1-0.7s0.5-0.7,0.7-1.1
			s0.3-0.9,0.3-1.3c0-0.5-0.1-1-0.3-1.4C15-4.7,14.8-5,14.5-5.3s-0.6-0.5-1-0.7S12.7-6.2,12.3-6.2L12.3-6.2z M28.7-9.3h6.2v9.7h1.6
			v3.5h-5.6V2.7c-0.5,0.4-1,0.7-1.6,0.9c-0.6,0.2-1.3,0.3-2.1,0.3c-0.7,0-1.4-0.1-2.1-0.3c-0.6-0.2-1.2-0.6-1.7-1
			c-0.5-0.5-0.9-1-1.1-1.7C22.1,0.1,22-0.7,22-1.6v-4.3h-1.7v-3.5h5.8v7.7c0,0.9,0.2,1.5,0.7,2c0.5,0.4,1,0.7,1.8,0.7
			c0.5,0,1-0.2,1.4-0.5s0.7-0.7,0.9-1.3v-5.1h-2.1L28.7-9.3L28.7-9.3z M47.5,3.1c-0.4,0.3-0.9,0.5-1.4,0.6s-1,0.2-1.4,0.2
			c-1,0-1.9-0.2-2.8-0.5S40.3,2.6,39.7,2c-0.6-0.6-1.1-1.4-1.5-2.2c-0.4-0.9-0.5-1.8-0.5-2.7s0.2-1.8,0.5-2.6S39-7,39.6-7.6
			c0.6-0.6,1.3-1.1,2.2-1.5c0.8-0.4,1.8-0.5,2.7-0.5c0.6,0,1.1,0.1,1.7,0.2c0.5,0.1,1,0.3,1.4,0.5v-0.3h3.8V3.3
			c0,1.1-0.2,2.1-0.6,2.9c-0.4,0.8-0.9,1.5-1.5,2c-0.7,0.5-1.4,0.9-2.2,1.2s-1.7,0.4-2.7,0.4c-1.2,0-2.2-0.2-3.2-0.5
			C40.3,9,39.4,8.6,38.6,8l1.6-2.8C40.7,5.5,41.4,5.8,42,6c0.7,0.2,1.4,0.3,2.3,0.3c0.5,0,0.9-0.1,1.3-0.1c0.4-0.1,0.7-0.3,1-0.5
			s0.5-0.6,0.7-1C47.4,4.3,47.5,3.8,47.5,3.1L47.5,3.1L47.5,3.1z M44.7,0.4c0.6,0,1.1-0.1,1.6-0.5c0.5-0.3,0.9-0.7,1.1-1.2v-3.2
			c-0.3-0.5-0.7-0.9-1.2-1.3c-0.5-0.3-1-0.5-1.6-0.5c-0.4,0-0.8,0.1-1.2,0.3c-0.4,0.2-0.7,0.4-1,0.7c-0.3,0.3-0.5,0.6-0.7,1
			S41.5-3.5,41.5-3s0.1,1,0.3,1.4s0.4,0.7,0.7,1.1c0.3,0.3,0.6,0.5,1,0.7C43.9,0.3,44.3,0.3,44.7,0.4L44.7,0.4z"/>
		<path class="st1" d="M-10.1-5.7c-0.1-1.7,0.2-3.2-0.6-4.5c-1.8-3.2-6.5-5-15.7-5v0.3h-0.2h0.2v-0.3c-9.2,0-14.1,1.8-15.9,5
			C-43-8.9-43-7.4-43.1-5.7c-0.1,1.3-0.7,2.8-0.4,4.3c0.3,2,0.4,4,0.7,5.8c0.2,1.5,2.3,2.8,2.5,4.2c0.5,3.9,4.6,5.7,13.8,5.7v0.3
			h-0.2h0.2v-0.3c9.2,0,13.1-1.8,13.6-5.7c0.2-1.5,2.1-2.7,2.3-4.2c0.3-1.8,0.4-3.8,0.7-5.8C-9.4-2.9-10-4.3-10.1-5.7L-10.1-5.7z"/>
		<g>
			<path class="st2" d="M-26.6-4.3c1.7,0,2.8,1.1,3.9,2c1.3,1.1,3.4,1.9,4.3,2.8s2,1.9,2.5,3.4c0.5,1.5,0.5,3.4,0.5,3.9s0.3,0.4,1,0
				c1.8-0.9,3.8-3.3,3.8-3.3C-10.8,6-12.8,7.3-13,8.8c-0.5,3.9-4.3,5.8-13.7,5.8l0,0h0.2"/>
			<path class="st2" d="M-20.5-7.3c0.3,1.2,1.6,5.2-0.8,3.9c0,0,1,0.6,1.6,2.8c0.7,2.2,2.2,2.5,2.2,2.5s2.6,0.5,4.5-1.2
				c1.6-1.4,1.9-3.8,1.2-5.7c-0.7-1.8-1.9-2.4-3.7-2.8C-17.3-8.3-20.9-8.6-20.5-7.3L-20.5-7.3z"/>
		</g>
		<g>
			<path id="C_4_" d="M-19.3-2.9c0-1.9,1.5-3.4,3.4-3.4s3.4,1.5,3.4,3.4s-1.5,3.4-3.4,3.4S-19.3-1.1-19.3-2.9z"/>
		</g>
		<path class="st3" d="M-17.7-4.4c0-0.5,0.4-0.9,0.9-0.9s0.9,0.4,0.9,0.9s-0.4,0.9-0.9,0.9S-17.7-3.9-17.7-4.4z"/>
		<path class="st1" d="M-21.1-3.1c0,0,3,2.1,4.7,4.1s1.6,2.4,1.6,2.4L-16,4c0,0-1.7-3.2-3.8-4.4s-2.3-2.2-2.3-2.2L-21.1-3.1z"/>
		<path class="st2" d="M-26.5-4.3c-1.7,0-2.9,1.1-4,2c-1.3,1.1-3.5,1.9-4.4,2.8c-0.9,1-2.1,1.9-2.5,3.4S-38,7.3-38,7.8s0.1,0.5-1,0
			c-1.8-0.9-3.8-3.3-3.8-3.3c0.2,1.5,2.2,2.8,2.4,4.3c0.5,3.9,4.3,5.8,13.8,5.8h0.2"/>
		<path class="st4" d="M-17.5,2.2c-1.8-2.3-4.8-4.4-8.9-4.4l0,0c-4.1,0-7.1,2.1-8.9,4.4c-1.9,2.3-1.8,3.3-1.8,5.5
			c0,8.1,2.8,5.8,4.7,6.8c1.9,1,3.9,0.7,6,0.7l0,0c2.1,0,4,0.3,6-0.7c1.9-1,4.7,1.4,4.7-6.6C-15.7,5.5-15.6,4.5-17.5,2.2L-17.5,2.2z
			"/>
		<g>
			<path class="st5" d="M-26.6-0.2c0,0-0.3,3.7-0.8,4.5l1-0.2L-26.6-0.2z"/>
			<path class="st5" d="M-26.4-0.2c0,0,0.3,3.7,0.8,4.5l-1-0.2L-26.4-0.2z"/>
		</g>
		<path class="st4" d="M-29.6-1.1c-0.4-0.9,1-2.3,3.2-2.3s3.6,1.4,3.2,2.3s-1.8,1.2-3.2,1.2C-27.8,0.1-29.2-0.2-29.6-1.1z"/>
		<path d="M-26.4-0.2c0-0.2,1.3-0.2,2-0.7c0,0-1.4,0.5-1.7,0.3c-0.3-0.2-0.4-0.6-0.4-0.6s-0.1,0.5-0.3,0.6c-0.3,0.2-1.9-0.3-1.9-0.3
			L-26.4-0.2c-0.1,0.1-0.1,0.5-0.1,0.8l0.2,3.5c0.2,0.3,0.2-2.6,0.2-3.5C-26.3,0.6-26.4-0.2-26.4-0.2z"/>
	</g>
	<path class="st6" d="M-26.3,5c0.7,0,1.8,0.5,2.8,1.2c-1-1.1-2.2-1.9-2.8-1.9c-0.7,0-2.2,0.8-3.2,2.1C-28.5,5.5-27.1,5-26.3,5
		L-26.3,5z"/>
	<g>
		<g>
			<path class="st5" d="M-26.6,11.8c-1.5,0-2.9-0.5-4.2-0.8c-0.3-0.1-0.5,0.1-0.8,0c-2.4-0.8-4.4-2.1-5.6-3.7v0.4
				c0,8.1,2.8,5.8,4.7,6.8c1.9,1,3.9,0.7,6,0.7l0,0c2.1,0,4,0.3,6-0.7c1.9-1,4.7,1.4,4.7-6.7V6.9c-1.1,1.8-3.2,3.2-5.7,4.1
				c-0.2,0.1-0.8-0.1-1-0.1C-23.8,11.3-25,11.8-26.6,11.8L-26.6,11.8z"/>
			<path class="st5" d="M-30.3,7.4c0,0-1,2.9-0.3,4.1l-0.9-0.4C-31.4,11.2-30.8,8.3-30.3,7.4L-30.3,7.4z M-22.6,7.4
				c0,0,1,2.9,0.3,4.1l0.9-0.4C-21.5,11.2-22.2,8.3-22.6,7.4L-22.6,7.4z"/>
		</g>
		<path class="st2" d="M-32.7-7.3c-0.3,1.2-1.6,5.2,0.8,3.9c0,0-1,0.6-1.6,2.8s-2.2,2.5-2.2,2.5s-2.6,0.5-4.5-1.2
			c-1.6-1.4-1.9-3.8-1.2-5.7s1.9-2.4,3.7-2.8C-35.9-8.3-32.3-8.6-32.7-7.3L-32.7-7.3z"/>
		<path d="M-26.5,4.3c1,0,4.3,2.2,4.3,5V9.1c0-2.8-2.6-5.1-4.3-5.1s-4.3,2.3-4.3,5.1v0.2C-30.7,6.5-27.5,4.3-26.5,4.3L-26.5,4.3z"/>
		<path class="st7" d="M-26.1-1.5c-0.1-0.3,0-0.6,0.2-0.6s0.4,0.2,0.4,0.5s0,0.6-0.2,0.6S-26-1.2-26.1-1.5L-26.1-1.5z M-27.7-1.7
			c0.1-0.3,0.3-0.5,0.5-0.5s0.2,0.3,0.1,0.6s-0.3,0.5-0.5,0.5S-27.8-1.4-27.7-1.7z"/>
		<g>
			<path id="C_1_" d="M-40.5-2.9c0-1.9,1.5-3.4,3.4-3.4s3.4,1.5,3.4,3.4s-1.5,3.4-3.4,3.4S-40.5-1.1-40.5-2.9z"/>
		</g>
		<path class="st3" d="M-37.1-4.4c0-0.5,0.4-0.9,0.9-0.9s0.9,0.4,0.9,0.9l0,0c0,0.5-0.4,0.9-0.9,0.9C-36.7-3.5-37.1-3.9-37.1-4.4
			L-37.1-4.4L-37.1-4.4z"/>
	</g>
	<path class="st6" d="M-25.5-2.9c0,0-0.9,0.4-1.1,0.4s-1.1-0.5-1.1-0.4H-25.5L-25.5-2.9z"/>
	<g>
		<path class="st1" d="M-32.2-3.1c0,0-3,2.1-4.7,4.1s-1.6,2.4-1.6,2.4l1.2,0.5c0,0,1.7-3.2,3.8-4.4s2.3-2.2,2.3-2.2L-32.2-3.1z"/>
		<g>
			<path class="st2" d="M-38.8-9.2c0,0-1,2.8-3.3,4C-42.2-5.2-38.6-5.6-38.8-9.2L-38.8-9.2z M-14.6-9.2c0,0,1,2.8,3.3,4
				C-11.2-5.2-14.8-5.6-14.6-9.2L-14.6-9.2z M-21.1-3.9c0,0-2.3-2.4-5.3-2.5c0,0,0.1,0,0,0s0,0,0,0c-3.1,0.1-5.3,2.5-5.3,2.5
				c2.6-1.8,4.9-1.8,5.3-1.8C-26.4-5.7-23.8-5.8-21.1-3.9L-21.1-3.9z M-23.8-8.9c0,0-1.2-1.6-2.7-1.7h0.1c-1.2,0-2.6,1.7-2.6,1.7
				c1.3-1.3,2.6-1.2,2.6-1.2S-25.2-10.2-23.8-8.9L-23.8-8.9z M-37.1,2.9c0,0-1.8,0.9-3.1,0.3l0,0C-41.4,2.6-42,0.6-42,0.6
				S-40.8,4.1-37.1,2.9z M-16,2.9c0,0,1.8,0.9,3.1,0.3c1.5-0.7,1.8-2.6,1.8-2.6S-12.3,4.1-16,2.9L-16,2.9z M-35-9.4
				c1-0.2,2.7-0.2,4,0.2c1.7,0.6,0.3,2.7,0.7,2.8s0.8-1.5,3.9-1.3s3.5,1.5,3.9,1.3s-0.4-3.8,4.2-3c0,0-4.9-1.3-4.6,2.2
				c0,0-2.8-2.2-6.7-0.2C-29.8-7.4-28.8-10.7-35-9.4L-35-9.4z M-18-9.4c0.1,0,0.1,0,0.2,0S-17.9-9.4-18-9.4z"/>
			<path class="st2" d="M-36.4-14.1c0,0-4.2,5.2-4.8,7.2s-1.1,10.4-1.6,11.6l-1.9-8.2l3.5-8.6L-36.4-14.1z M-16.8-14.1
				c0,0,4.2,5.2,4.8,7.2s1.1,10.4,1.6,11.6l1.9-8.2l-3.5-8.6L-16.8-14.1z"/>
		</g>
		<path class="st4" d="M-17-14.1c0,0,4.5,3.7,5.8,8s0.8,9.5,1.8,10.2C-8,5-6.4-0.5-5.8-1c0.7-1,3.5-3.3,3.7-3.8s-5.7-6.8-8.3-8.1
			C-13.5-14.3-17.3-14.5-17-14.1z"/>
		<path class="st5" d="M-13.2-11.8c0,0,5.3,6.7,5.2,15.1L-5.9-1C-6-1-7.8-6.5-13.2-11.8z"/>
		<path class="st4" d="M-36.4-14.1c0,0-4.5,3.7-5.8,8S-43,3.4-44,4.1C-45.4,5-47-0.5-47.6-1c-0.8-0.9-3.6-3.3-3.8-3.7
			c-0.2-0.4,5.7-6.8,8.3-8.1C-39.9-14.3-36.1-14.5-36.4-14.1z"/>
		<path class="st5" d="M-40.2-11.8c0,0-5.3,6.7-5.2,15.1l-2-4.3C-47.4-1-45.6-6.5-40.2-11.8z"/>
		<path class="st2" d="M-43,3.4c0,0,0.4,2.1,1,2.7c0.6,0.7,0.2-0.5,0.2-0.5s-0.7-0.3-0.5-3C-42.2,0-43,3.4-43,3.4L-43,3.4z
			 M-10.2,3.4c0,0-0.4,2.1-1,2.7s-0.2-0.5-0.2-0.5s0.7-0.3,0.5-3S-10.2,3.4-10.2,3.4L-10.2,3.4z"/>
		<g>
			<g>
				<path id="D_12_" class="st5" d="M-30.8,1.8c0-0.2,0.1-0.3,0.3-0.3s0.3,0.1,0.3,0.3s-0.1,0.3-0.3,0.3S-30.8,2-30.8,1.8z"/>
			</g>
			<g>
				<path id="D_5_" class="st5" d="M-32.5,3.7c0-0.2,0.1-0.3,0.3-0.3c0.2,0,0.3,0.1,0.3,0.3S-32,4-32.2,4C-32.4,4-32.5,3.9-32.5,3.7
					z"/>
			</g>
			<g>
				<path id="D_4_" class="st5" d="M-33.1,1.8c0-0.2,0.1-0.3,0.3-0.3s0.3,0.1,0.3,0.3s-0.1,0.3-0.3,0.3S-33.1,2-33.1,1.8z"/>
			</g>
			<g>
				<path id="D_3_" class="st5" d="M-23.3,1.8c0-0.2,0.1-0.3,0.3-0.3s0.3,0.1,0.3,0.3s-0.1,0.3-0.3,0.3S-23.3,2-23.3,1.8z"/>
			</g>
			<g>
				<path id="D_2_" class="st5" d="M-21.5,3.7c0-0.2,0.1-0.3,0.3-0.3s0.3,0.1,0.3,0.3S-21,4-21.2,4S-21.5,3.9-21.5,3.7z"/>
			</g>
			<g>
				<path id="D_1_" class="st5" d="M-20.9,1.8c0-0.2,0.1-0.3,0.3-0.3s0.3,0.1,0.3,0.3s-0.1,0.3-0.3,0.3S-20.9,2-20.9,1.8z"/>
			</g>
		</g>
	</g>
</symbol>
<symbol  id="A_2" viewBox="-55.7 -15.7 111.4 31.5">
	<g>
		<path class="st8" d="M46.8-4.6c-0.3,0-0.5,0.1-0.8,0.2l-7.4,4.3c-0.5,0.3-0.8,0.8-0.8,1.4v8.5c0,0.6,0.3,1.1,0.8,1.3l1.9,1.1
			c0.9,0.5,1.3,0.5,1.7,0.5c1.4,0,2.2-0.8,2.2-2.3V2c0-0.1-0.1-0.2-0.2-0.2h-0.9c-0.1,0-0.2,0.1-0.2,0.2v8.4c0,0.6-0.7,1.3-1.8,0.8
			l-2-1.2c-0.1,0-0.1-0.1-0.1-0.2V1.2c0-0.1,0.1-0.2,0.1-0.2l7.4-4.2c0.1,0,0.2,0,0.2,0L54.3,1c0.1,0,0.1,0.1,0.1,0.2v8.5
			c0,0.1,0,0.2-0.1,0.2l-7.4,4.2c-0.1,0-0.2,0-0.2,0l-1.9-1.1c-0.1,0-0.1,0-0.2,0c-0.5,0.3-0.6,0.3-1.1,0.5c-0.1,0-0.3,0.1,0.1,0.3
			l2.5,1.5c0.2,0.1,0.5,0.2,0.8,0.2s0.5-0.1,0.8-0.2l7.4-4.2c0.5-0.3,0.8-0.8,0.8-1.3V1.2c0-0.6-0.3-1.1-0.8-1.4l-7.4-4.3
			C47.3-4.5,47.1-4.6,46.8-4.6L46.8-4.6z M48.7,1.5c-2.1,0-3.4,0.9-3.4,2.4c0,1.6,1.2,2.1,3.3,2.3c2.4,0.2,2.6,0.6,2.6,1.1
			c0,0.8-0.7,1.2-2.2,1.2c-2,0-2.4-0.5-2.5-1.5c0-0.1-0.1-0.2-0.2-0.2h-1c-0.1,0-0.2,0.1-0.2,0.2c0,1.2,0.7,2.7,3.9,2.7
			c2.3,0,3.7-0.9,3.7-2.5c0-1.6-1.1-2-3.4-2.3c-2.3-0.3-2.5-0.5-2.5-1c0-0.4,0.2-1,1.9-1c1.5,0,2.1,0.3,2.3,1.4
			c0,0.1,0.1,0.2,0.2,0.2h1c0.1,0,0.1,0,0.2-0.1s0.1-0.1,0.1-0.2C52.3,2.3,51.1,1.5,48.7,1.5L48.7,1.5z"/>
		<path class="st9" d="M3.3-15.7c-0.1,0-0.2,0-0.2,0.1c-0.1,0.1-0.2,0.2-0.2,0.4v12C2.9-3.1,2.8-3,2.7-3S2.5-2.9,2.4-3l-2-1.1
			c-0.3-0.2-0.6-0.2-0.9,0l-7.8,4.5c-0.3,0.2-0.5,0.5-0.5,0.8v9c0,0.3,0.2,0.6,0.5,0.8l7.8,4.5c0.3,0.2,0.6,0.2,0.9,0l7.8-4.5
			c0.3-0.2,0.5-0.5,0.5-0.8v-22.5c0-0.3-0.2-0.7-0.5-0.8l-4.7-2.6C3.5-15.7,3.4-15.7,3.3-15.7z M-47-4.5c-0.2,0-0.3,0-0.4,0.1
			l-7.8,4.5c-0.3,0.2-0.5,0.5-0.5,0.8l0,12.1c0,0.2,0.1,0.3,0.2,0.4c0.1,0.1,0.3,0.1,0.5,0l4.6-2.7c0.3-0.2,0.5-0.5,0.5-0.8V4.4
			c0-0.3,0.2-0.6,0.5-0.8l2-1.1c0.1-0.1,0.3-0.1,0.5-0.1c0.2,0,0.3,0,0.5,0.1l2,1.1C-44.2,3.7-44,4-44,4.4V10c0,0.3,0.2,0.6,0.5,0.8
			l4.6,2.7c0.1,0.1,0.3,0.1,0.5,0c0.1-0.1,0.2-0.2,0.2-0.4l0-12.1c0-0.3-0.2-0.6-0.5-0.8l-7.8-4.5C-46.6-4.4-46.7-4.4-47-4.5
			L-47-4.5L-47-4.5z M23.3-4.4c-0.2,0-0.3,0-0.5,0.1L15,0.3c-0.3,0.2-0.5,0.5-0.5,0.8v9c0,0.3,0.2,0.7,0.5,0.8l7.8,4.4
			c0.3,0.2,0.6,0.2,0.9,0l4.7-2.6c0.2-0.1,0.2-0.2,0.2-0.4S28.6,12,28.5,12l-7.9-4.5c-0.1-0.1-0.2-0.3-0.2-0.4V4.2
			c0-0.2,0.1-0.3,0.2-0.4L23,2.4c0.1-0.1,0.3-0.1,0.5,0l2.4,1.4c0.1,0.1,0.2,0.2,0.2,0.4v2.2c0,0.2,0.1,0.3,0.2,0.4
			c0.1,0.1,0.3,0.1,0.5,0l4.7-2.7C31.9,3.9,32,3.6,32,3.3V1.1c0-0.3-0.2-0.6-0.5-0.8l-7.8-4.5C23.7-4.3,23.5-4.4,23.3-4.4L23.3-4.4z
			 M-0.1,2.4c0,0,0.1,0,0.1,0L2.7,4c0.1,0,0.1,0.1,0.1,0.2v3.1c0,0.1-0.1,0.2-0.1,0.2L0.1,9c-0.1,0-0.2,0-0.2,0l-2.7-1.6
			C-2.9,7.4-3,7.4-3,7.3V4.2C-3,4.1-2.9,4-2.9,4l2.7-1.6C-0.1,2.4-0.1,2.4-0.1,2.4L-0.1,2.4z"/>
		<path class="st8" d="M-23.5-4.4c-0.2,0-0.3,0-0.5,0.1l-7.8,4.5c-0.3,0.2-0.5,0.5-0.5,0.8v9c0,0.3,0.2,0.6,0.5,0.8l7.8,4.5
			c0.3,0.2,0.6,0.2,0.9,0l7.8-4.5c0.3-0.2,0.5-0.5,0.5-0.8v-9c0-0.3-0.2-0.7-0.5-0.8L-23-4.3C-23.2-4.3-23.3-4.4-23.5-4.4L-23.5-4.4
			z M23.3,3.7C23.3,3.7,23.2,3.7,23.3,3.7l-1.6,0.9c-0.1,0-0.1,0.1-0.1,0.2v1.7c0,0.1,0,0.1,0.1,0.2l1.5,0.9c0.1,0,0.1,0,0.2,0
			l1.5-0.9c0.1,0,0.1-0.1,0.1-0.2V4.7c0-0.1,0-0.1-0.1-0.2L23.3,3.7C23.4,3.7,23.3,3.7,23.3,3.7z"/>
	</g>
</symbol>
<g>
	<defs>
		<rect id="SVGID_1_" x="0.4" y="0.1" width="135.5" height="40"/>
	</defs>
	<clipPath id="SVGID_2_">
		<use xlink:href="#SVGID_1_"  style="overflow:visible;"/>
	</clipPath>
	<g style="clip-path:url(#SVGID_2_);">
		
			<use xlink:href="#A"  width="102.8" height="30.4" x="-51.4" y="-15.2" transform="matrix(1.3207 0 0 1.3207 67.8873 20.1025)" style="overflow:visible;"/>
	</g>
</g>
<g>
	<path class="st10" d="M640.6,0.1v34.3h28.5v5.7h22.8v-5.7h51.3V0.1H640.6z"/>
	<path class="st3" d="M657.6,5.8h-11.3v22.8h11.3v-17h5.7v17h5.7V5.8H657.6z M674.8,5.8v28.5h11.5v-5.7h11.3V5.8H674.8z M691.9,22.9
		h-5.5V11.6h5.5V22.9z M714.6,5.8h-11.3v22.8h11.3v-17h5.7v17h5.7v-17h5.7v17h5.7V5.8H714.6z"/>
</g>
<g>
	<path class="st11" d="M811.5,40.1h-24.6c-2.1,0-3.8-1.7-3.8-3.8V3.9c0-2.1,1.7-3.8,3.8-3.8h24.6c2.1,0,3.8,1.7,3.8,3.8v32.4
		C815.3,38.4,813.6,40.1,811.5,40.1L811.5,40.1z"/>
	<path class="st3" d="M803.6,34.5l-0.4-15.9c0,0,1-3.8-12.7,1.8c0,0.1-0.4-14.7-0.4-14.7l4.5-0.1l0.3,9.5c0,0,12.5-5.2,12.7,3.5
		l0.4,15.8L803.6,34.5L803.6,34.5z M805.7,11.1l-4.8,0.1c1.7-2.1,3.1-5.8,3.1-5.8l4.9-0.1C809,5.4,808.2,7.7,805.7,11.1L805.7,11.1z
		 M790.9,34.8l-0.2-9l4.6,4.4L790.9,34.8L790.9,34.8z"/>
</g>
<path class="st12" d="M567.4,0.2c-8.9,0-14.4,4.4-16.6,13.3c3.3-4.4,7.2-6.1,11.6-5c2.5,0.6,4.3,2.5,6.3,4.5c3.3,3.3,7,7.1,15.3,7.1
	c8.9,0,14.4-4.4,16.6-13.3c-3.3,4.4-7.2,6.1-11.6,5c-2.5-0.6-4.3-2.5-6.3-4.5C579.5,4,575.7,0.2,567.4,0.2z M550.8,20.1
	c-8.9,0-14.4,4.4-16.6,13.3c3.3-4.4,7.2-6.1,11.6-5c2.5,0.6,4.3,2.5,6.3,4.5c3.3,3.3,7,7.1,15.3,7.1c8.9,0,14.4-4.4,16.6-13.3
	c-3.3,4.4-7.2,6.1-11.6,5c-2.5-0.6-4.3-2.5-6.3-4.5C562.8,23.9,559.1,20.1,550.8,20.1z"/>
<path class="st13" d="M357.1,31.3V15.9h19.2V15h-19.2V1h20.4V0.1h-21.3v32.1h21.5v-0.9L357.1,31.3L357.1,31.3z M395,9.1l-7.9,10.5
	l-7.9-10.5H378l8.4,11.2l-9.2,11.9h1.1l8.7-11.3l8.7,11.3h1.1l-9.3-12L396,9.1H395L395,9.1z M399.5,40.1V25.7h0.1
	c0.5,2.1,1.6,3.8,3.2,5.1c1.6,1.3,3.6,1.9,6.1,1.9c1.6,0,3-0.3,4.2-1c1.2-0.6,2.2-1.5,3.1-2.6c0.8-1.1,1.4-2.4,1.9-3.9
	c0.4-1.5,0.6-3,0.6-4.6c0-1.7-0.2-3.3-0.7-4.8s-1.1-2.7-2-3.8s-1.9-1.9-3.1-2.5s-2.6-0.9-4.1-0.9c-1.2,0-2.2,0.2-3.3,0.5
	c-1,0.3-1.9,0.8-2.7,1.5s-1.5,1.4-2,2.2c-0.6,0.9-1,1.8-1.3,2.8h-0.1V9.1h-0.9v31H399.5L399.5,40.1z M408.9,31.8
	c-2.8,0-5.1-1-6.8-2.9s-2.6-4.7-2.6-8.3c0-1.5,0.2-2.9,0.6-4.3s1-2.5,1.8-3.6s1.8-1.8,2.9-2.4c1.2-0.6,2.5-0.9,4-0.9
	s2.8,0.3,3.9,0.9c1.1,0.6,2,1.4,2.8,2.4s1.3,2.2,1.7,3.6s0.6,2.8,0.6,4.2c0,1.4-0.2,2.7-0.5,4s-0.9,2.5-1.6,3.6s-1.6,1.9-2.8,2.6
	C411.8,31.5,410.5,31.8,408.9,31.8L408.9,31.8z M423.7,32.2V19.1c0-1.3,0.2-2.5,0.5-3.7c0.4-1.2,0.9-2.2,1.7-3.2
	c0.8-0.9,1.7-1.6,2.9-2.2c1.1-0.5,2.5-0.7,4.1-0.6V8.5c-1.4,0-2.6,0.1-3.6,0.4c-1,0.3-1.9,0.8-2.7,1.4c-0.8,0.6-1.4,1.2-1.8,2
	s-0.8,1.6-1,2.4h-0.1V9.1h-0.9v23.1H423.7L423.7,32.2z M434,20.8h19.3c0.1-1.6-0.1-3.1-0.5-4.6s-1-2.8-1.8-3.9s-1.9-2.1-3.2-2.7
	c-1.3-0.7-2.9-1-4.6-1c-1.3,0-2.6,0.3-3.8,0.8c-1.2,0.5-2.3,1.3-3.2,2.4c-0.9,1-1.7,2.3-2.2,3.8s-0.9,3.2-0.9,5.1
	c0,1.7,0.2,3.3,0.6,4.8c0.4,1.5,1,2.8,1.8,3.9s1.9,1.9,3.1,2.5c1.3,0.6,2.8,0.9,4.6,0.8c2.6,0,4.9-0.7,6.6-2.2s2.9-3.6,3.2-6.3h-0.9
	c-0.4,2.5-1.4,4.5-3,5.7c-1.6,1.3-3.6,1.9-6,1.9c-1.6,0-3-0.3-4.2-0.9c-1.1-0.6-2.1-1.4-2.8-2.3s-1.2-2.1-1.6-3.5
	C434.2,23.8,434,22.4,434,20.8L434,20.8z M452.4,19.9H434c0.1-1.6,0.4-3.1,0.9-4.4s1.2-2.4,2-3.3s1.8-1.6,2.9-2.1
	c1.1-0.5,2.3-0.7,3.5-0.7c1.5,0,2.8,0.3,4,0.8c1.1,0.6,2.1,1.3,2.9,2.3s1.3,2.1,1.7,3.4C452.2,17.2,452.4,18.5,452.4,19.9
	L452.4,19.9z M471.9,15.9h0.9c0-2.6-0.8-4.4-2.2-5.6s-3.5-1.8-6.1-1.8c-1.4,0-2.6,0.2-3.6,0.5c-1,0.4-1.8,0.8-2.4,1.4
	c-0.6,0.6-1.1,1.2-1.4,1.9s-0.4,1.4-0.4,2c0,1.3,0.2,2.3,0.7,3c0.5,0.8,1.1,1.3,2.1,1.8c0.7,0.3,1.4,0.6,2.2,0.8s1.8,0.5,2.9,0.8
	c1,0.2,2,0.5,2.9,0.7s1.8,0.6,2.5,1s1.3,0.9,1.8,1.5s0.7,1.5,0.7,2.5s-0.2,1.8-0.7,2.5s-1.1,1.3-1.8,1.7c-0.7,0.4-1.5,0.8-2.4,0.9
	c-0.9,0.2-1.8,0.3-2.6,0.3c-2.7,0-4.8-0.6-6.3-1.8c-1.5-1.2-2.2-3.1-2.2-5.7h-0.9c0,2.9,0.8,5,2.4,6.4s3.9,2,7,2c1,0,2-0.1,3-0.3
	s1.9-0.6,2.7-1.1c0.8-0.5,1.4-1.2,1.9-2s0.7-1.8,0.7-3c0-1.1-0.2-2-0.6-2.7s-1-1.3-1.7-1.7c-0.7-0.5-1.5-0.8-2.4-1.1
	c-0.9-0.3-1.8-0.5-2.7-0.7c-1.1-0.3-2.2-0.6-3.3-0.9c-0.9-0.2-1.8-0.5-2.6-0.9c-0.8-0.3-1.4-0.8-1.9-1.4s-0.7-1.5-0.7-2.6
	c0-0.2,0.1-0.6,0.2-1.1s0.4-1.1,0.9-1.6s1.1-1.1,2.1-1.5s2.2-0.6,3.8-0.6c1.1,0,2.1,0.1,3,0.4s1.7,0.6,2.4,1.1
	c0.7,0.5,1.2,1.2,1.5,2C471.8,13.8,471.9,14.8,471.9,15.9L471.9,15.9z M492.8,15.9h0.9c0-2.6-0.8-4.4-2.2-5.6s-3.5-1.8-6.1-1.8
	c-1.4,0-2.6,0.2-3.6,0.5c-1,0.4-1.8,0.8-2.4,1.4c-0.6,0.6-1.1,1.2-1.4,1.9s-0.4,1.4-0.4,2c0,1.3,0.2,2.3,0.7,3
	c0.5,0.8,1.1,1.3,2.1,1.8c0.7,0.3,1.4,0.6,2.2,0.8s1.8,0.5,2.9,0.8c1,0.2,2,0.5,2.9,0.7s1.8,0.6,2.5,1s1.3,0.9,1.8,1.5
	s0.7,1.5,0.7,2.5s-0.2,1.8-0.7,2.5s-1.1,1.3-1.8,1.7c-0.7,0.4-1.5,0.8-2.4,0.9s-1.8,0.3-2.6,0.3c-2.7,0-4.8-0.6-6.3-1.8
	c-1.4-1.2-2.2-3.1-2.2-5.7h-0.9c0,2.9,0.8,5,2.4,6.4s3.9,2,7,2c1,0,2-0.1,3-0.3s1.9-0.6,2.7-1.1c0.8-0.5,1.5-1.2,1.9-2
	c0.5-0.8,0.7-1.8,0.7-3c0-1.1-0.2-2-0.6-2.7s-1-1.3-1.7-1.7c-0.7-0.5-1.5-0.8-2.4-1.1c-0.9-0.3-1.8-0.5-2.7-0.7
	c-1.1-0.3-2.2-0.6-3.3-0.9c-0.9-0.2-1.8-0.5-2.6-0.9c-0.8-0.3-1.4-0.8-1.9-1.4s-0.7-1.5-0.7-2.6c0-0.2,0.1-0.6,0.2-1.1
	s0.4-1.1,0.9-1.6c0.4-0.6,1.1-1.1,2.1-1.5c0.9-0.4,2.2-0.6,3.8-0.6c1.1,0,2.1,0.1,3,0.4s1.7,0.6,2.4,1.1c0.7,0.5,1.2,1.2,1.5,2
	C492.6,13.8,492.8,14.8,492.8,15.9L492.8,15.9z"/>
<use xlink:href="#A_2"  width="111.4" height="31.5" x="-55.7" y="-15.7" transform="matrix(1.2614 0 0 1.2614 246.0677 20.1407)" style="overflow:visible;"/>
</svg>
