<?xml version="1.0" encoding="utf-8"?>
<!-- Generator: Adobe Illustrator 23.0.6, SVG Export Plug-In . SVG Version: 6.00 Build 0)  -->
<svg version="1.1" id="Layer_1" xmlns="http://www.w3.org/2000/svg" xmlns:xlink="http://www.w3.org/1999/xlink" x="0px" y="0px"
	 viewBox="0 0 394.75 40" style="enable-background:new 0 0 394.75 40;" xml:space="preserve">
<style type="text/css">
	.st0{fill-rule:evenodd;clip-rule:evenodd;fill:#1A1918;}
	.st1{fill-rule:evenodd;clip-rule:evenodd;fill:#21609B;}
	.st2{fill:#131313;}
	.st3{fill:#1572B6;}
	.st4{fill:#33A9DC;}
	.st5{fill:#FFFFFF;}
	.st6{fill:#EBEBEB;}
	.st7{fill:#E44D26;}
	.st8{fill:#F16529;}
	.st9{fill:#F7DF1E;}
</style>
<g>
	<path class="st0" d="M387.36,2.96L394.75,3c0,0-13.74,18.62-14.86,20.14c-0.36,0.49-0.92,1.02-1.2,1.68
		c-0.71,1.65-1.44,5.27-1.44,5.27l-6.76,0.03c0,0,1.05-3.78,1.01-5.79c-0.04-1.76-0.93-3.51-1.44-5.27c-0.51-1.78-1.2-5.27-1.2-5.27
		h6.95l0.96,3.84L387.36,2.96"/>
	<path class="st0" d="M373.37,6.88c1.36,0.82,2.2,5.36,2.2,5.36s-7.14,0.11-11.02,0.11h-3.36l-4.08,17.74h-6.23
		c0,0,3.88-19.28,4.79-22.77c0.3-1.13,2.03-0.94,4.96-0.94h4.68C368.35,6.37,371.88,5.99,373.37,6.88 M344.35,15.52
		c0,0,0.19-1.14-0.66-2.46c-0.73-1.12-1.4-1.39-3.32-1.45c-5.42-0.17-5.31,3.84-5.31,3.84L344.35,15.52z M350.22,10.93
		c0.79,2.86-0.72,9.59-0.72,9.59s-7.9-0.13-12.23,0c-1.35,0.04-2.96-0.15-3.36,0.48c-0.56,0.88,0.21,2.23,0.86,2.8
		c0.75,0.66,2.21,0.73,2.74,0.8c3.51,0.45,10.86,0.12,10.86,0.12l-1.27,5.64c0,0-10.39,0.52-15.58-0.72
		c-1.03-0.24-1.99-0.74-2.64-1.44c-0.18-0.19-0.33-0.45-0.5-0.68c-0.13-0.18-0.52-0.77-0.7-1.24c-1.19-3.16,0.14-9.22,1.44-12.46
		c0.15-0.38,0.34-0.85,0.54-1.26c0.25-0.51,0.46-1.08,0.66-1.38c0.13-0.21,0.3-0.34,0.44-0.54c0.16-0.23,0.35-0.46,0.52-0.66
		c0.48-0.56,1.02-0.95,1.68-1.44c2.16-1.62,6.08-2.88,10.79-2.4c1.77,0.18,4.45,0.81,5.75,2.64
		C349.86,9.26,350.03,10.22,350.22,10.93L350.22,10.93z M321.64,6.35l6.04-0.04c0,0-3.37,15.98-5.08,23.77h-6.95
		c-4.86,0-9.19,0.6-11.03-2.88c-1.79-3.38-0.08-8.93,0.72-12.71c0.57-2.67,1.76-8.13,1.76-8.13l6.26-0.06c0,0-1.77,8.5-2.51,12.74
		c-0.26,1.52-0.81,2.95-0.24,4.07c0.54,1.07,1.29,1.15,3.6,1.2c0.73,0.02,3.12,0,3.12,0L321.64,6.35 M293.35,17.86
		c0.63-2.25,1.56-4.69,1.44-6.71c-0.13-2.17-1.94-4.14-3.12-4.55c-3.53-1.25-6.84,0.5-8.15,1.92c-1.7,1.84-2.28,3.99-2.88,6.95
		c-0.45,2.2-0.81,4.52,0,6.23c1.44,3.03,5.94,2.37,10.79,2.4C292.15,22.16,292.75,20,293.35,17.86L293.35,17.86z M301.74,8.99
		c0.69,5.02-1.96,10.56-3.78,15.38c1.86,0.17,3.49-0.03,3.61,0.11c0.12,0.18-1.25,5.75-1.72,5.77c-1.48,0.04-6.37,0.08-8.41,0.08
		c-6.66,0-12.88,0.43-16.06-2.88c-1.29-1.34-2.18-3.65-2.4-5.27c-0.36-2.71,0.09-5.69,0.72-8.15c0.57-2.22,1.3-4.32,2.4-6.23
		c2.8-4.88,7.66-8.51,15.82-7.67c1.58,0.16,3.85,0.86,5.27,1.68c0.1,0.06,0.44,0.33,0.52,0.38C299.63,3.4,301.37,6.31,301.74,8.99
		L301.74,8.99z M272.29,6.38c-0.4,1.83-0.81,3.91-1.23,5.72h-6.71c0.52-2.01,0.92-4.01,1.44-5.75
		C267.93,6.35,269.93,6.38,272.29,6.38 M264.11,13.78h6.47c-0.85,4.68-2.52,12.24-3.84,17.5c-0.82,3.29-1.37,5.69-3.6,7.43
		c-0.2,0.16-0.31,0.08-0.48,0.24c-0.41,0.39-2.31,0.84-3.36,0.96c-1.71,0.18-3.64,0.02-5.73-0.02c0.55-2.01,1.17-4.42,1.66-6.21
		c5.11,0.62,5.24-4.21,6.23-8.87C262.04,22.12,263.78,14.86,264.11,13.78"/>
	<g>
		<path class="st1" d="M249,26.01l-0.14,0.36c-2.36,4.6-6.55,7.43-12.53,7.55c-2.79,0.06-5.45-0.66-7.19-1.44
			c-3.75-1.69-6.91-4.81-8.63-8.15c-2.47-4.79-2.92-11.45,2.22-16.42c0.08,0-0.62,1.08-0.54,1.08l-0.14,0.46
			c-3.7,11.59,7.71,21.53,18.8,20.39C243.52,29.57,246.92,28.11,249,26.01"/>
		<path class="st1" d="M242.29,21.22c2.79,0.02,5.71-1.29,7.43-3.12c-1.51,3.83-5.88,6.3-11.75,5.51
			c-4.91-0.66-9.59-5.6-10.07-10.55c-0.35-3.6,0.9-5.75,2.97-8.36c-0.72,1.36-0.99,2.42-1.05,3.09
			C229.04,15.58,236.05,21.17,242.29,21.22"/>
		<path class="st1" d="M249.44,11.54c-0.43,1-2.93,2.87-4.03,3.11c-4.37,0.93-7.16-1.14-8.63-3.5c-0.22-0.35-0.62-1.31-0.69-1.56
			c-0.57-1.93-0.31-4.85,1.39-6.37c-0.51,1.44-0.59,3.11-0.32,4.2c0.16,0.66,0.66,1.8,1.16,2.52c0.9,1.31,1.48,1.63,2.64,2.33
			c0.52,0.31,1.08,0.57,1.33,0.63C243.38,13.23,245.7,14.08,249.44,11.54"/>
	</g>
</g>
<g>
	<path class="st2" d="M91.21,1.48h-2.35l2.44,2.65V5.4h-5.04V3.92h2.44l-2.44-2.65V0h4.94L91.21,1.48z M85.26,1.48h-2.35l2.45,2.65
		V5.4h-5.04V3.92h2.44l-2.44-2.65V0h4.94V1.48z M79.38,1.54h-2.54v2.32h2.54V5.4h-4.34V0h4.34V1.54z"/>
	<path class="st3" d="M71.58,36.79L69,7.86h28.34l-2.58,28.92L83.15,40L71.58,36.79z"/>
	<path class="st4" d="M83.17,37.54l9.38-2.6l2.2-24.71H83.17L83.17,37.54z"/>
	<path class="st5" d="M83.17,20.71h4.69l0.32-3.63h-5.02v-3.55h8.9l-0.08,0.95l-0.87,9.78h-7.94V20.71z"/>
	<path class="st6" d="M83.19,29.92h-0.02l-3.95-1.07l-0.25-2.83h-3.56l0.5,5.57l7.27,2.02h0.02L83.19,29.92L83.19,29.92z"/>
	<path class="st5" d="M87.56,24.1l-0.43,4.75l-3.96,1.07v3.7l7.27-2.02L90.5,31l0.62-6.9L87.56,24.1L87.56,24.1z"/>
	<path class="st6" d="M83.18,13.53v3.55h-8.57l-0.07-0.8l-0.16-1.8l-0.08-0.95L83.18,13.53z M83.17,20.71v3.55h-3.91l-0.07-0.8
		l-0.16-1.8l-0.08-0.95L83.17,20.71L83.17,20.71z"/>
</g>
<g>
	<path class="st7" d="M28.34,7.86l-2.58,28.92L14.15,40L2.58,36.79L0,7.86H28.34L28.34,7.86z"/>
	<path class="st8" d="M14.17,37.54l9.38-2.6l2.21-24.72H14.17V37.54z"/>
	<path class="st6" d="M9.15,17.32h5.02v-3.55h-8.9l0.08,0.95l0.87,9.78h7.94v-3.55H9.47L9.15,17.32z M9.95,26.28H6.39l0.5,5.57
		l7.27,2.02l0.02,0v-3.69l-0.02,0l-3.95-1.07L9.95,26.28L9.95,26.28z"/>
	<path d="M2.64,0h1.8v1.78h1.65V0h1.8v5.39h-1.8V3.59H4.44v1.81h-1.8L2.64,0L2.64,0z M10.26,1.79H8.68V0h4.98v1.79h-1.59v3.61h-1.8
		L10.26,1.79L10.26,1.79L10.26,1.79z M14.44,0h1.88l1.16,1.9L18.64,0h1.88v5.39h-1.8V2.72l-1.24,1.92h-0.03l-1.24-1.92v2.67h-1.76V0
		z M21.41,0h1.8v3.61h2.54v1.78h-4.34L21.41,0L21.41,0z"/>
	<path class="st5" d="M14.16,24.5h4.37l-0.41,4.6l-3.96,1.07v3.69l7.27-2.02l0.05-0.6l0.83-9.34l0.09-0.95h-8.25V24.5L14.16,24.5z
		 M14.16,17.31L14.16,17.31l8.57,0.01l0.07-0.8l0.16-1.8l0.08-0.95h-8.89V17.31L14.16,17.31z"/>
</g>
<g>
	<path class="st9" d="M137.17,0h40v40h-40V0z"/>
	<path d="M147.69,33.43l3.06-1.85c0.59,1.05,1.13,1.93,2.42,1.93c1.24,0,2.01-0.48,2.01-2.36V18.36h3.76V31.2
		c0,3.89-2.28,5.67-5.61,5.67C150.32,36.86,148.57,35.31,147.69,33.43 M160.98,33.02l3.06-1.77c0.81,1.32,1.85,2.28,3.71,2.28
		c1.56,0,2.55-0.78,2.55-1.85c0-1.29-1.02-1.75-2.74-2.5l-0.94-0.4c-2.71-1.15-4.51-2.6-4.51-5.67c0-2.82,2.15-4.97,5.5-4.97
		c2.39,0,4.11,0.83,5.34,3.01l-2.93,1.88c-0.64-1.15-1.34-1.61-2.42-1.61c-1.1,0-1.8,0.7-1.8,1.61c0,1.13,0.7,1.58,2.31,2.28
		l0.94,0.4c3.2,1.37,4.99,2.77,4.99,5.91c0,3.38-2.66,5.24-6.23,5.24C164.33,36.86,162.08,35.2,160.98,33.02"/>
</g>
</svg>
