<?xml version="1.0" encoding="utf-8"?>
<!-- Generator: Adobe Illustrator 24.3.0, SVG Export Plug-In . SVG Version: 6.00 Build 0)  -->
<svg version="1.1" id="Layer_1" xmlns="http://www.w3.org/2000/svg" xmlns:xlink="http://www.w3.org/1999/xlink" x="0px" y="0px"
	 viewBox="0 0 275.8 39.7" style="enable-background:new 0 0 275.8 39.7;" xml:space="preserve">
<style type="text/css">
	.st0{fill:#7AB55C;}
	.st1{fill:#FF2BC2;}
	.st2{fill:#00C8FF;}
	.st3{fill:#FF7C00;}
</style>
<path class="st0" d="M263.9,39.7l11.9-2.6c0,0-4.3-29.2-4.3-29.3c0-0.2-0.2-0.3-0.3-0.3c-0.2,0-3.2-0.2-3.2-0.2s-2.1-2.1-2.4-2.3
	c-0.1-0.1-0.1-0.1-0.2-0.1L263.9,39.7L263.9,39.7z M257.9,18.7c0,0-1.3-0.7-2.9-0.7c-2.4,0-2.5,1.5-2.5,1.9c0,2,5.4,2.8,5.4,7.7
	c0,3.8-2.4,6.2-5.6,6.2c-3.9,0-5.9-2.4-5.9-2.4l1.1-3.5c0,0,2.1,1.8,3.8,1.8c1.1,0,1.6-0.9,1.6-1.5c0-2.7-4.4-2.8-4.4-7.2
	c-0.1-3.7,2.6-7.3,8-7.3c2.1,0,3.1,0.6,3.1,0.6L257.9,18.7L257.9,18.7z M257,1.4c0.2,0,0.4,0.1,0.7,0.2c-1.6,0.8-3.4,2.7-4.2,6.6
	c-1.1,0.4-2.1,0.7-3.1,1C251.2,6.2,253.3,1.4,257,1.4L257,1.4z M259,6.3v0.2c-1.2,0.4-2.6,0.8-4,1.2c0.8-2.9,2.2-4.4,3.5-4.9
	C258.8,3.6,259,4.7,259,6.3z M259.9,2.6c1.1,0.1,1.9,1.4,2.4,2.9c-0.6,0.2-1.2,0.4-1.9,0.6V5.7C260.4,4.4,260.2,3.4,259.9,2.6
	L259.9,2.6z M264.9,4.7c0,0-0.1,0-0.1,0c0,0-0.5,0.1-1.2,0.3c-0.7-2-1.9-3.9-4.2-3.9h-0.2c-0.6-0.8-1.4-1.2-2.1-1.2
	c-5.1,0-7.6,6.4-8.4,9.7c-2,0.6-3.4,1.1-3.6,1.1c-1.1,0.4-1.1,0.4-1.3,1.4c-0.1,0.8-3,23.3-3,23.3l22.4,4.2L264.9,4.7z"/>
<path class="st1" d="M33.3,0.1H7.2C3.2,0.1,0,3.3,0,7.3v25.1c0,4,3.2,7.2,7.2,7.2h26.1c4,0,7.2-3.2,7.2-7.2V7.3
	C40.5,3.3,37.3,0.1,33.3,0.1z M38.8,31.8C38.8,31.8,38.8,31.8,38.8,31.8c0,3.4-2.7,6.1-6.1,6.1H7.8c-3.4,0-6.1-2.7-6.1-6.1V7.9
	c0-3.4,2.7-6.1,6.1-6.1h24.8c3.4,0,6.1,2.7,6.1,6.1l0,0V31.8z M16,18.6l4.7,9.1c0.1,0.1,0,0.3-0.1,0.3h-2.9c-0.2,0-0.3-0.1-0.4-0.2
	c-1.1-2.2-2.2-4.5-3.3-6.8h0c-1,2.3-2.1,4.6-3.2,6.9c-0.1,0.1-0.2,0.2-0.3,0.2H7.7c-0.2,0-0.2-0.1-0.1-0.2l4.6-8.8L7.8,10
	c-0.1-0.1,0-0.2,0.1-0.2h2.9c0.2,0,0.2,0,0.3,0.2c1.1,2.2,2.1,4.5,3.2,6.8h0c1-2.2,2.1-4.5,3.1-6.7c0.1-0.1,0.1-0.2,0.3-0.2h2.7
	c0.1,0,0.2,0.1,0.1,0.2L16,18.6z M21.6,21.3c0-3.9,2.6-7,6.8-7c0.4,0,0.5,0,0.9,0V9.9c0-0.1,0.1-0.2,0.2-0.2H32
	c0.1,0,0.2,0.1,0.2,0.1v15.5c0,0.5,0,1,0.1,1.7c0,0.1,0,0.1-0.1,0.2c-1.4,0.7-2.9,1-4.3,1C24.2,28.2,21.6,25.9,21.6,21.3L21.6,21.3z
	 M29.2,17c-0.2-0.1-0.6-0.2-1-0.2c-2.1,0-3.6,1.6-3.6,4.4c0,3.1,1.5,4.4,3.4,4.4c0.4,0,0.8-0.1,1.2-0.2L29.2,17z"/>
<path class="st2" d="M80.5,0.1v39.5h40.5V0.1L80.5,0.1z M82.2,1.8h37.1v36.1H82.2V1.8z M90.3,9.4c0-0.1,0.2-0.2,0.4-0.2
	c1.1-0.1,2.7-0.1,4.3-0.1c4.7,0,6.5,2.6,6.5,5.8c0,4.3-3.1,6.1-6.9,6.1c-0.6,0-0.9,0-1.3,0v6.5c0,0.1-0.1,0.2-0.2,0.2h-2.6
	c-0.1,0-0.2-0.1-0.2-0.2L90.3,9.4z M93.2,18.3c0.4,0,0.7,0,1.4,0c2,0,3.8-0.7,3.8-3.4c0-2.1-1.3-3.2-3.6-3.2c-0.7,0-1.3,0-1.6,0.1
	L93.2,18.3z M107.8,16.3c-1.3,0-1.8,0.7-1.8,1.2c0,0.6,0.3,1,2.1,1.9c2.6,1.3,3.5,2.5,3.5,4.3c0,2.7-2.1,4.1-4.8,4.1
	c-1.5,0-2.7-0.3-3.5-0.7c-0.1-0.1-0.1-0.1-0.1-0.3v-2.5c0-0.2,0.1-0.2,0.2-0.1c1.1,0.7,2.3,1,3.4,1c1.3,0,1.9-0.6,1.9-1.3
	c0-0.6-0.4-1.1-2.1-2c-2.4-1.1-3.4-2.3-3.4-4.3c0-2.2,1.7-4,4.6-4c1.5,0,2.5,0.2,3,0.5c0.1,0.1,0.2,0.2,0.2,0.3v2.3
	c0,0.1-0.1,0.2-0.3,0.2C109.9,16.6,108.8,16.3,107.8,16.3L107.8,16.3z"/>
<path class="st3" d="M161.1,0.1v39.6h40.6V0.1L161.1,0.1z M162.8,1.8H200V38h-37.2V1.8z M175.2,22.5l-1.3,5.1c0,0.1-0.1,0.2-0.2,0.2
	h-2.5c-0.2,0-0.2-0.1-0.2-0.2l4.8-16.8c0.1-0.3,0.1-0.6,0.2-1.4c0-0.1,0.1-0.2,0.1-0.2h3.5c0.1,0,0.2,0,0.2,0.2l5.4,18.3
	c0,0.1,0,0.2-0.1,0.2h-2.8c-0.1,0-0.2,0-0.2-0.1l-1.4-5.1L175.2,22.5z M179.9,19.7c-0.5-1.9-1.6-6-2-8h0c-0.4,2-1.3,5.3-2,8H179.9z
	 M187.5,10.3c0-1.1,0.8-1.7,1.7-1.7c1,0,1.7,0.7,1.7,1.7c0,1.1-0.7,1.7-1.8,1.7C188.2,12.1,187.5,11.5,187.5,10.3z M187.7,14.2
	c0-0.1,0.1-0.2,0.2-0.2h2.7c0.1,0,0.2,0.1,0.2,0.2v13.4c0,0.1,0,0.2-0.2,0.2h-2.6c-0.2,0-0.2-0.1-0.2-0.2L187.7,14.2z"/>
</svg>
