<?xml version="1.0" encoding="utf-8"?>
<!-- Generator: Adobe Illustrator 23.0.6, SVG Export Plug-In . SVG Version: 6.00 Build 0)  -->
<svg version="1.1" id="Layer_1" xmlns="http://www.w3.org/2000/svg" xmlns:xlink="http://www.w3.org/1999/xlink" x="0px" y="0px"
	 viewBox="0 0 32 32" style="enable-background:new 0 0 32 32;" xml:space="preserve">
<style type="text/css">
	.st0{fill:#D2D2D2;}
</style>
<title>linkedin-with-circle</title>
<path class="st0" d="M16,0C7.2,0,0,7.2,0,16s7.2,16,16,16s16-7.2,16-16S24.8,0,16,0z M12.2,22.7H8.8V12.2H12
	C12.2,12.2,12.2,22.7,12.2,22.7z M10.5,11c-1,0-1.7-0.7-1.7-1.7c0-0.8,0.7-1.7,1.7-1.7s1.7,0.7,1.7,1.7C12.2,10.2,11.5,11,10.5,11z
	 M24,22.7h-3.2v-5.8c0-1.3-0.5-2.3-1.7-2.3c-0.8,0-1.5,0.7-1.7,1.2c-0.2,0.2-0.2,0.5-0.2,0.8v6.2H14v-7.2c0-1.3,0-2.3-0.2-3.3h2.8
	l0.2,1.5l0,0C17.3,13,18.3,12,20,12c2.2,0,3.7,1.5,3.7,4.5C24,16.5,24,22.7,24,22.7z"/>
</svg>
