<?xml version="1.0" encoding="utf-8"?>
<!-- Generator: Adobe Illustrator 23.0.6, SVG Export Plug-In . SVG Version: 6.00 Build 0)  -->
<svg version="1.1" id="Layer_1" xmlns="http://www.w3.org/2000/svg" xmlns:xlink="http://www.w3.org/1999/xlink" x="0px" y="0px"
	 viewBox="0 0 434.42 40" style="enable-background:new 0 0 434.42 40;" xml:space="preserve">
<style type="text/css">
	.st0{fill:#CB3837;}
	.st1{fill:#FFFFFF;}
	.st2{fill:#6762A6;}
	.st3{fill:#007ACC;}
	.st4{fill:#CF649A;}
	.st5{fill:#61DAFB;}
</style>
<g>
	<path class="st0" d="M258.58,0v34.26h28.51V40h22.77v-5.74h51.29V0H258.58z"/>
	<path class="st1" d="M275.61,5.74h-11.29v22.77h11.29V11.49h5.74v17.03h5.74V5.74H275.61z M292.84,5.74v28.51h11.49v-5.74h11.29
		V5.74H292.84z M309.87,22.77h-5.54V11.49h5.54V22.77z M332.64,5.74h-11.29v22.77h11.29V11.49h5.74v17.03h5.74V11.49h5.74v17.03
		h5.74V5.74H332.64z"/>
</g>
<g>
	<path class="st2" d="M430.62,40h-24.64c-2.11,0-3.82-1.71-3.82-3.81V3.81c0-2.11,1.71-3.81,3.81-3.81h24.63
		c2.11,0,3.82,1.71,3.82,3.81v32.37C434.43,38.29,432.71,40,430.62,40L430.62,40z"/>
	<path class="st1" d="M422.7,34.42l-0.35-15.88c0,0,0.95-3.82-12.69,1.83c-0.02,0.07-0.35-14.69-0.35-14.69l4.49-0.13l0.21,9.45
		c0,0,12.48-5.23,12.67,3.48l0.35,15.83L422.7,34.42L422.7,34.42z M424.76,11.04l-4.77,0.1c1.67-2.14,3.15-5.76,3.15-5.76l4.93-0.11
		C428.06,5.28,427.27,7.64,424.76,11.04L424.76,11.04z M410.04,34.67l-0.2-9.04l4.62,4.42L410.04,34.67L410.04,34.67z"/>
</g>
<g>
	<path class="st3" d="M0,20V0h40v40H0"/>
	<path class="st1" d="M8.77,20.07v1.63h5.2v14.8h3.69V21.7h5.2v-1.6c0-0.9,0-1.63-0.04-1.65c0-0.03-3.17-0.04-7.02-0.04l-7,0.03
		v1.64L8.77,20.07L8.77,20.07z M32.14,18.4c1.02,0.24,1.8,0.7,2.5,1.43c0.37,0.4,0.92,1.1,0.96,1.28c0,0.06-1.73,1.23-2.78,1.88
		c-0.04,0.03-0.2-0.14-0.36-0.4c-0.52-0.74-1.05-1.06-1.88-1.12c-1.2-0.08-2,0.55-2,1.6c0,0.32,0.06,0.5,0.18,0.76
		c0.27,0.55,0.77,0.88,2.32,1.56c2.86,1.23,4.1,2.04,4.85,3.2c0.85,1.3,1.04,3.34,0.47,4.87c-0.64,1.67-2.2,2.8-4.43,3.17
		c-0.7,0.12-2.3,0.1-3.05-0.03c-1.6-0.3-3.13-1.1-4.07-2.13c-0.37-0.4-1.08-1.47-1.04-1.54l0.38-0.24l1.5-0.87l1.13-0.66l0.26,0.35
		c0.33,0.52,1.07,1.22,1.5,1.46c1.3,0.67,3.04,0.58,3.9-0.2c0.37-0.34,0.53-0.7,0.53-1.2c0-0.46-0.07-0.67-0.3-1.02
		c-0.32-0.44-0.96-0.8-2.76-1.6c-2.07-0.88-2.95-1.44-3.77-2.3c-0.47-0.52-0.9-1.33-1.1-2c-0.15-0.58-0.2-2-0.06-2.57
		c0.43-2,1.94-3.4,4.1-3.8c0.7-0.14,2.35-0.08,3.04,0.1L32.14,18.4L32.14,18.4z"/>
</g>
<g>
	<path class="st4" d="M211.51,22.97c-1.87,0.01-3.48,0.46-4.84,1.13c-0.5-0.99-1-1.86-1.08-2.5c-0.09-0.75-0.21-1.21-0.09-2.11
		c0.11-0.9,0.64-2.17,0.64-2.27c-0.01-0.09-0.11-0.55-1.19-0.56c-1.07-0.01-2,0.21-2.11,0.49s-0.31,0.93-0.45,1.59
		c-0.19,0.98-2.15,4.45-3.26,6.27c-0.36-0.71-0.68-1.33-0.74-1.83c-0.09-0.75-0.21-1.21-0.09-2.11c0.11-0.9,0.64-2.17,0.64-2.27
		c-0.01-0.09-0.11-0.55-1.19-0.56c-1.07-0.01-2,0.21-2.11,0.49c-0.1,0.28-0.22,0.95-0.45,1.59c-0.22,0.65-2.82,6.44-3.5,7.95
		c-0.34,0.77-0.65,1.39-0.87,1.8c-0.22,0.42-0.01,0.03-0.03,0.07c-0.19,0.35-0.29,0.55-0.29,0.55v0.01
		c-0.15,0.26-0.3,0.51-0.38,0.51c-0.05,0-0.16-0.7,0.02-1.66c0.39-2.01,1.32-5.15,1.31-5.26c0-0.05,0.18-0.6-0.6-0.89
		c-0.76-0.28-1.03,0.19-1.09,0.19c-0.06,0-0.11,0.17-0.11,0.17s0.84-3.53-1.62-3.53c-1.54,0-3.67,1.68-4.72,3.21
		c-0.67,0.36-2.08,1.14-3.59,1.96c-0.57,0.31-1.17,0.65-1.73,0.95l-0.11-0.13c-2.98-3.18-8.5-5.43-8.27-9.7
		c0.08-1.55,0.63-5.65,10.59-10.61c8.16-4.07,14.7-2.95,15.83-0.47c1.62,3.54-3.49,10.13-11.98,11.08
		c-3.23,0.36-4.93-0.89-5.36-1.36c-0.45-0.49-0.51-0.51-0.68-0.42c-0.27,0.15-0.1,0.58,0,0.84c0.25,0.66,1.29,1.82,3.06,2.41
		c1.55,0.51,5.35,0.79,9.93-0.98c5.14-1.99,9.15-7.52,7.97-12.13c-1.2-4.7-9-6.24-16.36-3.63c-4.39,1.56-9.14,4-12.56,7.2
		c-4.07,3.79-4.71,7.11-4.44,8.48c0.95,4.91,7.71,8.11,10.42,10.48c-0.14,0.07-0.26,0.15-0.38,0.21c-1.36,0.67-6.51,3.37-7.81,6.22
		c-1.46,3.23,0.23,5.56,1.36,5.87c3.48,0.97,7.05-0.77,8.97-3.64c1.92-2.87,1.69-6.59,0.8-8.29l-0.03-0.06l1.06-0.63
		c0.69-0.41,1.37-0.78,1.96-1.1c-0.33,0.91-0.57,1.98-0.7,3.54c-0.15,1.83,0.6,4.21,1.59,5.15c0.44,0.41,0.96,0.42,1.28,0.42
		c1.15,0,1.67-0.95,2.24-2.08c0.71-1.39,1.33-2.99,1.33-2.99s-0.78,4.35,1.36,4.35c0.78,0,1.56-1.01,1.92-1.53v0.01
		c0,0,0.02-0.03,0.06-0.1c0.04-0.06,0.09-0.13,0.13-0.2v-0.02c0.31-0.54,1.01-1.78,2.05-3.84c1.34-2.65,2.64-5.96,2.64-5.96
		s0.13,0.81,0.51,2.15c0.23,0.79,0.73,1.66,1.12,2.5c-0.31,0.44-0.5,0.69-0.5,0.69l0.01,0.01c-0.25,0.33-0.53,0.69-0.82,1.04
		c-1.06,1.27-2.33,2.72-2.5,3.14c-0.2,0.49-0.16,0.85,0.23,1.15c0.28,0.21,0.78,0.25,1.31,0.21c0.96-0.06,1.63-0.3,1.96-0.45
		c0.52-0.19,1.12-0.47,1.69-0.89c1.04-0.77,1.68-1.87,1.62-3.32c-0.03-0.8-0.29-1.59-0.61-2.35c0.09-0.14,0.19-0.27,0.28-0.42
		c1.65-2.41,2.92-5.06,2.92-5.06s0.13,0.81,0.51,2.15c0.2,0.68,0.59,1.42,0.95,2.15c-1.54,1.26-2.51,2.72-2.85,3.68
		c-0.61,1.77-0.14,2.57,0.77,2.76c0.41,0.08,0.99-0.1,1.43-0.29c0.54-0.18,1.2-0.48,1.8-0.93c1.04-0.77,2.04-1.84,1.99-3.29
		c-0.03-0.67-0.21-1.32-0.45-1.95c1.31-0.54,3.01-0.85,5.17-0.59c4.64,0.54,5.56,3.44,5.38,4.65c-0.18,1.21-1.15,1.88-1.47,2.08
		c-0.32,0.2-0.43,0.27-0.4,0.42c0.04,0.22,0.19,0.21,0.47,0.17c0.39-0.06,2.44-0.99,2.52-3.22
		C219.06,26.07,216.34,22.94,211.51,22.97L211.51,22.97z M175.74,35.03c-1.53,1.68-3.69,2.31-4.61,1.77
		c-0.99-0.57-0.6-3.04,1.28-4.83c1.15-1.08,2.64-2.08,3.62-2.7c0.22-0.14,0.55-0.33,0.95-0.57c0.06-0.04,0.1-0.06,0.1-0.06
		c0.07-0.04,0.16-0.09,0.24-0.15C178.02,31.04,177.35,33.27,175.74,35.03L175.74,35.03z M186.94,27.41
		c-0.53,1.3-1.66,4.65-2.33,4.46c-0.58-0.16-0.94-2.69-0.11-5.19c0.42-1.26,1.3-2.76,1.82-3.35c0.84-0.94,1.76-1.25,1.99-0.87
		C188.58,22.97,187.28,26.6,186.94,27.41z M196.19,31.83c-0.23,0.11-0.44,0.2-0.53,0.14c-0.07-0.04,0.09-0.2,0.09-0.2
		s1.16-1.24,1.62-1.81c0.26-0.33,0.57-0.72,0.91-1.16v0.13C198.27,30.42,196.84,31.42,196.19,31.83L196.19,31.83z M203.32,30.2
		c-0.17-0.13-0.15-0.51,0.42-1.72c0.22-0.48,0.72-1.28,1.58-2.04c0.1,0.31,0.17,0.61,0.16,0.9
		C205.47,29.21,204.13,29.91,203.32,30.2z"/>
</g>
<g>
	<path class="st5" d="M125.46,20c0-2.98-3.73-5.8-9.44-7.54c1.32-5.82,0.73-10.46-1.85-11.94c-0.6-0.35-1.29-0.51-2.05-0.51v2.04
		c0.42,0,0.76,0.08,1.04,0.24c1.25,0.71,1.79,3.43,1.36,6.93c-0.1,0.86-0.27,1.77-0.47,2.69c-1.79-0.44-3.75-0.78-5.81-1
		c-1.24-1.69-2.52-3.23-3.81-4.58c2.98-2.77,5.79-4.29,7.69-4.29V0l0,0c-2.52,0-5.81,1.79-9.15,4.91c-3.33-3.09-6.63-4.87-9.15-4.87
		v2.04c1.9,0,4.71,1.51,7.69,4.27c-1.28,1.35-2.56,2.87-3.78,4.57c-2.07,0.22-4.03,0.56-5.82,1.01c-0.21-0.92-0.37-1.8-0.48-2.66
		c-0.43-3.5,0.1-6.22,1.34-6.94c0.27-0.16,0.63-0.24,1.05-0.24V0.05l0,0c-0.77,0-1.46,0.16-2.07,0.51
		c-2.57,1.48-3.15,6.11-1.82,11.91c-5.69,1.76-9.4,4.57-9.4,7.53c0,2.98,3.73,5.8,9.44,7.54c-1.32,5.82-0.73,10.46,1.85,11.94
		c0.6,0.35,1.29,0.51,2.06,0.51c2.52,0,5.81-1.79,9.15-4.91c3.33,3.09,6.63,4.87,9.15,4.87c0.77,0,1.46-0.16,2.07-0.51
		c2.57-1.48,3.15-6.11,1.82-11.91C121.75,25.79,125.46,22.97,125.46,20z M113.54,13.9c-0.34,1.18-0.76,2.4-1.24,3.62
		c-0.38-0.73-0.77-1.46-1.2-2.2c-0.42-0.73-0.87-1.45-1.32-2.14C111.08,13.37,112.34,13.6,113.54,13.9z M109.34,23.65
		c-0.71,1.24-1.45,2.41-2.21,3.5c-1.36,0.12-2.75,0.18-4.14,0.18c-1.38,0-2.76-0.06-4.12-0.17c-0.76-1.09-1.5-2.25-2.22-3.48
		c-0.7-1.2-1.33-2.42-1.9-3.64c0.57-1.23,1.21-2.45,1.9-3.65c0.71-1.24,1.45-2.41,2.21-3.5c1.36-0.12,2.75-0.18,4.14-0.18
		c1.38,0,2.76,0.06,4.12,0.17c0.76,1.09,1.5,2.25,2.22,3.48c0.7,1.2,1.33,2.42,1.9,3.64C110.66,21.22,110.03,22.45,109.34,23.65z
		 M112.3,22.46c0.49,1.23,0.92,2.45,1.26,3.64c-1.2,0.29-2.46,0.54-3.77,0.73c0.45-0.7,0.9-1.43,1.32-2.17
		C111.53,23.93,111.93,23.19,112.3,22.46z M103.02,32.23c-0.85-0.88-1.7-1.86-2.55-2.93c0.82,0.04,1.67,0.06,2.52,0.06
		c0.86,0,1.71-0.02,2.55-0.06C104.71,30.37,103.86,31.35,103.02,32.23z M96.21,26.83c-1.3-0.19-2.55-0.43-3.75-0.72
		c0.34-1.18,0.76-2.4,1.24-3.62c0.38,0.73,0.77,1.46,1.2,2.2S95.76,26.14,96.21,26.83z M102.97,7.78c0.85,0.88,1.7,1.86,2.55,2.93
		c-0.82-0.04-1.67-0.06-2.52-0.06c-0.86,0-1.71,0.02-2.55,0.06C101.28,9.64,102.13,8.66,102.97,7.78z M96.2,13.17
		c-0.45,0.7-0.9,1.43-1.32,2.17c-0.42,0.73-0.81,1.46-1.19,2.2c-0.49-1.23-0.92-2.45-1.26-3.64C93.62,13.61,94.89,13.37,96.2,13.17z
		 M87.91,24.64c-3.24-1.38-5.34-3.2-5.34-4.63c0-1.44,2.1-3.26,5.34-4.63c0.79-0.34,1.65-0.64,2.54-0.92
		c0.52,1.79,1.21,3.66,2.06,5.58c-0.84,1.9-1.52,3.76-2.03,5.55C89.57,25.29,88.71,24.98,87.91,24.64z M92.84,37.72
		c-1.25-0.71-1.79-3.43-1.36-6.93c0.1-0.86,0.27-1.77,0.47-2.69c1.79,0.44,3.75,0.78,5.81,1c1.24,1.69,2.52,3.23,3.81,4.58
		c-2.98,2.77-5.79,4.29-7.69,4.29C93.46,37.96,93.11,37.88,92.84,37.72z M114.55,30.74c0.43,3.5-0.1,6.22-1.34,6.94
		c-0.27,0.16-0.63,0.24-1.05,0.24c-1.9,0-4.71-1.51-7.69-4.27c1.28-1.35,2.56-2.87,3.78-4.57c2.07-0.22,4.03-0.56,5.82-1.01
		C114.29,29,114.45,29.89,114.55,30.74z M118.08,24.64c-0.79,0.34-1.65,0.64-2.54,0.92c-0.52-1.79-1.21-3.66-2.06-5.58
		c0.84-1.9,1.52-3.76,2.03-5.55c0.91,0.28,1.77,0.6,2.57,0.93c3.24,1.38,5.34,3.2,5.34,4.63C123.42,21.44,121.32,23.26,118.08,24.64
		z"/>
	<path class="st5" d="M93.83,0.04L93.83,0.04L93.83,0.04z"/>
	<circle class="st5" cx="102.99" cy="20" r="4.18"/>
	<path class="st5" d="M112.11,0.01L112.11,0.01L112.11,0.01z"/>
</g>
</svg>
