<?xml version="1.0" encoding="utf-8"?>
<!-- Generator: Adobe Illustrator 23.0.6, SVG Export Plug-In . SVG Version: 6.00 Build 0)  -->
<svg version="1.1" id="Layer_1" xmlns="http://www.w3.org/2000/svg" xmlns:xlink="http://www.w3.org/1999/xlink" x="0px" y="0px"
	 viewBox="0 0 48 53.3" style="enable-background:new 0 0 48 53.3;" xml:space="preserve">
<style type="text/css">
	.st0{fill:#262626;}
</style>
<path class="st0" d="M42.7,16v-2.7h-5.3v-8h-32v37.3h13.3v10.7h8.7h-0.7c-2.9,0-5.3-2.4-5.3-5.3V21.3c0-2.9,2.4-5.3,5.3-5.3H42.7z
	 M27.3,53.3h-22C2.4,53.3,0,50.9,0,48V5.3C0,2.4,2.4,0,5.3,0h32c2.9,0,5.3,2.4,5.3,5.3V16c2.9,0,5.3,2.4,5.3,5.3V48
	c0,2.9-2.4,5.3-5.3,5.3H27.3z M26.7,21.3v21.3h16V21.3H26.7z M34.7,50.7c1.5,0,2.7-1.2,2.7-2.7s-1.2-2.7-2.7-2.7
	c-1.5,0-2.7,1.2-2.7,2.7S33.2,50.7,34.7,50.7z"/>
</svg>
