<?xml version="1.0" encoding="utf-8"?>
<!-- Generator: Adobe Illustrator 23.0.6, SVG Export Plug-In . SVG Version: 6.00 Build 0)  -->
<svg version="1.1" id="Layer_1" xmlns="http://www.w3.org/2000/svg" xmlns:xlink="http://www.w3.org/1999/xlink" x="0px" y="0px"
	 viewBox="0 0 551.99 40.01" style="enable-background:new 0 0 551.99 40.01;" xml:space="preserve">
<style type="text/css">
	.st0{fill:#CB3837;}
	.st1{fill:#FFFFFF;}
	.st2{fill:#6762A6;}
	.st3{fill:#539E43;}
	.st4{fill:#333333;}
	.st5{fill:url(#SVGID_1_);}
	.st6{fill:none;}
	.st7{fill:url(#SVGID_2_);}
	.st8{fill-rule:evenodd;clip-rule:evenodd;fill:url(#SVGID_3_);}
	.st9{fill-rule:evenodd;clip-rule:evenodd;fill:url(#SVGID_4_);}
	.st10{fill-rule:evenodd;clip-rule:evenodd;fill:url(#SVGID_5_);}
	.st11{fill-rule:evenodd;clip-rule:evenodd;fill:url(#SVGID_6_);}
	.st12{fill-rule:evenodd;clip-rule:evenodd;fill:url(#SVGID_7_);}
	.st13{fill:#222222;}
	.st14{fill:#CF649A;}
</style>
<g>
	<path class="st0" d="M377.14,0v34.26h28.51V40h22.77v-5.74h51.29V0H377.14z"/>
	<path class="st1" d="M394.17,5.75h-11.29v22.77h11.29V11.49h5.74v17.03h5.74V5.75H394.17z M411.4,5.75v28.51h11.49v-5.74h11.29
		V5.75H411.4z M428.43,22.77h-5.54V11.49h5.54V22.77z M451.2,5.75h-11.29v22.77h11.29V11.49h5.74v17.03h5.74V11.49h5.74v17.03h5.74
		V5.75H451.2z"/>
</g>
<g>
	<path class="st2" d="M548.18,40h-24.63c-2.11,0-3.82-1.71-3.82-3.81V3.82c0-2.11,1.71-3.81,3.81-3.81h24.63
		c2.11,0,3.82,1.71,3.82,3.81v32.37C551.99,38.29,550.28,40,548.18,40L548.18,40z"/>
	<path class="st1" d="M540.26,34.42l-0.35-15.88c0,0,0.95-3.82-12.69,1.83c-0.02,0.07-0.35-14.69-0.35-14.69l4.49-0.13l0.21,9.45
		c0,0,12.48-5.23,12.67,3.48l0.35,15.83L540.26,34.42L540.26,34.42z M542.32,11.05l-4.77,0.1c1.67-2.14,3.15-5.76,3.15-5.76
		l4.93-0.11C545.62,5.28,544.83,7.64,542.32,11.05L542.32,11.05z M527.59,34.67l-0.2-9.04l4.62,4.42L527.59,34.67L527.59,34.67z"/>
</g>
<g>
	<path class="st3" d="M32.31,40.01c-0.22,0-0.43-0.06-0.62-0.16l-1.96-1.17c-0.3-0.16-0.15-0.22-0.06-0.25
		c0.4-0.13,0.47-0.16,0.89-0.4c0.04-0.03,0.1-0.01,0.15,0.01l1.51,0.9c0.06,0.03,0.13,0.03,0.18,0l5.89-3.41
		c0.06-0.03,0.09-0.09,0.09-0.16v-6.81c0-0.07-0.03-0.13-0.09-0.16L32.38,25c-0.06-0.03-0.13-0.03-0.18,0l-5.89,3.4
		c-0.06,0.03-0.09,0.1-0.09,0.16v6.81c0,0.06,0.03,0.13,0.09,0.16l1.61,0.93c0.87,0.44,1.42-0.07,1.42-0.59v-6.72
		c0-0.09,0.07-0.18,0.18-0.18h0.75c0.09,0,0.18,0.07,0.18,0.18v6.72c0,1.17-0.63,1.85-1.74,1.85c-0.34,0-0.61,0-1.36-0.37
		l-1.55-0.89c-0.38-0.22-0.62-0.63-0.62-1.08v-6.81c0-0.44,0.24-0.86,0.62-1.08l5.89-3.41c0.37-0.21,0.87-0.21,1.24,0l5.89,3.41
		c0.38,0.22,0.62,0.63,0.62,1.08v6.81c0,0.44-0.24,0.86-0.62,1.08l-5.89,3.41C32.74,39.97,32.51,40.01,32.31,40.01L32.31,40.01z
		 M34.12,35.33c-2.58,0-3.12-1.18-3.12-2.19c0-0.09,0.07-0.18,0.18-0.18h0.77c0.09,0,0.16,0.06,0.16,0.15
		c0.12,0.78,0.46,1.17,2.02,1.17c1.24,0,1.77-0.28,1.77-0.95c0-0.38-0.15-0.66-2.08-0.86c-1.61-0.16-2.61-0.52-2.61-1.8
		c0-1.2,1-1.9,2.69-1.9c1.89,0,2.82,0.65,2.94,2.07c0,0.04-0.01,0.09-0.04,0.13c-0.03,0.03-0.07,0.06-0.12,0.06h-0.77
		c-0.07,0-0.15-0.06-0.16-0.13c-0.18-0.81-0.63-1.08-1.85-1.08c-1.36,0-1.52,0.47-1.52,0.83c0,0.43,0.19,0.56,2.02,0.8
		c1.82,0.24,2.67,0.58,2.67,1.85C37.06,34.59,36,35.33,34.12,35.33z"/>
	<path class="st4" d="M14.03,13.39c0-0.27-0.15-0.52-0.38-0.65l-6.26-3.6c-0.1-0.06-0.22-0.09-0.34-0.1H6.98
		c-0.12,0-0.24,0.04-0.34,0.1l-6.26,3.6C0.15,12.86,0,13.11,0,13.39l0.01,9.69c0,0.13,0.07,0.27,0.19,0.32
		c0.12,0.07,0.27,0.07,0.37,0l3.72-2.13c0.24-0.13,0.38-0.38,0.38-0.65v-4.53c0-0.27,0.15-0.52,0.38-0.65l1.58-0.92
		c0.12-0.07,0.25-0.1,0.38-0.1s0.27,0.03,0.37,0.1l1.58,0.92c0.24,0.13,0.38,0.38,0.38,0.65v4.53c0,0.27,0.15,0.52,0.38,0.65
		l3.72,2.13c0.12,0.07,0.27,0.07,0.38,0c0.12-0.06,0.19-0.19,0.19-0.32L14.03,13.39L14.03,13.39z M44.12,0.04
		c-0.12-0.06-0.27-0.06-0.37,0c-0.12,0.07-0.19,0.19-0.19,0.32v9.6c0,0.09-0.04,0.18-0.13,0.24c-0.09,0.04-0.18,0.04-0.27,0
		l-1.57-0.9c-0.23-0.13-0.52-0.13-0.75,0l-6.26,3.62c-0.24,0.13-0.38,0.38-0.38,0.65v7.22c0,0.27,0.15,0.52,0.38,0.65l6.26,3.62
		c0.23,0.13,0.52,0.13,0.75,0l6.26-3.62c0.24-0.13,0.38-0.38,0.38-0.65v-18c0-0.28-0.15-0.53-0.38-0.66L44.12,0.04L44.12,0.04z
		 M43.54,18.41c0,0.07-0.03,0.13-0.09,0.16l-2.14,1.24c-0.06,0.03-0.13,0.03-0.19,0l-2.14-1.24c-0.06-0.03-0.09-0.1-0.09-0.16v-2.48
		c0-0.07,0.03-0.13,0.09-0.16l2.14-1.24c0.06-0.03,0.13-0.03,0.19,0l2.14,1.24c0.06,0.03,0.09,0.1,0.09,0.16V18.41L43.54,18.41z
		 M64.95,15.88c0.24-0.13,0.37-0.38,0.37-0.65v-1.76c0-0.27-0.15-0.52-0.37-0.65l-6.22-3.6c-0.23-0.13-0.52-0.13-0.75,0l-6.26,3.62
		c-0.24,0.13-0.38,0.38-0.38,0.65v7.22c0,0.27,0.15,0.52,0.38,0.65l6.22,3.54c0.24,0.13,0.52,0.13,0.74,0l3.77-2.1
		c0.12-0.06,0.19-0.19,0.19-0.32s-0.07-0.27-0.19-0.32l-6.29-3.62c-0.12-0.07-0.19-0.19-0.19-0.32v-2.26c0-0.13,0.07-0.27,0.19-0.32
		l1.96-1.12c0.12-0.07,0.27-0.07,0.38,0l1.96,1.12c0.12,0.07,0.19,0.19,0.19,0.32v1.77c0,0.13,0.07,0.27,0.19,0.32
		c0.12,0.07,0.27,0.07,0.38,0L64.95,15.88L64.95,15.88z"/>
	<path class="st3" d="M58.27,15.53c0.04-0.03,0.1-0.03,0.15,0l1.2,0.69c0.04,0.03,0.07,0.07,0.07,0.13v1.39
		c0,0.06-0.03,0.1-0.07,0.13l-1.2,0.69c-0.04,0.03-0.1,0.03-0.15,0l-1.2-0.69C57.02,17.85,57,17.81,57,17.75v-1.39
		c0-0.06,0.03-0.1,0.07-0.13L58.27,15.53z"/>
	<g transform="translate(134.068 70.501)">
		<g>
			
				<linearGradient id="SVGID_1_" gradientUnits="userSpaceOnUse" x1="-588.173" y1="14.9646" x2="-588.1835" y2="14.9837" gradientTransform="matrix(532.1024 0 0 606.2871 312860.8438 -9131.4766)">
				<stop  offset="0" style="stop-color:#41873F"/>
				<stop  offset="0.3288" style="stop-color:#418B3D"/>
				<stop  offset="0.6352" style="stop-color:#419637"/>
				<stop  offset="0.9319" style="stop-color:#3FA92D"/>
				<stop  offset="1" style="stop-color:#3FAE2A"/>
			</linearGradient>
			<path class="st5" d="M-109.57-61.25c-0.23-0.13-0.52-0.13-0.75,0l-6.22,3.59c-0.24,0.13-0.37,0.38-0.37,0.65v7.19
				c0,0.27,0.15,0.52,0.37,0.65l6.22,3.59c0.23,0.13,0.52,0.13,0.75,0l6.22-3.59c0.24-0.13,0.37-0.38,0.37-0.65v-7.19
				c0-0.27-0.15-0.52-0.37-0.65L-109.57-61.25z"/>
		</g>
		<g>
			<path class="st6" d="M-110.34-61.25l-6.23,3.59c-0.24,0.13-0.4,0.38-0.4,0.65v7.19c0,0.18,0.07,0.34,0.19,0.47l7-11.99
				C-109.96-61.38-110.16-61.35-110.34-61.25L-110.34-61.25z M-109.73-45.51c0.06-0.01,0.12-0.04,0.18-0.07l6.23-3.59
				c0.24-0.13,0.38-0.38,0.38-0.65v-7.19c0-0.19-0.09-0.38-0.22-0.52L-109.73-45.51L-109.73-45.51z"/>
			
				<linearGradient id="SVGID_2_" gradientUnits="userSpaceOnUse" x1="-588.2034" y1="14.9732" x2="-588.1731" y2="14.954" gradientTransform="matrix(519.687 0 0 606.0386 305570.7813 -9126.9102)">
				<stop  offset="0.1376" style="stop-color:#41873F"/>
				<stop  offset="0.4032" style="stop-color:#54A044"/>
				<stop  offset="0.7136" style="stop-color:#66B848"/>
				<stop  offset="0.9081" style="stop-color:#6CC04A"/>
			</linearGradient>
			<path class="st7" d="M-103.34-57.66l-6.25-3.59c-0.06-0.03-0.13-0.06-0.19-0.07l-7,11.99c0.06,0.07,0.13,0.13,0.21,0.18
				l6.25,3.59c0.18,0.1,0.38,0.13,0.58,0.07l6.57-12.02C-103.22-57.58-103.28-57.63-103.34-57.66L-103.34-57.66z"/>
		</g>
		<g>
			<path class="st6" d="M-102.94-49.83v-7.19c0-0.27-0.16-0.52-0.4-0.65l-6.25-3.59c-0.07-0.04-0.15-0.07-0.24-0.09l6.84,11.68
				C-102.96-49.7-102.94-49.76-102.94-49.83L-102.94-49.83z M-116.57-57.66c-0.24,0.13-0.4,0.38-0.4,0.65v7.19
				c0,0.27,0.18,0.52,0.4,0.65l6.25,3.59c0.15,0.09,0.31,0.12,0.49,0.09l-6.69-12.18L-116.57-57.66L-116.57-57.66z"/>
			
				<linearGradient id="SVGID_3_" gradientUnits="userSpaceOnUse" x1="-711.649" y1="278.035" x2="-709.0998" y2="278.035" gradientTransform="matrix(4.5111 0 0 1.6941 3094.4971 -533.564)">
				<stop  offset="0.0919" style="stop-color:#6CC04A"/>
				<stop  offset="0.2864" style="stop-color:#66B848"/>
				<stop  offset="0.5968" style="stop-color:#54A044"/>
				<stop  offset="0.8624" style="stop-color:#41873F"/>
			</linearGradient>
			<path class="st8" d="M-110.53-62.56l-0.09,0.04h0.12L-110.53-62.56z"/>
			
				<linearGradient id="SVGID_4_" gradientUnits="userSpaceOnUse" x1="-588.2335" y1="14.9731" x2="-588.2058" y2="14.9731" gradientTransform="matrix(519.1255 0 0 606.527 305249.875 -9135.0098)">
				<stop  offset="0.0919" style="stop-color:#6CC04A"/>
				<stop  offset="0.2864" style="stop-color:#66B848"/>
				<stop  offset="0.5968" style="stop-color:#54A044"/>
				<stop  offset="0.8624" style="stop-color:#41873F"/>
			</linearGradient>
			<path class="st9" d="M-103.33-49.17c0.18-0.1,0.31-0.28,0.37-0.47l-6.85-11.69c-0.18-0.03-0.37-0.01-0.53,0.09l-6.2,3.57
				l6.69,12.2c0.1-0.02,0.19-0.05,0.28-0.09L-103.33-49.17L-103.33-49.17z"/>
			
				<linearGradient id="SVGID_5_" gradientUnits="userSpaceOnUse" x1="-1089.313" y1="3.0546" x2="-1086.7637" y2="3.0546" gradientTransform="matrix(1.6941 0 0 3.9497 1738.3147 -61.3799)">
				<stop  offset="0.0919" style="stop-color:#6CC04A"/>
				<stop  offset="0.2864" style="stop-color:#66B848"/>
				<stop  offset="0.5968" style="stop-color:#54A044"/>
				<stop  offset="0.8624" style="stop-color:#41873F"/>
			</linearGradient>
			<path class="st10" d="M-102.75-49.29l-0.04-0.07v0.1L-102.75-49.29L-102.75-49.29z"/>
			
				<linearGradient id="SVGID_6_" gradientUnits="userSpaceOnUse" x1="-589.7887" y1="14.1111" x2="-589.7352" y2="14.1111" gradientTransform="matrix(268.5875 0 0 167.5852 158292.7188 -2412.2798)">
				<stop  offset="0.0919" style="stop-color:#6CC04A"/>
				<stop  offset="0.2864" style="stop-color:#66B848"/>
				<stop  offset="0.5968" style="stop-color:#54A044"/>
				<stop  offset="0.8624" style="stop-color:#41873F"/>
			</linearGradient>
			<path class="st11" d="M-103.33-49.17l-6.23,3.59c-0.09,0.04-0.18,0.07-0.28,0.09l0.12,0.22l6.91-4v-0.09l-0.18-0.3
				C-103.02-49.45-103.15-49.27-103.33-49.17L-103.33-49.17z"/>
			
				<linearGradient id="SVGID_7_" gradientUnits="userSpaceOnUse" x1="-589.7274" y1="14.0427" x2="-589.7604" y2="14.1508" gradientTransform="matrix(268.5875 0 0 167.5852 158292.7188 -2412.2798)">
				<stop  offset="0" style="stop-color:#41873F"/>
				<stop  offset="0.3288" style="stop-color:#418B3D"/>
				<stop  offset="0.6352" style="stop-color:#419637"/>
				<stop  offset="0.9319" style="stop-color:#3FA92D"/>
				<stop  offset="1" style="stop-color:#3FAE2A"/>
			</linearGradient>
			<path class="st12" d="M-103.33-49.17l-6.23,3.59c-0.09,0.04-0.18,0.07-0.28,0.09l0.12,0.22l6.91-4v-0.09l-0.18-0.3
				C-103.02-49.45-103.15-49.27-103.33-49.17L-103.33-49.17z"/>
		</g>
	</g>
</g>
<path class="st13" d="M106.5,31.19V15.82h19.19v-0.9H106.5V0.9h20.4V0h-21.3v32.09h21.48v-0.9H106.5L106.5,31.19z M144.39,8.99
	l-7.95,10.47l-7.78-10.47h-1.17l8.4,11.15l-9.21,11.95h1.08l8.67-11.28l8.72,11.28h1.12l-9.26-11.96l8.45-11.15L144.39,8.99
	L144.39,8.99z M148.98,40V25.62h0.09c0.54,2.1,1.6,3.78,3.19,5.06c1.59,1.27,3.61,1.91,6.07,1.91c1.59,0,3-0.32,4.22-0.97
	c1.23-0.64,2.25-1.52,3.08-2.63c0.82-1.11,1.45-2.4,1.89-3.87c0.43-1.47,0.65-3.01,0.65-4.63c0-1.74-0.22-3.34-0.67-4.81
	s-1.1-2.74-1.95-3.82c-0.85-1.08-1.89-1.92-3.1-2.52s-2.58-0.9-4.11-0.9c-1.17,0-2.25,0.17-3.26,0.52c-1,0.34-1.89,0.83-2.67,1.46
	s-1.47,1.38-2.02,2.22c-0.57,0.85-1,1.79-1.3,2.81H149V8.99h-0.9V40H148.98L148.98,40z M158.32,31.73c-2.82,0-5.08-0.97-6.79-2.9
	s-2.56-4.71-2.56-8.34c0-1.5,0.21-2.92,0.63-4.27s1.03-2.53,1.82-3.55c0.79-1.02,1.78-1.83,2.94-2.43c1.17-0.6,2.49-0.9,3.96-0.9
	c1.5,0,2.81,0.3,3.93,0.9c1.12,0.6,2.05,1.42,2.79,2.45s1.29,2.22,1.66,3.55c0.37,1.33,0.56,2.75,0.56,4.25
	c0,1.35-0.17,2.69-0.52,4.02c-0.34,1.33-0.88,2.53-1.6,3.6c-0.72,1.06-1.64,1.93-2.76,2.61C161.27,31.39,159.91,31.73,158.32,31.73
	L158.32,31.73z M173.11,32.09V19.01c0-1.26,0.18-2.49,0.54-3.69c0.36-1.2,0.91-2.25,1.66-3.17c0.75-0.91,1.7-1.63,2.85-2.16
	c1.15-0.52,2.52-0.74,4.11-0.65v-0.9c-1.38-0.03-2.58,0.12-3.62,0.45c-1.03,0.33-1.93,0.78-2.67,1.35c-0.75,0.57-1.35,1.24-1.8,2
	s-0.78,1.59-0.99,2.45h-0.09v-5.7h-0.9v23.1H173.11L173.11,32.09z M183.4,20.72h19.33c0.06-1.59-0.1-3.12-0.47-4.58
	c-0.37-1.47-0.97-2.77-1.8-3.91c-0.82-1.14-1.89-2.05-3.19-2.74s-2.85-1.03-4.65-1.03c-1.29,0-2.55,0.27-3.78,0.81
	s-2.31,1.33-3.24,2.36s-1.68,2.3-2.25,3.8s-0.85,3.21-0.85,5.12c0,1.71,0.19,3.3,0.58,4.79c0.39,1.48,0.99,2.77,1.8,3.87
	c0.81,1.09,1.85,1.94,3.12,2.54c1.27,0.6,2.81,0.88,4.61,0.85c2.64,0,4.85-0.74,6.65-2.22c1.8-1.48,2.86-3.57,3.19-6.27h-0.9
	c-0.39,2.55-1.39,4.46-2.99,5.73c-1.6,1.27-3.62,1.91-6.05,1.91c-1.65,0-3.04-0.28-4.18-0.85s-2.07-1.35-2.79-2.34
	c-0.72-0.99-1.25-2.15-1.6-3.48C183.62,23.72,183.43,22.28,183.4,20.72L183.4,20.72z M201.83,19.82H183.4
	c0.09-1.62,0.39-3.07,0.9-4.36c0.51-1.29,1.18-2.39,2-3.3s1.78-1.61,2.88-2.09c1.09-0.48,2.27-0.72,3.53-0.72
	c1.5,0,2.82,0.28,3.96,0.83s2.09,1.31,2.85,2.27c0.76,0.96,1.34,2.07,1.73,3.35C201.64,17.07,201.83,18.41,201.83,19.82
	L201.83,19.82z M221.38,15.82h0.9c0-2.58-0.75-4.45-2.25-5.62s-3.54-1.75-6.11-1.75c-1.44,0-2.65,0.18-3.64,0.54
	s-1.8,0.82-2.43,1.39c-0.63,0.57-1.08,1.2-1.35,1.89c-0.27,0.69-0.4,1.35-0.4,1.98c0,1.26,0.22,2.26,0.67,3.01s1.15,1.33,2.11,1.75
	c0.66,0.3,1.41,0.57,2.25,0.81s1.81,0.49,2.92,0.76c0.99,0.24,1.96,0.48,2.92,0.72c0.96,0.24,1.81,0.56,2.54,0.97
	c0.73,0.4,1.33,0.92,1.8,1.55c0.46,0.63,0.7,1.45,0.7,2.47c0,0.99-0.23,1.83-0.7,2.52c-0.46,0.69-1.07,1.26-1.78,1.69
	c-0.72,0.43-1.52,0.75-2.4,0.94c-0.88,0.19-1.75,0.29-2.58,0.29c-2.73,0-4.82-0.61-6.27-1.82s-2.18-3.12-2.18-5.73h-0.9
	c0,2.91,0.79,5.03,2.36,6.38s3.9,2.02,6.99,2.02c0.99,0,1.98-0.11,2.99-0.34c1-0.22,1.9-0.59,2.7-1.1c0.79-0.5,1.45-1.18,1.93-1.98
	c0.49-0.81,0.74-1.8,0.74-2.97c0-1.11-0.22-2.01-0.65-2.7s-1-1.26-1.71-1.71c-0.7-0.45-1.5-0.8-2.38-1.06
	c-0.89-0.26-1.78-0.5-2.67-0.74c-1.1-0.29-2.2-0.57-3.3-0.85c-0.94-0.24-1.82-0.52-2.63-0.85c-0.78-0.33-1.4-0.8-1.87-1.42
	c-0.46-0.61-0.7-1.49-0.7-2.63c0-0.21,0.06-0.58,0.18-1.12s0.4-1.09,0.85-1.64c0.45-0.55,1.14-1.05,2.07-1.48
	c0.93-0.43,2.2-0.65,3.82-0.65c1.11,0,2.12,0.12,3.03,0.36s1.7,0.62,2.36,1.15c0.66,0.52,1.17,1.19,1.53,2
	C221.2,13.66,221.38,14.65,221.38,15.82L221.38,15.82z M242.19,15.82h0.9c0-2.58-0.75-4.45-2.25-5.62s-3.54-1.75-6.11-1.75
	c-1.44,0-2.65,0.18-3.64,0.54s-1.8,0.82-2.43,1.39c-0.63,0.57-1.08,1.2-1.35,1.89c-0.27,0.69-0.4,1.35-0.4,1.98
	c0,1.26,0.22,2.26,0.67,3.01s1.15,1.33,2.11,1.75c0.66,0.3,1.41,0.57,2.25,0.81s1.81,0.49,2.92,0.76c0.99,0.24,1.96,0.48,2.92,0.72
	c0.96,0.24,1.81,0.56,2.54,0.97c0.73,0.4,1.33,0.92,1.8,1.55c0.46,0.63,0.7,1.45,0.7,2.47c0,0.99-0.23,1.83-0.7,2.52
	c-0.46,0.69-1.07,1.26-1.77,1.69c-0.72,0.43-1.52,0.75-2.4,0.94c-0.88,0.19-1.75,0.29-2.58,0.29c-2.73,0-4.82-0.61-6.27-1.82
	s-2.18-3.12-2.18-5.73h-0.9c0,2.91,0.79,5.03,2.36,6.38s3.9,2.02,6.99,2.02c0.99,0,1.99-0.11,2.99-0.34c1-0.22,1.9-0.59,2.7-1.1
	c0.79-0.5,1.45-1.18,1.93-1.98c0.49-0.81,0.74-1.8,0.74-2.97c0-1.11-0.22-2.01-0.65-2.7s-1-1.26-1.71-1.71
	c-0.7-0.45-1.5-0.8-2.38-1.06c-0.89-0.26-1.78-0.5-2.67-0.74c-1.1-0.29-2.2-0.57-3.3-0.85c-0.94-0.24-1.82-0.52-2.63-0.85
	c-0.78-0.33-1.4-0.8-1.87-1.42c-0.46-0.61-0.7-1.49-0.7-2.63c0-0.21,0.06-0.58,0.18-1.12s0.4-1.09,0.85-1.64
	c0.45-0.55,1.14-1.05,2.07-1.48c0.93-0.43,2.2-0.65,3.82-0.65c1.11,0,2.12,0.12,3.03,0.36s1.7,0.62,2.36,1.15
	c0.66,0.52,1.17,1.19,1.53,2C242.01,13.66,242.19,14.65,242.19,15.82L242.19,15.82z"/>
<g>
	<path class="st14" d="M329.17,22.99c-1.87,0.01-3.48,0.46-4.84,1.13c-0.5-0.99-1-1.86-1.08-2.5c-0.09-0.75-0.21-1.21-0.09-2.11
		c0.11-0.9,0.64-2.17,0.64-2.27c-0.01-0.09-0.11-0.55-1.19-0.56c-1.07-0.01-2,0.21-2.11,0.49c-0.11,0.28-0.31,0.93-0.45,1.59
		c-0.19,0.98-2.15,4.45-3.26,6.27c-0.36-0.71-0.68-1.33-0.74-1.83c-0.09-0.75-0.21-1.21-0.09-2.11c0.11-0.9,0.64-2.17,0.64-2.27
		c-0.01-0.09-0.11-0.55-1.19-0.56c-1.07-0.01-2,0.21-2.11,0.49c-0.1,0.28-0.22,0.95-0.45,1.59c-0.22,0.65-2.82,6.44-3.5,7.95
		c-0.34,0.77-0.65,1.39-0.87,1.8c-0.22,0.42-0.01,0.03-0.03,0.07c-0.19,0.35-0.29,0.55-0.29,0.55v0.01
		c-0.15,0.26-0.3,0.51-0.38,0.51c-0.05,0-0.16-0.7,0.02-1.66c0.39-2.01,1.32-5.15,1.31-5.26c0-0.05,0.18-0.6-0.6-0.89
		c-0.76-0.28-1.03,0.19-1.09,0.19s-0.11,0.17-0.11,0.17s0.84-3.53-1.62-3.53c-1.54,0-3.67,1.68-4.72,3.21
		c-0.67,0.36-2.08,1.14-3.59,1.96c-0.57,0.31-1.17,0.65-1.73,0.95l-0.11-0.13c-2.98-3.18-8.5-5.43-8.27-9.7
		c0.08-1.55,0.63-5.65,10.59-10.61c8.16-4.07,14.7-2.95,15.83-0.47c1.62,3.54-3.49,10.13-11.98,11.08
		c-3.23,0.36-4.93-0.89-5.36-1.36c-0.45-0.49-0.51-0.51-0.68-0.42c-0.27,0.15-0.1,0.58,0,0.84c0.25,0.66,1.29,1.82,3.06,2.41
		c1.55,0.51,5.35,0.79,9.93-0.98c5.14-1.99,9.15-7.52,7.97-12.13c-1.2-4.7-9-6.24-16.36-3.63c-4.39,1.56-9.14,4-12.56,7.2
		c-4.07,3.79-4.71,7.11-4.44,8.48c0.95,4.91,7.71,8.11,10.42,10.48c-0.14,0.07-0.26,0.15-0.38,0.21c-1.36,0.67-6.51,3.37-7.81,6.22
		c-1.46,3.23,0.23,5.56,1.36,5.87c3.48,0.97,7.05-0.77,8.97-3.64c1.92-2.87,1.69-6.59,0.8-8.29l-0.03-0.06l1.06-0.63
		c0.69-0.41,1.37-0.78,1.96-1.1c-0.33,0.91-0.57,1.98-0.7,3.54c-0.15,1.83,0.6,4.21,1.59,5.15c0.44,0.41,0.96,0.42,1.28,0.42
		c1.15,0,1.67-0.95,2.24-2.08c0.71-1.39,1.33-2.99,1.33-2.99s-0.78,4.35,1.36,4.35c0.78,0,1.56-1.01,1.92-1.53v0.01
		c0,0,0.02-0.03,0.06-0.1c0.04-0.06,0.09-0.13,0.13-0.2v-0.02c0.31-0.54,1.01-1.78,2.05-3.84c1.34-2.65,2.64-5.96,2.64-5.96
		s0.13,0.81,0.51,2.15c0.23,0.79,0.73,1.66,1.12,2.5c-0.31,0.44-0.5,0.69-0.5,0.69l0.01,0.01c-0.25,0.33-0.53,0.69-0.82,1.04
		c-1.06,1.27-2.33,2.72-2.5,3.14c-0.2,0.49-0.16,0.85,0.23,1.15c0.28,0.21,0.78,0.25,1.31,0.21c0.96-0.06,1.63-0.3,1.96-0.45
		c0.52-0.19,1.12-0.47,1.69-0.89c1.04-0.77,1.68-1.87,1.62-3.32c-0.03-0.8-0.29-1.59-0.61-2.35c0.09-0.14,0.19-0.27,0.28-0.42
		c1.65-2.41,2.92-5.06,2.92-5.06s0.13,0.81,0.51,2.15c0.2,0.68,0.59,1.42,0.95,2.15c-1.54,1.26-2.51,2.72-2.85,3.68
		c-0.61,1.77-0.14,2.57,0.77,2.76c0.41,0.08,0.99-0.1,1.43-0.29c0.54-0.18,1.2-0.48,1.8-0.93c1.04-0.77,2.04-1.84,1.99-3.29
		c-0.03-0.67-0.21-1.32-0.45-1.95c1.31-0.54,3.01-0.85,5.17-0.59c4.64,0.54,5.56,3.44,5.38,4.65c-0.18,1.21-1.15,1.88-1.47,2.08
		s-0.43,0.27-0.4,0.42c0.04,0.22,0.19,0.21,0.47,0.17c0.39-0.06,2.44-0.99,2.52-3.22C336.73,26.09,334.01,22.96,329.17,22.99
		L329.17,22.99z M293.4,35.05c-1.53,1.68-3.69,2.31-4.61,1.77c-0.99-0.57-0.6-3.04,1.28-4.83c1.15-1.08,2.64-2.08,3.62-2.7
		c0.22-0.14,0.55-0.33,0.95-0.57c0.06-0.04,0.1-0.06,0.1-0.06c0.07-0.04,0.16-0.09,0.24-0.15C295.68,31.06,295.01,33.29,293.4,35.05
		L293.4,35.05z M304.6,27.43c-0.53,1.3-1.66,4.65-2.33,4.46c-0.58-0.16-0.94-2.69-0.11-5.19c0.42-1.26,1.3-2.76,1.82-3.35
		c0.84-0.94,1.76-1.25,1.99-0.87C306.24,22.99,304.93,26.62,304.6,27.43z M313.85,31.85c-0.23,0.11-0.44,0.2-0.53,0.14
		c-0.07-0.04,0.09-0.2,0.09-0.2s1.16-1.24,1.62-1.81c0.26-0.33,0.57-0.72,0.91-1.16v0.13C315.93,30.44,314.49,31.44,313.85,31.85
		L313.85,31.85z M320.98,30.22c-0.17-0.13-0.15-0.51,0.42-1.72c0.22-0.48,0.72-1.28,1.58-2.04c0.1,0.31,0.17,0.61,0.16,0.9
		C323.13,29.23,321.79,29.93,320.98,30.22z"/>
</g>
</svg>
