<?xml version="1.0" encoding="utf-8"?>
<!-- Generator: Adobe Illustrator 25.0.1, SVG Export Plug-In . SVG Version: 6.00 Build 0)  -->
<svg version="1.1" id="Layer_1" xmlns="http://www.w3.org/2000/svg" xmlns:xlink="http://www.w3.org/1999/xlink" x="0px" y="0px"
	 viewBox="0 0 832.9 40.3" style="enable-background:new 0 0 832.9 40.3;" xml:space="preserve">
<style type="text/css">
	.st0{fill:#83CD29;}
	.st1{fill:#404137;}
	.st2{fill:#222222;}
	.st3{clip-path:url(#SVGID_2_);}
	.st4{fill:#5A29E3;}
	.st5{fill:#6D44E7;}
	.st6{fill:#61DAFB;}
	.st7{fill:#E10098;}
</style>
<symbol  id="A_3" viewBox="-55.8 -15.7 111.6 31.4">
	<g>
		<path class="st0" d="M46.7-4.6c-0.3,0-0.5,0.1-0.8,0.2l-7.4,4.3c-0.5,0.3-0.8,0.8-0.8,1.4v8.5c0,0.6,0.3,1.1,0.8,1.3l1.9,1.1
			c0.9,0.5,1.3,0.5,1.7,0.5c1.4,0,2.2-0.8,2.2-2.3V2c0-0.1-0.1-0.2-0.2-0.2h-0.9C43.1,1.8,43,1.9,43,2v8.4c0,0.6-0.7,1.3-1.8,0.8
			l-2-1.2c-0.1,0-0.1-0.1-0.1-0.2V1.2c0-0.1,0.1-0.2,0.1-0.2l7.4-4.2c0.1,0,0.2,0,0.2,0L54.2,1c0.1,0,0.1,0.1,0.1,0.2v8.5
			c0,0.1,0,0.2-0.1,0.2l-7.4,4.2c-0.1,0-0.2,0-0.2,0L44.7,13c-0.1,0-0.1,0-0.2,0c-0.5,0.3-0.6,0.3-1.1,0.5c-0.1,0-0.3,0.1,0.1,0.3
			l2.5,1.5c0.2,0.1,0.5,0.2,0.8,0.2s0.5-0.1,0.8-0.2l7.4-4.2c0.5-0.3,0.8-0.8,0.8-1.3V1.2c0-0.6-0.3-1.1-0.8-1.4l-7.4-4.3
			C47.2-4.5,47-4.6,46.7-4.6L46.7-4.6z M48.6,1.5c-2.1,0-3.4,0.9-3.4,2.4c0,1.6,1.2,2.1,3.3,2.3c2.4,0.2,2.6,0.6,2.6,1.1
			c0,0.8-0.7,1.2-2.2,1.2c-2,0-2.4-0.5-2.5-1.5c0-0.1-0.1-0.2-0.2-0.2h-1C45.1,6.8,45,6.9,45,7c0,1.2,0.7,2.7,3.9,2.7
			c2.3,0,3.7-0.9,3.7-2.5s-1.1-2-3.4-2.3c-2.3-0.3-2.5-0.5-2.5-1c0-0.4,0.2-1,1.9-1c1.5,0,2.1,0.3,2.3,1.4c0,0.1,0.1,0.2,0.2,0.2h1
			c0.1,0,0.1,0,0.2-0.1c0.1-0.1,0.1-0.1,0.1-0.2C52.2,2.3,51,1.5,48.6,1.5L48.6,1.5z"/>
		<path class="st1" d="M3.2-15.7c-0.1,0-0.2,0-0.2,0.1c-0.1,0.1-0.2,0.2-0.2,0.4v12C2.8-3.1,2.7-3,2.6-3S2.4-2.9,2.3-3l-2-1.1
			C0-4.3-0.3-4.3-0.6-4.1l-7.8,4.5c-0.3,0.2-0.5,0.5-0.5,0.8v9c0,0.3,0.2,0.6,0.5,0.8l7.8,4.5c0.3,0.2,0.6,0.2,0.9,0L8.1,11
			c0.3-0.2,0.5-0.5,0.5-0.8v-22.5c0-0.3-0.2-0.7-0.5-0.8l-4.7-2.6C3.4-15.7,3.3-15.7,3.2-15.7z M-47.1-4.5c-0.2,0-0.3,0-0.4,0.1
			l-7.8,4.5c-0.3,0.2-0.5,0.5-0.5,0.8V13c0,0.2,0.1,0.3,0.2,0.4c0.1,0.1,0.3,0.1,0.5,0l4.6-2.7c0.3-0.2,0.5-0.5,0.5-0.8V4.4
			c0-0.3,0.2-0.6,0.5-0.8l2-1.1c0.1-0.1,0.3-0.1,0.5-0.1s0.3,0,0.5,0.1l2,1.1c0.2,0.1,0.4,0.4,0.4,0.8V10c0,0.3,0.2,0.6,0.5,0.8
			l4.6,2.7c0.1,0.1,0.3,0.1,0.5,0c0.1-0.1,0.2-0.2,0.2-0.4V1c0-0.3-0.2-0.6-0.5-0.8l-7.8-4.5C-46.7-4.4-46.8-4.4-47.1-4.5L-47.1-4.5
			L-47.1-4.5z M23.2-4.4c-0.2,0-0.3,0-0.5,0.1l-7.8,4.6c-0.3,0.2-0.5,0.5-0.5,0.8v9c0,0.3,0.2,0.7,0.5,0.8l7.8,4.4
			c0.3,0.2,0.6,0.2,0.9,0l4.7-2.6c0.2-0.1,0.2-0.2,0.2-0.4s0-0.3-0.1-0.3l-7.9-4.5c-0.1-0.1-0.2-0.3-0.2-0.4V4.2
			c0-0.2,0.1-0.3,0.2-0.4l2.4-1.4c0.1-0.1,0.3-0.1,0.5,0l2.4,1.4C25.9,3.9,26,4,26,4.2v2.2c0,0.2,0.1,0.3,0.2,0.4s0.3,0.1,0.5,0
			l4.7-2.7c0.4-0.2,0.5-0.5,0.5-0.8V1.1c0-0.3-0.2-0.6-0.5-0.8l-7.8-4.5C23.6-4.3,23.4-4.4,23.2-4.4L23.2-4.4z M-0.2,2.4L-0.2,2.4
			L2.6,4c0.1,0,0.1,0.1,0.1,0.2v3.1c0,0.1-0.1,0.2-0.1,0.2L0,9c-0.1,0-0.2,0-0.2,0l-2.7-1.6c-0.1,0-0.2,0-0.2-0.1V4.2
			C-3.1,4.1-3,4-3,4L-0.2,2.4C-0.2,2.4-0.2,2.4-0.2,2.4L-0.2,2.4z"/>
		<path class="st0" d="M-23.6-4.4c-0.2,0-0.3,0-0.5,0.1l-7.8,4.5c-0.3,0.2-0.5,0.5-0.5,0.8v9c0,0.3,0.2,0.6,0.5,0.8l7.8,4.5
			c0.3,0.2,0.6,0.2,0.9,0l7.8-4.5c0.3-0.2,0.5-0.5,0.5-0.8V1c0-0.3-0.2-0.7-0.5-0.8l-7.7-4.5C-23.3-4.3-23.4-4.4-23.6-4.4L-23.6-4.4
			z M23.2,3.7C23.2,3.7,23.1,3.7,23.2,3.7l-1.6,0.9c-0.1,0-0.1,0.1-0.1,0.2v1.7c0,0.1,0,0.1,0.1,0.2l1.5,0.9c0.1,0,0.1,0,0.2,0
			l1.5-0.9c0.1,0,0.1-0.1,0.1-0.2V4.7c0-0.1,0-0.1-0.1-0.2L23.2,3.7C23.3,3.7,23.2,3.7,23.2,3.7z"/>
	</g>
</symbol>
<path class="st2" d="M695.6,31.5V16.1h19.2v-0.9h-19.2v-14H716V0.3h-21.3v32.1h21.5v-0.9L695.6,31.5L695.6,31.5z M733.5,9.3
	l-7.9,10.5l-7.8-10.5h-1.2l8.4,11.2l-9.2,12h1.1l8.7-11.3l8.7,11.3h1.1l-9.3-12l8.5-11.2L733.5,9.3L733.5,9.3z M738.1,40.3V25.9h0.1
	c0.5,2.1,1.6,3.8,3.2,5.1c1.6,1.3,3.6,1.9,6.1,1.9c1.6,0,3-0.3,4.2-1c1.2-0.6,2.2-1.5,3.1-2.6c0.8-1.1,1.4-2.4,1.9-3.9
	c0.4-1.5,0.6-3,0.6-4.6c0-1.7-0.2-3.3-0.7-4.8s-1.1-2.7-1.9-3.8c-0.9-1.1-1.9-1.9-3.1-2.5s-2.6-0.9-4.1-0.9c-1.2,0-2.2,0.2-3.3,0.5
	c-1,0.3-1.9,0.8-2.7,1.5c-0.8,0.7-1.5,1.4-2,2.2c-0.6,0.9-1,1.8-1.3,2.8h-0.1V9.3h-0.9v31H738.1L738.1,40.3z M747.5,32
	c-2.8,0-5.1-1-6.8-2.9s-2.6-4.7-2.6-8.3c0-1.5,0.2-2.9,0.6-4.3c0.4-1.4,1-2.5,1.8-3.6c0.8-1,1.8-1.8,2.9-2.4c1.2-0.6,2.5-0.9,4-0.9
	s2.8,0.3,3.9,0.9c1.1,0.6,2.1,1.4,2.8,2.4c0.7,1,1.3,2.2,1.7,3.5c0.4,1.3,0.6,2.8,0.6,4.2s-0.2,2.7-0.5,4s-0.9,2.5-1.6,3.6
	s-1.6,1.9-2.8,2.6C750.4,31.7,749,32,747.5,32L747.5,32z M762.2,32.4V19.3c0-1.3,0.2-2.5,0.5-3.7s0.9-2.2,1.7-3.2
	c0.8-0.9,1.7-1.6,2.9-2.2c1.1-0.5,2.5-0.7,4.1-0.6V8.7c-1.4,0-2.6,0.1-3.6,0.4c-1,0.3-1.9,0.8-2.7,1.4c-0.8,0.6-1.4,1.2-1.8,2
	c-0.4,0.8-0.8,1.6-1,2.4h-0.1V9.3h-0.9v23.1H762.2L762.2,32.4z M772.5,21h19.3c0.1-1.6-0.1-3.1-0.5-4.6c-0.4-1.5-1-2.8-1.8-3.9
	s-1.9-2.1-3.2-2.7c-1.3-0.7-2.9-1-4.6-1c-1.3,0-2.6,0.3-3.8,0.8c-1.2,0.5-2.3,1.3-3.2,2.4c-0.9,1-1.7,2.3-2.2,3.8s-0.9,3.2-0.9,5.1
	c0,1.7,0.2,3.3,0.6,4.8c0.4,1.5,1,2.8,1.8,3.9s1.9,1.9,3.1,2.5c1.3,0.6,2.8,0.9,4.6,0.8c2.6,0,4.9-0.7,6.6-2.2
	c1.7-1.5,2.9-3.6,3.2-6.3h-0.9c-0.4,2.5-1.4,4.5-3,5.7c-1.6,1.3-3.6,1.9-6,1.9c-1.6,0-3-0.3-4.2-0.9c-1.1-0.6-2.1-1.4-2.8-2.3
	c-0.7-0.9-1.2-2.1-1.6-3.5C772.8,24,772.6,22.6,772.5,21L772.5,21z M791,20.1h-18.4c0.1-1.6,0.4-3.1,0.9-4.4s1.2-2.4,2-3.3
	s1.8-1.6,2.9-2.1c1.1-0.5,2.3-0.7,3.5-0.7c1.5,0,2.8,0.3,4,0.8c1.1,0.6,2.1,1.3,2.9,2.3s1.3,2.1,1.7,3.4
	C790.8,17.4,791,18.7,791,20.1L791,20.1z M810.5,16.1h0.9c0-2.6-0.8-4.4-2.2-5.6s-3.5-1.8-6.1-1.8c-1.4,0-2.6,0.2-3.6,0.5
	c-1,0.4-1.8,0.8-2.4,1.4c-0.6,0.6-1.1,1.2-1.4,1.9s-0.4,1.4-0.4,2c0,1.3,0.2,2.3,0.7,3c0.5,0.8,1.1,1.3,2.1,1.8
	c0.7,0.3,1.4,0.6,2.2,0.8c0.8,0.2,1.8,0.5,2.9,0.8c1,0.2,2,0.5,2.9,0.7c0.9,0.2,1.8,0.6,2.5,1s1.3,0.9,1.8,1.5s0.7,1.5,0.7,2.5
	s-0.2,1.8-0.7,2.5s-1.1,1.3-1.8,1.7c-0.7,0.4-1.5,0.8-2.4,0.9c-0.9,0.2-1.8,0.3-2.6,0.3c-2.7,0-4.8-0.6-6.3-1.8
	c-1.5-1.2-2.2-3.1-2.2-5.7h-0.9c0,2.9,0.8,5,2.4,6.4c1.6,1.4,3.9,2,7,2c1,0,2-0.1,3-0.3s1.9-0.6,2.7-1.1c0.8-0.5,1.4-1.2,1.9-2
	s0.7-1.8,0.7-3c0-1.1-0.2-2-0.6-2.7c-0.4-0.7-1-1.3-1.7-1.7c-0.7-0.5-1.5-0.8-2.4-1.1c-0.9-0.3-1.8-0.5-2.7-0.7
	c-1.1-0.3-2.2-0.6-3.3-0.9c-0.9-0.2-1.8-0.5-2.6-0.9c-0.8-0.3-1.4-0.8-1.9-1.4s-0.7-1.5-0.7-2.6c0-0.2,0.1-0.6,0.2-1.1
	c0.1-0.5,0.4-1.1,0.9-1.6s1.1-1.1,2.1-1.5s2.2-0.6,3.8-0.6c1.1,0,2.1,0.1,3,0.4c0.9,0.3,1.7,0.6,2.4,1.1s1.2,1.2,1.5,2
	C810.3,14,810.5,14.9,810.5,16.1L810.5,16.1z M831.3,16.1h0.9c0-2.6-0.8-4.4-2.2-5.6s-3.5-1.8-6.1-1.8c-1.4,0-2.6,0.2-3.6,0.5
	c-1,0.4-1.8,0.8-2.4,1.4c-0.6,0.6-1.1,1.2-1.4,1.9s-0.4,1.4-0.4,2c0,1.3,0.2,2.3,0.7,3c0.5,0.8,1.1,1.3,2.1,1.8
	c0.7,0.3,1.4,0.6,2.2,0.8c0.8,0.2,1.8,0.5,2.9,0.8c1,0.2,2,0.5,2.9,0.7c0.9,0.2,1.8,0.6,2.5,1s1.3,0.9,1.8,1.5s0.7,1.5,0.7,2.5
	s-0.2,1.8-0.7,2.5s-1.1,1.3-1.8,1.7c-0.7,0.4-1.5,0.8-2.4,0.9c-0.9,0.1-1.8,0.3-2.6,0.3c-2.7,0-4.8-0.6-6.3-1.8
	c-1.4-1.2-2.2-3.1-2.2-5.7h-0.7c0,2.9,0.8,5,2.4,6.4c1.6,1.4,3.9,2,7,2c1,0,2-0.1,3-0.3s1.9-0.6,2.7-1.1s1.5-1.2,1.9-2
	c0.5-0.8,0.7-1.8,0.7-3c0-1.1-0.2-2-0.6-2.7c-0.4-0.7-1-1.3-1.7-1.7c-0.7-0.5-1.5-0.8-2.4-1.1c-0.9-0.3-1.8-0.5-2.7-0.7
	c-1.1-0.3-2.2-0.6-3.3-0.9c-0.9-0.2-1.8-0.5-2.6-0.9c-0.8-0.3-1.4-0.8-1.9-1.4s-0.7-1.5-0.7-2.6c0-0.2,0.1-0.6,0.2-1.1
	c0.1-0.5,0.4-1.1,0.9-1.6c0.4-0.6,1.1-1.1,2.1-1.5c0.9-0.4,2.2-0.6,3.8-0.6c1.1,0,2.1,0.1,3,0.4c0.9,0.3,1.7,0.6,2.4,1.1
	c0.7,0.5,1.2,1.2,1.5,2C831.1,14,831.3,14.9,831.3,16.1L831.3,16.1z"/>
<g>
	<g>
		<defs>
			<rect id="SVGID_1_" x="503.7" y="0" width="140.5" height="39.7"/>
		</defs>
		<clipPath id="SVGID_2_">
			<use xlink:href="#SVGID_1_"  style="overflow:visible;"/>
		</clipPath>
		<g class="st3">
			<g>
				<defs>
					<rect id="SVGID_3_" x="503.7" y="0" width="140.8" height="39.6"/>
				</defs>
				<clipPath id="SVGID_4_">
					<use xlink:href="#SVGID_3_"  style="overflow:visible;"/>
				</clipPath>
				<g style="clip-path:url(#SVGID_4_);">
					
						<use xlink:href="#A_3"  width="111.6" height="31.4" x="-55.8" y="-15.7" transform="matrix(1.2614 0 0 1.2614 574.0464 19.7724)" style="overflow:visible;"/>
				</g>
			</g>
		</g>
	</g>
</g>
<g>
	<path class="st4" d="M398.5,6.9c3.8-0.3,7,1.1,9.7,3.6c2.2,1.9,3.6,4.5,4.1,7.4c0.9,4.8-0.6,8.8-4,12.1c-2.3,2.3-5.4,3.6-8.6,3.7
		c-2.4,0.1-4.7-0.1-6.9-1c-3.7-1.5-6.2-4.2-7.5-7.9c-1.3-3.4-1.2-6.8,0.4-10.1c1.5-3.1,4.1-5.6,7.3-6.9
		C394.7,7.1,396.6,6.8,398.5,6.9z M406.8,20.3c0.2-4.3-3.9-8.5-8.3-8.4c-5.2,0-8.4,4.1-8.4,8.4c0,5,3.3,8.6,8.3,8.8
		C403.3,29.1,406.9,25,406.8,20.3z"/>
	<path class="st4" d="M453.3,9.6c-0.9,1.6-1.7,3.1-2.5,4.6c-2.6-1.6-5.2-2.6-8.2-2.5c-0.7,0-1.5,0.1-2.2,0.3c-1,0.4-1.9,1-2,2.4
		c0.3,2,2,2.3,3.6,2.8c2.9,0.8,6,1.4,8.7,2.8c2.3,1.2,3.4,2.9,3.5,5.6c0.3,5.5-3.7,7.6-7.5,8.1c-1.4,0.2-2.9,0.3-4.3,0.3
		c-3.6-0.1-6.9-1.2-10.1-2.8c-0.3-0.2-0.5-0.4-0.8-0.6l2.4-4.8c1.9,1.4,4.1,2.3,6.4,2.8c2,0.4,3.9,0.6,5.9,0
		c0.7-0.2,1.3-0.8,1.8-1.1c0.3-2-0.1-2.8-2.2-3.5c-2.6-0.9-5.2-1.5-7.8-2.4c-1.8-0.6-3.5-1.4-4.6-3.2c-1.9-3.2-0.6-8.2,2.8-10
		c2.6-1.4,5.5-2,8.4-1.6C447.8,7.1,450.5,8.2,453.3,9.6z"/>
	<path class="st4" d="M294,33.7h-6l-2.7-6.2h-10.6l-2.7,6.2h-6c3.9-9,7.8-17.8,11.7-26.7h4.7L294,33.7z M280,13.8l-4,8.6h7.9
		C282.6,19.6,281.4,16.8,280,13.8z"/>
	<path class="st4" d="M327.3,20.5l10.2,13.2h-6.1l-7.1-9.1l-7.1,9.2H311l10.3-13.2L310.6,7h6.1l7.5,9.5c2.5-3.2,4.9-6.3,7.4-9.5h6.1
		L327.3,20.5z"/>
	<g>
		<path class="st4" d="M359.6,2.8v32.5l-3.2,2.6V11.1h-6.2l-0.2-0.4L359.6,2.8z"/>
		<path class="st4" d="M362.7,37.2V5.4l3.2-2.2v26.4h6.1c0.1,0.2,0.2,0.3,0.2,0.5l-9.2,7.4L362.7,37.2z"/>
		<path class="st5" d="M362.7,20.2l0.3,0.3L362.7,20.2z"/>
	</g>
</g>
<g>
	<path class="st6" d="M44.9,20.2c0-3-3.7-5.8-9.4-7.5c1.3-5.8,0.7-10.5-1.9-12c-0.6-0.3-1.3-0.5-2-0.5v2c0.4,0,0.8,0.1,1,0.2
		c1.3,0.8,1.8,3.5,1.4,7c-0.1,0.9-0.3,1.8-0.5,2.7c-1.8-0.4-3.8-0.8-5.8-1c-1.2-1.7-2.5-3.2-3.8-4.6c3-2.8,5.8-4.3,7.7-4.3v-2l0,0
		c-2.5,0-5.8,1.8-9.2,4.9c-3.3-3.1-6.6-4.9-9.2-4.9v2c1.9,0,4.7,1.5,7.7,4.3c-1.3,1.3-2.6,2.9-3.8,4.6c-2.1,0.2-4,0.6-5.8,1
		c-0.2-0.9-0.4-1.8-0.5-2.7c-0.4-3.5,0.1-6.2,1.3-6.9c0.3-0.2,0.6-0.2,1.1-0.2v-2l0,0c-0.8,0-1.5,0.2-2.1,0.5
		c-2.4,1.5-3,6.1-1.7,11.9C3.7,14.5,0,17.3,0,20.2c0,3,3.7,5.8,9.4,7.5c-1.3,5.9-0.7,10.5,1.9,12c0.6,0.3,1.3,0.5,2.1,0.5
		c2.5,0,5.8-1.8,9.2-4.9c3.3,3.1,6.6,4.9,9.2,4.9c0.8,0,1.5-0.2,2.1-0.5c2.6-1.5,3.2-6.1,1.8-11.9C41.2,26,44.9,23.2,44.9,20.2z
		 M33,14.1c-0.3,1.2-0.8,2.4-1.2,3.6c-0.4-0.7-0.8-1.5-1.2-2.2c-0.4-0.7-0.9-1.4-1.3-2.1C30.6,13.6,31.8,13.8,33,14.1z M28.8,23.9
		c-0.7,1.2-1.4,2.4-2.2,3.5c-1.4,0.1-2.8,0.2-4.1,0.2c-1.4,0-2.8-0.1-4.1-0.2c-0.8-1.1-1.5-2.2-2.2-3.5c-0.7-1.2-1.3-2.4-1.9-3.6
		c0.6-1.2,1.2-2.5,1.9-3.6c0.7-1.2,1.4-2.4,2.2-3.5c1.4-0.1,2.8-0.2,4.1-0.2c1.4,0,2.8,0.1,4.1,0.2c0.8,1.1,1.5,2.2,2.2,3.5
		c0.7,1.2,1.3,2.4,1.9,3.6C30.1,21.4,29.5,22.7,28.8,23.9z M31.8,22.7c0.5,1.2,0.9,2.5,1.3,3.6c-1.2,0.3-2.5,0.5-3.8,0.7
		c0.4-0.7,0.9-1.4,1.3-2.2C31,24.2,31.4,23.4,31.8,22.7z M22.5,32.5c-0.8-0.9-1.7-1.9-2.6-2.9c0.8,0,1.7,0.1,2.5,0.1
		c0.9,0,1.7,0,2.6-0.1C24.2,30.6,23.3,31.6,22.5,32.5z M15.7,27.1c-1.3-0.2-2.6-0.4-3.8-0.7c0.3-1.2,0.8-2.4,1.2-3.6
		c0.4,0.7,0.8,1.5,1.2,2.2S15.2,26.4,15.7,27.1z M22.4,8c0.8,0.9,1.7,1.9,2.6,2.9c-0.8,0-1.7-0.1-2.5-0.1c-0.9,0-1.7,0-2.6,0.1
		C20.8,9.9,21.6,8.9,22.4,8z M15.7,13.4c-0.4,0.7-0.9,1.4-1.3,2.2c-0.4,0.7-0.8,1.5-1.2,2.2c-0.5-1.2-0.9-2.5-1.3-3.6
		C13.1,13.8,14.4,13.6,15.7,13.4z M7.4,24.9C4.1,23.5,2,21.7,2,20.2c0-1.4,2.1-3.3,5.3-4.6C8.1,15.3,9,15,9.8,14.7
		c0.5,1.8,1.2,3.7,2.1,5.6c-0.8,1.9-1.5,3.8-2,5.5C9,25.5,8.2,25.2,7.4,24.9z M12.3,38c-1.2-0.7-1.8-3.4-1.4-6.9
		c0.1-0.9,0.3-1.8,0.5-2.7c1.8,0.4,3.8,0.8,5.8,1c1.2,1.7,2.5,3.2,3.8,4.6c-3,2.8-5.8,4.3-7.7,4.3C12.9,38.2,12.6,38.1,12.3,38z
		 M34,31c0.4,3.5-0.1,6.2-1.3,6.9c-0.3,0.2-0.6,0.2-1.1,0.2c-1.9,0-4.7-1.5-7.7-4.3c1.3-1.3,2.6-2.9,3.8-4.6c2.1-0.2,4-0.6,5.8-1
		C33.8,29.2,33.9,30.1,34,31z M37.6,24.9c-0.8,0.3-1.7,0.6-2.5,0.9c-0.5-1.8-1.2-3.7-2.1-5.6c0.8-1.9,1.5-3.8,2-5.6
		c0.9,0.3,1.8,0.6,2.6,0.9c3.2,1.4,5.3,3.2,5.3,4.6C42.9,21.7,40.8,23.5,37.6,24.9z"/>
	<path class="st6" d="M13.3,0.3L13.3,0.3L13.3,0.3z"/>
	<circle class="st6" cx="22.5" cy="20.2" r="4.2"/>
	<path class="st6" d="M31.6,0.2L31.6,0.2L31.6,0.2z"/>
</g>
<g>
	<path class="st7" d="M139.7,12.1c-0.6,0-1.2,0.1-1.8,0.3c-0.5,0.2-1,0.4-1.4,0.8c-0.4,0.4-0.7,0.8-0.9,1.4
		c-0.2,0.6-0.3,1.3-0.4,2.1c0,1.3,0,2.6,0,3.9c0,0.8,0.2,1.5,0.4,2.1c0.2,0.6,0.5,1,0.9,1.4c0.4,0.4,0.8,0.6,1.4,0.8
		c0.5,0.2,1.1,0.2,1.8,0.2c0.6,0,1.2-0.1,1.8-0.3c0.5-0.2,1-0.5,1.4-0.8c0.4-0.4,0.7-0.8,1-1.4c0.2-0.6,0.3-1.3,0.3-2v-1.1h-3.8
		c-0.3,0-0.5-0.2-0.5-0.5v-0.3c0-0.3,0.2-0.5,0.5-0.5h4.6c0.3,0,0.5,0.2,0.5,0.5v1.9c0,0.9-0.1,1.7-0.4,2.4
		c-0.3,0.7-0.6,1.3-1.1,1.8c-0.5,0.5-1.1,0.9-1.8,1.2c-0.7,0.3-1.5,0.4-2.5,0.4c-0.9,0-1.8-0.1-2.5-0.4c-0.7-0.3-1.3-0.7-1.8-1.2
		c-0.5-0.5-0.8-1.1-1.1-1.8c-0.2-0.7-0.4-1.5-0.4-2.3c0-0.6,0-1.3,0-2c0-0.7,0-1.4,0-2c0-0.8,0.2-1.6,0.4-2.3
		c0.3-0.7,0.6-1.3,1.1-1.8c0.5-0.5,1.1-0.9,1.8-1.2c0.7-0.3,1.5-0.4,2.4-0.4c1,0,1.8,0.2,2.5,0.5c0.7,0.3,1.3,0.7,1.7,1.1
		c0.4,0.4,0.8,0.9,1,1.3c0.2,0.5,0.3,0.8,0.3,1.1c0,0.1,0,0.2-0.1,0.3c-0.1,0.1-0.2,0.1-0.3,0.1h-0.5c-0.1,0-0.2,0-0.3-0.1
		c-0.1-0.1-0.1-0.2-0.2-0.3c-0.1-0.3-0.3-0.6-0.5-1c-0.2-0.3-0.5-0.6-0.8-0.9c-0.3-0.3-0.8-0.5-1.2-0.6
		C140.9,12.1,140.4,12.1,139.7,12.1L139.7,12.1z M149.9,16.3c0.5-1,1.5-1.5,2.9-1.5h0.8c0.3,0,0.5,0.2,0.5,0.5v0.3
		c0,0.3-0.2,0.5-0.5,0.5h-0.9c-0.9,0-1.5,0.3-2,0.8c-0.5,0.5-0.8,1.2-0.8,2v6.7c0,0.1-0.1,0.3-0.2,0.3c-0.1,0.1-0.2,0.1-0.3,0.1
		h-0.3c-0.3,0-0.5-0.2-0.5-0.5V15.4c0-0.1,0-0.3,0.1-0.3c0.1-0.1,0.2-0.2,0.3-0.2h0.3c0.1,0,0.3,0.1,0.3,0.2
		c0.1,0.1,0.2,0.2,0.2,0.3L149.9,16.3L149.9,16.3z M163.2,26.1c-0.3,0-0.5-0.2-0.5-0.5v-1c-0.1,0.2-0.3,0.4-0.5,0.6
		c-0.2,0.2-0.5,0.4-0.8,0.5c-0.3,0.2-0.7,0.3-1.1,0.4c-0.4,0.1-0.9,0.2-1.5,0.2c-0.5,0-1-0.1-1.5-0.2c-0.5-0.2-0.9-0.4-1.2-0.7
		c-0.3-0.3-0.6-0.6-0.8-1c-0.2-0.4-0.3-0.8-0.3-1.3c0-0.5,0.1-0.9,0.3-1.3c0.2-0.4,0.5-0.7,0.9-1c0.4-0.3,0.8-0.5,1.3-0.7
		c0.5-0.2,1.1-0.3,1.7-0.4l3.4-0.5v-0.8c0-0.8-0.2-1.4-0.7-1.8c-0.5-0.4-1.2-0.6-2.2-0.6c-0.8,0-1.4,0.2-1.9,0.5
		c-0.4,0.3-0.7,0.6-0.8,1c-0.1,0.2-0.1,0.3-0.2,0.4c-0.1,0.1-0.2,0.1-0.3,0.1h-0.3c-0.1,0-0.2,0-0.3-0.1c-0.1-0.1-0.1-0.2-0.1-0.3
		c0-0.2,0.1-0.5,0.2-0.8c0.1-0.3,0.4-0.6,0.7-0.9c0.3-0.3,0.7-0.5,1.3-0.7c0.5-0.2,1.1-0.3,1.8-0.3c0.8,0,1.5,0.1,2.1,0.3
		c0.6,0.2,1,0.5,1.3,0.9c0.3,0.4,0.5,0.8,0.6,1.2c0.1,0.4,0.2,0.9,0.2,1.3v7.2c0,0.3-0.2,0.5-0.5,0.5L163.2,26.1L163.2,26.1z
		 M159.1,25c0.5,0,0.9-0.1,1.4-0.2c0.4-0.2,0.8-0.4,1.2-0.8c0.3-0.3,0.6-0.7,0.8-1.3c0.2-0.5,0.3-1.1,0.3-1.8v-0.7l-2.8,0.4
		c-2.4,0.3-3.6,1.1-3.6,2.3c0,0.4,0.1,0.7,0.2,0.9c0.2,0.3,0.4,0.5,0.6,0.6c0.3,0.2,0.6,0.3,0.9,0.4C158.5,25,158.8,25,159.1,25
		L159.1,25z M172.4,26.3c-0.9,0-1.6-0.2-2.2-0.5c-0.6-0.3-1-0.7-1.4-1.2v5.1c0,0.3-0.2,0.5-0.5,0.5h-0.4c-0.3,0-0.5-0.2-0.5-0.5
		V15.3c0-0.3,0.2-0.5,0.5-0.5h0.4c0.3,0,0.5,0.2,0.5,0.5v1c0.4-0.5,0.8-0.9,1.4-1.2c0.6-0.3,1.3-0.5,2.2-0.5c0.8,0,1.5,0.2,2.1,0.5
		c0.6,0.3,1.1,0.7,1.4,1.2c0.4,0.5,0.6,1,0.8,1.6c0.2,0.6,0.3,1.2,0.3,1.9c0,0.2,0,0.5,0,0.7c0,0.3,0,0.5,0,0.7
		c0,0.6-0.1,1.3-0.3,1.9c-0.2,0.6-0.4,1.2-0.8,1.6c-0.4,0.5-0.8,0.9-1.4,1.2C173.9,26.2,173.2,26.3,172.4,26.3L172.4,26.3z
		 M168.8,19.7c0,0.2,0,0.5,0,0.8s0,0.6,0,0.8c0,0.4,0.1,0.9,0.2,1.3c0.1,0.4,0.4,0.8,0.6,1.2c0.3,0.3,0.7,0.6,1.1,0.9
		c0.4,0.2,0.9,0.3,1.6,0.3c0.6,0,1.2-0.1,1.6-0.3c0.4-0.2,0.8-0.5,1-0.9c0.3-0.4,0.5-0.8,0.6-1.3c0.1-0.5,0.2-1,0.2-1.5
		c0-0.4,0-0.8,0-1.2c0-0.5-0.1-1-0.2-1.5c-0.1-0.5-0.3-0.9-0.6-1.3c-0.3-0.4-0.6-0.7-1-0.9c-0.4-0.2-0.9-0.3-1.6-0.3
		c-0.6,0-1.1,0.1-1.6,0.3c-0.4,0.2-0.8,0.5-1.1,0.9c-0.3,0.4-0.5,0.8-0.6,1.2C168.9,18.8,168.8,19.2,168.8,19.7L168.8,19.7z
		 M181.3,16.3c0.4-0.5,0.9-0.9,1.4-1.2c0.5-0.3,1.3-0.5,2.2-0.5c0.7,0,1.4,0.1,1.9,0.4c0.5,0.2,1,0.6,1.4,1c0.4,0.4,0.7,0.9,0.8,1.5
		c0.2,0.6,0.3,1.2,0.3,1.9v6.1c0,0.3-0.2,0.5-0.5,0.5h-0.4c-0.3,0-0.5-0.2-0.5-0.5v-6c0-1.2-0.3-2-0.8-2.7c-0.6-0.7-1.4-1-2.5-1
		c-1,0-1.9,0.3-2.5,1c-0.6,0.6-0.9,1.6-0.9,2.7v6c0,0.3-0.2,0.5-0.5,0.5h-0.4c-0.3,0-0.5-0.2-0.5-0.5V11.2c0-0.3,0.2-0.5,0.5-0.5
		h0.4c0.3,0,0.5,0.2,0.5,0.5L181.3,16.3L181.3,16.3z M198.1,10.8c0.8,0,1.6,0.1,2.3,0.4c0.7,0.2,1.3,0.6,1.8,1.1
		c0.5,0.5,0.9,1.1,1.2,1.9c0.3,0.7,0.4,1.6,0.5,2.6c0,0.6,0,1.2,0,1.8c0,0.6,0,1.2,0,1.8c-0.1,2.1-0.6,3.6-1.6,4.5l1.4,1.9
		c0,0,0,0.1,0,0.1c0,0,0,0.1,0,0.2c0,0.1,0,0.2-0.1,0.3c-0.1,0.1-0.2,0.1-0.3,0.1h-0.5c-0.2,0-0.3-0.1-0.4-0.2
		c-0.1-0.1-0.2-0.2-0.3-0.3l-1-1.3c-0.9,0.4-1.9,0.6-3,0.6c-1.8,0-3.2-0.5-4.2-1.4c-1-1-1.5-2.5-1.5-4.5c0-0.6,0-1.2,0-1.8
		c0-0.6,0-1.2,0-1.8c0-1,0.2-1.9,0.5-2.6c0.3-0.7,0.7-1.4,1.2-1.9c0.5-0.5,1.1-0.9,1.8-1.1C196.5,10.9,197.3,10.8,198.1,10.8
		L198.1,10.8z M198.1,12.1c-0.6,0-1.2,0.1-1.7,0.3c-0.5,0.2-1,0.5-1.4,0.8c-0.4,0.4-0.7,0.9-0.9,1.5c-0.2,0.6-0.3,1.3-0.4,2.2
		c0,0.3,0,0.6,0,0.9c0,0.3,0,0.5,0,0.8c0,0.3,0,0.5,0,0.8c0,0.3,0,0.6,0,0.9c0,0.8,0.2,1.6,0.4,2.2c0.2,0.6,0.5,1.1,0.9,1.5
		c0.4,0.4,0.8,0.7,1.4,0.9c0.5,0.2,1.1,0.3,1.7,0.3c0.6,0,1.2-0.1,1.7-0.3c0.5-0.2,1-0.5,1.3-0.9c0.4-0.4,0.7-0.9,0.9-1.5
		c0.2-0.6,0.4-1.3,0.4-2.2c0-0.3,0-0.6,0-0.9c0-0.3,0-0.6,0-0.8c0-0.3,0-0.5,0-0.8c0-0.3,0-0.6,0-0.9c0-0.8-0.2-1.6-0.4-2.2
		c-0.2-0.6-0.5-1.1-0.9-1.5c-0.4-0.4-0.8-0.7-1.4-0.8C199.3,12.2,198.7,12.1,198.1,12.1L198.1,12.1z M208.6,24.8h7.4
		c0.3,0,0.5,0.2,0.5,0.5v0.3c0,0.3-0.2,0.5-0.5,0.5h-8.3c-0.3,0-0.5-0.2-0.5-0.5V11.5c0-0.3,0.2-0.5,0.5-0.5h0.4
		c0.3,0,0.5,0.2,0.5,0.5L208.6,24.8L208.6,24.8z M94.7,30.8L93.3,30L109.5,2l1.5,0.8L94.7,30.8z"/>
	<path class="st7" d="M92.9,27.8h32.4v1.7H92.9V27.8z"/>
	<path class="st7" d="M109.8,38.1l-16.2-9.4l0.8-1.5l16.2,9.4L109.8,38.1z M123.8,13.7l-16.2-9.4l0.8-1.5l16.2,9.4L123.8,13.7z"/>
	<path class="st7" d="M94.4,13.7l-0.8-1.5l16.2-9.3l0.8,1.5L94.4,13.7z"/>
	<path class="st7" d="M123.5,30.8L107.3,2.8l1.5-0.8L125,30L123.5,30.8z M94.2,11.1h1.7v18.7h-1.7V11.1z M122.4,11.1h1.7v18.7h-1.7
		L122.4,11.1z"/>
	<path class="st7" d="M109.5,37.4l-0.7-1.3l14.1-8.1l0.7,1.3L109.5,37.4z"/>
	<path class="st7" d="M126.3,30.4c-1,1.7-3.1,2.3-4.8,1.3c-1.7-1-2.3-3.1-1.3-4.8c1-1.7,3.1-2.3,4.8-1.3
		C126.7,26.5,127.3,28.7,126.3,30.4 M98.1,14.1c-1,1.7-3.1,2.3-4.8,1.3c-1.7-1-2.3-3.1-1.3-4.8c1-1.7,3.1-2.3,4.8-1.3
		C98.5,10.2,99.1,12.4,98.1,14.1 M92,30.4c-1-1.7-0.4-3.8,1.3-4.8c1.7-1,3.8-0.4,4.8,1.3c1,1.7,0.4,3.8-1.3,4.8
		C95.1,32.6,93,32.1,92,30.4 M120.2,14.1c-1-1.7-0.4-3.8,1.3-4.8c1.7-1,3.8-0.4,4.8,1.3c1,1.7,0.4,3.8-1.3,4.8
		C123.3,16.4,121.1,15.8,120.2,14.1 M109.1,40.3c-2,0-3.5-1.6-3.5-3.5s1.6-3.5,3.5-3.5s3.5,1.6,3.5,3.5
		C112.7,38.7,111.1,40.3,109.1,40.3 M109.1,7.7c-2,0-3.5-1.6-3.5-3.5s1.6-3.5,3.5-3.5s3.5,1.6,3.5,3.5
		C112.7,6.1,111.1,7.7,109.1,7.7C109.1,7.7,109.1,7.7,109.1,7.7"/>
</g>
</svg>
