<?xml version="1.0" encoding="utf-8"?>
<!-- Generator: Adobe Illustrator 24.3.0, SVG Export Plug-In . SVG Version: 6.00 Build 0)  -->
<svg version="1.1" id="Layer_1" xmlns="http://www.w3.org/2000/svg" xmlns:xlink="http://www.w3.org/1999/xlink" x="0px" y="0px"
	 viewBox="0 0 625.9 40" style="enable-background:new 0 0 625.9 40;" xml:space="preserve">
<style type="text/css">
	.st0{fill:#83CD29;}
	.st1{fill:#404137;}
	.st2{fill:#CB3837;}
	.st3{fill:#FFFFFF;}
	.st4{fill:#6762A6;}
	.st5{fill:#222222;}
	.st6{fill:#CF649A;}
</style>
<symbol  id="A_3" viewBox="-55.7 -15.7 111.4 31.5">
	<g>
		<path class="st0" d="M46.8-4.6c-0.3,0-0.5,0.1-0.8,0.2l-7.4,4.3c-0.5,0.3-0.8,0.8-0.8,1.4v8.5c0,0.6,0.3,1.1,0.8,1.3l1.9,1.1
			c0.9,0.5,1.3,0.5,1.7,0.5c1.4,0,2.2-0.8,2.2-2.3V2c0-0.1-0.1-0.2-0.2-0.2h-0.9c-0.1,0-0.2,0.1-0.2,0.2v8.4c0,0.6-0.7,1.3-1.8,0.8
			l-2-1.2c-0.1,0-0.1-0.1-0.1-0.2V1.2c0-0.1,0.1-0.2,0.1-0.2l7.4-4.2c0.1,0,0.2,0,0.2,0L54.3,1c0.1,0,0.1,0.1,0.1,0.2v8.5
			c0,0.1,0,0.2-0.1,0.2l-7.4,4.2c-0.1,0-0.2,0-0.2,0l-1.9-1.1c-0.1,0-0.1,0-0.2,0c-0.5,0.3-0.6,0.3-1.1,0.5c-0.1,0-0.3,0.1,0.1,0.3
			l2.5,1.5c0.2,0.1,0.5,0.2,0.8,0.2s0.5-0.1,0.8-0.2l7.4-4.2c0.5-0.3,0.8-0.8,0.8-1.3V1.2c0-0.6-0.3-1.1-0.8-1.4l-7.4-4.3
			C47.3-4.5,47.1-4.6,46.8-4.6L46.8-4.6z M48.7,1.5c-2.1,0-3.4,0.9-3.4,2.4c0,1.6,1.2,2.1,3.3,2.3c2.4,0.2,2.6,0.6,2.6,1.1
			c0,0.8-0.7,1.2-2.2,1.2c-2,0-2.4-0.5-2.5-1.5c0-0.1-0.1-0.2-0.2-0.2h-1c-0.1,0-0.2,0.1-0.2,0.2c0,1.2,0.7,2.7,3.9,2.7
			c2.3,0,3.7-0.9,3.7-2.5c0-1.6-1.1-2-3.4-2.3c-2.3-0.3-2.5-0.5-2.5-1c0-0.4,0.2-1,1.9-1c1.5,0,2.1,0.3,2.3,1.4
			c0,0.1,0.1,0.2,0.2,0.2h1c0.1,0,0.1,0,0.2-0.1s0.1-0.1,0.1-0.2C52.3,2.3,51.1,1.5,48.7,1.5L48.7,1.5z"/>
		<path class="st1" d="M3.3-15.7c-0.1,0-0.2,0-0.2,0.1c-0.1,0.1-0.2,0.2-0.2,0.4v12C2.9-3.1,2.8-3,2.7-3S2.5-2.9,2.4-3l-2-1.1
			c-0.3-0.2-0.6-0.2-0.9,0l-7.8,4.5c-0.3,0.2-0.5,0.5-0.5,0.8v9c0,0.3,0.2,0.6,0.5,0.8l7.8,4.5c0.3,0.2,0.6,0.2,0.9,0l7.8-4.5
			c0.3-0.2,0.5-0.5,0.5-0.8v-22.5c0-0.3-0.2-0.7-0.5-0.8l-4.7-2.6C3.5-15.7,3.4-15.7,3.3-15.7z M-47-4.5c-0.2,0-0.3,0-0.4,0.1
			l-7.8,4.5c-0.3,0.2-0.5,0.5-0.5,0.8l0,12.1c0,0.2,0.1,0.3,0.2,0.4c0.1,0.1,0.3,0.1,0.5,0l4.6-2.7c0.3-0.2,0.5-0.5,0.5-0.8V4.4
			c0-0.3,0.2-0.6,0.5-0.8l2-1.1c0.1-0.1,0.3-0.1,0.5-0.1c0.2,0,0.3,0,0.5,0.1l2,1.1C-44.2,3.7-44,4-44,4.4V10c0,0.3,0.2,0.6,0.5,0.8
			l4.6,2.7c0.1,0.1,0.3,0.1,0.5,0c0.1-0.1,0.2-0.2,0.2-0.4l0-12.1c0-0.3-0.2-0.6-0.5-0.8l-7.8-4.5C-46.6-4.4-46.7-4.4-47-4.5
			L-47-4.5L-47-4.5z M23.3-4.4c-0.2,0-0.3,0-0.5,0.1L15,0.3c-0.3,0.2-0.5,0.5-0.5,0.8v9c0,0.3,0.2,0.7,0.5,0.8l7.8,4.4
			c0.3,0.2,0.6,0.2,0.9,0l4.7-2.6c0.2-0.1,0.2-0.2,0.2-0.4S28.6,12,28.5,12l-7.9-4.5c-0.1-0.1-0.2-0.3-0.2-0.4V4.2
			c0-0.2,0.1-0.3,0.2-0.4L23,2.4c0.1-0.1,0.3-0.1,0.5,0l2.4,1.4c0.1,0.1,0.2,0.2,0.2,0.4v2.2c0,0.2,0.1,0.3,0.2,0.4
			c0.1,0.1,0.3,0.1,0.5,0l4.7-2.7C31.9,3.9,32,3.6,32,3.3V1.1c0-0.3-0.2-0.6-0.5-0.8l-7.8-4.5C23.7-4.3,23.5-4.4,23.3-4.4L23.3-4.4z
			 M-0.1,2.4c0,0,0.1,0,0.1,0L2.7,4c0.1,0,0.1,0.1,0.1,0.2v3.1c0,0.1-0.1,0.2-0.1,0.2L0.1,9c-0.1,0-0.2,0-0.2,0l-2.7-1.6
			C-2.9,7.4-3,7.4-3,7.3V4.2C-3,4.1-2.9,4-2.9,4l2.7-1.6C-0.1,2.4-0.1,2.4-0.1,2.4L-0.1,2.4z"/>
		<path class="st0" d="M-23.5-4.4c-0.2,0-0.3,0-0.5,0.1l-7.8,4.5c-0.3,0.2-0.5,0.5-0.5,0.8v9c0,0.3,0.2,0.6,0.5,0.8l7.8,4.5
			c0.3,0.2,0.6,0.2,0.9,0l7.8-4.5c0.3-0.2,0.5-0.5,0.5-0.8v-9c0-0.3-0.2-0.7-0.5-0.8L-23-4.3C-23.2-4.3-23.3-4.4-23.5-4.4L-23.5-4.4
			z M23.3,3.7C23.3,3.7,23.2,3.7,23.3,3.7l-1.6,0.9c-0.1,0-0.1,0.1-0.1,0.2v1.7c0,0.1,0,0.1,0.1,0.2l1.5,0.9c0.1,0,0.1,0,0.2,0
			l1.5-0.9c0.1,0,0.1-0.1,0.1-0.2V4.7c0-0.1,0-0.1-0.1-0.2L23.3,3.7C23.4,3.7,23.3,3.7,23.3,3.7z"/>
	</g>
</symbol>
<g>
	<path class="st2" d="M451.1,0v34.3h28.5V40h22.8v-5.7h51.3V0H451.1z"/>
	<path class="st3" d="M468.1,5.8h-11.3v22.8h11.3v-17h5.7v17h5.7V5.8H468.1z M485.3,5.8v28.5h11.5v-5.7h11.3V5.8H485.3z M502.4,22.8
		h-5.5V11.5h5.5V22.8z M525.1,5.8h-11.3v22.8h11.3v-17h5.7v17h5.7v-17h5.7v17h5.7V5.8H525.1z"/>
</g>
<g>
	<path class="st4" d="M622.1,40h-24.6c-2.1,0-3.8-1.7-3.8-3.8V3.8c0-2.1,1.7-3.8,3.8-3.8h24.6c2.1,0,3.8,1.7,3.8,3.8v32.4
		C625.9,38.3,624.2,40,622.1,40L622.1,40z"/>
	<path class="st3" d="M614.2,34.4l-0.3-15.9c0,0,1-3.8-12.7,1.8c0,0.1-0.3-14.7-0.3-14.7l4.5-0.1l0.2,9.4c0,0,12.5-5.2,12.7,3.5
		l0.3,15.8L614.2,34.4L614.2,34.4z M616.3,11l-4.8,0.1c1.7-2.1,3.2-5.8,3.2-5.8l4.9-0.1C619.6,5.3,618.8,7.6,616.3,11L616.3,11z
		 M601.5,34.7l-0.2-9l4.6,4.4L601.5,34.7L601.5,34.7z"/>
</g>
<path class="st5" d="M180.4,31.2V15.8h19.2v-0.9h-19.2v-14h20.4V0h-21.3v32.1H201v-0.9H180.4L180.4,31.2z M218.3,9l-7.9,10.5
	L202.6,9h-1.2l8.4,11.2l-9.2,12h1.1l8.7-11.3l8.7,11.3h1.1l-9.3-12L219.4,9L218.3,9L218.3,9z M222.9,40V25.6h0.1
	c0.5,2.1,1.6,3.8,3.2,5.1c1.6,1.3,3.6,1.9,6.1,1.9c1.6,0,3-0.3,4.2-1c1.2-0.6,2.2-1.5,3.1-2.6c0.8-1.1,1.4-2.4,1.9-3.9
	c0.4-1.5,0.6-3,0.6-4.6c0-1.7-0.2-3.3-0.7-4.8s-1.1-2.7-1.9-3.8c-0.9-1.1-1.9-1.9-3.1-2.5s-2.6-0.9-4.1-0.9c-1.2,0-2.2,0.2-3.3,0.5
	c-1,0.3-1.9,0.8-2.7,1.5s-1.5,1.4-2,2.2c-0.6,0.9-1,1.8-1.3,2.8h-0.1V9H222v31H222.9L222.9,40z M232.3,31.7c-2.8,0-5.1-1-6.8-2.9
	s-2.6-4.7-2.6-8.3c0-1.5,0.2-2.9,0.6-4.3s1-2.5,1.8-3.6c0.8-1,1.8-1.8,2.9-2.4c1.2-0.6,2.5-0.9,4-0.9c1.5,0,2.8,0.3,3.9,0.9
	c1.1,0.6,2.1,1.4,2.8,2.4s1.3,2.2,1.7,3.5c0.4,1.3,0.6,2.8,0.6,4.2c0,1.4-0.2,2.7-0.5,4c-0.3,1.3-0.9,2.5-1.6,3.6
	c-0.7,1.1-1.6,1.9-2.8,2.6C235.2,31.4,233.8,31.7,232.3,31.7L232.3,31.7z M247,32.1V19c0-1.3,0.2-2.5,0.5-3.7s0.9-2.2,1.7-3.2
	c0.8-0.9,1.7-1.6,2.9-2.2c1.1-0.5,2.5-0.7,4.1-0.6V8.4c-1.4,0-2.6,0.1-3.6,0.4c-1,0.3-1.9,0.8-2.7,1.4c-0.8,0.6-1.4,1.2-1.8,2
	s-0.8,1.6-1,2.4H247V9h-0.9v23.1H247L247,32.1z M257.3,20.7h19.3c0.1-1.6-0.1-3.1-0.5-4.6c-0.4-1.5-1-2.8-1.8-3.9
	c-0.8-1.1-1.9-2.1-3.2-2.7c-1.3-0.7-2.9-1-4.6-1c-1.3,0-2.6,0.3-3.8,0.8c-1.2,0.5-2.3,1.3-3.2,2.4c-0.9,1-1.7,2.3-2.2,3.8
	s-0.9,3.2-0.9,5.1c0,1.7,0.2,3.3,0.6,4.8c0.4,1.5,1,2.8,1.8,3.9c0.8,1.1,1.9,1.9,3.1,2.5c1.3,0.6,2.8,0.9,4.6,0.8
	c2.6,0,4.9-0.7,6.6-2.2s2.9-3.6,3.2-6.3h-0.9c-0.4,2.5-1.4,4.5-3,5.7c-1.6,1.3-3.6,1.9-6,1.9c-1.6,0-3-0.3-4.2-0.9
	c-1.1-0.6-2.1-1.4-2.8-2.3s-1.2-2.1-1.6-3.5C257.6,23.7,257.4,22.3,257.3,20.7L257.3,20.7z M275.8,19.8h-18.4
	c0.1-1.6,0.4-3.1,0.9-4.4c0.5-1.3,1.2-2.4,2-3.3s1.8-1.6,2.9-2.1c1.1-0.5,2.3-0.7,3.5-0.7c1.5,0,2.8,0.3,4,0.8
	c1.1,0.6,2.1,1.3,2.9,2.3s1.3,2.1,1.7,3.4C275.6,17.1,275.8,18.4,275.8,19.8L275.8,19.8z M295.3,15.8h0.9c0-2.6-0.8-4.4-2.2-5.6
	s-3.5-1.8-6.1-1.8c-1.4,0-2.6,0.2-3.6,0.5c-1,0.4-1.8,0.8-2.4,1.4c-0.6,0.6-1.1,1.2-1.4,1.9c-0.3,0.7-0.4,1.4-0.4,2
	c0,1.3,0.2,2.3,0.7,3c0.5,0.8,1.1,1.3,2.1,1.8c0.7,0.3,1.4,0.6,2.2,0.8s1.8,0.5,2.9,0.8c1,0.2,2,0.5,2.9,0.7s1.8,0.6,2.5,1
	c0.7,0.4,1.3,0.9,1.8,1.5c0.5,0.6,0.7,1.5,0.7,2.5c0,1-0.2,1.8-0.7,2.5c-0.5,0.7-1.1,1.3-1.8,1.7c-0.7,0.4-1.5,0.8-2.4,0.9
	c-0.9,0.2-1.8,0.3-2.6,0.3c-2.7,0-4.8-0.6-6.3-1.8c-1.5-1.2-2.2-3.1-2.2-5.7h-0.9c0,2.9,0.8,5,2.4,6.4s3.9,2,7,2c1,0,2-0.1,3-0.3
	c1-0.2,1.9-0.6,2.7-1.1c0.8-0.5,1.4-1.2,1.9-2c0.5-0.8,0.7-1.8,0.7-3c0-1.1-0.2-2-0.6-2.7s-1-1.3-1.7-1.7c-0.7-0.5-1.5-0.8-2.4-1.1
	c-0.9-0.3-1.8-0.5-2.7-0.7c-1.1-0.3-2.2-0.6-3.3-0.9c-0.9-0.2-1.8-0.5-2.6-0.9c-0.8-0.3-1.4-0.8-1.9-1.4c-0.5-0.6-0.7-1.5-0.7-2.6
	c0-0.2,0.1-0.6,0.2-1.1s0.4-1.1,0.9-1.6s1.1-1.1,2.1-1.5s2.2-0.6,3.8-0.6c1.1,0,2.1,0.1,3,0.4s1.7,0.6,2.4,1.1
	c0.7,0.5,1.2,1.2,1.5,2C295.1,13.7,295.3,14.6,295.3,15.8L295.3,15.8z M316.1,15.8h0.9c0-2.6-0.8-4.4-2.2-5.6s-3.5-1.8-6.1-1.8
	c-1.4,0-2.6,0.2-3.6,0.5c-1,0.4-1.8,0.8-2.4,1.4c-0.6,0.6-1.1,1.2-1.4,1.9c-0.3,0.7-0.4,1.4-0.4,2c0,1.3,0.2,2.3,0.7,3
	c0.5,0.8,1.1,1.3,2.1,1.8c0.7,0.3,1.4,0.6,2.2,0.8s1.8,0.5,2.9,0.8c1,0.2,2,0.5,2.9,0.7s1.8,0.6,2.5,1c0.7,0.4,1.3,0.9,1.8,1.5
	c0.5,0.6,0.7,1.5,0.7,2.5c0,1-0.2,1.8-0.7,2.5c-0.5,0.7-1.1,1.3-1.8,1.7c-0.7,0.4-1.5,0.8-2.4,0.9s-1.8,0.3-2.6,0.3
	c-2.7,0-4.8-0.6-6.3-1.8c-1.4-1.2-2.2-3.1-2.2-5.7H300c0,2.9,0.8,5,2.4,6.4s3.9,2,7,2c1,0,2-0.1,3-0.3c1-0.2,1.9-0.6,2.7-1.1
	c0.8-0.5,1.5-1.2,1.9-2c0.5-0.8,0.7-1.8,0.7-3c0-1.1-0.2-2-0.6-2.7s-1-1.3-1.7-1.7c-0.7-0.5-1.5-0.8-2.4-1.1
	c-0.9-0.3-1.8-0.5-2.7-0.7c-1.1-0.3-2.2-0.6-3.3-0.9c-0.9-0.2-1.8-0.5-2.6-0.9c-0.8-0.3-1.4-0.8-1.9-1.4c-0.5-0.6-0.7-1.5-0.7-2.6
	c0-0.2,0.1-0.6,0.2-1.1s0.4-1.1,0.9-1.6c0.4-0.6,1.1-1.1,2.1-1.5c0.9-0.4,2.2-0.6,3.8-0.6c1.1,0,2.1,0.1,3,0.4s1.7,0.6,2.4,1.1
	c0.7,0.5,1.2,1.2,1.5,2C315.9,13.7,316.1,14.6,316.1,15.8L316.1,15.8z"/>
<g>
	<path class="st6" d="M403.1,23c-1.9,0-3.5,0.5-4.8,1.1c-0.5-1-1-1.9-1.1-2.5c-0.1-0.8-0.2-1.2-0.1-2.1c0.1-0.9,0.6-2.2,0.6-2.3
		c0-0.1-0.1-0.5-1.2-0.6c-1.1,0-2,0.2-2.1,0.5s-0.3,0.9-0.5,1.6c-0.2,1-2.1,4.5-3.3,6.3c-0.4-0.7-0.7-1.3-0.7-1.8
		c-0.1-0.8-0.2-1.2-0.1-2.1c0.1-0.9,0.6-2.2,0.6-2.3c0-0.1-0.1-0.5-1.2-0.6c-1.1,0-2,0.2-2.1,0.5c-0.1,0.3-0.2,1-0.5,1.6
		c-0.2,0.6-2.8,6.4-3.5,7.9c-0.3,0.8-0.6,1.4-0.9,1.8c-0.2,0.4,0,0,0,0.1c-0.2,0.4-0.3,0.5-0.3,0.5v0c-0.1,0.3-0.3,0.5-0.4,0.5
		c0,0-0.2-0.7,0-1.7c0.4-2,1.3-5.1,1.3-5.3c0,0,0.2-0.6-0.6-0.9c-0.8-0.3-1,0.2-1.1,0.2s-0.1,0.2-0.1,0.2s0.8-3.5-1.6-3.5
		c-1.5,0-3.7,1.7-4.7,3.2c-0.7,0.4-2.1,1.1-3.6,2c-0.6,0.3-1.2,0.6-1.7,1l-0.1-0.1c-3-3.2-8.5-5.4-8.3-9.7
		c0.1-1.6,0.6-5.6,10.6-10.6c8.2-4.1,14.7-2.9,15.8-0.5c1.6,3.5-3.5,10.1-12,11.1c-3.2,0.4-4.9-0.9-5.4-1.4
		c-0.5-0.5-0.5-0.5-0.7-0.4c-0.3,0.1-0.1,0.6,0,0.8c0.2,0.7,1.3,1.8,3.1,2.4c1.5,0.5,5.4,0.8,9.9-1c5.1-2,9.1-7.5,8-12.1
		c-1.2-4.7-9-6.2-16.4-3.6c-4.4,1.6-9.1,4-12.6,7.2c-4.1,3.8-4.7,7.1-4.4,8.5c1,4.9,7.7,8.1,10.4,10.5c-0.1,0.1-0.3,0.1-0.4,0.2
		c-1.4,0.7-6.5,3.4-7.8,6.2c-1.5,3.2,0.2,5.6,1.4,5.9c3.5,1,7-0.8,9-3.6s1.7-6.6,0.8-8.3l0-0.1l1.1-0.6c0.7-0.4,1.4-0.8,2-1.1
		c-0.3,0.9-0.6,2-0.7,3.5c-0.1,1.8,0.6,4.2,1.6,5.2c0.4,0.4,1,0.4,1.3,0.4c1.1,0,1.7-1,2.2-2.1c0.7-1.4,1.3-3,1.3-3
		s-0.8,4.4,1.4,4.4c0.8,0,1.6-1,1.9-1.5v0c0,0,0,0,0.1-0.1c0-0.1,0.1-0.1,0.1-0.2v0c0.3-0.5,1-1.8,2-3.8c1.3-2.6,2.6-6,2.6-6
		s0.1,0.8,0.5,2.1c0.2,0.8,0.7,1.7,1.1,2.5c-0.3,0.4-0.5,0.7-0.5,0.7l0,0c-0.2,0.3-0.5,0.7-0.8,1c-1.1,1.3-2.3,2.7-2.5,3.1
		c-0.2,0.5-0.2,0.8,0.2,1.2c0.3,0.2,0.8,0.2,1.3,0.2c1-0.1,1.6-0.3,2-0.5c0.5-0.2,1.1-0.5,1.7-0.9c1-0.8,1.7-1.9,1.6-3.3
		c0-0.8-0.3-1.6-0.6-2.4c0.1-0.1,0.2-0.3,0.3-0.4c1.6-2.4,2.9-5.1,2.9-5.1s0.1,0.8,0.5,2.1c0.2,0.7,0.6,1.4,1,2.1
		c-1.5,1.3-2.5,2.7-2.9,3.7c-0.6,1.8-0.1,2.6,0.8,2.8c0.4,0.1,1-0.1,1.4-0.3c0.5-0.2,1.2-0.5,1.8-0.9c1-0.8,2-1.8,2-3.3
		c0-0.7-0.2-1.3-0.5-2c1.3-0.5,3-0.9,5.2-0.6c4.6,0.5,5.6,3.4,5.4,4.6c-0.2,1.2-1.1,1.9-1.5,2.1s-0.4,0.3-0.4,0.4
		c0,0.2,0.2,0.2,0.5,0.2c0.4-0.1,2.4-1,2.5-3.2C410.7,26.1,407.9,23,403.1,23L403.1,23z M367.3,35c-1.5,1.7-3.7,2.3-4.6,1.8
		c-1-0.6-0.6-3,1.3-4.8c1.1-1.1,2.6-2.1,3.6-2.7c0.2-0.1,0.5-0.3,1-0.6c0.1,0,0.1-0.1,0.1-0.1c0.1,0,0.2-0.1,0.2-0.1
		C369.6,31.1,368.9,33.3,367.3,35L367.3,35z M378.5,27.4c-0.5,1.3-1.7,4.7-2.3,4.5c-0.6-0.2-0.9-2.7-0.1-5.2
		c0.4-1.3,1.3-2.8,1.8-3.4c0.8-0.9,1.8-1.2,2-0.9C380.2,23,378.9,26.6,378.5,27.4z M387.8,31.8c-0.2,0.1-0.4,0.2-0.5,0.1
		c-0.1,0,0.1-0.2,0.1-0.2s1.2-1.2,1.6-1.8c0.3-0.3,0.6-0.7,0.9-1.2v0.1C389.9,30.4,388.4,31.4,387.8,31.8L387.8,31.8z M394.9,30.2
		c-0.2-0.1-0.1-0.5,0.4-1.7c0.2-0.5,0.7-1.3,1.6-2c0.1,0.3,0.2,0.6,0.2,0.9C397.1,29.2,395.7,29.9,394.9,30.2z"/>
</g>
<use xlink:href="#A_3"  width="111.4" height="31.5" x="-55.7" y="-15.7" transform="matrix(1.2614 0 0 1.2614 70.2677 20)" style="overflow:visible;"/>
</svg>
