<?xml version="1.0" encoding="utf-8"?>
<!-- Generator: Adobe Illustrator 24.3.0, SVG Export Plug-In . SVG Version: 6.00 Build 0)  -->
<svg version="1.1" id="Layer_1" xmlns="http://www.w3.org/2000/svg" xmlns:xlink="http://www.w3.org/1999/xlink" x="0px" y="0px"
	 viewBox="0 0 800.8 40.2" style="enable-background:new 0 0 800.8 40.2;" xml:space="preserve">
<style type="text/css">
	.st0{fill:#4D4D4D;}
	.st1{fill:#EFCCA3;}
	.st2{fill:#CCAC8D;}
	.st3{fill:#FFFFFF;}
	.st4{fill:#56332B;}
	.st5{fill:#442823;}
	.st6{fill:#7F4A41;stroke:#4D4D4D;stroke-width:1.598;stroke-linecap:round;stroke-linejoin:round;}
	.st7{fill:#331712;}
	.st8{fill:#83CD29;}
	.st9{fill:#404137;}
	.st10{fill:#CB3837;}
	.st11{fill:#6762A6;}
	.st12{fill:#222222;}
	.st13{fill:#CF649A;}
	.st14{clip-path:url(#SVGID_4_);}
</style>
<symbol  id="A" viewBox="-51.4 -15.2 102.8 30.4">
	<g>
		<path class="st0" d="M4.3-9.3H10v0.2c0.4-0.2,0.8-0.3,1.2-0.4s0.9-0.2,1.3-0.2c1,0,1.9,0.2,2.7,0.5c0.8,0.3,1.6,0.9,2.2,1.5
			s1.1,1.4,1.4,2.2s0.5,1.7,0.5,2.7c0,0.9-0.2,1.8-0.5,2.7C18.5,0.6,18,1.4,17.4,2s-1.3,1.1-2.2,1.5S13.5,4,12.5,4
			c-0.5,0-1,0-1.6-0.2c-0.4,0-0.9-0.2-1.3-0.4v2.9h2.5v3.5H3.5V6.3h2.2V-5.9H4.3V-9.3L4.3-9.3z M12.3-6.2c-0.5,0-1,0.1-1.5,0.4
			S9.9-5.1,9.6-4.6v3.7c0.3,0.4,0.7,0.8,1.1,1.1c0.5,0.3,1,0.4,1.6,0.4c0.4,0,0.8-0.1,1.2-0.3s0.7-0.4,1-0.7s0.5-0.7,0.7-1.1
			s0.3-0.9,0.3-1.3c0-0.5-0.1-1-0.3-1.4C15-4.7,14.8-5,14.5-5.3s-0.6-0.5-1-0.7S12.7-6.2,12.3-6.2L12.3-6.2z M28.7-9.3h6.2v9.7h1.6
			v3.5h-5.6V2.7c-0.5,0.4-1,0.7-1.6,0.9c-0.6,0.2-1.3,0.3-2.1,0.3c-0.7,0-1.4-0.1-2.1-0.3c-0.6-0.2-1.2-0.6-1.7-1
			c-0.5-0.5-0.9-1-1.1-1.7C22.1,0.1,22-0.7,22-1.6v-4.3h-1.7v-3.5h5.8v7.7c0,0.9,0.2,1.5,0.7,2c0.5,0.4,1,0.7,1.8,0.7
			c0.5,0,1-0.2,1.4-0.5s0.7-0.7,0.9-1.3v-5.1h-2.1L28.7-9.3L28.7-9.3z M47.5,3.1c-0.4,0.3-0.9,0.5-1.4,0.6s-1,0.2-1.4,0.2
			c-1,0-1.9-0.2-2.8-0.5S40.3,2.6,39.7,2s-1.1-1.4-1.5-2.2c-0.4-0.9-0.5-1.8-0.5-2.7s0.2-1.8,0.5-2.6S39-7,39.6-7.6s1.3-1.1,2.2-1.5
			c0.8-0.4,1.8-0.5,2.7-0.5c0.6,0,1.1,0.1,1.7,0.2c0.5,0.1,1,0.3,1.4,0.5v-0.3h3.8V3.3c0,1.1-0.2,2.1-0.6,2.9
			c-0.4,0.8-0.9,1.5-1.5,2c-0.7,0.5-1.4,0.9-2.2,1.2s-1.7,0.4-2.7,0.4c-1.2,0-2.2-0.2-3.2-0.5C40.3,9,39.4,8.6,38.6,8l1.6-2.8
			C40.7,5.5,41.4,5.8,42,6c0.7,0.2,1.4,0.3,2.3,0.3c0.5,0,0.9-0.1,1.3-0.1c0.4-0.1,0.7-0.3,1-0.5s0.5-0.6,0.7-1
			C47.4,4.3,47.5,3.8,47.5,3.1L47.5,3.1L47.5,3.1z M44.7,0.4c0.6,0,1.1-0.1,1.6-0.5c0.5-0.3,0.9-0.7,1.1-1.2v-3.2
			c-0.3-0.5-0.7-0.9-1.2-1.3c-0.5-0.3-1-0.5-1.6-0.5c-0.4,0-0.8,0.1-1.2,0.3c-0.4,0.2-0.7,0.4-1,0.7c-0.3,0.3-0.5,0.6-0.7,1
			S41.5-3.5,41.5-3s0.1,1,0.3,1.4s0.4,0.7,0.7,1.1c0.3,0.3,0.6,0.5,1,0.7C43.9,0.3,44.3,0.3,44.7,0.4L44.7,0.4z"/>
		<path class="st1" d="M-10.1-5.7c-0.1-1.7,0.2-3.2-0.6-4.5c-1.8-3.2-6.5-5-15.7-5v0.3h-0.2h0.2v-0.3c-9.2,0-14.1,1.8-15.9,5
			C-43-8.9-43-7.4-43.1-5.7c-0.1,1.3-0.7,2.8-0.4,4.3c0.3,2,0.4,4,0.7,5.8c0.2,1.5,2.3,2.8,2.5,4.2c0.5,3.9,4.6,5.7,13.8,5.7v0.3
			h-0.2h0.2v-0.3c9.2,0,13.1-1.8,13.6-5.7c0.2-1.5,2.1-2.7,2.3-4.2c0.3-1.8,0.4-3.8,0.7-5.8C-9.4-2.9-10-4.3-10.1-5.7L-10.1-5.7z"/>
		<g>
			<path class="st2" d="M-26.6-4.3c1.7,0,2.8,1.1,3.9,2c1.3,1.1,3.4,1.9,4.3,2.8s2,1.9,2.5,3.4c0.5,1.5,0.5,3.4,0.5,3.9s0.3,0.4,1,0
				c1.8-0.9,3.8-3.3,3.8-3.3C-10.8,6-12.8,7.3-13,8.8c-0.5,3.9-4.3,5.8-13.7,5.8l0,0h0.2"/>
			<path class="st2" d="M-20.5-7.3c0.3,1.2,1.6,5.2-0.8,3.9c0,0,1,0.6,1.6,2.8c0.7,2.2,2.2,2.5,2.2,2.5s2.6,0.5,4.5-1.2
				c1.6-1.4,1.9-3.8,1.2-5.7c-0.7-1.8-1.9-2.4-3.7-2.8C-17.3-8.3-20.9-8.6-20.5-7.3L-20.5-7.3z"/>
		</g>
		<g>
			<path id="C_3_" d="M-19.3-2.9c0-1.9,1.5-3.4,3.4-3.4s3.4,1.5,3.4,3.4s-1.5,3.4-3.4,3.4S-19.3-1.1-19.3-2.9z"/>
		</g>
		<path class="st3" d="M-17.7-4.4c0-0.5,0.4-0.9,0.9-0.9s0.9,0.4,0.9,0.9s-0.4,0.9-0.9,0.9S-17.7-3.9-17.7-4.4z"/>
		<path class="st1" d="M-21.1-3.1c0,0,3,2.1,4.7,4.1s1.6,2.4,1.6,2.4L-16,4c0,0-1.7-3.2-3.8-4.4s-2.3-2.2-2.3-2.2L-21.1-3.1z"/>
		<path class="st2" d="M-26.5-4.3c-1.7,0-2.9,1.1-4,2c-1.3,1.1-3.5,1.9-4.4,2.8c-0.9,1-2.1,1.9-2.5,3.4S-38,7.3-38,7.8s0.1,0.5-1,0
			c-1.8-0.9-3.8-3.3-3.8-3.3c0.2,1.5,2.2,2.8,2.4,4.3c0.5,3.9,4.3,5.8,13.8,5.8h0.2"/>
		<path class="st4" d="M-17.5,2.2c-1.8-2.3-4.8-4.4-8.9-4.4l0,0c-4.1,0-7.1,2.1-8.9,4.4c-1.9,2.3-1.8,3.3-1.8,5.5
			c0,8.1,2.8,5.8,4.7,6.8c1.9,1,3.9,0.7,6,0.7l0,0c2.1,0,4,0.3,6-0.7c1.9-1,4.7,1.4,4.7-6.6C-15.7,5.5-15.6,4.5-17.5,2.2L-17.5,2.2z
			"/>
		<g>
			<path class="st5" d="M-26.6-0.2c0,0-0.3,3.7-0.8,4.5l1-0.2L-26.6-0.2z"/>
			<path class="st5" d="M-26.4-0.2c0,0,0.3,3.7,0.8,4.5l-1-0.2L-26.4-0.2z"/>
		</g>
		<path class="st4" d="M-29.6-1.1c-0.4-0.9,1-2.3,3.2-2.3s3.6,1.4,3.2,2.3s-1.8,1.2-3.2,1.2C-27.8,0.1-29.2-0.2-29.6-1.1z"/>
		<path d="M-26.4-0.2c0-0.2,1.3-0.2,2-0.7c0,0-1.4,0.5-1.7,0.3c-0.3-0.2-0.4-0.6-0.4-0.6s-0.1,0.5-0.3,0.6c-0.3,0.2-1.9-0.3-1.9-0.3
			L-26.4-0.2c-0.1,0.1-0.1,0.5-0.1,0.8l0.2,3.5c0.2,0.3,0.2-2.6,0.2-3.5C-26.3,0.6-26.4-0.2-26.4-0.2z"/>
	</g>
	<path class="st6" d="M-26.3,5c0.7,0,1.8,0.5,2.8,1.2c-1-1.1-2.2-1.9-2.8-1.9c-0.7,0-2.2,0.8-3.2,2.1C-28.5,5.5-27.1,5-26.3,5
		L-26.3,5z"/>
	<g>
		<g>
			<path class="st5" d="M-26.6,11.8c-1.5,0-2.9-0.5-4.2-0.8c-0.3-0.1-0.5,0.1-0.8,0c-2.4-0.8-4.4-2.1-5.6-3.7v0.4
				c0,8.1,2.8,5.8,4.7,6.8c1.9,1,3.9,0.7,6,0.7l0,0c2.1,0,4,0.3,6-0.7c1.9-1,4.7,1.4,4.7-6.7V6.9c-1.1,1.8-3.2,3.2-5.7,4.1
				c-0.2,0.1-0.8-0.1-1-0.1C-23.8,11.3-25,11.8-26.6,11.8L-26.6,11.8z"/>
			<path class="st5" d="M-30.3,7.4c0,0-1,2.9-0.3,4.1l-0.9-0.4C-31.4,11.2-30.8,8.3-30.3,7.4L-30.3,7.4z M-22.6,7.4
				c0,0,1,2.9,0.3,4.1l0.9-0.4C-21.5,11.2-22.2,8.3-22.6,7.4L-22.6,7.4z"/>
		</g>
		<path class="st2" d="M-32.7-7.3c-0.3,1.2-1.6,5.2,0.8,3.9c0,0-1,0.6-1.6,2.8s-2.2,2.5-2.2,2.5s-2.6,0.5-4.5-1.2
			c-1.6-1.4-1.9-3.8-1.2-5.7s1.9-2.4,3.7-2.8C-35.9-8.3-32.3-8.6-32.7-7.3L-32.7-7.3z"/>
		<path d="M-26.5,4.3c1,0,4.3,2.2,4.3,5V9.1c0-2.8-2.6-5.1-4.3-5.1s-4.3,2.3-4.3,5.1v0.2C-30.7,6.5-27.5,4.3-26.5,4.3L-26.5,4.3z"/>
		<path class="st7" d="M-26.1-1.5c-0.1-0.3,0-0.6,0.2-0.6s0.4,0.2,0.4,0.5s0,0.6-0.2,0.6S-26-1.2-26.1-1.5L-26.1-1.5z M-27.7-1.7
			c0.1-0.3,0.3-0.5,0.5-0.5s0.2,0.3,0.1,0.6s-0.3,0.5-0.5,0.5S-27.8-1.4-27.7-1.7z"/>
		<g>
			<path id="C_2_" d="M-40.5-2.9c0-1.9,1.5-3.4,3.4-3.4s3.4,1.5,3.4,3.4s-1.5,3.4-3.4,3.4S-40.5-1.1-40.5-2.9z"/>
		</g>
		<path class="st3" d="M-37.1-4.4c0-0.5,0.4-0.9,0.9-0.9s0.9,0.4,0.9,0.9l0,0c0,0.5-0.4,0.9-0.9,0.9C-36.7-3.5-37.1-3.9-37.1-4.4
			L-37.1-4.4L-37.1-4.4z"/>
	</g>
	<path class="st6" d="M-25.5-2.9c0,0-0.9,0.4-1.1,0.4s-1.1-0.5-1.1-0.4H-25.5L-25.5-2.9z"/>
	<g>
		<path class="st1" d="M-32.2-3.1c0,0-3,2.1-4.7,4.1s-1.6,2.4-1.6,2.4l1.2,0.5c0,0,1.7-3.2,3.8-4.4s2.3-2.2,2.3-2.2L-32.2-3.1z"/>
		<g>
			<path class="st2" d="M-38.8-9.2c0,0-1,2.8-3.3,4C-42.2-5.2-38.6-5.6-38.8-9.2L-38.8-9.2z M-14.6-9.2c0,0,1,2.8,3.3,4
				C-11.2-5.2-14.8-5.6-14.6-9.2L-14.6-9.2z M-21.1-3.9c0,0-2.3-2.4-5.3-2.5c0,0,0.1,0,0,0s0,0,0,0c-3.1,0.1-5.3,2.5-5.3,2.5
				c2.6-1.8,4.9-1.8,5.3-1.8C-26.4-5.7-23.8-5.8-21.1-3.9L-21.1-3.9z M-23.8-8.9c0,0-1.2-1.6-2.7-1.7h0.1c-1.2,0-2.6,1.7-2.6,1.7
				c1.3-1.3,2.6-1.2,2.6-1.2S-25.2-10.2-23.8-8.9L-23.8-8.9z M-37.1,2.9c0,0-1.8,0.9-3.1,0.3l0,0C-41.4,2.6-42,0.6-42,0.6
				S-40.8,4.1-37.1,2.9z M-16,2.9c0,0,1.8,0.9,3.1,0.3c1.5-0.7,1.8-2.6,1.8-2.6S-12.3,4.1-16,2.9L-16,2.9z M-35-9.4
				c1-0.2,2.7-0.2,4,0.2c1.7,0.6,0.3,2.7,0.7,2.8s0.8-1.5,3.9-1.3s3.5,1.5,3.9,1.3s-0.4-3.8,4.2-3c0,0-4.9-1.3-4.6,2.2
				c0,0-2.8-2.2-6.7-0.2C-29.8-7.4-28.8-10.7-35-9.4L-35-9.4z M-18-9.4c0.1,0,0.1,0,0.2,0S-17.9-9.4-18-9.4z"/>
			<path class="st2" d="M-36.4-14.1c0,0-4.2,5.2-4.8,7.2s-1.1,10.4-1.6,11.6l-1.9-8.2l3.5-8.6L-36.4-14.1z M-16.8-14.1
				c0,0,4.2,5.2,4.8,7.2s1.1,10.4,1.6,11.6l1.9-8.2l-3.5-8.6L-16.8-14.1z"/>
		</g>
		<path class="st4" d="M-17-14.1c0,0,4.5,3.7,5.8,8s0.8,9.5,1.8,10.2C-8,5-6.4-0.5-5.8-1c0.7-1,3.5-3.3,3.7-3.8s-5.7-6.8-8.3-8.1
			C-13.5-14.3-17.3-14.5-17-14.1z"/>
		<path class="st5" d="M-13.2-11.8c0,0,5.3,6.7,5.2,15.1L-5.9-1C-6-1-7.8-6.5-13.2-11.8z"/>
		<path class="st4" d="M-36.4-14.1c0,0-4.5,3.7-5.8,8S-43,3.4-44,4.1C-45.4,5-47-0.5-47.6-1c-0.8-0.9-3.6-3.3-3.8-3.7
			c-0.2-0.4,5.7-6.8,8.3-8.1C-39.9-14.3-36.1-14.5-36.4-14.1z"/>
		<path class="st5" d="M-40.2-11.8c0,0-5.3,6.7-5.2,15.1l-2-4.3C-47.4-1-45.6-6.5-40.2-11.8z"/>
		<path class="st2" d="M-43,3.4c0,0,0.4,2.1,1,2.7c0.6,0.7,0.2-0.5,0.2-0.5s-0.7-0.3-0.5-3C-42.2,0-43,3.4-43,3.4L-43,3.4z
			 M-10.2,3.4c0,0-0.4,2.1-1,2.7s-0.2-0.5-0.2-0.5s0.7-0.3,0.5-3S-10.2,3.4-10.2,3.4L-10.2,3.4z"/>
		<g>
			<g>
				<path id="D_11_" class="st5" d="M-30.8,1.8c0-0.2,0.1-0.3,0.3-0.3s0.3,0.1,0.3,0.3s-0.1,0.3-0.3,0.3S-30.8,2-30.8,1.8z"/>
			</g>
			<g>
				<path id="D_10_" class="st5" d="M-32.5,3.7c0-0.2,0.1-0.3,0.3-0.3c0.2,0,0.3,0.1,0.3,0.3S-32,4-32.2,4
					C-32.4,4-32.5,3.9-32.5,3.7z"/>
			</g>
			<g>
				<path id="D_9_" class="st5" d="M-33.1,1.8c0-0.2,0.1-0.3,0.3-0.3s0.3,0.1,0.3,0.3s-0.1,0.3-0.3,0.3S-33.1,2-33.1,1.8z"/>
			</g>
			<g>
				<path id="D_8_" class="st5" d="M-23.3,1.8c0-0.2,0.1-0.3,0.3-0.3s0.3,0.1,0.3,0.3s-0.1,0.3-0.3,0.3S-23.3,2-23.3,1.8z"/>
			</g>
			<g>
				<path id="D_7_" class="st5" d="M-21.5,3.7c0-0.2,0.1-0.3,0.3-0.3s0.3,0.1,0.3,0.3S-21,4-21.2,4S-21.5,3.9-21.5,3.7z"/>
			</g>
			<g>
				<path id="D_6_" class="st5" d="M-20.9,1.8c0-0.2,0.1-0.3,0.3-0.3s0.3,0.1,0.3,0.3s-0.1,0.3-0.3,0.3S-20.9,2-20.9,1.8z"/>
			</g>
		</g>
	</g>
</symbol>
<symbol  id="A_3" viewBox="-55.8 -15.7 111.6 31.4">
	<g>
		<path class="st8" d="M46.7-4.6c-0.3,0-0.5,0.1-0.8,0.2l-7.4,4.3c-0.5,0.3-0.8,0.8-0.8,1.4v8.5c0,0.6,0.3,1.1,0.8,1.3l1.9,1.1
			c0.9,0.5,1.3,0.5,1.7,0.5c1.4,0,2.2-0.8,2.2-2.3V2c0-0.1-0.1-0.2-0.2-0.2h-0.9C43.1,1.8,43,1.9,43,2v8.4c0,0.6-0.7,1.3-1.8,0.8
			l-2-1.2c-0.1,0-0.1-0.1-0.1-0.2V1.2c0-0.1,0.1-0.2,0.1-0.2l7.4-4.2c0.1,0,0.2,0,0.2,0L54.2,1c0.1,0,0.1,0.1,0.1,0.2v8.5
			c0,0.1,0,0.2-0.1,0.2l-7.4,4.2c-0.1,0-0.2,0-0.2,0L44.7,13c-0.1,0-0.1,0-0.2,0c-0.5,0.3-0.6,0.3-1.1,0.5c-0.1,0-0.3,0.1,0.1,0.3
			l2.5,1.5c0.2,0.1,0.5,0.2,0.8,0.2c0.3,0,0.5-0.1,0.8-0.2l7.4-4.2c0.5-0.3,0.8-0.8,0.8-1.3V1.2c0-0.6-0.3-1.1-0.8-1.4l-7.4-4.3
			C47.2-4.5,47-4.6,46.7-4.6L46.7-4.6z M48.6,1.5c-2.1,0-3.4,0.9-3.4,2.4c0,1.6,1.2,2.1,3.3,2.3c2.4,0.2,2.6,0.6,2.6,1.1
			c0,0.8-0.7,1.2-2.2,1.2c-2,0-2.4-0.5-2.5-1.5c0-0.1-0.1-0.2-0.2-0.2h-1C45.1,6.8,45,6.9,45,7c0,1.2,0.7,2.7,3.9,2.7
			c2.3,0,3.7-0.9,3.7-2.5s-1.1-2-3.4-2.3c-2.3-0.3-2.5-0.5-2.5-1c0-0.4,0.2-1,1.9-1c1.5,0,2.1,0.3,2.3,1.4c0,0.1,0.1,0.2,0.2,0.2h1
			c0.1,0,0.1,0,0.2-0.1c0.1-0.1,0.1-0.1,0.1-0.2C52.2,2.3,51,1.5,48.6,1.5L48.6,1.5z"/>
		<path class="st9" d="M3.2-15.7c-0.1,0-0.2,0-0.2,0.1c-0.1,0.1-0.2,0.2-0.2,0.4v12C2.8-3.1,2.7-3,2.6-3S2.4-2.9,2.3-3l-2-1.1
			C0-4.3-0.3-4.3-0.6-4.1l-7.8,4.5c-0.3,0.2-0.5,0.5-0.5,0.8v9c0,0.3,0.2,0.6,0.5,0.8l7.8,4.5c0.3,0.2,0.6,0.2,0.9,0L8.1,11
			c0.3-0.2,0.5-0.5,0.5-0.8v-22.5c0-0.3-0.2-0.7-0.5-0.8l-4.7-2.6C3.4-15.7,3.3-15.7,3.2-15.7z M-47.1-4.5c-0.2,0-0.3,0-0.4,0.1
			l-7.8,4.5c-0.3,0.2-0.5,0.5-0.5,0.8V13c0,0.2,0.1,0.3,0.2,0.4c0.1,0.1,0.3,0.1,0.5,0l4.6-2.7c0.3-0.2,0.5-0.5,0.5-0.8V4.4
			c0-0.3,0.2-0.6,0.5-0.8l2-1.1c0.1-0.1,0.3-0.1,0.5-0.1c0.2,0,0.3,0,0.5,0.1l2,1.1c0.2,0.1,0.4,0.4,0.4,0.8V10
			c0,0.3,0.2,0.6,0.5,0.8l4.6,2.7c0.1,0.1,0.3,0.1,0.5,0c0.1-0.1,0.2-0.2,0.2-0.4V1c0-0.3-0.2-0.6-0.5-0.8l-7.8-4.5
			C-46.7-4.4-46.8-4.4-47.1-4.5L-47.1-4.5L-47.1-4.5z M23.2-4.4c-0.2,0-0.3,0-0.5,0.1l-7.8,4.6c-0.3,0.2-0.5,0.5-0.5,0.8v9
			c0,0.3,0.2,0.7,0.5,0.8l7.8,4.4c0.3,0.2,0.6,0.2,0.9,0l4.7-2.6c0.2-0.1,0.2-0.2,0.2-0.4s0-0.3-0.1-0.3l-7.9-4.5
			c-0.1-0.1-0.2-0.3-0.2-0.4V4.2c0-0.2,0.1-0.3,0.2-0.4l2.4-1.4c0.1-0.1,0.3-0.1,0.5,0l2.4,1.4C25.9,3.9,26,4,26,4.2v2.2
			c0,0.2,0.1,0.3,0.2,0.4s0.3,0.1,0.5,0l4.7-2.7c0.4-0.2,0.5-0.5,0.5-0.8V1.1c0-0.3-0.2-0.6-0.5-0.8l-7.8-4.5
			C23.6-4.3,23.4-4.4,23.2-4.4L23.2-4.4z M-0.2,2.4L-0.2,2.4L2.6,4c0.1,0,0.1,0.1,0.1,0.2v3.1c0,0.1-0.1,0.2-0.1,0.2L0,9
			c-0.1,0-0.2,0-0.2,0l-2.7-1.6c-0.1,0-0.2,0-0.2-0.1V4.2C-3.1,4.1-3,4-3,4l2.7-1.6C-0.2,2.4-0.2,2.4-0.2,2.4L-0.2,2.4z"/>
		<path class="st8" d="M-23.6-4.4c-0.2,0-0.3,0-0.5,0.1l-7.8,4.5c-0.3,0.2-0.5,0.5-0.5,0.8v9c0,0.3,0.2,0.6,0.5,0.8l7.8,4.5
			c0.3,0.2,0.6,0.2,0.9,0l7.8-4.5c0.3-0.2,0.5-0.5,0.5-0.8V1c0-0.3-0.2-0.7-0.5-0.8l-7.7-4.5C-23.3-4.3-23.4-4.4-23.6-4.4L-23.6-4.4
			z M23.2,3.7C23.2,3.7,23.1,3.7,23.2,3.7l-1.6,0.9c-0.1,0-0.1,0.1-0.1,0.2v1.7c0,0.1,0,0.1,0.1,0.2l1.5,0.9c0.1,0,0.1,0,0.2,0
			l1.5-0.9c0.1,0,0.1-0.1,0.1-0.2V4.7c0-0.1,0-0.1-0.1-0.2L23.2,3.7C23.3,3.7,23.2,3.7,23.2,3.7z"/>
	</g>
</symbol>
<g>
	<path class="st10" d="M626,0.1v34.3h28.5v5.7h22.8v-5.7h51.3V0.1H626z"/>
	<path class="st3" d="M643,5.9h-11.3v22.8H643v-17h5.7v17h5.7V5.9H643z M660.2,5.9v28.5h11.5v-5.7H683V5.9H660.2z M677.3,22.9h-5.5
		V11.6h5.5V22.9z M700,5.9h-11.3v22.8H700v-17h5.7v17h5.7v-17h5.7v17h5.7V5.9H700z"/>
</g>
<g>
	<path class="st11" d="M797,40.1h-24.6c-2.1,0-3.8-1.7-3.8-3.8V3.9c0-2.1,1.7-3.8,3.8-3.8H797c2.1,0,3.8,1.7,3.8,3.8v32.4
		C800.8,38.4,799.1,40.1,797,40.1L797,40.1z"/>
	<path class="st3" d="M789.1,34.5l-0.3-15.9c0,0,1-3.8-12.7,1.8c0,0.1-0.3-14.7-0.3-14.7l4.5-0.1l0.2,9.4c0,0,12.5-5.2,12.7,3.5
		l0.3,15.8L789.1,34.5L789.1,34.5z M791.2,11.1l-4.8,0.1c1.7-2.1,3.2-5.8,3.2-5.8l4.9-0.1C794.5,5.4,793.7,7.7,791.2,11.1
		L791.2,11.1z M776.4,34.8l-0.2-9l4.6,4.4L776.4,34.8L776.4,34.8z"/>
</g>
<path class="st12" d="M355.3,31.3V15.9h19.2V15h-19.2V1h20.4V0.1h-21.3v32.1h21.5v-0.9L355.3,31.3L355.3,31.3z M393.2,9.1l-7.9,10.5
	l-7.8-10.5h-1.2l8.4,11.2l-9.2,12h1.1l8.7-11.3l8.7,11.3h1.1l-9.3-12l8.5-11.2H393.2L393.2,9.1z M397.8,40.1V25.7h0.1
	c0.5,2.1,1.6,3.8,3.2,5.1c1.6,1.3,3.6,1.9,6.1,1.9c1.6,0,3-0.3,4.2-1c1.2-0.6,2.2-1.5,3.1-2.6c0.8-1.1,1.4-2.4,1.9-3.9
	c0.4-1.5,0.6-3,0.6-4.6c0-1.7-0.2-3.3-0.7-4.8s-1.1-2.7-1.9-3.8c-0.9-1.1-1.9-1.9-3.1-2.5s-2.6-0.9-4.1-0.9c-1.2,0-2.2,0.2-3.3,0.5
	c-1,0.3-1.9,0.8-2.7,1.5c-0.8,0.7-1.5,1.4-2,2.2c-0.6,0.9-1,1.8-1.3,2.8h-0.1V9.1h-0.9v31H397.8L397.8,40.1z M407.2,31.8
	c-2.8,0-5.1-1-6.8-2.9c-1.7-1.9-2.6-4.7-2.6-8.3c0-1.5,0.2-2.9,0.6-4.3c0.4-1.4,1-2.5,1.8-3.6c0.8-1,1.8-1.8,2.9-2.4
	c1.2-0.6,2.5-0.9,4-0.9s2.8,0.3,3.9,0.9c1.1,0.6,2.1,1.4,2.8,2.4c0.7,1,1.3,2.2,1.7,3.5c0.4,1.3,0.6,2.8,0.6,4.2s-0.2,2.7-0.5,4
	c-0.3,1.3-0.9,2.5-1.6,3.6c-0.7,1.1-1.6,1.9-2.8,2.6C410.1,31.5,408.7,31.8,407.2,31.8L407.2,31.8z M421.9,32.2V19.1
	c0-1.3,0.2-2.5,0.5-3.7c0.3-1.2,0.9-2.2,1.7-3.2c0.8-0.9,1.7-1.6,2.9-2.2c1.1-0.5,2.5-0.7,4.1-0.6V8.5c-1.4,0-2.6,0.1-3.6,0.4
	c-1,0.3-1.9,0.8-2.7,1.4c-0.8,0.6-1.4,1.2-1.8,2c-0.4,0.8-0.8,1.6-1,2.4h-0.1V9.1H421v23.1H421.9L421.9,32.2z M432.2,20.8h19.3
	c0.1-1.6-0.1-3.1-0.5-4.6s-1-2.8-1.8-3.9s-1.9-2.1-3.2-2.7c-1.3-0.7-2.9-1-4.6-1c-1.3,0-2.6,0.3-3.8,0.8c-1.2,0.5-2.3,1.3-3.2,2.4
	c-0.9,1-1.7,2.3-2.2,3.8s-0.9,3.2-0.9,5.1c0,1.7,0.2,3.3,0.6,4.8c0.4,1.5,1,2.8,1.8,3.9s1.9,1.9,3.1,2.5c1.3,0.6,2.8,0.9,4.6,0.8
	c2.6,0,4.9-0.7,6.6-2.2s2.9-3.6,3.2-6.3h-0.9c-0.4,2.5-1.4,4.5-3,5.7c-1.6,1.3-3.6,1.9-6,1.9c-1.6,0-3-0.3-4.2-0.9
	c-1.1-0.6-2.1-1.4-2.8-2.3s-1.2-2.1-1.6-3.5C432.5,23.8,432.3,22.4,432.2,20.8L432.2,20.8z M450.7,19.9h-18.4
	c0.1-1.6,0.4-3.1,0.9-4.4s1.2-2.4,2-3.3s1.8-1.6,2.9-2.1c1.1-0.5,2.3-0.7,3.5-0.7c1.5,0,2.8,0.3,4,0.8c1.1,0.6,2.1,1.3,2.9,2.3
	s1.3,2.1,1.7,3.4C450.5,17.2,450.7,18.5,450.7,19.9L450.7,19.9z M470.2,15.9h0.9c0-2.6-0.8-4.4-2.2-5.6s-3.5-1.8-6.1-1.8
	c-1.4,0-2.6,0.2-3.6,0.5c-1,0.4-1.8,0.8-2.4,1.4c-0.6,0.6-1.1,1.2-1.4,1.9s-0.4,1.4-0.4,2c0,1.3,0.2,2.3,0.7,3
	c0.5,0.8,1.1,1.3,2.1,1.8c0.7,0.3,1.4,0.6,2.2,0.8s1.8,0.5,2.9,0.8c1,0.2,2,0.5,2.9,0.7s1.8,0.6,2.5,1s1.3,0.9,1.8,1.5
	s0.7,1.5,0.7,2.5s-0.2,1.8-0.7,2.5s-1.1,1.3-1.8,1.7c-0.7,0.4-1.5,0.8-2.4,0.9c-0.9,0.2-1.8,0.3-2.6,0.3c-2.7,0-4.8-0.6-6.3-1.8
	c-1.5-1.2-2.2-3.1-2.2-5.7h-0.9c0,2.9,0.8,5,2.4,6.4s3.9,2,7,2c1,0,2-0.1,3-0.3s1.9-0.6,2.7-1.1c0.8-0.5,1.4-1.2,1.9-2
	s0.7-1.8,0.7-3c0-1.1-0.2-2-0.6-2.7s-1-1.3-1.7-1.7c-0.7-0.5-1.5-0.8-2.4-1.1c-0.9-0.3-1.8-0.5-2.7-0.7c-1.1-0.3-2.2-0.6-3.3-0.9
	c-0.9-0.2-1.8-0.5-2.6-0.9c-0.8-0.3-1.4-0.8-1.9-1.4s-0.7-1.5-0.7-2.6c0-0.2,0.1-0.6,0.2-1.1s0.4-1.1,0.9-1.6s1.1-1.1,2.1-1.5
	s2.2-0.6,3.8-0.6c1.1,0,2.1,0.1,3,0.4s1.7,0.6,2.4,1.1c0.7,0.5,1.2,1.2,1.5,2C470,13.8,470.2,14.7,470.2,15.9L470.2,15.9z M491,15.9
	h0.9c0-2.6-0.8-4.4-2.2-5.6s-3.5-1.8-6.1-1.8c-1.4,0-2.6,0.2-3.6,0.5c-1,0.4-1.8,0.8-2.4,1.4c-0.6,0.6-1.1,1.2-1.4,1.9
	s-0.4,1.4-0.4,2c0,1.3,0.2,2.3,0.7,3c0.5,0.8,1.1,1.3,2.1,1.8c0.7,0.3,1.4,0.6,2.2,0.8s1.8,0.5,2.9,0.8c1,0.2,2,0.5,2.9,0.7
	s1.8,0.6,2.5,1s1.3,0.9,1.8,1.5s0.7,1.5,0.7,2.5s-0.2,1.8-0.7,2.5s-1.1,1.3-1.8,1.7c-0.7,0.4-1.5,0.8-2.4,0.9s-1.8,0.3-2.6,0.3
	c-2.7,0-4.8-0.6-6.3-1.8c-1.4-1.2-2.2-3.1-2.2-5.7h-0.7c0,2.9,0.8,5,2.4,6.4s3.9,2,7,2c1,0,2-0.1,3-0.3s1.9-0.6,2.7-1.1
	c0.8-0.5,1.5-1.2,1.9-2c0.5-0.8,0.7-1.8,0.7-3c0-1.1-0.2-2-0.6-2.7s-1-1.3-1.7-1.7c-0.7-0.5-1.5-0.8-2.4-1.1
	c-0.9-0.3-1.8-0.5-2.7-0.7c-1.1-0.3-2.2-0.6-3.3-0.9c-0.9-0.2-1.8-0.5-2.6-0.9c-0.8-0.3-1.4-0.8-1.9-1.4s-0.7-1.5-0.7-2.6
	c0-0.2,0.1-0.6,0.2-1.1s0.4-1.1,0.9-1.6c0.4-0.6,1.1-1.1,2.1-1.5c0.9-0.4,2.2-0.6,3.8-0.6c1.1,0,2.1,0.1,3,0.4s1.7,0.6,2.4,1.1
	c0.7,0.5,1.2,1.2,1.5,2C490.8,13.8,491,14.7,491,15.9L491,15.9z"/>
<g>
	<path class="st13" d="M578,23.1c-1.9,0-3.5,0.5-4.8,1.1c-0.5-1-1-1.9-1.1-2.5c-0.1-0.8-0.2-1.2-0.1-2.1c0.1-0.9,0.6-2.2,0.6-2.3
		c0-0.1-0.1-0.5-1.2-0.6c-1.1,0-2,0.2-2.1,0.5c-0.1,0.3-0.3,0.9-0.5,1.6c-0.2,1-2.1,4.5-3.3,6.3c-0.4-0.7-0.7-1.3-0.7-1.8
		c-0.1-0.8-0.2-1.2-0.1-2.1c0.1-0.9,0.6-2.2,0.6-2.3c0-0.1-0.1-0.5-1.2-0.6c-1.1,0-2,0.2-2.1,0.5c-0.1,0.3-0.2,1-0.5,1.6
		c-0.2,0.6-2.8,6.4-3.5,7.9c-0.3,0.8-0.6,1.4-0.9,1.8c-0.2,0.4,0,0,0,0.1c-0.2,0.4-0.3,0.5-0.3,0.5l0,0c-0.1,0.3-0.3,0.5-0.4,0.5
		c0,0-0.2-0.7,0-1.7c0.4-2,1.3-5.1,1.3-5.3c0,0,0.2-0.6-0.6-0.9s-1,0.2-1.1,0.2c-0.1,0-0.1,0.2-0.1,0.2s0.8-3.5-1.6-3.5
		c-1.5,0-3.7,1.7-4.7,3.2c-0.7,0.4-2.1,1.1-3.6,2c-0.6,0.3-1.2,0.6-1.7,1l-0.1-0.1c-3-3.2-8.5-5.4-8.3-9.7C536,15,536.5,11,546.5,6
		c8.2-4.1,14.7-2.9,15.8-0.5c1.6,3.5-3.5,10.1-12,11.1c-3.2,0.4-4.9-0.9-5.4-1.4s-0.5-0.5-0.7-0.4c-0.3,0.1-0.1,0.6,0,0.8
		c0.2,0.7,1.3,1.8,3.1,2.4c1.5,0.5,5.4,0.8,9.9-1c5.1-2,9.1-7.5,8-12.1c-1.2-4.7-9-6.2-16.4-3.6c-4.4,1.6-9.1,4-12.6,7.2
		c-4.1,3.8-4.7,7.1-4.4,8.5c1,4.9,7.7,8.1,10.4,10.5c-0.1,0.1-0.3,0.1-0.4,0.2c-1.4,0.7-6.5,3.4-7.8,6.2c-1.5,3.2,0.2,5.6,1.4,5.9
		c3.5,1,7-0.8,9-3.6s1.7-6.6,0.8-8.3v-0.1l1.1-0.6c0.7-0.4,1.4-0.8,2-1.1c-0.3,0.9-0.6,2-0.7,3.5c-0.1,1.8,0.6,4.2,1.6,5.2
		c0.4,0.4,1,0.4,1.3,0.4c1.1,0,1.7-1,2.2-2.1c0.7-1.4,1.3-3,1.3-3s-0.8,4.4,1.4,4.4c0.8,0,1.6-1,1.9-1.5l0,0c0,0,0,0,0.1-0.1
		c0-0.1,0.1-0.1,0.1-0.2l0,0c0.3-0.5,1-1.8,2-3.8c1.3-2.6,2.6-6,2.6-6s0.1,0.8,0.5,2.1c0.2,0.8,0.7,1.7,1.1,2.5
		c-0.3,0.4-0.5,0.7-0.5,0.7l0,0c-0.2,0.3-0.5,0.7-0.8,1c-1.1,1.3-2.3,2.7-2.5,3.1c-0.2,0.5-0.2,0.8,0.2,1.2c0.3,0.2,0.8,0.2,1.3,0.2
		c1-0.1,1.6-0.3,2-0.5c0.5-0.2,1.1-0.5,1.7-0.9c1-0.8,1.7-1.9,1.6-3.3c0-0.8-0.3-1.6-0.6-2.4c0.1-0.1,0.2-0.3,0.3-0.4
		c1.6-2.4,2.9-5.1,2.9-5.1s0.1,0.8,0.5,2.1c0.2,0.7,0.6,1.4,1,2.1c-1.5,1.3-2.5,2.7-2.9,3.7c-0.6,1.8-0.1,2.6,0.8,2.8
		c0.4,0.1,1-0.1,1.4-0.3c0.5-0.2,1.2-0.5,1.8-0.9c1-0.8,2-1.8,2-3.3c0-0.7-0.2-1.3-0.5-2c1.3-0.5,3-0.9,5.2-0.6
		c4.6,0.5,5.6,3.4,5.4,4.6s-1.1,1.9-1.5,2.1c-0.4,0.2-0.4,0.3-0.4,0.4c0,0.2,0.2,0.2,0.5,0.2c0.4-0.1,2.4-1,2.5-3.2
		C585.6,26.2,582.8,23.1,578,23.1L578,23.1z M542.2,35.1c-1.5,1.7-3.7,2.3-4.6,1.8c-1-0.6-0.6-3,1.3-4.8c1.1-1.1,2.6-2.1,3.6-2.7
		c0.2-0.1,0.5-0.3,1-0.6c0.1,0,0.1-0.1,0.1-0.1c0.1,0,0.2-0.1,0.2-0.1C544.5,31.2,543.8,33.4,542.2,35.1L542.2,35.1z M553.4,27.5
		c-0.5,1.3-1.7,4.7-2.3,4.5c-0.6-0.2-0.9-2.7-0.1-5.2c0.4-1.3,1.3-2.8,1.8-3.4c0.8-0.9,1.8-1.2,2-0.9
		C555.1,23.1,553.8,26.7,553.4,27.5z M562.7,31.9c-0.2,0.1-0.4,0.2-0.5,0.1c-0.1,0,0.1-0.2,0.1-0.2s1.2-1.2,1.6-1.8
		c0.3-0.3,0.6-0.7,0.9-1.2v0.1C564.8,30.5,563.3,31.5,562.7,31.9L562.7,31.9z M569.8,30.3c-0.2-0.1-0.1-0.5,0.4-1.7
		c0.2-0.5,0.7-1.3,1.6-2c0.1,0.3,0.2,0.6,0.2,0.9C572,29.3,570.6,30,569.8,30.3z"/>
</g>
<g>
	<defs>
		<rect id="SVGID_1_" x="174.9" y="0.2" width="140.5" height="39.7"/>
	</defs>
	<clipPath id="SVGID_2_">
		<use xlink:href="#SVGID_1_"  style="overflow:visible;"/>
	</clipPath>
	<g style="clip-path:url(#SVGID_2_);">
		
			<use xlink:href="#A_3"  width="111.6" height="31.4" x="-55.8" y="-15.7" transform="matrix(1.2614 0 0 1.2614 245.267 19.9775)" style="overflow:visible;"/>
	</g>
</g>
<g>
	<g>
		<defs>
			<rect id="SVGID_3_" x="0.7" y="0.1" width="135.5" height="40"/>
		</defs>
		<clipPath id="SVGID_4_">
			<use xlink:href="#SVGID_3_"  style="overflow:visible;"/>
		</clipPath>
		<g class="st14">
			<g>
				<defs>
					<rect id="SVGID_5_" x="0.3" width="135.8" height="40.1"/>
				</defs>
				<clipPath id="SVGID_6_">
					<use xlink:href="#SVGID_5_"  style="overflow:visible;"/>
				</clipPath>
				<g style="clip-path:url(#SVGID_6_);">
					
						<use xlink:href="#A"  width="102.8" height="30.4" x="-51.4" y="-15.2" transform="matrix(1.3207 0 0 1.3207 67.8873 20.1025)" style="overflow:visible;"/>
				</g>
			</g>
		</g>
	</g>
</g>
</svg>
