<?xml version="1.0" encoding="utf-8"?>
<!-- Generator: Adobe Illustrator 23.1.1, SVG Export Plug-In . SVG Version: 6.00 Build 0)  -->
<svg version="1.1" id="Layer_1" xmlns="http://www.w3.org/2000/svg" xmlns:xlink="http://www.w3.org/1999/xlink" x="0px" y="0px"
	 viewBox="0 0 486.9 40" style="enable-background:new 0 0 486.9 40;" xml:space="preserve">
<style type="text/css">
	.st0{fill-rule:evenodd;clip-rule:evenodd;fill:#1A1918;}
	.st1{fill-rule:evenodd;clip-rule:evenodd;fill:#21609B;}
	.st2{fill:#131313;}
	.st3{fill:#1572B6;}
	.st4{fill:#33A9DC;}
	.st5{fill:#FFFFFF;}
	.st6{fill:#EBEBEB;}
	.st7{fill:#E44D26;}
	.st8{fill:#F16529;}
	.st9{fill:#F7DF1E;}
	.st10{fill:#CF649A;}
</style>
<g>
	<path class="st0" d="M479.5,3l7.4,0c0,0-13.7,18.6-14.9,20.1c-0.4,0.5-0.9,1-1.2,1.7c-0.7,1.6-1.4,5.3-1.4,5.3l-6.8,0
		c0,0,1-3.8,1-5.8c0-1.8-0.9-3.5-1.4-5.3c-0.5-1.8-1.2-5.3-1.2-5.3h7l1,3.8L479.5,3"/>
	<path class="st0" d="M465.6,6.9c1.4,0.8,2.2,5.4,2.2,5.4s-7.1,0.1-11,0.1h-3.4l-4.1,17.7h-6.2c0,0,3.9-19.3,4.8-22.8
		c0.3-1.1,2-0.9,5-0.9h4.7C460.5,6.4,464.1,6,465.6,6.9 M436.5,15.5c0,0,0.2-1.1-0.7-2.5c-0.7-1.1-1.4-1.4-3.3-1.4
		c-5.4-0.2-5.3,3.8-5.3,3.8L436.5,15.5z M442.4,11c0.8,2.9-0.7,9.6-0.7,9.6s-7.9-0.1-12.2,0c-1.4,0-3-0.1-3.4,0.5
		c-0.6,0.9,0.2,2.2,0.9,2.8c0.8,0.7,2.2,0.7,2.7,0.8c3.5,0.5,10.9,0.1,10.9,0.1l-1.3,5.6c0,0-10.4,0.5-15.6-0.7
		c-1-0.2-2-0.7-2.6-1.4c-0.2-0.2-0.3-0.5-0.5-0.7c-0.1-0.2-0.5-0.8-0.7-1.2c-1.2-3.2,0.1-9.2,1.4-12.5c0.1-0.4,0.3-0.9,0.5-1.3
		c0.2-0.5,0.5-1.1,0.7-1.4c0.1-0.2,0.3-0.3,0.4-0.5c0.2-0.2,0.4-0.5,0.5-0.7c0.5-0.6,1-0.9,1.7-1.4c2.2-1.6,6.1-2.9,10.8-2.4
		c1.8,0.2,4.5,0.8,5.8,2.6C442,9.3,442.2,10.2,442.4,11L442.4,11z M413.8,6.4l6,0c0,0-3.4,16-5.1,23.8h-7c-4.9,0-9.2,0.6-11-2.9
		c-1.8-3.4-0.1-8.9,0.7-12.7c0.6-2.7,1.8-8.1,1.8-8.1l6.3-0.1c0,0-1.8,8.5-2.5,12.7c-0.3,1.5-0.8,3-0.2,4.1c0.5,1.1,1.3,1.1,3.6,1.2
		c0.7,0,3.1,0,3.1,0L413.8,6.4 M385.5,17.9c0.6-2.3,1.6-4.7,1.4-6.7C386.9,9,385,7,383.9,6.6c-3.5-1.2-6.8,0.5-8.1,1.9
		c-1.7,1.8-2.3,4-2.9,6.9c-0.5,2.2-0.8,4.5,0,6.2c1.4,3,5.9,2.4,10.8,2.4C384.3,22.2,384.9,20,385.5,17.9L385.5,17.9z M393.9,9
		c0.7,5-2,10.6-3.8,15.4c1.9,0.2,3.5,0,3.6,0.1c0.1,0.2-1.2,5.8-1.7,5.8c-1.5,0-6.4,0.1-8.4,0.1c-6.7,0-12.9,0.4-16.1-2.9
		c-1.3-1.3-2.2-3.6-2.4-5.3c-0.4-2.7,0.1-5.7,0.7-8.2c0.6-2.2,1.3-4.3,2.4-6.2c2.8-4.9,7.7-8.5,15.8-7.7c1.6,0.2,3.9,0.9,5.3,1.7
		c0.1,0.1,0.4,0.3,0.5,0.4C391.8,3.4,393.6,6.3,393.9,9L393.9,9z M364.5,6.4c-0.4,1.8-0.8,3.9-1.2,5.7h-6.7c0.5-2,0.9-4,1.4-5.8
		C360.1,6.4,362.1,6.4,364.5,6.4 M356.3,13.8h6.5c-0.9,4.7-2.5,12.2-3.8,17.5c-0.8,3.3-1.4,5.7-3.6,7.4c-0.2,0.2-0.3,0.1-0.5,0.2
		c-0.4,0.4-2.3,0.8-3.4,1c-1.7,0.2-3.6,0-5.7,0c0.5-2,1.2-4.4,1.7-6.2c5.1,0.6,5.2-4.2,6.2-8.9C354.2,22.1,356,14.9,356.3,13.8"/>
	<g>
		<path class="st1" d="M341.2,26l-0.1,0.4c-2.4,4.6-6.6,7.4-12.5,7.6c-2.8,0.1-5.5-0.7-7.2-1.4c-3.8-1.7-6.9-4.8-8.6-8.1
			c-2.5-4.8-2.9-11.5,2.2-16.4c0.1,0-0.6,1.1-0.5,1.1l-0.1,0.5C310.5,21.1,322,31,333,29.9C335.7,29.6,339.1,28.1,341.2,26"/>
		<path class="st1" d="M334.5,21.2c2.8,0,5.7-1.3,7.4-3.1c-1.5,3.8-5.9,6.3-11.8,5.5c-4.9-0.7-9.6-5.6-10.1-10.6
			c-0.4-3.6,0.9-5.8,3-8.4c-0.7,1.4-1,2.4-1,3.1C321.2,15.6,328.2,21.2,334.5,21.2"/>
		<path class="st1" d="M341.6,11.6c-0.4,1-2.9,2.9-4,3.1c-4.4,0.9-7.2-1.1-8.6-3.5c-0.2-0.4-0.6-1.3-0.7-1.6
			c-0.6-1.9-0.3-4.8,1.4-6.4c-0.5,1.4-0.6,3.1-0.3,4.2c0.2,0.7,0.7,1.8,1.2,2.5c0.9,1.3,1.5,1.6,2.6,2.3c0.5,0.3,1.1,0.6,1.3,0.6
			C335.6,13.3,337.9,14.1,341.6,11.6"/>
	</g>
</g>
<g>
	<path class="st2" d="M91.2,1.5h-2.3l2.4,2.7v1.3h-5V3.9h2.4l-2.4-2.7V0h4.9L91.2,1.5z M85.3,1.5h-2.3l2.4,2.7v1.3h-5V3.9h2.4
		l-2.4-2.7V0h4.9V1.5z M79.4,1.6h-2.5v2.3h2.5v1.5H75V0h4.3C79.4,0,79.4,1.6,79.4,1.6z"/>
	<path class="st3" d="M71.6,36.8L69,7.9h28.3l-2.6,28.9L83.2,40L71.6,36.8z"/>
	<path class="st4" d="M83.2,37.6l9.4-2.6l2.2-24.7H83.2V37.6z"/>
	<path class="st5" d="M83.2,20.7h4.7l0.3-3.6h-5v-3.6h8.9L92,14.5l-0.9,9.8h-7.9V20.7z"/>
	<path class="st6" d="M83.2,29.9L83.2,29.9l-4-1.1L79,26h-3.6l0.5,5.6l7.3,2h0L83.2,29.9L83.2,29.9z"/>
	<path class="st5" d="M87.6,24.1l-0.4,4.8l-4,1.1v3.7l7.3-2l0.1-0.6l0.6-6.9H87.6L87.6,24.1z"/>
	<path class="st6" d="M83.2,13.6v3.6h-8.6l-0.1-0.8l-0.2-1.8l-0.1-0.9L83.2,13.6z M83.2,20.7v3.5h-3.9l-0.1-0.8L79,21.7l-0.1-1H83.2
		L83.2,20.7z"/>
</g>
<g>
	<path class="st7" d="M28.3,7.9l-2.6,28.9L14.1,40L2.6,36.8L0,7.9H28.3L28.3,7.9z"/>
	<path class="st8" d="M14.2,37.6l9.4-2.6l2.2-24.7H14.2V37.6z"/>
	<path class="st6" d="M9.1,17.3h5v-3.6H5.3l0.1,0.9l0.9,9.8h7.9V21H9.5L9.1,17.3z M9.9,26.3H6.4l0.5,5.6l7.3,2h0v-3.7h0l-3.9-1.1
		L9.9,26.3L9.9,26.3z"/>
	<path d="M2.6,0h1.8v1.8h1.7V0h1.8v5.4H6.1V3.6H4.4v1.8H2.6V0L2.6,0z M10.3,1.8H8.7V0h5v1.8h-1.6v3.6h-1.8L10.3,1.8L10.3,1.8
		L10.3,1.8z M14.4,0h1.9l1.2,1.9L18.6,0h1.9v5.4h-1.8V2.7l-1.2,1.9h0l-1.2-1.9v2.7h-1.8L14.4,0L14.4,0z M21.4,0h1.8v3.6h2.5v1.8
		h-4.3V0L21.4,0z"/>
	<path class="st5" d="M14.2,24.5h4.4l-0.4,4.6l-4,1.1v3.7l7.3-2l0-0.6l0.8-9.3l0.1-1h-8.2L14.2,24.5L14.2,24.5z M14.2,17.3
		L14.2,17.3l8.6,0l0.1-0.8l0.2-1.8l0.1-0.9h-8.9L14.2,17.3L14.2,17.3z"/>
</g>
<g>
	<path class="st9" d="M137.2,0h40v40h-40V0z"/>
	<path d="M147.7,33.5l3.1-1.9c0.6,1.1,1.1,1.9,2.4,1.9c1.2,0,2-0.5,2-2.4V18.4h3.8v12.8c0,3.9-2.3,5.7-5.6,5.7
		C150.3,36.9,148.6,35.3,147.7,33.5 M161,33l3.1-1.8c0.8,1.3,1.9,2.3,3.7,2.3c1.6,0,2.6-0.8,2.6-1.9c0-1.3-1-1.8-2.7-2.5l-0.9-0.4
		c-2.7-1.1-4.5-2.6-4.5-5.7c0-2.8,2.1-5,5.5-5c2.4,0,4.1,0.8,5.3,3l-2.9,1.9c-0.6-1.1-1.3-1.6-2.4-1.6c-1.1,0-1.8,0.7-1.8,1.6
		c0,1.1,0.7,1.6,2.3,2.3l0.9,0.4c3.2,1.4,5,2.8,5,5.9c0,3.4-2.7,5.2-6.2,5.2C164.3,36.9,162.1,35.2,161,33"/>
</g>
<g>
	<path class="st10" d="M263.1,23.1c-1.9,0-3.5,0.5-4.8,1.1c-0.5-1-1-1.9-1.1-2.5c-0.1-0.8-0.2-1.2-0.1-2.1s0.6-2.2,0.6-2.3
		c0-0.1-0.1-0.5-1.2-0.6c-1.1,0-2,0.2-2.1,0.5s-0.3,0.9-0.4,1.6c-0.2,1-2.1,4.5-3.3,6.3c-0.4-0.7-0.7-1.3-0.7-1.8
		c-0.1-0.8-0.2-1.2-0.1-2.1c0.1-0.9,0.6-2.2,0.6-2.3c0-0.1-0.1-0.5-1.2-0.6c-1.1,0-2,0.2-2.1,0.5s-0.2,1-0.4,1.6s-2.8,6.4-3.5,7.9
		c-0.3,0.8-0.6,1.4-0.9,1.8c-0.2,0.4,0,0,0,0.1c-0.2,0.4-0.3,0.5-0.3,0.5l0,0c-0.1,0.3-0.3,0.5-0.4,0.5c-0.1,0-0.2-0.7,0-1.7
		c0.4-2,1.3-5.1,1.3-5.3c0,0,0.2-0.6-0.6-0.9s-1,0.2-1.1,0.2s-0.1,0.2-0.1,0.2s0.8-3.5-1.6-3.5c-1.5,0-3.7,1.7-4.7,3.2
		c-0.7,0.4-2.1,1.1-3.6,2c-0.6,0.3-1.2,0.6-1.7,1l-0.1-0.1c-3-3.2-8.5-5.4-8.3-9.7c0.1-1.6,0.6-5.6,10.6-10.6
		c8.2-4.1,14.7-3,15.8-0.5c1.6,3.5-3.5,10.1-12,11.1c-3.2,0.4-4.9-0.9-5.4-1.4c-0.4-0.5-0.5-0.5-0.7-0.4c-0.3,0.1-0.1,0.6,0,0.8
		c0.2,0.7,1.3,1.8,3.1,2.4c1.6,0.5,5.4,0.8,9.9-1c5.1-2,9.1-7.5,8-12.1c-1.2-4.7-9-6.2-16.4-3.6c-4.4,1.6-9.1,4-12.6,7.2
		c-4.1,3.8-4.7,7.1-4.4,8.5c0.9,4.9,7.7,8.1,10.4,10.5c-0.1,0.1-0.3,0.1-0.4,0.2c-1.4,0.7-6.5,3.4-7.8,6.2c-1.5,3.2,0.2,5.6,1.4,5.9
		c3.5,1,7.1-0.8,9-3.6s1.7-6.6,0.8-8.3v-0.1l1.1-0.6c0.7-0.4,1.4-0.8,2-1.1c-0.3,0.9-0.6,2-0.7,3.5c-0.1,1.8,0.6,4.2,1.6,5.2
		c0.4,0.4,1,0.4,1.3,0.4c1.1,0,1.7-1,2.2-2.1c0.7-1.4,1.3-3,1.3-3s-0.8,4.4,1.4,4.4c0.8,0,1.6-1,1.9-1.5l0,0c0,0,0,0,0.1-0.1
		c0-0.1,0.1-0.1,0.1-0.2l0,0c0.3-0.5,1-1.8,2.1-3.8c1.3-2.6,2.6-6,2.6-6s0.1,0.8,0.5,2.1c0.2,0.8,0.7,1.7,1.1,2.5
		c-0.3,0.4-0.5,0.7-0.5,0.7l0,0c-0.2,0.3-0.5,0.7-0.8,1c-1.1,1.3-2.3,2.7-2.5,3.1c-0.2,0.5-0.2,0.8,0.2,1.2c0.3,0.2,0.8,0.2,1.3,0.2
		c1-0.1,1.6-0.3,2-0.5c0.5-0.2,1.1-0.5,1.7-0.9c1-0.8,1.7-1.9,1.6-3.3c0-0.8-0.3-1.6-0.6-2.4c0.1-0.1,0.2-0.3,0.3-0.4
		c1.6-2.4,2.9-5.1,2.9-5.1s0.1,0.8,0.5,2.1c0.2,0.7,0.6,1.4,0.9,2.1c-1.5,1.3-2.5,2.7-2.9,3.7c-0.6,1.8-0.1,2.6,0.8,2.8
		c0.4,0.1,1-0.1,1.4-0.3c0.5-0.2,1.2-0.5,1.8-0.9c1-0.8,2-1.8,2-3.3c0-0.7-0.2-1.3-0.4-2c1.3-0.5,3-0.9,5.2-0.6
		c4.6,0.5,5.6,3.4,5.4,4.6c-0.2,1.2-1.1,1.9-1.5,2.1s-0.4,0.3-0.4,0.4c0,0.2,0.2,0.2,0.5,0.2c0.4-0.1,2.4-1,2.5-3.2
		C270.7,26.2,267.9,23,263.1,23.1L263.1,23.1z M227.3,35.1c-1.5,1.7-3.7,2.3-4.6,1.8c-1-0.6-0.6-3,1.3-4.8c1.1-1.1,2.6-2.1,3.6-2.7
		c0.2-0.1,0.6-0.3,0.9-0.6c0.1,0,0.1-0.1,0.1-0.1c0.1,0,0.2-0.1,0.2-0.1C229.6,31.1,229,33.4,227.3,35.1L227.3,35.1z M238.5,27.5
		c-0.5,1.3-1.7,4.7-2.3,4.5c-0.6-0.2-0.9-2.7-0.1-5.2c0.4-1.3,1.3-2.8,1.8-3.4c0.8-0.9,1.8-1.2,2-0.9
		C240.2,23.1,238.9,26.7,238.5,27.5z M247.8,31.9c-0.2,0.1-0.4,0.2-0.5,0.1c-0.1,0,0.1-0.2,0.1-0.2s1.2-1.2,1.6-1.8
		c0.3-0.3,0.6-0.7,0.9-1.2v0.1C249.9,30.5,248.4,31.5,247.8,31.9L247.8,31.9z M254.9,30.3c-0.2-0.1-0.1-0.5,0.4-1.7
		c0.2-0.5,0.7-1.3,1.6-2c0.1,0.3,0.2,0.6,0.2,0.9C257.1,29.3,255.7,30,254.9,30.3z"/>
</g>
</svg>
