<?xml version="1.0" encoding="utf-8"?>
<!-- Generator: Adobe Illustrator 23.0.6, SVG Export Plug-In . SVG Version: 6.00 Build 0)  -->
<svg version="1.1" id="Layer_1" xmlns="http://www.w3.org/2000/svg" xmlns:xlink="http://www.w3.org/1999/xlink" x="0px" y="0px"
	 viewBox="0 0 177.17 40" style="enable-background:new 0 0 177.17 40;" xml:space="preserve">
<style type="text/css">
	.st0{fill:#131313;}
	.st1{fill:#1572B6;}
	.st2{fill:#33A9DC;}
	.st3{fill:#FFFFFF;}
	.st4{fill:#EBEBEB;}
	.st5{fill:#E44D26;}
	.st6{fill:#F16529;}
	.st7{fill:#F7DF1E;}
</style>
<g>
	<path class="st0" d="M91.21,1.48h-2.35l2.44,2.65V5.4h-5.04V3.92h2.44l-2.44-2.65V0h4.94L91.21,1.48z M85.26,1.48h-2.35l2.45,2.65
		V5.4h-5.04V3.92h2.44l-2.44-2.65V0h4.94V1.48z M79.38,1.54h-2.54v2.32h2.54V5.4h-4.34V0h4.34V1.54z"/>
	<path class="st1" d="M71.58,36.79L69,7.86h28.34l-2.58,28.92L83.15,40L71.58,36.79z"/>
	<path class="st2" d="M83.17,37.54l9.38-2.6l2.2-24.71H83.17L83.17,37.54z"/>
	<path class="st3" d="M83.17,20.71h4.69l0.32-3.63h-5.02v-3.55h8.9l-0.08,0.95l-0.87,9.78h-7.94V20.71z"/>
	<path class="st4" d="M83.19,29.92h-0.02l-3.95-1.07l-0.25-2.83h-3.56l0.5,5.57l7.27,2.02h0.02L83.19,29.92L83.19,29.92z"/>
	<path class="st3" d="M87.56,24.1l-0.43,4.75l-3.96,1.07v3.7l7.27-2.02L90.5,31l0.62-6.9L87.56,24.1L87.56,24.1z"/>
	<path class="st4" d="M83.18,13.53v3.55h-8.57l-0.07-0.8l-0.16-1.8l-0.08-0.95L83.18,13.53z M83.17,20.71v3.55h-3.91l-0.07-0.8
		l-0.16-1.8l-0.08-0.95L83.17,20.71L83.17,20.71z"/>
</g>
<g>
	<path class="st5" d="M28.34,7.86l-2.58,28.92L14.15,40L2.58,36.79L0,7.86H28.34L28.34,7.86z"/>
	<path class="st6" d="M14.17,37.54l9.38-2.6l2.21-24.72H14.17V37.54z"/>
	<path class="st4" d="M9.15,17.32h5.02v-3.55h-8.9l0.08,0.95l0.87,9.78h7.94v-3.55H9.47L9.15,17.32z M9.95,26.28H6.39l0.5,5.57
		l7.27,2.02l0.02,0v-3.69l-0.02,0l-3.95-1.07L9.95,26.28L9.95,26.28z"/>
	<path d="M2.64,0h1.8v1.78h1.65V0h1.8v5.39h-1.8V3.59H4.44v1.81h-1.8L2.64,0L2.64,0z M10.26,1.79H8.68V0h4.98v1.79h-1.59v3.61h-1.8
		L10.26,1.79L10.26,1.79L10.26,1.79z M14.44,0h1.88l1.16,1.9L18.64,0h1.88v5.39h-1.8V2.72l-1.24,1.92h-0.03l-1.24-1.92v2.67h-1.76V0
		z M21.41,0h1.8v3.61h2.54v1.78h-4.34L21.41,0L21.41,0z"/>
	<path class="st3" d="M14.16,24.5h4.37l-0.41,4.6l-3.96,1.07v3.69l7.27-2.02l0.05-0.6l0.83-9.34l0.09-0.95h-8.25V24.5L14.16,24.5z
		 M14.16,17.31L14.16,17.31l8.57,0.01l0.07-0.8l0.16-1.8l0.08-0.95h-8.89V17.31L14.16,17.31z"/>
</g>
<g>
	<path class="st7" d="M137.17,0h40v40h-40V0z"/>
	<path d="M147.69,33.43l3.06-1.85c0.59,1.05,1.13,1.93,2.42,1.93c1.24,0,2.01-0.48,2.01-2.36V18.36h3.76V31.2
		c0,3.89-2.28,5.67-5.61,5.67C150.32,36.86,148.57,35.31,147.69,33.43 M160.98,33.02l3.06-1.77c0.81,1.32,1.85,2.28,3.71,2.28
		c1.56,0,2.55-0.78,2.55-1.85c0-1.29-1.02-1.75-2.74-2.5l-0.94-0.4c-2.71-1.15-4.51-2.6-4.51-5.67c0-2.82,2.15-4.97,5.5-4.97
		c2.39,0,4.11,0.83,5.34,3.01l-2.93,1.88c-0.64-1.15-1.34-1.61-2.42-1.61c-1.1,0-1.8,0.7-1.8,1.61c0,1.13,0.7,1.58,2.31,2.28
		l0.94,0.4c3.2,1.37,4.99,2.77,4.99,5.91c0,3.38-2.66,5.24-6.23,5.24C164.33,36.86,162.08,35.2,160.98,33.02"/>
</g>
</svg>
