<?xml version="1.0" encoding="utf-8"?>
<!-- Generator: Adobe Illustrator 23.0.6, SVG Export Plug-In . SVG Version: 6.00 Build 0)  -->
<svg version="1.1" id="Layer_1" xmlns="http://www.w3.org/2000/svg" xmlns:xlink="http://www.w3.org/1999/xlink" x="0px" y="0px"
	 viewBox="0 0 680.25 40" style="enable-background:new 0 0 680.25 40;" xml:space="preserve">
<style type="text/css">
	.st0{fill:#CB3837;}
	.st1{fill:#FFFFFF;}
	.st2{fill-rule:evenodd;clip-rule:evenodd;fill:#8993BE;}
	.st3{fill-rule:evenodd;clip-rule:evenodd;fill:#232531;}
	.st4{fill-rule:evenodd;clip-rule:evenodd;fill:#1A1918;}
	.st5{fill-rule:evenodd;clip-rule:evenodd;fill:#21609B;}
	.st6{fill:#FF2D20;}
	.st7{fill:#CF649A;}
	.st8{fill:#6762A6;}
</style>
<g>
	<path class="st0" d="M289.4,0v34.26h28.51V40h22.77v-5.74h51.29V0H289.4z"/>
	<path class="st1" d="M306.43,5.74h-11.29v22.77h11.29V11.49h5.74v17.03h5.74V5.74H306.43z M323.66,5.74v28.51h11.49v-5.74h11.29
		V5.74H323.66z M340.69,22.77h-5.54V11.49h5.54V22.77z M363.46,5.74h-11.29v22.77h11.29V11.49h5.74v17.03h5.74V11.49h5.74v17.03
		h5.74V5.74H363.46z"/>
</g>
<g>
	<ellipse class="st2" cx="38.42" cy="20" rx="38.42" ry="20"/>
	<path class="st3" d="M10.79,31.84L15,10.53h9.74c4.21,0.26,6.32,2.37,6.32,6.05c0,6.32-5,10-9.47,9.74h-4.74l-1.05,5.53H10.79z
		 M17.89,22.37l1.32-7.89h3.42c1.84,0,3.16,0.79,3.16,2.37c-0.26,4.47-2.37,5.26-4.74,5.53L17.89,22.37L17.89,22.37z M30.07,26.32
		L34.28,5h5l-1.05,5.53h4.74c4.21,0.26,5.79,2.37,5.26,5l-1.84,10.79h-5.26l1.84-9.74c0.26-1.32,0.26-2.11-1.58-2.11h-3.95
		l-2.37,11.84H30.07z M46.05,31.84l4.21-21.32H60c4.21,0.26,6.32,2.37,6.32,6.05c0,6.32-5,10-9.47,9.74h-4.74l-1.05,5.53H46.05z
		 M53.16,22.37l1.32-7.89h3.42c1.84,0,3.16,0.79,3.16,2.37c-0.26,4.47-2.37,5.26-4.74,5.53H53.16L53.16,22.37z"/>
</g>
<g>
	<path class="st4" d="M600.06,2.96L607.45,3c0,0-13.74,18.62-14.86,20.14c-0.36,0.49-0.92,1.02-1.2,1.68
		c-0.71,1.65-1.44,5.27-1.44,5.27l-6.76,0.03c0,0,1.05-3.78,1.01-5.79c-0.04-1.76-0.93-3.51-1.44-5.27c-0.51-1.78-1.2-5.27-1.2-5.27
		h6.95l0.96,3.84L600.06,2.96"/>
	<path class="st4" d="M586.07,6.88c1.36,0.82,2.2,5.36,2.2,5.36s-7.14,0.11-11.02,0.11h-3.36l-4.08,17.74h-6.23
		c0,0,3.88-19.28,4.79-22.77c0.3-1.13,2.03-0.94,4.96-0.94h4.68C581.05,6.37,584.58,5.99,586.07,6.88 M557.05,15.52
		c0,0,0.19-1.14-0.66-2.46c-0.73-1.12-1.4-1.39-3.32-1.45c-5.42-0.17-5.31,3.84-5.31,3.84L557.05,15.52z M562.92,10.93
		c0.79,2.86-0.72,9.59-0.72,9.59s-7.9-0.13-12.23,0c-1.35,0.04-2.96-0.15-3.36,0.48c-0.56,0.88,0.21,2.23,0.86,2.8
		c0.75,0.66,2.21,0.73,2.74,0.8c3.51,0.45,10.86,0.12,10.86,0.12l-1.27,5.64c0,0-10.39,0.52-15.58-0.72
		c-1.03-0.24-1.99-0.74-2.64-1.44c-0.18-0.19-0.33-0.45-0.5-0.68c-0.13-0.18-0.52-0.77-0.7-1.24c-1.19-3.16,0.14-9.22,1.44-12.46
		c0.15-0.38,0.34-0.85,0.54-1.26c0.25-0.51,0.46-1.08,0.66-1.38c0.13-0.21,0.3-0.34,0.44-0.54c0.16-0.23,0.35-0.46,0.52-0.66
		c0.48-0.56,1.02-0.95,1.68-1.44c2.16-1.62,6.08-2.88,10.79-2.4c1.77,0.18,4.45,0.81,5.75,2.64
		C562.56,9.26,562.73,10.22,562.92,10.93L562.92,10.93z M534.34,6.35l6.04-0.04c0,0-3.37,15.98-5.08,23.77h-6.95
		c-4.86,0-9.19,0.6-11.03-2.88c-1.79-3.38-0.08-8.93,0.72-12.71c0.57-2.67,1.76-8.13,1.76-8.13l6.26-0.06c0,0-1.77,8.5-2.51,12.74
		c-0.26,1.52-0.81,2.95-0.24,4.07c0.54,1.07,1.29,1.15,3.6,1.2c0.73,0.02,3.12,0,3.12,0L534.34,6.35 M506.05,17.86
		c0.63-2.25,1.56-4.69,1.44-6.71c-0.13-2.17-1.94-4.14-3.12-4.55c-3.53-1.25-6.84,0.5-8.15,1.92c-1.7,1.84-2.28,3.99-2.88,6.95
		c-0.45,2.2-0.81,4.52,0,6.23c1.44,3.03,5.94,2.37,10.79,2.4C504.85,22.16,505.45,20,506.05,17.86L506.05,17.86z M514.44,8.99
		c0.69,5.02-1.96,10.56-3.78,15.38c1.86,0.17,3.49-0.03,3.61,0.11c0.12,0.18-1.25,5.75-1.72,5.77c-1.48,0.04-6.37,0.08-8.41,0.08
		c-6.66,0-12.88,0.43-16.06-2.88c-1.29-1.34-2.18-3.65-2.4-5.27c-0.36-2.71,0.09-5.69,0.72-8.15c0.57-2.22,1.3-4.32,2.4-6.23
		c2.8-4.88,7.66-8.51,15.82-7.67c1.58,0.16,3.85,0.86,5.27,1.68c0.1,0.06,0.44,0.33,0.52,0.38C512.33,3.4,514.07,6.31,514.44,8.99
		L514.44,8.99z M484.99,6.38c-0.4,1.83-0.81,3.91-1.23,5.72h-6.71c0.52-2.01,0.92-4.01,1.44-5.75
		C480.63,6.35,482.63,6.38,484.99,6.38 M476.81,13.78h6.47c-0.85,4.68-2.52,12.24-3.84,17.5c-0.82,3.29-1.37,5.69-3.6,7.43
		c-0.2,0.16-0.31,0.08-0.48,0.24c-0.41,0.39-2.31,0.84-3.36,0.96c-1.71,0.18-3.64,0.02-5.73-0.02c0.55-2.01,1.17-4.42,1.66-6.21
		c5.11,0.62,5.24-4.21,6.23-8.87C474.74,22.12,476.48,14.86,476.81,13.78"/>
	<g>
		<path class="st5" d="M461.7,26.01l-0.14,0.36c-2.36,4.6-6.55,7.43-12.53,7.55c-2.79,0.06-5.45-0.66-7.19-1.44
			c-3.75-1.69-6.91-4.81-8.63-8.15c-2.47-4.79-2.92-11.45,2.22-16.42c0.08,0-0.62,1.08-0.54,1.08l-0.14,0.46
			c-3.7,11.59,7.71,21.53,18.8,20.39C456.22,29.57,459.62,28.11,461.7,26.01"/>
		<path class="st5" d="M454.99,21.22c2.79,0.02,5.71-1.29,7.43-3.12c-1.51,3.83-5.88,6.3-11.75,5.51
			c-4.91-0.66-9.59-5.6-10.07-10.55c-0.35-3.6,0.9-5.75,2.97-8.36c-0.72,1.36-0.99,2.42-1.05,3.09
			C441.74,15.58,448.75,21.17,454.99,21.22"/>
		<path class="st5" d="M462.14,11.54c-0.43,1-2.93,2.87-4.03,3.11c-4.37,0.93-7.16-1.14-8.63-3.5c-0.22-0.35-0.62-1.31-0.69-1.56
			c-0.57-1.93-0.31-4.85,1.39-6.37c-0.51,1.44-0.59,3.11-0.32,4.2c0.16,0.66,0.66,1.8,1.16,2.52c0.9,1.31,1.48,1.63,2.64,2.33
			c0.52,0.31,1.08,0.57,1.33,0.63C456.08,13.23,458.4,14.08,462.14,11.54"/>
	</g>
</g>
<g>
	<path class="st6" d="M155.58,9.05c0.01,0.05,0.02,0.11,0.02,0.16v8.59c0,0.22-0.12,0.43-0.31,0.54l-7.21,4.15v8.22
		c0,0.22-0.12,0.43-0.31,0.54l-15.04,8.66c-0.03,0.02-0.07,0.03-0.11,0.05c-0.01,0-0.03,0.01-0.04,0.02c-0.11,0.03-0.22,0.03-0.32,0
		c-0.02,0-0.03-0.01-0.05-0.02c-0.03-0.01-0.07-0.02-0.1-0.04l-15.04-8.66c-0.19-0.11-0.31-0.32-0.31-0.54V4.96
		c0-0.06,0.01-0.11,0.02-0.16c0-0.02,0.02-0.03,0.02-0.05c0.01-0.03,0.02-0.07,0.04-0.1c0.01-0.02,0.03-0.04,0.04-0.06
		c0.02-0.03,0.03-0.05,0.06-0.07c0.02-0.02,0.04-0.03,0.06-0.05c0.02-0.02,0.04-0.04,0.07-0.05h0l7.52-4.33
		c0.19-0.11,0.43-0.11,0.63,0l7.52,4.33h0c0.03,0.02,0.05,0.04,0.07,0.05c0.02,0.02,0.04,0.03,0.06,0.05
		c0.02,0.02,0.04,0.05,0.06,0.07c0.01,0.02,0.03,0.04,0.04,0.06c0.02,0.03,0.03,0.06,0.04,0.1c0.01,0.02,0.02,0.03,0.02,0.05
		c0.01,0.05,0.02,0.11,0.02,0.16v16.09l6.27-3.61V9.21c0-0.05,0.01-0.11,0.02-0.16c0.01-0.02,0.02-0.04,0.02-0.05
		c0.01-0.03,0.02-0.07,0.04-0.1c0.01-0.02,0.03-0.04,0.04-0.06c0.02-0.03,0.03-0.05,0.06-0.07c0.02-0.02,0.04-0.03,0.06-0.05
		c0.02-0.02,0.04-0.04,0.07-0.05h0l7.52-4.33c0.19-0.11,0.43-0.11,0.63,0l7.52,4.33c0.03,0.02,0.05,0.04,0.07,0.05
		c0.02,0.02,0.04,0.03,0.06,0.05c0.02,0.02,0.04,0.05,0.06,0.07c0.01,0.02,0.03,0.04,0.04,0.06c0.02,0.03,0.03,0.06,0.04,0.1
		C155.57,9.01,155.58,9.03,155.58,9.05L155.58,9.05z M154.35,17.44V10.3l-2.63,1.51l-3.64,2.09v7.14L154.35,17.44L154.35,17.44z
		 M146.83,30.35v-7.14l-3.58,2.04l-10.21,5.83v7.21L146.83,30.35z M118,6.04v24.31l13.79,7.94v-7.21l-7.2-4.08l0,0l0,0
		c-0.02-0.01-0.04-0.03-0.07-0.05c-0.02-0.02-0.04-0.03-0.06-0.05l0,0c-0.02-0.02-0.03-0.04-0.05-0.07
		c-0.02-0.02-0.03-0.04-0.05-0.06l0,0c-0.01-0.02-0.02-0.05-0.03-0.08c-0.01-0.02-0.02-0.05-0.03-0.07v0
		c-0.01-0.03-0.01-0.06-0.01-0.09c0-0.02-0.01-0.05-0.01-0.07V9.65l-3.63-2.09L118,6.04L118,6.04z M124.9,1.35l-6.27,3.61l6.26,3.61
		l6.26-3.61L124.9,1.35L124.9,1.35z M128.16,23.86l3.63-2.09V6.04l-2.63,1.51l-3.64,2.09v15.73L128.16,23.86z M147.46,5.61
		l-6.26,3.61l6.26,3.61l6.26-3.61L147.46,5.61z M146.83,13.9l-3.64-2.09l-2.63-1.51v7.14l3.63,2.09l2.63,1.52V13.9z M132.42,29.99
		l9.19-5.25l4.59-2.62l-6.26-3.6l-7.21,4.15l-6.57,3.78L132.42,29.99z"/>
</g>
<g>
	<path class="st7" d="M242.19,22.97c-1.87,0.01-3.48,0.46-4.84,1.13c-0.5-0.99-1-1.86-1.08-2.5c-0.09-0.75-0.21-1.21-0.09-2.11
		c0.11-0.9,0.64-2.17,0.64-2.27c-0.01-0.09-0.11-0.55-1.19-0.56c-1.07-0.01-2,0.21-2.11,0.49s-0.31,0.93-0.45,1.59
		c-0.19,0.98-2.15,4.45-3.26,6.27c-0.36-0.71-0.68-1.33-0.74-1.83c-0.09-0.75-0.21-1.21-0.09-2.11c0.11-0.9,0.64-2.17,0.64-2.27
		c-0.01-0.09-0.11-0.55-1.19-0.56c-1.07-0.01-2,0.21-2.11,0.49c-0.1,0.28-0.22,0.95-0.45,1.59c-0.22,0.65-2.82,6.44-3.5,7.95
		c-0.34,0.77-0.65,1.39-0.87,1.8c-0.22,0.42-0.01,0.03-0.03,0.07c-0.19,0.35-0.29,0.55-0.29,0.55v0.01
		c-0.15,0.26-0.3,0.51-0.38,0.51c-0.05,0-0.16-0.7,0.02-1.66c0.39-2.01,1.32-5.15,1.31-5.26c0-0.05,0.18-0.6-0.6-0.89
		c-0.76-0.28-1.03,0.19-1.09,0.19c-0.06,0-0.11,0.17-0.11,0.17s0.84-3.53-1.62-3.53c-1.54,0-3.67,1.68-4.72,3.21
		c-0.67,0.36-2.08,1.14-3.59,1.96c-0.57,0.31-1.17,0.65-1.73,0.95l-0.11-0.13c-2.98-3.18-8.5-5.43-8.27-9.7
		c0.08-1.55,0.63-5.65,10.59-10.61c8.16-4.07,14.7-2.95,15.83-0.47c1.62,3.54-3.49,10.13-11.98,11.08
		c-3.23,0.36-4.93-0.89-5.36-1.36c-0.45-0.49-0.51-0.51-0.68-0.42c-0.27,0.15-0.1,0.58,0,0.84c0.25,0.66,1.29,1.82,3.06,2.41
		c1.55,0.51,5.35,0.79,9.93-0.98c5.14-1.99,9.15-7.52,7.97-12.13c-1.2-4.7-9-6.24-16.36-3.63c-4.39,1.56-9.14,4-12.56,7.2
		c-4.07,3.79-4.71,7.11-4.44,8.48c0.95,4.91,7.71,8.11,10.42,10.48c-0.14,0.07-0.26,0.15-0.38,0.21c-1.36,0.67-6.51,3.37-7.81,6.22
		c-1.46,3.23,0.23,5.56,1.36,5.87c3.48,0.97,7.05-0.77,8.97-3.64c1.92-2.87,1.69-6.59,0.8-8.29l-0.03-0.06l1.06-0.63
		c0.69-0.41,1.37-0.78,1.96-1.1c-0.33,0.91-0.57,1.98-0.7,3.54c-0.15,1.83,0.6,4.21,1.59,5.15c0.44,0.41,0.96,0.42,1.28,0.42
		c1.15,0,1.67-0.95,2.24-2.08c0.71-1.39,1.33-2.99,1.33-2.99s-0.78,4.35,1.36,4.35c0.78,0,1.56-1.01,1.92-1.53v0.01
		c0,0,0.02-0.03,0.06-0.1c0.04-0.06,0.09-0.13,0.13-0.2v-0.02c0.31-0.54,1.01-1.78,2.05-3.84c1.34-2.65,2.64-5.96,2.64-5.96
		s0.13,0.81,0.51,2.15c0.23,0.79,0.73,1.66,1.12,2.5c-0.31,0.44-0.5,0.69-0.5,0.69l0.01,0.01c-0.25,0.33-0.53,0.69-0.82,1.04
		c-1.06,1.27-2.33,2.72-2.5,3.14c-0.2,0.49-0.16,0.85,0.23,1.15c0.28,0.21,0.78,0.25,1.31,0.21c0.96-0.06,1.63-0.3,1.96-0.45
		c0.52-0.19,1.12-0.47,1.69-0.89c1.04-0.77,1.68-1.87,1.62-3.32c-0.03-0.8-0.29-1.59-0.61-2.35c0.09-0.14,0.19-0.27,0.28-0.42
		c1.65-2.41,2.92-5.06,2.92-5.06s0.13,0.81,0.51,2.15c0.2,0.68,0.59,1.42,0.95,2.15c-1.54,1.26-2.51,2.72-2.85,3.68
		c-0.61,1.77-0.14,2.57,0.77,2.76c0.41,0.08,0.99-0.1,1.43-0.29c0.54-0.18,1.2-0.48,1.8-0.93c1.04-0.77,2.04-1.84,1.99-3.29
		c-0.03-0.67-0.21-1.32-0.45-1.95c1.31-0.54,3.01-0.85,5.17-0.59c4.64,0.54,5.56,3.44,5.38,4.65c-0.18,1.21-1.15,1.88-1.47,2.08
		c-0.32,0.2-0.43,0.27-0.4,0.42c0.04,0.22,0.19,0.21,0.47,0.17c0.39-0.06,2.44-0.99,2.52-3.22
		C249.74,26.07,247.02,22.94,242.19,22.97L242.19,22.97z M206.42,35.03c-1.53,1.68-3.69,2.31-4.61,1.77
		c-0.99-0.57-0.6-3.04,1.28-4.83c1.15-1.08,2.64-2.08,3.62-2.7c0.22-0.14,0.55-0.33,0.95-0.57c0.06-0.04,0.1-0.06,0.1-0.06
		c0.07-0.04,0.16-0.09,0.24-0.15C208.7,31.04,208.03,33.27,206.42,35.03L206.42,35.03z M217.62,27.41c-0.53,1.3-1.66,4.65-2.33,4.46
		c-0.58-0.16-0.94-2.69-0.11-5.19c0.42-1.26,1.3-2.76,1.82-3.35c0.84-0.94,1.76-1.25,1.99-0.87
		C219.26,22.97,217.95,26.6,217.62,27.41z M226.87,31.83c-0.23,0.11-0.44,0.2-0.53,0.14c-0.07-0.04,0.09-0.2,0.09-0.2
		s1.16-1.24,1.62-1.81c0.26-0.33,0.57-0.72,0.91-1.16v0.13C228.95,30.42,227.51,31.42,226.87,31.83L226.87,31.83z M234,30.2
		c-0.17-0.13-0.15-0.51,0.42-1.72c0.22-0.48,0.72-1.28,1.58-2.04c0.1,0.31,0.17,0.61,0.16,0.9C236.14,29.21,234.81,29.91,234,30.2z"
		/>
</g>
<g>
	<path class="st8" d="M676.44,40H651.8c-2.11,0-3.82-1.71-3.82-3.81V3.81c0-2.11,1.71-3.81,3.81-3.81h24.63
		c2.11,0,3.82,1.71,3.82,3.81v32.37C680.25,38.29,678.54,40,676.44,40L676.44,40z"/>
	<path class="st1" d="M668.52,34.42l-0.35-15.88c0,0,0.95-3.82-12.69,1.83c-0.02,0.07-0.35-14.69-0.35-14.69l4.49-0.13l0.21,9.45
		c0,0,12.48-5.23,12.67,3.48l0.35,15.83L668.52,34.42L668.52,34.42z M670.58,11.04l-4.77,0.1c1.67-2.14,3.15-5.76,3.15-5.76
		l4.93-0.11C673.88,5.28,673.09,7.64,670.58,11.04L670.58,11.04z M655.86,34.67l-0.2-9.04l4.62,4.42L655.86,34.67L655.86,34.67z"/>
</g>
</svg>
