<?xml version="1.0" encoding="utf-8"?>
<!-- Generator: Adobe Illustrator 23.0.6, SVG Export Plug-In . SVG Version: 6.00 Build 0)  -->
<svg version="1.1" id="Layer_1" xmlns="http://www.w3.org/2000/svg" xmlns:xlink="http://www.w3.org/1999/xlink" x="0px" y="0px"
	 viewBox="0 0 854.79 40" style="enable-background:new 0 0 854.79 40;" xml:space="preserve">
<style type="text/css">
	.st0{fill:#CB3837;}
	.st1{fill:#FFFFFF;}
	.st2{fill-rule:evenodd;clip-rule:evenodd;fill:#1A1918;}
	.st3{fill-rule:evenodd;clip-rule:evenodd;fill:#21609B;}
	.st4{fill:#6762A6;}
	.st5{fill:#539E43;}
	.st6{fill:#333333;}
	.st7{fill:url(#SVGID_1_);}
	.st8{filter:url(#Adobe_OpacityMaskFilter);}
	.st9{mask:url(#c_2_);}
	.st10{fill:none;}
	.st11{fill:url(#SVGID_2_);}
	.st12{filter:url(#Adobe_OpacityMaskFilter_1_);}
	.st13{mask:url(#c_1_);}
	.st14{fill-rule:evenodd;clip-rule:evenodd;fill:url(#SVGID_3_);}
	.st15{fill-rule:evenodd;clip-rule:evenodd;fill:url(#SVGID_4_);}
	.st16{fill-rule:evenodd;clip-rule:evenodd;fill:url(#SVGID_5_);}
	.st17{fill-rule:evenodd;clip-rule:evenodd;fill:url(#SVGID_6_);}
	.st18{fill-rule:evenodd;clip-rule:evenodd;fill:url(#SVGID_7_);}
	.st19{fill:#222222;}
	.st20{fill-rule:evenodd;clip-rule:evenodd;fill:#8E714E;}
	.st21{fill-rule:evenodd;clip-rule:evenodd;fill:#442D22;}
	.st22{fill-rule:evenodd;clip-rule:evenodd;fill:#FFFFFF;}
	.st23{fill-rule:evenodd;clip-rule:evenodd;fill:#A6A385;}
	.st24{fill-rule:evenodd;clip-rule:evenodd;fill:#499D4A;}
	.st25{fill-rule:evenodd;clip-rule:evenodd;fill:#58AA50;}
</style>
<g>
	<path class="st0" d="M463.94,0v34.26h28.51V40h22.77v-5.74h51.29V0H463.94z"/>
	<path class="st1" d="M480.97,5.74h-11.29v22.77h11.29V11.49h5.74v17.03h5.74V5.74H480.97z M498.19,5.74v28.51h11.49v-5.74h11.29
		V5.74H498.19z M515.22,22.77h-5.54V11.49h5.54V22.77z M538,5.74h-11.29v22.77H538V11.49h5.74v17.03h5.74V11.49h5.74v17.03h5.74
		V5.74H538z"/>
</g>
<g>
	<path class="st2" d="M774.6,2.96L781.99,3c0,0-13.74,18.62-14.86,20.14c-0.36,0.49-0.92,1.02-1.2,1.68
		c-0.71,1.65-1.44,5.27-1.44,5.27l-6.76,0.03c0,0,1.05-3.78,1.01-5.79c-0.04-1.76-0.93-3.51-1.44-5.27c-0.51-1.78-1.2-5.27-1.2-5.27
		h6.95l0.96,3.84L774.6,2.96"/>
	<path class="st2" d="M760.6,6.88c1.36,0.82,2.2,5.36,2.2,5.36s-7.14,0.11-11.02,0.11h-3.36l-4.08,17.74h-6.23
		c0,0,3.88-19.28,4.79-22.77c0.3-1.13,2.03-0.94,4.96-0.94h4.68C755.58,6.37,759.12,5.99,760.6,6.88 M731.59,15.52
		c0,0,0.19-1.14-0.66-2.46c-0.73-1.12-1.4-1.39-3.32-1.45c-5.42-0.17-5.31,3.84-5.31,3.84L731.59,15.52z M737.46,10.93
		c0.79,2.86-0.72,9.59-0.72,9.59s-7.9-0.13-12.23,0c-1.35,0.04-2.96-0.15-3.36,0.48c-0.56,0.88,0.21,2.23,0.86,2.8
		c0.75,0.66,2.21,0.73,2.74,0.8c3.51,0.45,10.86,0.12,10.86,0.12l-1.27,5.64c0,0-10.39,0.52-15.58-0.72
		c-1.03-0.24-1.99-0.74-2.64-1.44c-0.18-0.19-0.33-0.45-0.5-0.68c-0.13-0.18-0.52-0.77-0.7-1.24c-1.19-3.16,0.14-9.22,1.44-12.46
		c0.15-0.38,0.34-0.85,0.54-1.26c0.25-0.51,0.46-1.08,0.66-1.38c0.13-0.21,0.3-0.34,0.44-0.54c0.16-0.23,0.35-0.46,0.52-0.66
		c0.48-0.56,1.02-0.95,1.68-1.44c2.16-1.62,6.08-2.88,10.79-2.4c1.77,0.18,4.45,0.81,5.75,2.64
		C737.09,9.26,737.26,10.22,737.46,10.93L737.46,10.93z M708.87,6.35l6.04-0.04c0,0-3.37,15.98-5.08,23.77h-6.95
		c-4.86,0-9.19,0.6-11.03-2.88c-1.79-3.38-0.08-8.93,0.72-12.71c0.57-2.67,1.76-8.13,1.76-8.13l6.26-0.06c0,0-1.77,8.5-2.51,12.74
		c-0.26,1.52-0.81,2.95-0.24,4.07c0.54,1.07,1.29,1.15,3.6,1.2c0.73,0.02,3.12,0,3.12,0L708.87,6.35 M680.59,17.86
		c0.63-2.25,1.56-4.69,1.44-6.71c-0.13-2.17-1.94-4.14-3.12-4.55c-3.53-1.25-6.84,0.5-8.15,1.92c-1.7,1.84-2.28,3.99-2.88,6.95
		c-0.45,2.2-0.81,4.52,0,6.23c1.44,3.03,5.94,2.37,10.79,2.4C679.39,22.16,679.98,20,680.59,17.86L680.59,17.86z M688.98,8.99
		c0.69,5.02-1.96,10.56-3.78,15.38c1.86,0.17,3.49-0.03,3.61,0.11c0.12,0.18-1.25,5.75-1.72,5.77c-1.48,0.04-6.37,0.08-8.41,0.08
		c-6.66,0-12.88,0.43-16.06-2.88c-1.29-1.34-2.18-3.65-2.4-5.27c-0.36-2.71,0.09-5.69,0.72-8.15c0.57-2.22,1.3-4.32,2.4-6.23
		c2.8-4.88,7.66-8.51,15.82-7.67c1.58,0.16,3.85,0.86,5.27,1.68c0.1,0.06,0.44,0.33,0.52,0.38C686.86,3.4,688.61,6.31,688.98,8.99
		L688.98,8.99z M659.52,6.38c-0.4,1.83-0.81,3.91-1.23,5.72h-6.71c0.52-2.01,0.92-4.01,1.44-5.75
		C655.17,6.35,657.16,6.38,659.52,6.38 M651.34,13.78h6.47c-0.85,4.68-2.52,12.24-3.84,17.5c-0.82,3.29-1.37,5.69-3.6,7.43
		c-0.2,0.16-0.31,0.08-0.48,0.24c-0.41,0.39-2.31,0.84-3.36,0.96c-1.71,0.18-3.64,0.02-5.73-0.02c0.55-2.01,1.17-4.42,1.66-6.21
		c5.11,0.62,5.24-4.21,6.23-8.87C649.28,22.12,651.01,14.86,651.34,13.78"/>
	<g>
		<path class="st3" d="M636.24,26.01l-0.14,0.36c-2.36,4.6-6.55,7.43-12.53,7.55c-2.79,0.06-5.45-0.66-7.19-1.44
			c-3.75-1.69-6.91-4.81-8.63-8.15c-2.47-4.79-2.92-11.45,2.22-16.42c0.08,0-0.62,1.08-0.54,1.08l-0.14,0.46
			c-3.7,11.59,7.71,21.53,18.8,20.39C630.76,29.57,634.15,28.11,636.24,26.01"/>
		<path class="st3" d="M629.53,21.22c2.79,0.02,5.71-1.29,7.43-3.12c-1.51,3.83-5.88,6.3-11.75,5.51
			c-4.91-0.66-9.59-5.6-10.07-10.55c-0.35-3.6,0.9-5.75,2.97-8.36c-0.72,1.36-0.99,2.42-1.05,3.09
			C616.28,15.58,623.29,21.17,629.53,21.22"/>
		<path class="st3" d="M636.68,11.54c-0.43,1-2.93,2.87-4.03,3.11c-4.37,0.93-7.16-1.14-8.63-3.5c-0.22-0.35-0.62-1.31-0.69-1.56
			c-0.57-1.93-0.31-4.85,1.39-6.37c-0.51,1.44-0.59,3.11-0.32,4.2c0.16,0.66,0.66,1.8,1.16,2.52c0.9,1.31,1.48,1.63,2.64,2.33
			c0.52,0.31,1.08,0.57,1.33,0.63C630.61,13.23,632.93,14.08,636.68,11.54"/>
	</g>
</g>
<g>
	<path class="st4" d="M850.97,40h-24.63c-2.11,0-3.82-1.71-3.82-3.81V3.81c0-2.11,1.71-3.81,3.81-3.81h24.63
		c2.11,0,3.82,1.71,3.82,3.81v32.37C854.79,38.29,853.08,40,850.97,40L850.97,40z"/>
	<path class="st1" d="M843.06,34.42l-0.35-15.88c0,0,0.95-3.82-12.69,1.83c-0.02,0.07-0.35-14.69-0.35-14.69l4.49-0.13l0.21,9.45
		c0,0,12.48-5.23,12.67,3.48l0.35,15.83L843.06,34.42L843.06,34.42z M845.11,11.04l-4.77,0.1c1.67-2.14,3.15-5.76,3.15-5.76
		l4.93-0.11C848.42,5.28,847.63,7.64,845.11,11.04L845.11,11.04z M830.39,34.67l-0.2-9.04l4.62,4.42L830.39,34.67L830.39,34.67z"/>
</g>
<g>
	<path class="st5" d="M32.31,40c-0.22,0-0.43-0.06-0.62-0.16l-1.96-1.17c-0.3-0.16-0.15-0.22-0.06-0.25c0.4-0.13,0.47-0.16,0.89-0.4
		c0.04-0.03,0.1-0.01,0.15,0.01l1.51,0.9c0.06,0.03,0.13,0.03,0.18,0l5.89-3.41c0.06-0.03,0.09-0.09,0.09-0.16v-6.81
		c0-0.07-0.03-0.13-0.09-0.16L32.38,25c-0.06-0.03-0.13-0.03-0.18,0l-5.89,3.4c-0.06,0.03-0.09,0.1-0.09,0.16v6.81
		c0,0.06,0.03,0.13,0.09,0.16l1.61,0.93c0.87,0.44,1.42-0.07,1.42-0.59v-6.72c0-0.09,0.07-0.18,0.18-0.18h0.75
		c0.09,0,0.18,0.07,0.18,0.18v6.72c0,1.17-0.63,1.85-1.74,1.85c-0.34,0-0.61,0-1.36-0.37l-1.55-0.89c-0.38-0.22-0.62-0.63-0.62-1.08
		v-6.81c0-0.44,0.24-0.86,0.62-1.08l5.89-3.41c0.37-0.21,0.87-0.21,1.24,0l5.89,3.41c0.38,0.22,0.62,0.63,0.62,1.08v6.81
		c0,0.44-0.24,0.86-0.62,1.08l-5.89,3.41C32.74,39.96,32.51,40,32.31,40L32.31,40z M34.12,35.32c-2.58,0-3.12-1.18-3.12-2.19
		c0-0.09,0.07-0.18,0.18-0.18h0.77c0.09,0,0.16,0.06,0.16,0.15c0.12,0.78,0.46,1.17,2.02,1.17c1.24,0,1.77-0.28,1.77-0.95
		c0-0.38-0.15-0.66-2.08-0.86c-1.61-0.16-2.61-0.52-2.61-1.8c0-1.2,1-1.9,2.69-1.9c1.89,0,2.82,0.65,2.94,2.07
		c0,0.04-0.01,0.09-0.04,0.13c-0.03,0.03-0.07,0.06-0.12,0.06h-0.77c-0.07,0-0.15-0.06-0.16-0.13c-0.18-0.81-0.63-1.08-1.85-1.08
		c-1.36,0-1.52,0.47-1.52,0.83c0,0.43,0.19,0.56,2.02,0.8c1.82,0.24,2.67,0.58,2.67,1.85C37.06,34.58,36,35.32,34.12,35.32z"/>
	<path class="st6" d="M14.03,13.38c0-0.27-0.15-0.52-0.38-0.65l-6.26-3.6c-0.1-0.06-0.22-0.09-0.34-0.1H6.98
		c-0.12,0-0.24,0.04-0.34,0.1l-6.26,3.6C0.15,12.86,0,13.11,0,13.38l0.01,9.69c0,0.13,0.07,0.27,0.19,0.32
		c0.12,0.07,0.27,0.07,0.37,0l3.72-2.13c0.24-0.13,0.38-0.38,0.38-0.65v-4.53c0-0.27,0.15-0.52,0.38-0.65l1.58-0.92
		c0.12-0.07,0.25-0.1,0.38-0.1c0.13,0,0.27,0.03,0.37,0.1l1.58,0.92c0.24,0.13,0.38,0.38,0.38,0.65v4.53c0,0.27,0.15,0.52,0.38,0.65
		l3.72,2.13c0.12,0.07,0.27,0.07,0.38,0c0.12-0.06,0.19-0.19,0.19-0.32L14.03,13.38L14.03,13.38z M44.12,0.04
		c-0.12-0.06-0.27-0.06-0.37,0c-0.12,0.07-0.19,0.19-0.19,0.32v9.6c0,0.09-0.04,0.18-0.13,0.24c-0.09,0.04-0.18,0.04-0.27,0
		l-1.57-0.9c-0.23-0.13-0.52-0.13-0.75,0l-6.26,3.62c-0.24,0.13-0.38,0.38-0.38,0.65v7.22c0,0.27,0.15,0.52,0.38,0.65l6.26,3.62
		c0.23,0.13,0.52,0.13,0.75,0l6.26-3.62c0.24-0.13,0.38-0.38,0.38-0.65v-18c0-0.28-0.15-0.53-0.38-0.66L44.12,0.04L44.12,0.04z
		 M43.54,18.41c0,0.07-0.03,0.13-0.09,0.16l-2.14,1.24c-0.06,0.03-0.13,0.03-0.19,0l-2.14-1.24c-0.06-0.03-0.09-0.1-0.09-0.16v-2.48
		c0-0.07,0.03-0.13,0.09-0.16l2.14-1.24c0.06-0.03,0.13-0.03,0.19,0l2.14,1.24c0.06,0.03,0.09,0.1,0.09,0.16V18.41L43.54,18.41z
		 M64.95,15.87c0.24-0.13,0.37-0.38,0.37-0.65v-1.76c0-0.27-0.15-0.52-0.37-0.65l-6.22-3.6c-0.23-0.13-0.52-0.13-0.75,0l-6.26,3.62
		c-0.24,0.13-0.38,0.38-0.38,0.65v7.22c0,0.27,0.15,0.52,0.38,0.65l6.22,3.54c0.24,0.13,0.52,0.13,0.74,0l3.77-2.1
		c0.12-0.06,0.19-0.19,0.19-0.32s-0.07-0.27-0.19-0.32l-6.29-3.62c-0.12-0.07-0.19-0.19-0.19-0.32v-2.26c0-0.13,0.07-0.27,0.19-0.32
		l1.96-1.12c0.12-0.07,0.27-0.07,0.38,0l1.96,1.12c0.12,0.07,0.19,0.19,0.19,0.32v1.77c0,0.13,0.07,0.27,0.19,0.32
		c0.12,0.07,0.27,0.07,0.38,0L64.95,15.87L64.95,15.87z"/>
	<path class="st5" d="M58.27,15.53c0.04-0.03,0.1-0.03,0.15,0l1.2,0.69c0.04,0.03,0.07,0.07,0.07,0.13v1.39
		c0,0.06-0.03,0.1-0.07,0.13l-1.2,0.69c-0.04,0.03-0.1,0.03-0.15,0l-1.2-0.69C57.02,17.85,57,17.81,57,17.75v-1.39
		c0-0.06,0.03-0.1,0.07-0.13L58.27,15.53z"/>
	<g transform="translate(134.068 70.501)">
		<g>
			
				<linearGradient id="SVGID_1_" gradientUnits="userSpaceOnUse" x1="-219.1221" y1="319.3575" x2="-219.1326" y2="319.3385" gradientTransform="matrix(532.1024 0 0 -606.2871 116487.9453 193563.7188)">
				<stop  offset="0" style="stop-color:#41873F"/>
				<stop  offset="0.3288" style="stop-color:#418B3D"/>
				<stop  offset="0.6352" style="stop-color:#419637"/>
				<stop  offset="0.9319" style="stop-color:#3FA92D"/>
				<stop  offset="1" style="stop-color:#3FAE2A"/>
			</linearGradient>
			<path class="st7" d="M-109.57-61.26c-0.23-0.13-0.52-0.13-0.75,0l-6.22,3.59c-0.24,0.13-0.37,0.38-0.37,0.65v7.19
				c0,0.27,0.15,0.52,0.37,0.65l6.22,3.59c0.23,0.13,0.52,0.13,0.75,0l6.22-3.59c0.24-0.13,0.37-0.38,0.37-0.65v-7.19
				c0-0.27-0.15-0.52-0.37-0.65L-109.57-61.26z"/>
		</g>
		<defs>
			<filter id="Adobe_OpacityMaskFilter" filterUnits="userSpaceOnUse" x="-116.97" y="-61.36" width="14.03" height="15.89">
				<feColorMatrix  type="matrix" values="1 0 0 0 0  0 1 0 0 0  0 0 1 0 0  0 0 0 1 0"/>
			</filter>
		</defs>
		<mask maskUnits="userSpaceOnUse" x="-116.97" y="-61.36" width="14.03" height="15.89" id="c_2_">
			<g class="st8">
				<path id="a_2_" class="st1" d="M-109.57-61.26c-0.23-0.13-0.52-0.13-0.75,0l-6.22,3.59c-0.24,0.13-0.37,0.38-0.37,0.65v7.19
					c0,0.27,0.15,0.52,0.37,0.65l6.22,3.59c0.23,0.13,0.52,0.13,0.75,0l6.22-3.59c0.24-0.13,0.37-0.38,0.37-0.65v-7.19
					c0-0.27-0.15-0.52-0.37-0.65L-109.57-61.26z"/>
			</g>
		</mask>
		<g class="st9">
			<path class="st10" d="M-110.34-61.26l-6.23,3.59c-0.24,0.13-0.4,0.38-0.4,0.65v7.19c0,0.18,0.07,0.34,0.19,0.47l7-11.99
				C-109.96-61.38-110.16-61.36-110.34-61.26L-110.34-61.26z M-109.73-45.52c0.06-0.01,0.12-0.04,0.18-0.07l6.23-3.59
				c0.24-0.13,0.38-0.38,0.38-0.65v-7.19c0-0.19-0.09-0.38-0.22-0.52L-109.73-45.52L-109.73-45.52z"/>
			
				<linearGradient id="SVGID_2_" gradientUnits="userSpaceOnUse" x1="-219.163" y1="319.3492" x2="-219.1327" y2="319.3684" gradientTransform="matrix(519.687 0 0 -606.0386 113785.2813 193485.3438)">
				<stop  offset="0.1376" style="stop-color:#41873F"/>
				<stop  offset="0.4032" style="stop-color:#54A044"/>
				<stop  offset="0.7136" style="stop-color:#66B848"/>
				<stop  offset="0.9081" style="stop-color:#6CC04A"/>
			</linearGradient>
			<path class="st11" d="M-103.34-57.67l-6.25-3.59c-0.06-0.03-0.13-0.06-0.19-0.07l-7,11.99c0.06,0.07,0.13,0.13,0.21,0.18
				l6.25,3.59c0.18,0.1,0.38,0.13,0.58,0.07l6.57-12.02C-103.22-57.58-103.28-57.63-103.34-57.67L-103.34-57.67z"/>
		</g>
		<defs>
			<filter id="Adobe_OpacityMaskFilter_1_" filterUnits="userSpaceOnUse" x="-116.97" y="-62.57" width="14.22" height="17.29">
				<feColorMatrix  type="matrix" values="1 0 0 0 0  0 1 0 0 0  0 0 1 0 0  0 0 0 1 0"/>
			</filter>
		</defs>
		<mask maskUnits="userSpaceOnUse" x="-116.97" y="-62.57" width="14.22" height="17.29" id="c_1_">
			<g class="st12">
				<path id="a_1_" class="st1" d="M-109.57-61.26c-0.23-0.13-0.52-0.13-0.75,0l-6.22,3.59c-0.24,0.13-0.37,0.38-0.37,0.65v7.19
					c0,0.27,0.15,0.52,0.37,0.65l6.22,3.59c0.23,0.13,0.52,0.13,0.75,0l6.22-3.59c0.24-0.13,0.37-0.38,0.37-0.65v-7.19
					c0-0.27-0.15-0.52-0.37-0.65L-109.57-61.26z"/>
			</g>
		</mask>
		<g class="st13">
			<path class="st10" d="M-102.94-49.83v-7.19c0-0.27-0.16-0.52-0.4-0.65l-6.25-3.59c-0.07-0.04-0.15-0.07-0.24-0.09l6.84,11.68
				C-102.96-49.71-102.94-49.77-102.94-49.83L-102.94-49.83z M-116.57-57.67c-0.24,0.13-0.4,0.38-0.4,0.65v7.19
				c0,0.27,0.18,0.52,0.4,0.65l6.25,3.59c0.15,0.09,0.31,0.12,0.49,0.09l-6.69-12.18L-116.57-57.67L-116.57-57.67z"/>
			
				<linearGradient id="SVGID_3_" gradientUnits="userSpaceOnUse" x1="-394.3436" y1="270.4198" x2="-391.7944" y2="270.4198" gradientTransform="matrix(4.5111 0 0 -1.6941 1663.1007 395.5715)">
				<stop  offset="0.0919" style="stop-color:#6CC04A"/>
				<stop  offset="0.2864" style="stop-color:#66B848"/>
				<stop  offset="0.5968" style="stop-color:#54A044"/>
				<stop  offset="0.8624" style="stop-color:#41873F"/>
			</linearGradient>
			<path class="st14" d="M-110.53-62.57l-0.09,0.04h0.12L-110.53-62.57z"/>
			
				<linearGradient id="SVGID_4_" gradientUnits="userSpaceOnUse" x1="-219.1936" y1="319.3488" x2="-219.1659" y2="319.3488" gradientTransform="matrix(519.1255 0 0 -606.527 113671.8594 193640.2344)">
				<stop  offset="0.0919" style="stop-color:#6CC04A"/>
				<stop  offset="0.2864" style="stop-color:#66B848"/>
				<stop  offset="0.5968" style="stop-color:#54A044"/>
				<stop  offset="0.8624" style="stop-color:#41873F"/>
			</linearGradient>
			<path class="st15" d="M-103.33-49.18c0.18-0.1,0.31-0.28,0.37-0.47l-6.85-11.69c-0.18-0.03-0.37-0.01-0.53,0.09l-6.2,3.57
				l6.69,12.2c0.1-0.02,0.19-0.05,0.28-0.09L-103.33-49.18L-103.33-49.18z"/>
			
				<linearGradient id="SVGID_5_" gradientUnits="userSpaceOnUse" x1="-858.7874" y1="422.7751" x2="-856.2381" y2="422.7751" gradientTransform="matrix(1.6941 0 0 -3.9497 1347.7814 1620.4993)">
				<stop  offset="0.0919" style="stop-color:#6CC04A"/>
				<stop  offset="0.2864" style="stop-color:#66B848"/>
				<stop  offset="0.5968" style="stop-color:#54A044"/>
				<stop  offset="0.8624" style="stop-color:#41873F"/>
			</linearGradient>
			<path class="st16" d="M-102.75-49.3l-0.04-0.07v0.1L-102.75-49.3L-102.75-49.3z"/>
			
				<linearGradient id="SVGID_6_" gradientUnits="userSpaceOnUse" x1="-221.1718" y1="321.7818" x2="-221.1183" y2="321.7818" gradientTransform="matrix(268.5875 0 0 -167.5852 59286.8398 53878.3867)">
				<stop  offset="0.0919" style="stop-color:#6CC04A"/>
				<stop  offset="0.2864" style="stop-color:#66B848"/>
				<stop  offset="0.5968" style="stop-color:#54A044"/>
				<stop  offset="0.8624" style="stop-color:#41873F"/>
			</linearGradient>
			<path class="st17" d="M-103.33-49.18l-6.23,3.59c-0.09,0.04-0.18,0.07-0.28,0.09l0.12,0.22l6.91-4v-0.09l-0.18-0.3
				C-103.02-49.46-103.15-49.28-103.33-49.18L-103.33-49.18z"/>
			
				<linearGradient id="SVGID_7_" gradientUnits="userSpaceOnUse" x1="-221.1105" y1="321.8501" x2="-221.1435" y2="321.7421" gradientTransform="matrix(268.5875 0 0 -167.5852 59286.8398 53878.3867)">
				<stop  offset="0" style="stop-color:#41873F"/>
				<stop  offset="0.3288" style="stop-color:#418B3D"/>
				<stop  offset="0.6352" style="stop-color:#419637"/>
				<stop  offset="0.9319" style="stop-color:#3FA92D"/>
				<stop  offset="1" style="stop-color:#3FAE2A"/>
			</linearGradient>
			<path class="st18" d="M-103.33-49.18l-6.23,3.59c-0.09,0.04-0.18,0.07-0.28,0.09l0.12,0.22l6.91-4v-0.09l-0.18-0.3
				C-103.02-49.46-103.15-49.28-103.33-49.18L-103.33-49.18z"/>
		</g>
	</g>
</g>
<path class="st19" d="M106.5,31.19V15.82h19.19v-0.9H106.5V0.9h20.4V0h-21.3v32.09h21.48v-0.9H106.5L106.5,31.19z M144.39,8.99
	l-7.95,10.47l-7.78-10.47h-1.17l8.4,11.15l-9.21,11.95h1.08l8.67-11.28l8.72,11.28h1.12l-9.26-11.96l8.45-11.15L144.39,8.99
	L144.39,8.99z M148.98,40V25.62h0.09c0.54,2.1,1.6,3.78,3.19,5.06c1.59,1.27,3.61,1.91,6.07,1.91c1.59,0,3-0.32,4.22-0.97
	c1.23-0.64,2.25-1.52,3.08-2.63c0.82-1.11,1.45-2.4,1.89-3.87c0.43-1.47,0.65-3.01,0.65-4.63c0-1.74-0.22-3.34-0.67-4.81
	c-0.45-1.47-1.1-2.74-1.95-3.82c-0.85-1.08-1.89-1.92-3.1-2.52c-1.21-0.6-2.58-0.9-4.11-0.9c-1.17,0-2.25,0.17-3.26,0.52
	c-1,0.34-1.89,0.83-2.67,1.46c-0.78,0.63-1.47,1.38-2.02,2.22c-0.57,0.85-1,1.79-1.3,2.81h-0.09V8.99h-0.9V40H148.98L148.98,40z
	 M158.32,31.73c-2.82,0-5.08-0.97-6.79-2.9s-2.56-4.71-2.56-8.34c0-1.5,0.21-2.92,0.63-4.27c0.42-1.35,1.03-2.53,1.82-3.55
	c0.79-1.02,1.78-1.83,2.94-2.43c1.17-0.6,2.49-0.9,3.96-0.9c1.5,0,2.81,0.3,3.93,0.9c1.12,0.6,2.05,1.42,2.79,2.45
	s1.29,2.22,1.66,3.55c0.37,1.33,0.56,2.75,0.56,4.25c0,1.35-0.17,2.69-0.52,4.02c-0.34,1.33-0.88,2.53-1.6,3.6
	c-0.72,1.06-1.64,1.93-2.76,2.61C161.27,31.39,159.91,31.73,158.32,31.73L158.32,31.73z M173.11,32.09V19.01
	c0-1.26,0.18-2.49,0.54-3.69c0.36-1.2,0.91-2.25,1.66-3.17c0.75-0.91,1.7-1.63,2.85-2.16c1.15-0.52,2.52-0.74,4.11-0.65v-0.9
	c-1.38-0.03-2.58,0.12-3.62,0.45c-1.03,0.33-1.93,0.78-2.67,1.35c-0.75,0.57-1.35,1.24-1.8,2c-0.45,0.76-0.78,1.59-0.99,2.45h-0.09
	V8.99h-0.9v23.1L173.11,32.09L173.11,32.09z M183.4,20.72h19.33c0.06-1.59-0.1-3.12-0.47-4.58c-0.37-1.47-0.97-2.77-1.8-3.91
	c-0.82-1.14-1.89-2.05-3.19-2.74c-1.3-0.69-2.85-1.03-4.65-1.03c-1.29,0-2.55,0.27-3.78,0.81c-1.23,0.54-2.31,1.33-3.24,2.36
	s-1.68,2.3-2.25,3.8c-0.57,1.5-0.85,3.21-0.85,5.12c0,1.71,0.19,3.3,0.58,4.79c0.39,1.48,0.99,2.77,1.8,3.87
	c0.81,1.09,1.85,1.94,3.12,2.54c1.27,0.6,2.81,0.88,4.61,0.85c2.64,0,4.85-0.74,6.65-2.22c1.8-1.48,2.86-3.57,3.19-6.27h-0.9
	c-0.39,2.55-1.39,4.46-2.99,5.73c-1.6,1.27-3.62,1.91-6.05,1.91c-1.65,0-3.04-0.28-4.18-0.85c-1.14-0.57-2.07-1.35-2.79-2.34
	c-0.72-0.99-1.25-2.15-1.6-3.48C183.62,23.72,183.43,22.28,183.4,20.72L183.4,20.72z M201.83,19.82H183.4
	c0.09-1.62,0.39-3.07,0.9-4.36c0.51-1.29,1.18-2.39,2-3.3c0.82-0.91,1.78-1.61,2.88-2.09c1.09-0.48,2.27-0.72,3.53-0.72
	c1.5,0,2.82,0.28,3.96,0.83c1.14,0.55,2.09,1.31,2.85,2.27c0.76,0.96,1.34,2.07,1.73,3.35C201.64,17.07,201.83,18.41,201.83,19.82
	L201.83,19.82z M221.38,15.82h0.9c0-2.58-0.75-4.45-2.25-5.62c-1.5-1.17-3.54-1.75-6.11-1.75c-1.44,0-2.65,0.18-3.64,0.54
	c-0.99,0.36-1.8,0.82-2.43,1.39c-0.63,0.57-1.08,1.2-1.35,1.89c-0.27,0.69-0.4,1.35-0.4,1.98c0,1.26,0.22,2.26,0.67,3.01
	c0.45,0.75,1.15,1.33,2.11,1.75c0.66,0.3,1.41,0.57,2.25,0.81c0.84,0.24,1.81,0.49,2.92,0.76c0.99,0.24,1.96,0.48,2.92,0.72
	c0.96,0.24,1.81,0.56,2.54,0.97c0.73,0.4,1.33,0.92,1.8,1.55c0.46,0.63,0.7,1.45,0.7,2.47c0,0.99-0.23,1.83-0.7,2.52
	c-0.46,0.69-1.07,1.26-1.78,1.69c-0.72,0.43-1.52,0.75-2.4,0.94c-0.88,0.19-1.75,0.29-2.58,0.29c-2.73,0-4.82-0.61-6.27-1.82
	c-1.45-1.21-2.18-3.12-2.18-5.73h-0.9c0,2.91,0.79,5.03,2.36,6.38c1.57,1.35,3.9,2.02,6.99,2.02c0.99,0,1.98-0.11,2.99-0.34
	c1-0.22,1.9-0.59,2.7-1.1c0.79-0.5,1.45-1.18,1.93-1.98c0.49-0.81,0.74-1.8,0.74-2.97c0-1.11-0.22-2.01-0.65-2.7
	c-0.43-0.69-1-1.26-1.71-1.71c-0.7-0.45-1.5-0.8-2.38-1.06c-0.89-0.26-1.78-0.5-2.67-0.74c-1.1-0.29-2.2-0.57-3.3-0.85
	c-0.94-0.24-1.82-0.52-2.63-0.85c-0.78-0.33-1.4-0.8-1.87-1.42c-0.46-0.61-0.7-1.49-0.7-2.63c0-0.21,0.06-0.58,0.18-1.12
	c0.12-0.54,0.4-1.09,0.85-1.64c0.45-0.55,1.14-1.05,2.07-1.48c0.93-0.43,2.2-0.65,3.82-0.65c1.11,0,2.12,0.12,3.03,0.36
	c0.91,0.24,1.7,0.62,2.36,1.15c0.66,0.52,1.17,1.19,1.53,2C221.2,13.66,221.38,14.65,221.38,15.82L221.38,15.82z M242.19,15.82h0.9
	c0-2.58-0.75-4.45-2.25-5.62c-1.5-1.17-3.54-1.75-6.11-1.75c-1.44,0-2.65,0.18-3.64,0.54c-0.99,0.36-1.8,0.82-2.43,1.39
	c-0.63,0.57-1.08,1.2-1.35,1.89c-0.27,0.69-0.4,1.35-0.4,1.98c0,1.26,0.22,2.26,0.67,3.01c0.45,0.75,1.15,1.33,2.11,1.75
	c0.66,0.3,1.41,0.57,2.25,0.81c0.84,0.24,1.81,0.49,2.92,0.76c0.99,0.24,1.96,0.48,2.92,0.72c0.96,0.24,1.81,0.56,2.54,0.97
	c0.73,0.4,1.33,0.92,1.8,1.55c0.46,0.63,0.7,1.45,0.7,2.47c0,0.99-0.23,1.83-0.7,2.52c-0.46,0.69-1.07,1.26-1.77,1.69
	c-0.72,0.43-1.52,0.75-2.4,0.94c-0.88,0.19-1.75,0.29-2.58,0.29c-2.73,0-4.82-0.61-6.27-1.82c-1.45-1.21-2.18-3.12-2.18-5.73h-0.9
	c0,2.91,0.79,5.03,2.36,6.38c1.57,1.35,3.9,2.02,6.99,2.02c0.99,0,1.99-0.11,2.99-0.34c1-0.22,1.9-0.59,2.7-1.1
	c0.79-0.5,1.45-1.18,1.93-1.98c0.49-0.81,0.74-1.8,0.74-2.97c0-1.11-0.22-2.01-0.65-2.7c-0.43-0.69-1-1.26-1.71-1.71
	c-0.7-0.45-1.5-0.8-2.38-1.06c-0.89-0.26-1.78-0.5-2.67-0.74c-1.1-0.29-2.2-0.57-3.3-0.85c-0.94-0.24-1.82-0.52-2.63-0.85
	c-0.78-0.33-1.4-0.8-1.87-1.42c-0.46-0.61-0.7-1.49-0.7-2.63c0-0.21,0.06-0.58,0.18-1.12c0.12-0.54,0.4-1.09,0.85-1.64
	c0.45-0.55,1.14-1.05,2.07-1.48c0.93-0.43,2.2-0.65,3.82-0.65c1.11,0,2.12,0.12,3.03,0.36c0.91,0.24,1.7,0.62,2.36,1.15
	c0.66,0.52,1.17,1.19,1.53,2C242.01,13.66,242.19,14.65,242.19,15.82L242.19,15.82z"/>
<g>
	<path class="st20" d="M415.64,16.54c-0.13,0.03-0.25,0.3-0.25,0.46c-0.03,1.01-0.05,3.7-0.05,5.52c0,0.05,0.08,0.15,0.15,0.15
		c0.38,0.03,1.29,0.05,2.08,0.05c1.09,0,1.72-0.15,2.08-0.3c0.91-0.46,1.34-1.44,1.34-2.53c0-2.46-1.72-3.39-4.28-3.39
		C416.53,16.47,416.03,16.47,415.64,16.54L415.64,16.54z M422.18,27.87c0-2.51-1.85-3.9-5.19-3.9c-0.15,0-1.22-0.03-1.47,0.03
		c-0.08,0.03-0.18,0.08-0.18,0.15c0,1.8-0.03,4.66,0.05,5.78c0.05,0.48,0.41,1.17,0.84,1.37c0.46,0.25,1.49,0.3,2.2,0.3
		C420.43,31.59,422.18,30.47,422.18,27.87L422.18,27.87z M410.48,15.15c0.25,0,1.01,0.08,2.96,0.08c1.85,0,3.32-0.05,5.12-0.05
		c2.2,0,5.24,0.79,5.24,4.08c0,1.62-1.14,2.91-2.63,3.55c-0.08,0.03-0.08,0.08,0,0.1c2.13,0.53,4,1.85,4,4.33
		c0,2.43-1.52,3.98-3.72,4.94c-1.34,0.58-3.01,0.79-4.71,0.79c-1.29,0-4.76-0.15-6.69-0.1c-0.2-0.08,0.18-0.99,0.35-1.14
		c0.46-0.03,0.81-0.05,1.29-0.2c0.68-0.18,0.76-0.38,0.86-1.42c0.05-0.89,0.05-4.03,0.05-6.26c0-3.07,0.03-5.14,0-6.16
		c-0.03-0.79-0.3-1.04-0.86-1.19c-0.43-0.08-1.14-0.18-1.72-0.25C409.89,16.11,410.32,15.25,410.48,15.15L410.48,15.15z
		 M395.86,30.91c0.61,0.48,1.8,0.68,2.86,0.68c1.37,0,2.74-0.25,4.05-1.44c1.34-1.22,2.28-3.09,2.28-6.08
		c0-2.86-1.09-5.19-3.32-6.56c-1.27-0.79-2.89-1.11-4.76-1.11c-0.56,0-1.09,0.03-1.42,0.18c-0.08,0.05-0.25,0.28-0.25,0.41
		c-0.05,0.51-0.05,4.41-0.05,6.69c0,2.36,0,5.65,0.05,6.03C395.3,30.07,395.48,30.65,395.86,30.91L395.86,30.91z M390.11,15.15
		c0.48,0,2.33,0.08,3.22,0.08c1.6,0,2.74-0.08,5.75-0.08c2.53,0,4.66,0.68,6.18,1.98c1.85,1.6,2.81,3.8,2.81,6.49
		c0,3.83-1.75,6.03-3.5,7.3c-1.75,1.29-4.03,2.05-7.27,2.05c-1.72,0-4.69-0.05-7.14-0.08h-0.03c-0.13-0.23,0.2-1.11,0.41-1.14
		c0.66-0.08,0.84-0.1,1.17-0.23c0.53-0.2,0.63-0.48,0.71-1.42c0.08-1.75,0.05-3.85,0.05-6.23c0-1.7,0.03-5.02-0.03-6.08
		c-0.08-0.89-0.46-1.11-1.22-1.27c-0.38-0.08-0.89-0.18-1.6-0.25C389.53,16.09,389.98,15.3,390.11,15.15L390.11,15.15z"/>
	<path class="st21" d="M359.46,31.89c-0.63-0.08-1.09-0.18-1.65-0.43c-0.08-0.05-0.2-0.3-0.2-0.41c-0.05-0.89-0.05-3.42-0.05-5.12
		c0-1.37-0.23-2.56-0.81-3.39c-0.68-0.96-1.67-1.52-2.94-1.52c-1.11,0-2.61,0.76-3.85,1.82c-0.03,0.03-0.23,0.2-0.2-0.08
		c0-0.28,0.05-0.84,0.08-1.22c0.03-0.35-0.18-0.53-0.18-0.53c-0.81,0.41-3.09,0.94-3.93,1.01c-0.61,0.13-0.76,0.71-0.13,0.91h0.03
		c0.68,0.2,1.14,0.43,1.49,0.66c0.25,0.2,0.23,0.48,0.23,0.71c0.03,1.9,0.03,4.81-0.05,6.41c-0.03,0.63-0.2,0.86-0.66,0.96
		l0.05-0.03c-0.35,0.08-0.63,0.15-1.06,0.2c-0.15,0.15-0.15,0.96,0,1.14c0.28,0,1.75-0.08,2.96-0.08c1.67,0,2.53,0.08,2.96,0.08
		c0.18-0.2,0.23-0.96,0.13-1.14c-0.48-0.03-0.84-0.08-1.17-0.18c-0.46-0.1-0.58-0.33-0.61-0.86c-0.05-1.34-0.05-4.18-0.05-6.11
		c0-0.53,0.15-0.79,0.3-0.94c0.58-0.51,1.52-0.86,2.36-0.86c0.81,0,1.34,0.25,1.75,0.58c0.56,0.46,0.73,1.11,0.81,1.6
		c0.13,1.09,0.08,3.24,0.08,5.12c0,1.01-0.08,1.27-0.46,1.39c-0.18,0.08-0.63,0.18-1.17,0.23c-0.18,0.18-0.13,0.96,0,1.14
		c0.73,0,1.6-0.08,2.86-0.08c1.57,0,2.58,0.08,2.99,0.08C359.51,32.83,359.56,32.1,359.46,31.89L359.46,31.89z M366.47,22.22
		c-1.34,0-2.18,1.04-2.18,2.66c0,1.65,0.73,3.55,2.81,3.55c0.35,0,1.01-0.15,1.32-0.51c0.48-0.46,0.81-1.37,0.81-2.33
		C369.24,23.48,368.2,22.22,366.47,22.22L366.47,22.22z M366.3,33.41c-0.51,0-0.86,0.15-1.09,0.28c-1.06,0.68-1.55,1.34-1.55,2.13
		c0,0.73,0.28,1.32,0.89,1.82c0.73,0.63,1.75,0.94,3.04,0.94c2.58,0,3.72-1.39,3.72-2.76c0-0.96-0.48-1.6-1.47-1.95
		C369.13,33.57,367.84,33.41,366.3,33.41L366.3,33.41z M366.47,40c-1.55,0-2.66-0.33-3.62-1.06c-0.94-0.71-1.34-1.77-1.34-2.51
		c0-0.2,0.05-0.76,0.51-1.27c0.28-0.3,0.89-0.89,2.33-1.87c0.05-0.03,0.08-0.05,0.08-0.1c0-0.05-0.05-0.1-0.1-0.13
		c-1.19-0.46-1.55-1.19-1.65-1.6v-0.05c-0.02-0.15-0.08-0.3,0.15-0.46c0.18-0.13,0.43-0.28,0.71-0.46c0.43-0.25,0.89-0.53,1.17-0.76
		c0.05-0.05,0.05-0.1,0.05-0.15c0-0.05-0.05-0.1-0.1-0.13c-1.77-0.58-2.66-1.9-2.66-3.88c0-1.29,0.58-2.46,1.62-3.19
		c0.71-0.56,2.48-1.24,3.65-1.24h0.08c1.19,0.03,1.85,0.28,2.79,0.61c0.51,0.18,0.99,0.25,1.65,0.25c0.99,0,1.42-0.3,1.77-0.66
		c0.03,0.05,0.08,0.18,0.1,0.51c0.03,0.33-0.08,0.81-0.33,1.17c-0.2,0.28-0.66,0.48-1.11,0.48h-0.13c-0.46-0.05-0.66-0.1-0.66-0.1
		l-0.1,0.05c-0.03,0.05,0,0.1,0.03,0.18l0.03,0.05c0.05,0.23,0.15,0.91,0.15,1.09c0,2.08-0.84,2.99-1.72,3.67
		c-0.86,0.63-1.85,1.04-2.96,1.14c-0.03,0-0.13,0-0.35,0.03c-0.13,0-0.3,0.03-0.33,0.03h-0.03c-0.2,0.05-0.71,0.3-0.71,0.73
		c0,0.38,0.23,0.84,1.32,0.91c0.23,0.03,0.46,0.03,0.71,0.05c1.44,0.1,3.24,0.23,4.08,0.51c1.17,0.43,1.9,1.47,1.9,2.71
		c0,1.87-1.34,3.62-3.57,4.71C368.75,39.75,367.67,40,366.47,40L366.47,40z M380.91,22.34c-0.53,0-1.01,0.13-1.37,0.38
		c-0.99,0.61-1.49,1.82-1.49,3.6c0,3.32,1.67,5.65,4.05,5.65c0.71,0,1.27-0.2,1.75-0.61c0.73-0.61,1.11-1.82,1.11-3.52
		C384.97,24.55,383.32,22.34,380.91,22.34L380.91,22.34z M381.37,33.19c-4.31,0-5.85-3.17-5.85-6.13c0-2.08,0.84-3.67,2.51-4.81
		c1.19-0.73,2.61-1.14,3.88-1.14c3.29,0,5.6,2.36,5.6,5.75c0,2.31-0.91,4.13-2.66,5.24C384,32.65,382.56,33.19,381.37,33.19
		L381.37,33.19L381.37,33.19z M336.23,22.34c-0.53,0-1.01,0.13-1.37,0.38c-0.99,0.61-1.49,1.82-1.49,3.6c0,3.32,1.67,5.65,4.05,5.65
		c0.71,0,1.27-0.2,1.75-0.61c0.73-0.61,1.11-1.82,1.11-3.52C340.28,24.55,338.66,22.34,336.23,22.34L336.23,22.34z M336.68,33.19
		c-4.31,0-5.85-3.17-5.85-6.13c0-2.08,0.84-3.67,2.51-4.81c1.19-0.73,2.61-1.14,3.88-1.14c3.29,0,5.6,2.36,5.6,5.75
		c0,2.31-0.91,4.13-2.66,5.24C339.34,32.65,337.9,33.19,336.68,33.19L336.68,33.19z M307.73,32.93c-0.05-0.08-0.1-0.3-0.08-0.58
		c0-0.2,0.05-0.33,0.08-0.38c0.53-0.08,0.81-0.15,1.11-0.23c0.51-0.13,0.71-0.41,0.73-1.04c0.08-1.52,0.08-4.41,0.05-6.41v-0.05
		c0-0.23,0-0.51-0.28-0.71c-0.41-0.25-0.89-0.48-1.52-0.66c-0.23-0.08-0.38-0.2-0.35-0.35c0-0.15,0.15-0.33,0.48-0.38
		c0.84-0.08,3.01-0.61,3.88-0.99c0.05,0.05,0.13,0.2,0.13,0.41l-0.03,0.28c-0.03,0.28-0.05,0.61-0.05,0.94c0,0.1,0.1,0.18,0.2,0.18
		c0.05,0,0.1-0.03,0.15-0.05c1.62-1.27,3.09-1.72,3.85-1.72c1.24,0,2.2,0.58,2.94,1.8c0.05,0.08,0.1,0.1,0.18,0.1
		c0.05,0,0.13-0.03,0.15-0.08c1.49-1.14,2.99-1.82,3.98-1.82c2.36,0,3.75,1.75,3.75,4.71c0,0.84,0,1.93-0.03,2.91
		c0,0.89-0.03,1.7-0.03,2.28c0,0.13,0.18,0.53,0.46,0.61c0.35,0.18,0.84,0.25,1.47,0.35h0.03c0.05,0.18-0.05,0.84-0.15,0.96
		c-0.15,0-0.38,0-0.63-0.03c-0.64-0.03-1.28-0.05-1.93-0.05c-1.57,0-2.38,0.03-3.17,0.08c-0.05-0.2-0.08-0.81,0-0.96
		c0.46-0.08,0.68-0.15,0.96-0.23c0.51-0.15,0.63-0.38,0.66-1.04c0-0.48,0.1-4.59-0.05-5.57c-0.15-1.01-0.91-2.2-2.58-2.2
		c-0.63,0-1.62,0.25-2.58,0.99c-0.05,0.05-0.1,0.18-0.1,0.25v0.03c0.1,0.53,0.1,1.14,0.1,2.08v1.65c0,1.14-0.03,2.2,0,3.01
		c0,0.56,0.33,0.68,0.61,0.79c0.15,0.02,0.25,0.05,0.38,0.08c0.23,0.05,0.46,0.1,0.81,0.18c0.05,0.1,0.05,0.43-0.03,0.71
		c-0.03,0.15-0.08,0.23-0.1,0.25c-0.86-0.03-1.75-0.05-3.04-0.05c-0.38,0-1.04,0.03-1.6,0.03c-0.46,0-0.89,0.03-1.14,0.03
		c-0.03-0.05-0.08-0.23-0.08-0.51c0-0.23,0.05-0.41,0.1-0.46c0.13-0.03,0.23-0.05,0.35-0.05c0.3-0.05,0.56-0.1,0.81-0.15
		c0.43-0.13,0.58-0.35,0.61-0.91c0.08-1.27,0.15-4.89-0.03-5.8c-0.3-1.47-1.14-2.2-2.48-2.2c-0.79,0-1.77,0.38-2.58,0.99
		c-0.13,0.1-0.23,0.35-0.23,0.58v1.49c0,1.82,0,4.1,0.03,5.09c0.03,0.3,0.13,0.66,0.71,0.79c0.13,0.03,0.33,0.08,0.58,0.1l0.46,0.08
		c0.05,0.15,0.03,0.76-0.08,0.96c-0.25,0-0.56-0.03-0.91-0.03c-0.53-0.03-1.22-0.05-1.98-0.05c-0.89,0-1.52,0.03-2.03,0.05
		C308.31,32.93,308.03,32.93,307.73,32.93L307.73,32.93z"/>
	<path class="st22" d="M294.4,39.01l-1.04-0.35c0,0,0.13-5.29-1.77-5.67c-1.27-1.47,0.2-62.32,4.76-0.2c0,0-1.57,0.79-1.85,2.13
		C294.2,36.23,294.4,39.01,294.4,39.01L294.4,39.01z"/>
	<path class="st23" d="M294.4,39.01l-1.04-0.35c0,0,0.13-5.29-1.77-5.67c-1.27-1.47,0.2-62.32,4.76-0.2c0,0-1.57,0.79-1.85,2.13
		C294.2,36.23,294.4,39.01,294.4,39.01L294.4,39.01z"/>
	<path class="st22" d="M294.96,33.89c0,0,9.09-5.98,6.97-18.42c-2.05-9.04-6.89-12.01-7.42-13.15c-0.58-0.81-1.14-2.23-1.14-2.23
		l0.38,25.15C293.75,25.28,292.96,32.96,294.96,33.89"/>
	<path class="st24" d="M294.96,33.89c0,0,9.09-5.98,6.97-18.42c-2.05-9.04-6.89-12.01-7.42-13.15c-0.58-0.81-1.14-2.23-1.14-2.23
		l0.38,25.15C293.75,25.28,292.96,32.96,294.96,33.89"/>
	<path class="st22" d="M292.83,34.22c0,0-8.54-5.83-8.03-16.09c0.48-10.26,6.51-15.3,7.68-16.21c0.76-0.81,0.79-1.11,0.84-1.93
		c0.53,1.14,0.43,17.05,0.51,18.92C294.05,26.14,293.42,32.86,292.83,34.22z"/>
	<path class="st25" d="M292.83,34.22c0,0-8.54-5.83-8.03-16.09c0.48-10.26,6.51-15.3,7.68-16.21c0.76-0.81,0.79-1.11,0.84-1.93
		c0.53,1.14,0.43,17.05,0.51,18.92C294.05,26.14,293.42,32.86,292.83,34.22z"/>
</g>
</svg>
