<?xml version="1.0" encoding="utf-8"?>
<!-- Generator: Adobe Illustrator 24.3.0, SVG Export Plug-In . SVG Version: 6.00 Build 0)  -->
<svg version="1.1" id="Layer_1" xmlns="http://www.w3.org/2000/svg" xmlns:xlink="http://www.w3.org/1999/xlink" x="0px" y="0px"
	 viewBox="0 0 930.8 40" style="enable-background:new 0 0 930.8 40;" xml:space="preserve">
<style type="text/css">
	.st0{fill:#83CD29;}
	.st1{fill:#404137;}
	.st2{fill:#CB3837;}
	.st3{fill:#FFFFFF;}
	.st4{fill-rule:evenodd;clip-rule:evenodd;fill:#1A1918;}
	.st5{fill-rule:evenodd;clip-rule:evenodd;fill:#21609B;}
	.st6{fill:#6762A6;}
	.st7{fill:#222222;}
	.st8{fill-rule:evenodd;clip-rule:evenodd;fill:#8E714E;}
	.st9{fill-rule:evenodd;clip-rule:evenodd;fill:#442D22;}
	.st10{fill-rule:evenodd;clip-rule:evenodd;fill:#FFFFFF;}
	.st11{fill-rule:evenodd;clip-rule:evenodd;fill:#A6A385;}
	.st12{fill-rule:evenodd;clip-rule:evenodd;fill:#499D4A;}
	.st13{fill-rule:evenodd;clip-rule:evenodd;fill:#58AA50;}
</style>
<symbol  id="A_3" viewBox="-55.7 -15.7 111.4 31.5">
	<g>
		<path class="st0" d="M46.8-4.6c-0.3,0-0.5,0.1-0.8,0.2l-7.4,4.3c-0.5,0.3-0.8,0.8-0.8,1.4v8.5c0,0.6,0.3,1.1,0.8,1.3l1.9,1.1
			c0.9,0.5,1.3,0.5,1.7,0.5c1.4,0,2.2-0.8,2.2-2.3V2c0-0.1-0.1-0.2-0.2-0.2h-0.9c-0.1,0-0.2,0.1-0.2,0.2v8.4c0,0.6-0.7,1.3-1.8,0.8
			l-2-1.2c-0.1,0-0.1-0.1-0.1-0.2V1.2c0-0.1,0.1-0.2,0.1-0.2l7.4-4.2c0.1,0,0.2,0,0.2,0L54.3,1c0.1,0,0.1,0.1,0.1,0.2v8.5
			c0,0.1,0,0.2-0.1,0.2l-7.4,4.2c-0.1,0-0.2,0-0.2,0l-1.9-1.1c-0.1,0-0.1,0-0.2,0c-0.5,0.3-0.6,0.3-1.1,0.5c-0.1,0-0.3,0.1,0.1,0.3
			l2.5,1.5c0.2,0.1,0.5,0.2,0.8,0.2s0.5-0.1,0.8-0.2l7.4-4.2c0.5-0.3,0.8-0.8,0.8-1.3V1.2c0-0.6-0.3-1.1-0.8-1.4l-7.4-4.3
			C47.3-4.5,47.1-4.6,46.8-4.6L46.8-4.6z M48.7,1.5c-2.1,0-3.4,0.9-3.4,2.4c0,1.6,1.2,2.1,3.3,2.3c2.4,0.2,2.6,0.6,2.6,1.1
			c0,0.8-0.7,1.2-2.2,1.2c-2,0-2.4-0.5-2.5-1.5c0-0.1-0.1-0.2-0.2-0.2h-1c-0.1,0-0.2,0.1-0.2,0.2c0,1.2,0.7,2.7,3.9,2.7
			c2.3,0,3.7-0.9,3.7-2.5c0-1.6-1.1-2-3.4-2.3c-2.3-0.3-2.5-0.5-2.5-1c0-0.4,0.2-1,1.9-1c1.5,0,2.1,0.3,2.3,1.4
			c0,0.1,0.1,0.2,0.2,0.2h1c0.1,0,0.1,0,0.2-0.1s0.1-0.1,0.1-0.2C52.3,2.3,51.1,1.5,48.7,1.5L48.7,1.5z"/>
		<path class="st1" d="M3.3-15.7c-0.1,0-0.2,0-0.2,0.1c-0.1,0.1-0.2,0.2-0.2,0.4v12C2.9-3.1,2.8-3,2.7-3S2.5-2.9,2.4-3l-2-1.1
			c-0.3-0.2-0.6-0.2-0.9,0l-7.8,4.5c-0.3,0.2-0.5,0.5-0.5,0.8v9c0,0.3,0.2,0.6,0.5,0.8l7.8,4.5c0.3,0.2,0.6,0.2,0.9,0l7.8-4.5
			c0.3-0.2,0.5-0.5,0.5-0.8v-22.5c0-0.3-0.2-0.7-0.5-0.8l-4.7-2.6C3.5-15.7,3.4-15.7,3.3-15.7z M-47-4.5c-0.2,0-0.3,0-0.4,0.1
			l-7.8,4.5c-0.3,0.2-0.5,0.5-0.5,0.8l0,12.1c0,0.2,0.1,0.3,0.2,0.4c0.1,0.1,0.3,0.1,0.5,0l4.6-2.7c0.3-0.2,0.5-0.5,0.5-0.8V4.4
			c0-0.3,0.2-0.6,0.5-0.8l2-1.1c0.1-0.1,0.3-0.1,0.5-0.1c0.2,0,0.3,0,0.5,0.1l2,1.1C-44.2,3.7-44,4-44,4.4V10c0,0.3,0.2,0.6,0.5,0.8
			l4.6,2.7c0.1,0.1,0.3,0.1,0.5,0c0.1-0.1,0.2-0.2,0.2-0.4l0-12.1c0-0.3-0.2-0.6-0.5-0.8l-7.8-4.5C-46.6-4.4-46.7-4.4-47-4.5
			L-47-4.5L-47-4.5z M23.3-4.4c-0.2,0-0.3,0-0.5,0.1L15,0.3c-0.3,0.2-0.5,0.5-0.5,0.8v9c0,0.3,0.2,0.7,0.5,0.8l7.8,4.4
			c0.3,0.2,0.6,0.2,0.9,0l4.7-2.6c0.2-0.1,0.2-0.2,0.2-0.4S28.6,12,28.5,12l-7.9-4.5c-0.1-0.1-0.2-0.3-0.2-0.4V4.2
			c0-0.2,0.1-0.3,0.2-0.4L23,2.4c0.1-0.1,0.3-0.1,0.5,0l2.4,1.4c0.1,0.1,0.2,0.2,0.2,0.4v2.2c0,0.2,0.1,0.3,0.2,0.4
			c0.1,0.1,0.3,0.1,0.5,0l4.7-2.7C31.9,3.9,32,3.6,32,3.3V1.1c0-0.3-0.2-0.6-0.5-0.8l-7.8-4.5C23.7-4.3,23.5-4.4,23.3-4.4L23.3-4.4z
			 M-0.1,2.4c0,0,0.1,0,0.1,0L2.7,4c0.1,0,0.1,0.1,0.1,0.2v3.1c0,0.1-0.1,0.2-0.1,0.2L0.1,9c-0.1,0-0.2,0-0.2,0l-2.7-1.6
			C-2.9,7.4-3,7.4-3,7.3V4.2C-3,4.1-2.9,4-2.9,4l2.7-1.6C-0.1,2.4-0.1,2.4-0.1,2.4L-0.1,2.4z"/>
		<path class="st0" d="M-23.5-4.4c-0.2,0-0.3,0-0.5,0.1l-7.8,4.5c-0.3,0.2-0.5,0.5-0.5,0.8v9c0,0.3,0.2,0.6,0.5,0.8l7.8,4.5
			c0.3,0.2,0.6,0.2,0.9,0l7.8-4.5c0.3-0.2,0.5-0.5,0.5-0.8v-9c0-0.3-0.2-0.7-0.5-0.8L-23-4.3C-23.2-4.3-23.3-4.4-23.5-4.4L-23.5-4.4
			z M23.3,3.7C23.3,3.7,23.2,3.7,23.3,3.7l-1.6,0.9c-0.1,0-0.1,0.1-0.1,0.2v1.7c0,0.1,0,0.1,0.1,0.2l1.5,0.9c0.1,0,0.1,0,0.2,0
			l1.5-0.9c0.1,0,0.1-0.1,0.1-0.2V4.7c0-0.1,0-0.1-0.1-0.2L23.3,3.7C23.4,3.7,23.3,3.7,23.3,3.7z"/>
	</g>
</symbol>
<g>
	<path class="st2" d="M539.9,0v34.3h28.5V40h22.8v-5.7h51.3V0H539.9z"/>
	<path class="st3" d="M557,5.7h-11.3v22.8H557v-17h5.7v17h5.7V5.7H557z M574.2,5.7v28.5h11.5v-5.7H597V5.7H574.2z M591.2,22.8h-5.5
		V11.5h5.5V22.8z M614,5.7h-11.3v22.8H614v-17h5.7v17h5.7v-17h5.7v17h5.7V5.7H614z"/>
</g>
<g>
	<path class="st4" d="M850.6,3l7.4,0c0,0-13.7,18.6-14.9,20.1c-0.4,0.5-0.9,1-1.2,1.7c-0.7,1.6-1.4,5.3-1.4,5.3l-6.8,0
		c0,0,1-3.8,1-5.8c0-1.8-0.9-3.5-1.4-5.3c-0.5-1.8-1.2-5.3-1.2-5.3h7l1,3.8L850.6,3"/>
	<path class="st4" d="M836.6,6.9c1.4,0.8,2.2,5.4,2.2,5.4s-7.1,0.1-11,0.1h-3.4l-4.1,17.7h-6.2c0,0,3.9-19.3,4.8-22.8
		c0.3-1.1,2-0.9,5-0.9h4.7C831.6,6.4,835.1,6,836.6,6.9 M807.6,15.5c0,0,0.2-1.1-0.7-2.5c-0.7-1.1-1.4-1.4-3.3-1.4
		c-5.4-0.2-5.3,3.8-5.3,3.8L807.6,15.5z M813.4,10.9c0.8,2.9-0.7,9.6-0.7,9.6s-7.9-0.1-12.2,0c-1.3,0-3-0.1-3.4,0.5
		c-0.6,0.9,0.2,2.2,0.9,2.8c0.8,0.7,2.2,0.7,2.7,0.8c3.5,0.5,10.9,0.1,10.9,0.1l-1.3,5.6c0,0-10.4,0.5-15.6-0.7
		c-1-0.2-2-0.7-2.6-1.4c-0.2-0.2-0.3-0.5-0.5-0.7c-0.1-0.2-0.5-0.8-0.7-1.2c-1.2-3.2,0.1-9.2,1.4-12.5c0.2-0.4,0.3-0.9,0.5-1.3
		c0.2-0.5,0.5-1.1,0.7-1.4c0.1-0.2,0.3-0.3,0.4-0.5c0.2-0.2,0.3-0.5,0.5-0.7c0.5-0.6,1-0.9,1.7-1.4c2.2-1.6,6.1-2.9,10.8-2.4
		c1.8,0.2,4.5,0.8,5.8,2.6C813.1,9.3,813.2,10.2,813.4,10.9L813.4,10.9z M784.9,6.4l6,0c0,0-3.4,16-5.1,23.8h-7
		c-4.9,0-9.2,0.6-11-2.9c-1.8-3.4-0.1-8.9,0.7-12.7c0.6-2.7,1.8-8.1,1.8-8.1l6.3-0.1c0,0-1.8,8.5-2.5,12.7c-0.3,1.5-0.8,3-0.2,4.1
		c0.5,1.1,1.3,1.1,3.6,1.2c0.7,0,3.1,0,3.1,0L784.9,6.4 M756.6,17.9c0.6-2.2,1.6-4.7,1.4-6.7c-0.1-2.2-1.9-4.1-3.1-4.6
		c-3.5-1.2-6.8,0.5-8.2,1.9c-1.7,1.8-2.3,4-2.9,6.9c-0.5,2.2-0.8,4.5,0,6.2c1.4,3,5.9,2.4,10.8,2.4C755.4,22.2,756,20,756.6,17.9
		L756.6,17.9z M765,9c0.7,5-2,10.6-3.8,15.4c1.9,0.2,3.5,0,3.6,0.1c0.1,0.2-1.2,5.8-1.7,5.8c-1.5,0-6.4,0.1-8.4,0.1
		c-6.7,0-12.9,0.4-16.1-2.9c-1.3-1.3-2.2-3.6-2.4-5.3c-0.4-2.7,0.1-5.7,0.7-8.1c0.6-2.2,1.3-4.3,2.4-6.2c2.8-4.9,7.7-8.5,15.8-7.7
		c1.6,0.2,3.8,0.9,5.3,1.7c0.1,0.1,0.4,0.3,0.5,0.4C762.8,3.4,764.6,6.3,765,9L765,9z M735.5,6.4c-0.4,1.8-0.8,3.9-1.2,5.7h-6.7
		c0.5-2,0.9-4,1.4-5.8C731.2,6.4,733.1,6.4,735.5,6.4 M727.3,13.8h6.5c-0.8,4.7-2.5,12.2-3.8,17.5c-0.8,3.3-1.4,5.7-3.6,7.4
		c-0.2,0.2-0.3,0.1-0.5,0.2c-0.4,0.4-2.3,0.8-3.4,1c-1.7,0.2-3.6,0-5.7,0c0.5-2,1.2-4.4,1.7-6.2c5.1,0.6,5.2-4.2,6.2-8.9
		C725.3,22.1,727,14.9,727.3,13.8"/>
	<g>
		<path class="st5" d="M712.2,26l-0.1,0.4c-2.4,4.6-6.5,7.4-12.5,7.5c-2.8,0.1-5.5-0.7-7.2-1.4c-3.8-1.7-6.9-4.8-8.6-8.1
			c-2.5-4.8-2.9-11.4,2.2-16.4c0.1,0-0.6,1.1-0.5,1.1l-0.1,0.5C681.6,21,693,31,704.1,29.8C706.7,29.6,710.1,28.1,712.2,26"/>
		<path class="st5" d="M705.5,21.2c2.8,0,5.7-1.3,7.4-3.1c-1.5,3.8-5.9,6.3-11.8,5.5c-4.9-0.7-9.6-5.6-10.1-10.6
			c-0.3-3.6,0.9-5.8,3-8.4c-0.7,1.4-1,2.4-1,3.1C692.3,15.6,699.3,21.2,705.5,21.2"/>
		<path class="st5" d="M712.7,11.5c-0.4,1-2.9,2.9-4,3.1c-4.4,0.9-7.2-1.1-8.6-3.5c-0.2-0.4-0.6-1.3-0.7-1.6
			c-0.6-1.9-0.3-4.8,1.4-6.4c-0.5,1.4-0.6,3.1-0.3,4.2c0.2,0.7,0.7,1.8,1.2,2.5c0.9,1.3,1.5,1.6,2.6,2.3c0.5,0.3,1.1,0.6,1.3,0.6
			C706.6,13.2,708.9,14.1,712.7,11.5"/>
	</g>
</g>
<g>
	<path class="st6" d="M927,40h-24.6c-2.1,0-3.8-1.7-3.8-3.8V3.8c0-2.1,1.7-3.8,3.8-3.8h24.6c2.1,0,3.8,1.7,3.8,3.8v32.4
		C930.8,38.3,929.1,40,927,40L927,40z"/>
	<path class="st3" d="M919,34.4l-0.3-15.9c0,0,1-3.8-12.7,1.8c0,0.1-0.3-14.7-0.3-14.7l4.5-0.1l0.2,9.4c0,0,12.5-5.2,12.7,3.5
		l0.3,15.8L919,34.4L919,34.4z M921.1,11l-4.8,0.1c1.7-2.1,3.2-5.8,3.2-5.8l4.9-0.1C924.4,5.3,923.6,7.6,921.1,11L921.1,11z
		 M906.4,34.7l-0.2-9l4.6,4.4L906.4,34.7L906.4,34.7z"/>
</g>
<path class="st7" d="M182.5,31.2V15.8h19.2v-0.9h-19.2v-14h20.4V0h-21.3v32.1h21.5v-0.9H182.5L182.5,31.2z M220.4,9l-7.9,10.5
	L204.6,9h-1.2l8.4,11.2l-9.2,11.9h1.1l8.7-11.3l8.7,11.3h1.1l-9.3-12L221.4,9L220.4,9L220.4,9z M225,40V25.6h0.1
	c0.5,2.1,1.6,3.8,3.2,5.1c1.6,1.3,3.6,1.9,6.1,1.9c1.6,0,3-0.3,4.2-1c1.2-0.6,2.2-1.5,3.1-2.6c0.8-1.1,1.4-2.4,1.9-3.9
	c0.4-1.5,0.6-3,0.6-4.6c0-1.7-0.2-3.3-0.7-4.8s-1.1-2.7-1.9-3.8c-0.9-1.1-1.9-1.9-3.1-2.5s-2.6-0.9-4.1-0.9c-1.2,0-2.2,0.2-3.3,0.5
	c-1,0.3-1.9,0.8-2.7,1.5s-1.5,1.4-2,2.2c-0.6,0.9-1,1.8-1.3,2.8H225V9h-0.9v31H225L225,40z M234.3,31.7c-2.8,0-5.1-1-6.8-2.9
	s-2.6-4.7-2.6-8.3c0-1.5,0.2-2.9,0.6-4.3s1-2.5,1.8-3.6c0.8-1,1.8-1.8,2.9-2.4c1.2-0.6,2.5-0.9,4-0.9c1.5,0,2.8,0.3,3.9,0.9
	c1.1,0.6,2.1,1.4,2.8,2.4s1.3,2.2,1.7,3.5c0.4,1.3,0.6,2.8,0.6,4.2c0,1.4-0.2,2.7-0.5,4c-0.3,1.3-0.9,2.5-1.6,3.6
	c-0.7,1.1-1.6,1.9-2.8,2.6C237.3,31.4,235.9,31.7,234.3,31.7L234.3,31.7z M249.1,32.1V19c0-1.3,0.2-2.5,0.5-3.7s0.9-2.2,1.7-3.2
	c0.8-0.9,1.7-1.6,2.9-2.2c1.1-0.5,2.5-0.7,4.1-0.6V8.4c-1.4,0-2.6,0.1-3.6,0.4c-1,0.3-1.9,0.8-2.7,1.4c-0.8,0.6-1.4,1.2-1.8,2
	s-0.8,1.6-1,2.4h-0.1V9h-0.9v23.1H249.1L249.1,32.1z M259.4,20.7h19.3c0.1-1.6-0.1-3.1-0.5-4.6c-0.4-1.5-1-2.8-1.8-3.9
	c-0.8-1.1-1.9-2.1-3.2-2.7c-1.3-0.7-2.9-1-4.6-1c-1.3,0-2.5,0.3-3.8,0.8c-1.2,0.5-2.3,1.3-3.2,2.4c-0.9,1-1.7,2.3-2.2,3.8
	s-0.9,3.2-0.9,5.1c0,1.7,0.2,3.3,0.6,4.8c0.4,1.5,1,2.8,1.8,3.9c0.8,1.1,1.9,1.9,3.1,2.5c1.3,0.6,2.8,0.9,4.6,0.8
	c2.6,0,4.9-0.7,6.6-2.2c1.8-1.5,2.9-3.6,3.2-6.3h-0.9c-0.4,2.5-1.4,4.5-3,5.7c-1.6,1.3-3.6,1.9-6.1,1.9c-1.6,0-3-0.3-4.2-0.9
	c-1.1-0.6-2.1-1.4-2.8-2.3c-0.7-1-1.2-2.1-1.6-3.5C259.6,23.7,259.4,22.3,259.4,20.7L259.4,20.7z M277.8,19.8h-18.4
	c0.1-1.6,0.4-3.1,0.9-4.4c0.5-1.3,1.2-2.4,2-3.3s1.8-1.6,2.9-2.1c1.1-0.5,2.3-0.7,3.5-0.7c1.5,0,2.8,0.3,4,0.8
	c1.1,0.6,2.1,1.3,2.9,2.3c0.8,1,1.3,2.1,1.7,3.4C277.6,17.1,277.8,18.4,277.8,19.8L277.8,19.8z M297.4,15.8h0.9
	c0-2.6-0.8-4.4-2.2-5.6s-3.5-1.8-6.1-1.8c-1.4,0-2.6,0.2-3.6,0.5c-1,0.4-1.8,0.8-2.4,1.4c-0.6,0.6-1.1,1.2-1.4,1.9
	c-0.3,0.7-0.4,1.4-0.4,2c0,1.3,0.2,2.3,0.7,3c0.4,0.8,1.1,1.3,2.1,1.8c0.7,0.3,1.4,0.6,2.2,0.8s1.8,0.5,2.9,0.8c1,0.2,2,0.5,2.9,0.7
	c1,0.2,1.8,0.6,2.5,1c0.7,0.4,1.3,0.9,1.8,1.5c0.5,0.6,0.7,1.5,0.7,2.5c0,1-0.2,1.8-0.7,2.5c-0.5,0.7-1.1,1.3-1.8,1.7
	c-0.7,0.4-1.5,0.8-2.4,0.9s-1.8,0.3-2.6,0.3c-2.7,0-4.8-0.6-6.3-1.8c-1.4-1.2-2.2-3.1-2.2-5.7h-0.9c0,2.9,0.8,5,2.4,6.4s3.9,2,7,2
	c1,0,2-0.1,3-0.3c1-0.2,1.9-0.6,2.7-1.1c0.8-0.5,1.5-1.2,1.9-2c0.5-0.8,0.7-1.8,0.7-3c0-1.1-0.2-2-0.6-2.7s-1-1.3-1.7-1.7
	c-0.7-0.5-1.5-0.8-2.4-1.1c-0.9-0.3-1.8-0.5-2.7-0.7c-1.1-0.3-2.2-0.6-3.3-0.9c-0.9-0.2-1.8-0.5-2.6-0.9c-0.8-0.3-1.4-0.8-1.9-1.4
	c-0.5-0.6-0.7-1.5-0.7-2.6c0-0.2,0.1-0.6,0.2-1.1s0.4-1.1,0.9-1.6c0.4-0.6,1.1-1.1,2.1-1.5c0.9-0.4,2.2-0.6,3.8-0.6
	c1.1,0,2.1,0.1,3,0.4s1.7,0.6,2.4,1.1c0.7,0.5,1.2,1.2,1.5,2C297.2,13.7,297.4,14.7,297.4,15.8L297.4,15.8z M318.2,15.8h0.9
	c0-2.6-0.8-4.4-2.2-5.6s-3.5-1.8-6.1-1.8c-1.4,0-2.6,0.2-3.6,0.5c-1,0.4-1.8,0.8-2.4,1.4c-0.6,0.6-1.1,1.2-1.4,1.9
	c-0.3,0.7-0.4,1.4-0.4,2c0,1.3,0.2,2.3,0.7,3c0.4,0.8,1.1,1.3,2.1,1.8c0.7,0.3,1.4,0.6,2.2,0.8s1.8,0.5,2.9,0.8c1,0.2,2,0.5,2.9,0.7
	c1,0.2,1.8,0.6,2.5,1c0.7,0.4,1.3,0.9,1.8,1.5c0.5,0.6,0.7,1.5,0.7,2.5c0,1-0.2,1.8-0.7,2.5c-0.5,0.7-1.1,1.3-1.8,1.7
	c-0.7,0.4-1.5,0.8-2.4,0.9c-0.9,0.2-1.8,0.3-2.6,0.3c-2.7,0-4.8-0.6-6.3-1.8c-1.5-1.2-2.2-3.1-2.2-5.7H302c0,2.9,0.8,5,2.4,6.4
	s3.9,2,7,2c1,0,2-0.1,3-0.3c1-0.2,1.9-0.6,2.7-1.1c0.8-0.5,1.4-1.2,1.9-2c0.5-0.8,0.7-1.8,0.7-3c0-1.1-0.2-2-0.6-2.7s-1-1.3-1.7-1.7
	c-0.7-0.5-1.5-0.8-2.4-1.1c-0.9-0.3-1.8-0.5-2.7-0.7c-1.1-0.3-2.2-0.6-3.3-0.9c-0.9-0.2-1.8-0.5-2.6-0.9c-0.8-0.3-1.4-0.8-1.9-1.4
	c-0.5-0.6-0.7-1.5-0.7-2.6c0-0.2,0.1-0.6,0.2-1.1s0.4-1.1,0.9-1.6s1.1-1.1,2.1-1.5s2.2-0.6,3.8-0.6c1.1,0,2.1,0.1,3,0.4
	s1.7,0.6,2.4,1.1c0.7,0.5,1.2,1.2,1.5,2C318,13.7,318.2,14.7,318.2,15.8L318.2,15.8z"/>
<g>
	<path class="st8" d="M491.6,16.5c-0.1,0-0.2,0.3-0.2,0.5c0,1,0,3.7,0,5.5c0,0,0.1,0.1,0.1,0.1c0.4,0,1.3,0,2.1,0
		c1.1,0,1.7-0.1,2.1-0.3c0.9-0.5,1.3-1.4,1.3-2.5c0-2.5-1.7-3.4-4.3-3.4C492.5,16.5,492,16.5,491.6,16.5L491.6,16.5z M498.2,27.9
		c0-2.5-1.9-3.9-5.2-3.9c-0.1,0-1.2,0-1.5,0c-0.1,0-0.2,0.1-0.2,0.1c0,1.8,0,4.7,0,5.8c0,0.5,0.4,1.2,0.8,1.4
		c0.5,0.2,1.5,0.3,2.2,0.3C496.4,31.6,498.2,30.5,498.2,27.9L498.2,27.9z M486.5,15.2c0.2,0,1,0.1,3,0.1c1.9,0,3.3-0.1,5.1-0.1
		c2.2,0,5.2,0.8,5.2,4.1c0,1.6-1.1,2.9-2.6,3.5c-0.1,0-0.1,0.1,0,0.1c2.1,0.5,4,1.9,4,4.3c0,2.4-1.5,4-3.7,4.9
		c-1.3,0.6-3,0.8-4.7,0.8c-1.3,0-4.8-0.2-6.7-0.1c-0.2-0.1,0.2-1,0.4-1.1c0.5,0,0.8,0,1.3-0.2c0.7-0.2,0.8-0.4,0.9-1.4
		c0-0.9,0-4,0-6.3c0-3.1,0-5.1,0-6.2c0-0.8-0.3-1-0.9-1.2c-0.4-0.1-1.1-0.2-1.7-0.2C485.9,16.1,486.3,15.3,486.5,15.2L486.5,15.2z
		 M471.8,30.9c0.6,0.5,1.8,0.7,2.9,0.7c1.4,0,2.7-0.2,4-1.4c1.3-1.2,2.3-3.1,2.3-6.1c0-2.9-1.1-5.2-3.3-6.6
		c-1.3-0.8-2.9-1.1-4.8-1.1c-0.6,0-1.1,0-1.4,0.2c-0.1,0-0.2,0.3-0.2,0.4c0,0.5,0,4.4,0,6.7c0,2.4,0,5.6,0,6
		C471.3,30.1,471.5,30.7,471.8,30.9L471.8,30.9z M466.1,15.2c0.5,0,2.3,0.1,3.2,0.1c1.6,0,2.7-0.1,5.8-0.1c2.5,0,4.7,0.7,6.2,2
		c1.9,1.6,2.8,3.8,2.8,6.5c0,3.8-1.8,6-3.5,7.3c-1.8,1.3-4,2-7.3,2c-1.7,0-4.7,0-7.1-0.1h0c-0.1-0.2,0.2-1.1,0.4-1.1
		c0.7-0.1,0.8-0.1,1.2-0.2c0.5-0.2,0.6-0.5,0.7-1.4c0.1-1.8,0-3.9,0-6.2c0-1.7,0-5,0-6.1c-0.1-0.9-0.5-1.1-1.2-1.3
		c-0.4-0.1-0.9-0.2-1.6-0.2C465.5,16.1,466,15.3,466.1,15.2L466.1,15.2z"/>
	<path class="st9" d="M435.4,31.9c-0.6-0.1-1.1-0.2-1.6-0.4c-0.1,0-0.2-0.3-0.2-0.4c0-0.9,0-3.4,0-5.1c0-1.4-0.2-2.6-0.8-3.4
		c-0.7-1-1.7-1.5-2.9-1.5c-1.1,0-2.6,0.8-3.9,1.8c0,0-0.2,0.2-0.2-0.1c0-0.3,0-0.8,0.1-1.2c0-0.4-0.2-0.5-0.2-0.5
		c-0.8,0.4-3.1,0.9-3.9,1c-0.6,0.1-0.8,0.7-0.1,0.9h0c0.7,0.2,1.1,0.4,1.5,0.7c0.2,0.2,0.2,0.5,0.2,0.7c0,1.9,0,4.8,0,6.4
		c0,0.6-0.2,0.9-0.7,1l0,0c-0.4,0.1-0.6,0.1-1.1,0.2c-0.1,0.1-0.1,1,0,1.1c0.3,0,1.8-0.1,3-0.1c1.7,0,2.5,0.1,3,0.1
		c0.2-0.2,0.2-1,0.1-1.1c-0.5,0-0.8-0.1-1.2-0.2c-0.5-0.1-0.6-0.3-0.6-0.9c0-1.3,0-4.2,0-6.1c0-0.5,0.1-0.8,0.3-0.9
		c0.6-0.5,1.5-0.9,2.4-0.9c0.8,0,1.3,0.2,1.8,0.6c0.6,0.5,0.7,1.1,0.8,1.6c0.1,1.1,0.1,3.2,0.1,5.1c0,1-0.1,1.3-0.5,1.4
		c-0.2,0.1-0.6,0.2-1.2,0.2c-0.2,0.2-0.1,1,0,1.1c0.7,0,1.6-0.1,2.9-0.1c1.6,0,2.6,0.1,3,0.1C435.5,32.8,435.5,32.1,435.4,31.9
		L435.4,31.9z M442.5,22.2c-1.3,0-2.2,1-2.2,2.7c0,1.6,0.7,3.5,2.8,3.5c0.4,0,1-0.1,1.3-0.5c0.5-0.5,0.8-1.4,0.8-2.3
		C445.2,23.5,444.2,22.2,442.5,22.2L442.5,22.2z M442.3,33.4c-0.5,0-0.9,0.2-1.1,0.3c-1.1,0.7-1.5,1.3-1.5,2.1
		c0,0.7,0.3,1.3,0.9,1.8c0.7,0.6,1.8,0.9,3,0.9c2.6,0,3.7-1.4,3.7-2.8c0-1-0.5-1.6-1.5-2C445.1,33.6,443.8,33.4,442.3,33.4
		L442.3,33.4z M442.5,40c-1.5,0-2.7-0.3-3.6-1.1c-0.9-0.7-1.3-1.8-1.3-2.5c0-0.2,0-0.8,0.5-1.3c0.3-0.3,0.9-0.9,2.3-1.9
		c0,0,0.1,0,0.1-0.1s0-0.1-0.1-0.1c-1.2-0.5-1.5-1.2-1.6-1.6v0c0-0.1-0.1-0.3,0.1-0.5c0.2-0.1,0.4-0.3,0.7-0.5
		c0.4-0.2,0.9-0.5,1.2-0.8c0,0,0-0.1,0-0.1s0-0.1-0.1-0.1c-1.8-0.6-2.7-1.9-2.7-3.9c0-1.3,0.6-2.5,1.6-3.2c0.7-0.6,2.5-1.2,3.6-1.2
		h0.1c1.2,0,1.9,0.3,2.8,0.6c0.5,0.2,1,0.2,1.6,0.2c1,0,1.4-0.3,1.8-0.7c0,0,0.1,0.2,0.1,0.5c0,0.3-0.1,0.8-0.3,1.2
		c-0.2,0.3-0.7,0.5-1.1,0.5h-0.1c-0.5,0-0.7-0.1-0.7-0.1l-0.1,0c0,0,0,0.1,0,0.2l0,0c0,0.2,0.1,0.9,0.1,1.1c0,2.1-0.8,3-1.7,3.7
		c-0.9,0.6-1.9,1-3,1.1c0,0-0.1,0-0.4,0c-0.1,0-0.3,0-0.3,0h0c-0.2,0-0.7,0.3-0.7,0.7c0,0.4,0.2,0.8,1.3,0.9c0.2,0,0.5,0,0.7,0
		c1.4,0.1,3.2,0.2,4.1,0.5c1.2,0.4,1.9,1.5,1.9,2.7c0,1.9-1.3,3.6-3.6,4.7C444.7,39.8,443.7,40,442.5,40L442.5,40z M456.9,22.3
		c-0.5,0-1,0.1-1.4,0.4c-1,0.6-1.5,1.8-1.5,3.6c0,3.3,1.7,5.6,4,5.6c0.7,0,1.3-0.2,1.8-0.6c0.7-0.6,1.1-1.8,1.1-3.5
		C461,24.6,459.3,22.3,456.9,22.3L456.9,22.3z M457.4,33.2c-4.3,0-5.9-3.2-5.9-6.1c0-2.1,0.8-3.7,2.5-4.8c1.2-0.7,2.6-1.1,3.9-1.1
		c3.3,0,5.6,2.4,5.6,5.8c0,2.3-0.9,4.1-2.7,5.2C460,32.7,458.5,33.2,457.4,33.2L457.4,33.2L457.4,33.2z M412.2,22.3
		c-0.5,0-1,0.1-1.4,0.4c-1,0.6-1.5,1.8-1.5,3.6c0,3.3,1.7,5.6,4,5.6c0.7,0,1.3-0.2,1.8-0.6c0.7-0.6,1.1-1.8,1.1-3.5
		C416.3,24.6,414.6,22.3,412.2,22.3L412.2,22.3z M412.7,33.2c-4.3,0-5.9-3.2-5.9-6.1c0-2.1,0.8-3.7,2.5-4.8c1.2-0.7,2.6-1.1,3.9-1.1
		c3.3,0,5.6,2.4,5.6,5.8c0,2.3-0.9,4.1-2.7,5.2C415.3,32.7,413.9,33.2,412.7,33.2L412.7,33.2z M383.7,32.9c0-0.1-0.1-0.3-0.1-0.6
		c0-0.2,0-0.3,0.1-0.4c0.5-0.1,0.8-0.1,1.1-0.2c0.5-0.1,0.7-0.4,0.7-1c0.1-1.5,0.1-4.4,0-6.4v0c0-0.2,0-0.5-0.3-0.7
		c-0.4-0.2-0.9-0.5-1.5-0.7c-0.2-0.1-0.4-0.2-0.4-0.4c0-0.1,0.1-0.3,0.5-0.4c0.8-0.1,3-0.6,3.9-1c0,0,0.1,0.2,0.1,0.4l0,0.3
		c0,0.3,0,0.6,0,0.9c0,0.1,0.1,0.2,0.2,0.2c0,0,0.1,0,0.1,0c1.6-1.3,3.1-1.7,3.9-1.7c1.2,0,2.2,0.6,2.9,1.8c0,0.1,0.1,0.1,0.2,0.1
		c0,0,0.1,0,0.1-0.1c1.5-1.1,3-1.8,4-1.8c2.4,0,3.8,1.8,3.8,4.7c0,0.8,0,1.9,0,2.9c0,0.9,0,1.7,0,2.3c0,0.1,0.2,0.5,0.5,0.6
		c0.4,0.2,0.8,0.2,1.5,0.4h0c0,0.2,0,0.8-0.1,1c-0.1,0-0.4,0-0.6,0c-0.6,0-1.3,0-1.9,0c-1.6,0-2.4,0-3.2,0.1c0-0.2-0.1-0.8,0-1
		c0.5-0.1,0.7-0.1,1-0.2c0.5-0.1,0.6-0.4,0.7-1c0-0.5,0.1-4.6,0-5.6c-0.1-1-0.9-2.2-2.6-2.2c-0.6,0-1.6,0.2-2.6,1
		c0,0-0.1,0.2-0.1,0.2v0c0.1,0.5,0.1,1.1,0.1,2.1V28c0,1.1,0,2.2,0,3c0,0.6,0.3,0.7,0.6,0.8c0.1,0,0.2,0,0.4,0.1
		c0.2,0,0.5,0.1,0.8,0.2c0,0.1,0,0.4,0,0.7c0,0.2-0.1,0.2-0.1,0.2c-0.9,0-1.8,0-3,0c-0.4,0-1,0-1.6,0c-0.5,0-0.9,0-1.1,0
		c0,0-0.1-0.2-0.1-0.5c0-0.2,0-0.4,0.1-0.5c0.1,0,0.2,0,0.4,0c0.3,0,0.6-0.1,0.8-0.1c0.4-0.1,0.6-0.4,0.6-0.9c0.1-1.3,0.1-4.9,0-5.8
		c-0.3-1.5-1.1-2.2-2.5-2.2c-0.8,0-1.8,0.4-2.6,1c-0.1,0.1-0.2,0.4-0.2,0.6V26c0,1.8,0,4.1,0,5.1c0,0.3,0.1,0.7,0.7,0.8
		c0.1,0,0.3,0.1,0.6,0.1l0.5,0.1c0,0.2,0,0.8-0.1,1c-0.2,0-0.6,0-0.9,0c-0.5,0-1.2,0-2,0c-0.9,0-1.5,0-2,0
		C384.3,32.9,384,32.9,383.7,32.9L383.7,32.9z"/>
	<path class="st10" d="M370.4,39l-1-0.3c0,0,0.1-5.3-1.8-5.7c-1.3-1.5,0.2-62.3,4.8-0.2c0,0-1.6,0.8-1.9,2.1
		C370.2,36.2,370.4,39,370.4,39L370.4,39z"/>
	<path class="st11" d="M370.4,39l-1-0.3c0,0,0.1-5.3-1.8-5.7c-1.3-1.5,0.2-62.3,4.8-0.2c0,0-1.6,0.8-1.9,2.1
		C370.2,36.2,370.4,39,370.4,39L370.4,39z"/>
	<path class="st10" d="M370.9,33.9c0,0,9.1-6,7-18.4c-2-9-6.9-12-7.4-13.1c-0.6-0.8-1.1-2.2-1.1-2.2l0.4,25.1
		C369.7,25.3,368.9,33,370.9,33.9"/>
	<path class="st12" d="M370.9,33.9c0,0,9.1-6,7-18.4c-2-9-6.9-12-7.4-13.1c-0.6-0.8-1.1-2.2-1.1-2.2l0.4,25.1
		C369.7,25.3,368.9,33,370.9,33.9"/>
	<path class="st10" d="M368.8,34.2c0,0-8.5-5.8-8-16.1c0.5-10.3,6.5-15.3,7.7-16.2c0.8-0.8,0.8-1.1,0.8-1.9c0.5,1.1,0.4,17,0.5,18.9
		C370,26.1,369.4,32.9,368.8,34.2z"/>
	<path class="st13" d="M368.8,34.2c0,0-8.5-5.8-8-16.1c0.5-10.3,6.5-15.3,7.7-16.2c0.8-0.8,0.8-1.1,0.8-1.9c0.5,1.1,0.4,17,0.5,18.9
		C370,26.1,369.4,32.9,368.8,34.2z"/>
</g>
<use xlink:href="#A_3"  width="111.4" height="31.5" x="-55.7" y="-15.7" transform="matrix(1.2614 0 0 1.2614 70.2677 20.005)" style="overflow:visible;"/>
</svg>
